<?xml version="1.0" standalone="no"?>
<!DOCTYPE svg PUBLIC "-//W3C//DTD SVG 1.1//EN" "http://www.w3.org/Graphics/SVG/1.1/DTD/svg11.dtd" >
<svg>
<metadata>
Created by FontForge 20090622 at Tue Jun 21 19:28:55 2016
 By deploy user
(c) 2010 by Rodrigo Ramirez / www.frescotype.com
</metadata>
<defs>
<font id="gobCL-Bold" horiz-adv-x="467" >
  <font-face 
    font-family="gobCL"
    font-weight="700"
    font-stretch="normal"
    units-per-em="1000"
    panose-1="0 0 0 0 0 0 0 0 0 0"
    ascent="750"
    descent="-250"
    x-height="490"
    cap-height="675"
    bbox="-30 -399 1972.4 1017"
    underline-thickness="50"
    underline-position="-50"
    unicode-range="U+0020-U+FB06"
  />
<missing-glyph horiz-adv-x="433" 
 />
    <glyph glyph-name=".notdef" horiz-adv-x="433" 
 />
    <glyph glyph-name=".null" horiz-adv-x="0" 
 />
    <glyph glyph-name="nonmarkingreturn" horiz-adv-x="333" 
 />
    <glyph glyph-name="space" unicode=" " horiz-adv-x="220" 
 />
    <glyph glyph-name="exclam" unicode="!" horiz-adv-x="283" 
d="M207 454l-19 -236h-93l-19 236v236h131v-236zM76 0v139h128v-139h-128z" />
    <glyph glyph-name="quotedbl" unicode="&#x22;" horiz-adv-x="367" 
d="M165 690l-16 -307h-94l-13 307h123zM324 690l-15 -307h-94l-13 307h122z" />
    <glyph glyph-name="numbersign" unicode="#" horiz-adv-x="572" 
d="M482 181h-103l-22 -115h-80l22 115h-77l-21 -115h-80l22 115h-53v97h71q3 14 8 41t8 40h-87v96h105l25 129h80l-25 -129h76l25 129h80l-25 -129h51v-96h-69q-3 -14 -8 -41t-8 -40h85v-97zM256 359l-15 -81h76q3 13 8 40t8 41h-77z" />
    <glyph glyph-name="dollar" unicode="$" horiz-adv-x="492" 
d="M312 -10h-121q0 8 1 47t1 46q-70 6 -117 35l26 91q51 -34 116 -34q34 0 53.5 14.5t19.5 39.5q0 24 -21.5 40.5t-52.5 29t-61.5 29t-52 48.5t-21.5 79q0 45 27.5 79.5t82.5 47.5q0 9 -1.5 54t-1.5 53h122l-4 -99q60 -5 101 -22q-1 -6 -8.5 -47.5t-9.5 -47.5
q-55 25 -119 25q-32 0 -49.5 -12.5t-17.5 -32.5t22 -35t53 -27t62 -28t53 -47.5t22 -75.5q0 -51 -28 -89.5t-79 -55.5z" />
    <glyph glyph-name="percent" unicode="%" horiz-adv-x="961" 
d="M42 466q0 111 46.5 167t130.5 56q88 0 135.5 -56t47.5 -167t-48 -164.5t-135 -53.5q-84 0 -130.5 53.5t-46.5 164.5zM168 466q0 -134 51 -134q30 0 43.5 31t13.5 103q0 78 -13 108.5t-44 30.5q-27 0 -39 -31t-12 -108zM559 208q0 110 46.5 166.5t130.5 56.5
q88 0 135.5 -56t47.5 -167t-48 -164.5t-135 -53.5q-84 0 -130.5 53.5t-46.5 164.5zM685 208q0 -134 51 -134q30 0 43.5 31t13.5 103q0 78 -13 108.5t-44 30.5q-27 0 -39 -31t-12 -108zM623 713l-244 -758h-46l244 758h46z" />
    <glyph glyph-name="ampersand" unicode="&#x26;" horiz-adv-x="628" 
d="M445 546q0 -34 -10 -61.5t-31 -49.5t-40 -36.5t-50 -33.5l115 -148q26 52 44 132l116 -30q-23 -120 -83 -202l91 -117h-152l-28 35q-66 -45 -151 -45q-95 0 -163 52t-68 157q0 64 31 107.5t85 79.5l-8 12q-53 72 -53 141q0 71 52.5 111t128.5 40q78 0 126 -37.5
t48 -106.5zM276 96q41 0 74 27l-132 174q-49 -42 -49 -94q0 -51 30.5 -79t76.5 -28zM212 533q0 -37 30 -74l11 -15q38 22 58 42t20 46q0 64 -60 64q-26 0 -42.5 -17t-16.5 -46z" />
    <glyph glyph-name="quotesingle" unicode="'" horiz-adv-x="207" 
d="M165 690l-16 -307h-94l-13 307h123z" />
    <glyph glyph-name="parenleft" unicode="(" horiz-adv-x="312" 
d="M41 341q0 110 51.5 217.5t131.5 173.5l66 -68q-56 -52 -86 -140.5t-30 -182.5q0 -95 30.5 -183.5t86.5 -140.5l-67 -68q-80 66 -131.5 173.5t-51.5 218.5z" />
    <glyph glyph-name="parenright" unicode=")" horiz-adv-x="312" 
d="M271 341q0 -111 -51.5 -218.5t-132.5 -173.5l-66 68q56 52 86 140.5t30 183.5q0 94 -30 182.5t-86 140.5l66 68q81 -66 132.5 -173.5t51.5 -217.5z" />
    <glyph glyph-name="asterisk" unicode="*" horiz-adv-x="482" 
d="M441 504l-113 -36l70 -98l-87 -62l-70 97l-70 -97l-87 62l71 97l-114 37l33 101l114 -37v119h106v-119l115 37z" />
    <glyph glyph-name="plus" unicode="+" horiz-adv-x="494" 
d="M429 242h-139v-142h-93v142h-132v87h132v136h93v-136h139v-87z" />
    <glyph glyph-name="comma" unicode="," horiz-adv-x="226" 
d="M47 15v126h132v-149q0 -61 -33 -91t-99 -37v68q31 7 31 68z" />
    <glyph glyph-name="hyphen" unicode="-" horiz-adv-x="490" 
d="M420 228h-350v83h350v-83z" />
    <glyph glyph-name="period" unicode="." horiz-adv-x="219" 
d="M43 0v141h132v-141h-132z" />
    <glyph glyph-name="slash" unicode="/" horiz-adv-x="300" 
d="M295 713l-244 -758h-46l244 758h46z" />
    <glyph glyph-name="zero" unicode="0" horiz-adv-x="572" 
d="M284 -10q-57 0 -100 18t-70 48.5t-43.5 76.5t-22.5 96t-6 113q0 77 11.5 136.5t38 109t75 76t117.5 26.5q58 0 101.5 -18.5t70.5 -49.5t43.5 -77t23 -94.5t6.5 -108.5q0 -78 -11.5 -138.5t-38.5 -110.5t-76 -76.5t-119 -26.5zM284 95q61 0 85 61.5t24 185.5
q0 122 -25 182t-84 60t-82.5 -60t-23.5 -182q0 -124 23.5 -185.5t82.5 -61.5z" />
    <glyph glyph-name="one" unicode="1" horiz-adv-x="572" 
d="M510 0h-384v99h131v338q0 47 5 96q-25 -32 -72.5 -54.5t-90.5 -29.5l-16 103q132 33 203 128h101v-581h123v-99z" />
    <glyph glyph-name="two" unicode="2" horiz-adv-x="572" 
d="M240 583q-77 0 -143 -33l-37 97q95 43 201 43q108 0 177 -52.5t69 -142.5q0 -87 -64.5 -175.5t-232.5 -218.5q40 8 98 8h202v-109h-445v98q178 142 242.5 229.5t64.5 151.5q0 51 -35 77.5t-97 26.5z" />
    <glyph glyph-name="three" unicode="3" horiz-adv-x="572" 
d="M350 496q0 43 -30 65t-83 22q-75 0 -135 -32l-37 97q92 42 199 42q99 0 161 -47.5t62 -120.5q0 -67 -39 -111.5t-91 -56.5v-5q64 -7 108 -46t44 -109q0 -88 -72.5 -146t-172.5 -58q-104 0 -200 48l30 103q27 -16 72.5 -29.5t82.5 -13.5q55 0 90.5 27.5t35.5 78.5
q0 89 -130 89h-42v102h31q56 0 86 28.5t30 72.5z" />
    <glyph glyph-name="four" unicode="4" horiz-adv-x="572" 
d="M525 164h-78v-164h-130v164h-275v82l273 434h132v-409h78v-107zM158 271h159v249z" />
    <glyph glyph-name="five" unicode="5" horiz-adv-x="572" 
d="M512 243q0 -114 -76 -183.5t-176 -69.5q-110 0 -202 48l31 102q27 -15 72.5 -28.5t83.5 -13.5q60 0 95.5 35t35.5 101q0 59 -29.5 89t-81.5 30q-55 0 -100 -45l-97 29v343h389l-9 -107h-252v-103q0 -42 -9 -67q53 55 135 55q79 0 134.5 -56t55.5 -159z" />
    <glyph glyph-name="six" unicode="6" horiz-adv-x="572" 
d="M328 588q-129 0 -155 -205q52 77 160 77q86 0 139.5 -59.5t53.5 -159.5q0 -107 -65 -179t-173 -72q-111 0 -177 90.5t-66 273.5q0 159 79 247.5t195 88.5q84 0 158 -24l-22 -101q-57 23 -127 23zM291 358q-41 0 -72.5 -21.5t-42.5 -57.5q15 -187 112 -187q51 0 78 37.5
t27 102.5q0 60 -26.5 93t-75.5 33z" />
    <glyph glyph-name="seven" unicode="7" horiz-adv-x="572" 
d="M511 569l-283 -569h-148l294 569h-312v111h449v-111z" />
    <glyph glyph-name="eight" unicode="8" horiz-adv-x="572" 
d="M507 520q0 -91 -119 -150q63 -27 99 -66t36 -107q0 -88 -64.5 -147.5t-175.5 -59.5q-106 0 -170 55.5t-64 142.5q0 104 132 154q-55 28 -86 67.5t-31 104.5q0 84 63.5 130t155.5 46q94 0 159 -47t65 -123zM389 197q0 19 -8.5 35t-18 26t-33 22t-35.5 16.5l-43 16.5
q-70 -51 -70 -116q0 -53 31 -82t71 -29q44 0 75 28.5t31 82.5zM194 513q0 -24 9.5 -42t29.5 -32t38 -23t48 -20q57 50 57 113q0 39 -27 60.5t-66 21.5q-36 0 -62.5 -21t-26.5 -57z" />
    <glyph glyph-name="nine" unicode="9" horiz-adv-x="572" 
d="M258 228q-92 0 -152.5 60t-60.5 167t65 171t171 64q117 0 181.5 -81t64.5 -246q0 -188 -68.5 -280.5t-194.5 -92.5q-106 0 -194 43l30 106q76 -44 151 -44q137 0 147 194q-61 -61 -140 -61zM282 587q-51 0 -77.5 -34.5t-26.5 -93.5q0 -122 110 -122q57 0 114 43
q-2 102 -30 154.5t-90 52.5z" />
    <glyph glyph-name="colon" unicode=":" horiz-adv-x="226" 
d="M47 0v141h132v-141h-132zM47 348v142h132v-142h-132z" />
    <glyph glyph-name="semicolon" unicode=";" horiz-adv-x="226" 
d="M47 348v142h132v-142h-132zM47 15v126h132v-149q0 -61 -33 -91t-99 -37v68q31 7 31 68z" />
    <glyph glyph-name="less" unicode="&#x3c;" horiz-adv-x="400" 
d="M30 383l340 145v-142l-261 -97v-4l261 -95v-137l-340 139v191z" />
    <glyph glyph-name="equal" unicode="=" horiz-adv-x="489" 
d="M427 330h-365v96h365v-96zM427 150h-365v97h365v-97z" />
    <glyph glyph-name="greater" unicode="&#x3e;" horiz-adv-x="400" 
d="M30 528l340 -145v-191l-340 -139v137l260 95v4l-260 97v142z" />
    <glyph glyph-name="question" unicode="?" horiz-adv-x="443" 
d="M415 508q0 -45 -16.5 -81.5t-39.5 -61t-46 -46t-39.5 -47.5t-16.5 -54v-19h-119v29q0 40 15.5 71.5t37.5 51.5l44 39t37.5 45t15.5 57q0 47 -29 69.5t-74 22.5q-60 0 -123 -34l-35 100q85 40 181 40q89 0 148 -49.5t59 -132.5zM133 0v139h128v-139h-128z" />
    <glyph glyph-name="at" unicode="@" horiz-adv-x="1000" 
d="M520 -3l7 57q-55 -64 -131 -64q-58 0 -100 53t-42 159q0 121 67 199.5t158 78.5q73 0 114 -54l21 44h87l-53 -469q13 -4 27 -4q70 0 128 70.5t58 184.5q0 148 -95.5 241t-253.5 93q-159 0 -266 -107.5t-107 -266.5q0 -153 92 -263h-83q-81 124 -81 263q0 188 128.5 316.5
t316.5 128.5t304.5 -113.5t116.5 -291.5q0 -142 -85 -231t-190 -89q-48 0 -87 19.5t-51 45.5zM462 85q35 0 73 31l30 245q-23 21 -61 21q-46 0 -81.5 -46.5t-35.5 -134.5q0 -116 75 -116z" />
    <glyph glyph-name="A" unicode="A" horiz-adv-x="604" 
d="M177 152l-36 -152h-128l183 675h218l177 -675h-147l-35 152h-232zM316 560h-41l-74 -302h184z" />
    <glyph glyph-name="B" unicode="B" horiz-adv-x="569" 
d="M542 194q0 -91 -71.5 -147.5t-185.5 -56.5q-119 0 -219 37v648h204q109 0 172.5 -46t63.5 -128q0 -59 -30.5 -96t-78.5 -52v-5q64 -12 104.5 -53t40.5 -101zM368 488q0 80 -103 80h-68v-176h68q52 0 77.5 22.5t25.5 73.5zM404 200q0 95 -117 95h-90v-182q44 -16 88 -16
q52 0 85.5 26t33.5 77z" />
    <glyph glyph-name="C" unicode="C" horiz-adv-x="598" 
d="M568 62q-105 -72 -232 -72q-142 0 -217 91t-75 260q0 160 75.5 252t216.5 92q145 0 230 -57l-50 -106q-61 47 -166 47q-168 0 -168 -227q0 -236 166 -236q94 0 178 62z" />
    <glyph glyph-name="D" unicode="D" horiz-adv-x="662" 
d="M610 344q0 -169 -75.5 -261.5t-229.5 -92.5q-116 0 -240 36v649h225q156 0 238 -75.5t82 -255.5zM471 345q0 122 -42.5 173t-143.5 51h-89v-455q46 -14 116 -14q74 0 116.5 55t42.5 190z" />
    <glyph glyph-name="E" unicode="E" horiz-adv-x="522" 
d="M481 0h-415v675h415v-111h-284v-166h217l-10 -116h-207v-173h284v-109z" />
    <glyph glyph-name="F" unicode="F" horiz-adv-x="508" 
d="M481 564h-284v-185h217l-10 -116h-207v-263h-131v675h415v-111z" />
    <glyph glyph-name="G" unicode="G" horiz-adv-x="640" 
d="M592 345v-295q-133 -60 -244 -60q-148 0 -226 95t-78 259q0 158 79.5 249.5t233.5 91.5q130 0 222 -59l-55 -100q-63 43 -165 43q-89 0 -133 -59.5t-44 -163.5q0 -244 175 -244q69 0 114 21v125h-92l-8 97h221z" />
    <glyph glyph-name="H" unicode="H" horiz-adv-x="647" 
d="M581 0h-133v280h-250v-280h-132v675h132v-276h250v276h133v-675z" />
    <glyph glyph-name="I" unicode="I" horiz-adv-x="293" 
d="M212 0h-131v675h131v-675z" />
    <glyph glyph-name="J" unicode="J" horiz-adv-x="429" 
d="M357 675v-472q0 -101 -46 -157t-131 -56t-154 29l23 114q58 -27 108 -27q68 0 68 82v487h132z" />
    <glyph glyph-name="K" unicode="K" horiz-adv-x="570" 
d="M568 0h-171l-211 290l10 -138v-152h-131v675h131v-167l-10 -125l205 292h157l-248 -325z" />
    <glyph glyph-name="L" unicode="L" horiz-adv-x="496" 
d="M485 0h-415v675h131v-565h284v-110z" />
    <glyph glyph-name="M" unicode="M" horiz-adv-x="854" 
d="M800 0h-148l-14 570h-4q-12 -72 -33 -163l-96 -407h-193l-92 407q-21 91 -34 163h-4l-9 -570h-120l26 675h225q74 -340 113 -558h3q20 96 53 235.5t57 231.5l23 91h221z" />
    <glyph glyph-name="N" unicode="N" horiz-adv-x="664" 
d="M597 0h-207l-210 531h-4l9 -531h-118v675h201l213 -542h4l-9 542h121v-675z" />
    <glyph glyph-name="O" unicode="O" horiz-adv-x="664" 
d="M620 343q0 -72 -14.5 -132t-46 -111.5t-90 -80.5t-138.5 -29t-138 28.5t-89.5 79.5t-45.5 111.5t-14 133.5q0 71 13.5 129t45 107.5t89.5 77.5t139 28q289 0 289 -342zM481 344q0 228 -150 228q-149 0 -149 -228q0 -54 7 -95.5t23 -76.5t46 -53.5t73 -18.5q150 0 150 244
z" />
    <glyph glyph-name="P" unicode="P" horiz-adv-x="543" 
d="M524 464q0 -100 -70 -164.5t-187 -64.5h-74v-235h-131v675h205q111 0 184 -54t73 -157zM385 459q0 51 -32 78t-89 27h-71v-226h71q57 0 89 32.5t32 88.5z" />
    <glyph glyph-name="Q" unicode="Q" horiz-adv-x="662" 
d="M619 343q0 -105 -51.5 -200t-140.5 -133q84 -15 212 -15v-127q-92 0 -172 34t-137 88q-80 0 -137.5 28.5t-89 79t-46 111t-14.5 134.5q0 71 13.5 129t45 107.5t89.5 77.5t139 28q289 0 289 -342zM480 344q0 228 -150 228q-149 0 -149 -228q0 -54 7 -95.5t23 -76.5
t46 -53.5t73 -18.5q150 0 150 244z" />
    <glyph glyph-name="R" unicode="R" horiz-adv-x="564" 
d="M196 254v-254h-130v675h217q106 0 173.5 -51t67.5 -152q0 -66 -34.5 -116.5t-93.5 -77.5l143 -278h-154l-111 255q-30 -1 -78 -1zM384 473q0 54 -30 77t-92 23h-66v-216h66q64 0 93 28.5t29 87.5z" />
    <glyph glyph-name="S" unicode="S" horiz-adv-x="544" 
d="M503 197q0 -85 -66 -146t-177 -61q-123 0 -220 72l50 103q31 -27 79 -46t93 -19q46 0 75 25t29 64q0 33 -23 56t-58 35t-75 28.5t-75 36t-58 59t-23 95.5q0 81 62 133.5t176 52.5t201 -46l-44 -105q-62 37 -159 37q-101 0 -101 -70q0 -33 32.5 -55.5t78.5 -38.5t92 -37.5
t78.5 -65t32.5 -107.5z" />
    <glyph glyph-name="T" unicode="T" horiz-adv-x="497" 
d="M482 564h-168v-564h-136v564h-163v111h467v-111z" />
    <glyph glyph-name="U" unicode="U" horiz-adv-x="642" 
d="M575 675v-420q0 -114 -64 -189.5t-190 -75.5t-190 74.5t-64 190.5v420h131v-411q0 -77 31 -120t92 -43t91 43t30 120v411h133z" />
    <glyph glyph-name="V" unicode="V" horiz-adv-x="605" 
d="M598 675l-197 -675h-197l-197 675h153l146 -560h5l145 560h142z" />
    <glyph glyph-name="W" unicode="W" horiz-adv-x="897" 
d="M890 675l-135 -675h-197l-109 516h-3l-113 -516h-194l-132 675h152l86 -562h4l125 562h167l119 -562h6l89 562h135z" />
    <glyph glyph-name="X" unicode="X" horiz-adv-x="598" 
d="M31 675h161l118 -218l119 218h159l-215 -332l210 -343h-161l-129 222l-124 -222h-159l221 338z" />
    <glyph glyph-name="Y" unicode="Y" horiz-adv-x="574" 
d="M568 675l-227 -440v-235h-132v236l-203 439h166l117 -304h5l131 304h143z" />
    <glyph glyph-name="Z" unicode="Z" horiz-adv-x="583" 
d="M532 563l-329 -454h330v-109h-483v103l327 461h-326v111h481v-112z" />
    <glyph glyph-name="bracketleft" unicode="[" horiz-adv-x="321" 
d="M301 -126h-222v879h222v-118h-89v-643h89v-118z" />
    <glyph glyph-name="backslash" unicode="\" horiz-adv-x="300" 
d="M249 -45l-244 758h46l244 -758h-46z" />
    <glyph glyph-name="bracketright" unicode="]" horiz-adv-x="321" 
d="M242 -126h-222v118h88v643h-88v118h222v-879z" />
    <glyph glyph-name="asciicircum" unicode="^" horiz-adv-x="516" 
d="M452 621l-42 -66l-153 79l-153 -79l-40 66l152 99l74 9z" />
    <glyph glyph-name="underscore" unicode="_" horiz-adv-x="670" 
d="M615 0h-560v88h560v-88z" />
    <glyph glyph-name="grave" unicode="`" horiz-adv-x="562" 
d="M431 566l-257 50l17 96l253 -71z" />
    <glyph glyph-name="a" unicode="a" horiz-adv-x="505" 
d="M450 0h-89l-18 58q-50 -68 -143 -68q-74 0 -119 43.5t-45 113.5q0 69 48.5 107t136.5 38h103v25q0 83 -86 83q-74 0 -147 -33l-33 93q93 40 193 40q103 0 151 -47t48 -142v-311zM324 112v102h-81q-39 0 -59 -17t-20 -46q0 -72 73 -72q45 0 87 33z" />
    <glyph glyph-name="b" unicode="b" horiz-adv-x="548" 
d="M189 519l-9 -79q18 24 54.5 42t75.5 18q90 0 144 -64.5t54 -189.5q0 -121 -61.5 -188.5t-152.5 -67.5t-142 69l-24 -59h-70v690h131v-171zM189 365v-229q37 -50 89 -50q99 0 99 160q0 158 -97 158q-52 0 -91 -39z" />
    <glyph glyph-name="c" unicode="c" horiz-adv-x="477" 
d="M425 126l24 -93q-80 -43 -168 -43q-112 0 -173 64t-61 191q0 120 62 187.5t171 67.5q98 0 168 -40l-34 -89q-50 30 -123 30q-111 0 -111 -156t112 -156q67 0 133 37z" />
    <glyph glyph-name="d" unicode="d" horiz-adv-x="553" 
d="M254 500q79 0 122 -48q-12 42 -12 90v148h130v-690h-106l-15 54q-17 -26 -51.5 -45t-78.5 -19q-88 0 -144 65t-56 190q0 118 59.5 186.5t151.5 68.5zM364 127v251q-40 24 -89 24q-101 0 -101 -156q0 -161 99 -161q51 0 91 42z" />
    <glyph glyph-name="e" unicode="e" horiz-adv-x="516" 
d="M476 210h-305q0 -59 32.5 -90t93.5 -31q64 0 144 41l25 -92q-89 -48 -185 -48q-114 0 -177.5 67.5t-63.5 188.5q0 117 58 185.5t172 68.5q104 0 155 -66t51 -167v-57zM350 287q0 117 -87 117q-46 0 -69 -34.5t-23 -82.5h179z" />
    <glyph glyph-name="f" unicode="f" horiz-adv-x="343" 
d="M365 697l-9 -103q-27 8 -62 8q-71 0 -71 -77v-35h109v-94h-109v-396h-131v396h-72v94h72v41q0 176 193 176q38 0 80 -10z" />
    <glyph glyph-name="g" unicode="g" horiz-adv-x="529" 
d="M255 500q25 0 114 -4.5t134 -5.5l-2 -97q-47 2 -92 17q44 -40 49 -77q0 -56 -34 -96t-78 -56t-90 -16q-25 0 -63 9q-24 -8 -24 -27q0 -14 32 -20.5t77.5 -11.5t91.5 -16.5t78 -43.5t32 -83q0 -83 -68 -130.5t-165 -47.5q-84 0 -145.5 35.5t-61.5 99.5q0 88 130 108
q-122 14 -122 83q0 31 26 51.5t67 23.5q-88 48 -88 138q0 46 20 80.5t52 52t64.5 26t65.5 8.5zM351 -37q0 31 -27.5 45.5t-87.5 19.5q-35 -3 -55 -22t-20 -50q0 -32 26 -53t66 -21q45 0 71.5 21.5t26.5 59.5zM255 257q87 0 87 77q0 39 -26 56t-61 17t-61.5 -17t-26.5 -56
q0 -77 88 -77z" />
    <glyph glyph-name="h" unicode="h" horiz-adv-x="543" 
d="M189 0h-131v690h131v-181q0 -43 -13 -76q53 67 141 67q100 0 139.5 -49t39.5 -148v-303h-133v292q0 108 -87 108q-46 0 -87 -30v-370z" />
    <glyph glyph-name="i" unicode="i" horiz-adv-x="289" 
d="M229 0h-130v396l-57 12v82h187v-490zM95 571v119h132v-119h-132z" />
    <glyph glyph-name="j" unicode="j" horiz-adv-x="298" 
d="M227 490v-497q0 -94 -39 -134.5t-110 -40.5q-45 0 -87 14l15 105q22 -8 44 -8q23 0 35.5 15.5t12.5 40.5v412l-57 13v80h186zM95 571v119h132v-119h-132z" />
    <glyph glyph-name="k" unicode="k" horiz-adv-x="504" 
d="M504 0h-158l-142 216h-16v-216h-130v690h130v-270l-6 -118l149 188h156l-183 -205z" />
    <glyph glyph-name="l" unicode="l" horiz-adv-x="294" 
d="M196 -10q-72 0 -104 36t-32 104v560h129v-553q0 -29 17.5 -38t61.5 -9v-92q-38 -8 -72 -8z" />
    <glyph glyph-name="m" unicode="m" horiz-adv-x="842" 
d="M487 370q5 -25 5 -67v-303h-132v291q0 56 -21 82.5t-67 26.5q-37 0 -83 -30v-370h-131v490h88l22 -57q55 67 145 67q115 0 153 -69q57 69 148 69q100 0 140.5 -49t40.5 -148v-303h-133v291q0 109 -92 109q-39 0 -83 -30z" />
    <glyph glyph-name="n" unicode="n" horiz-adv-x="544" 
d="M496 0h-133v291q0 109 -88 109q-40 0 -86 -30v-370h-131v490h90l20 -56q56 66 155 66q173 0 173 -197v-303z" />
    <glyph glyph-name="o" unicode="o" horiz-adv-x="538" 
d="M269 500q108 0 169 -71t61 -183q0 -124 -60 -190t-170 -66q-111 0 -170.5 65.5t-59.5 190.5q0 112 60.5 183t169.5 71zM269 86q49 0 72.5 37t23.5 123q0 85 -24 122t-72 37t-71.5 -37t-23.5 -122q0 -84 23 -122t72 -38z" />
    <glyph glyph-name="p" unicode="p" horiz-adv-x="547" 
d="M174 47q17 -54 17 -90v-147h-133v680h113l10 -53q18 25 54 44t75 19q90 0 143.5 -64.5t53.5 -189.5q0 -121 -61.5 -188.5t-152.5 -67.5q-41 0 -68 13.5t-51 43.5zM191 364v-229q35 -49 86 -49q99 0 99 160q0 158 -96 158q-51 0 -89 -40z" />
    <glyph glyph-name="q" unicode="q" horiz-adv-x="553" 
d="M364 127v246q-34 29 -87 29q-103 0 -103 -156q0 -161 99 -161q51 0 91 42zM494 -190h-130v177l9 66q-16 -25 -52 -44t-79 -19q-87 0 -143 65t-56 190q0 118 59.5 186.5t151.5 68.5q41 0 79 -14t60 -35l23 39h78v-680z" />
    <glyph glyph-name="r" unicode="r" horiz-adv-x="357" 
d="M340 492l-3 -111q-26 8 -61 8q-48 0 -88 -33v-356h-130v490h91l14 -66h3q13 29 44.5 52t72.5 23q31 0 57 -7z" />
    <glyph glyph-name="s" unicode="s" horiz-adv-x="428" 
d="M239 406q-67 0 -67 -45q0 -20 22 -35t53 -27t62 -28t53 -47.5t22 -75.5q0 -70 -50.5 -114t-142.5 -44q-84 0 -147 36l27 91q49 -34 116 -34q32 0 52 15.5t20 38.5q0 24 -21.5 40.5t-52.5 29.5t-61.5 29t-52 48.5t-21.5 78.5q0 59 47 98t140 39q80 0 138 -24l-18 -95
q-55 25 -118 25z" />
    <glyph glyph-name="t" unicode="t" horiz-adv-x="397" 
d="M372 23q-56 -33 -132 -33q-69 0 -106.5 38t-37.5 126v243h-73v93h73v85l129 42v-127h131v-93h-131v-240q0 -56 52 -56q39 0 75 18z" />
    <glyph glyph-name="u" unicode="u" horiz-adv-x="537" 
d="M487 0h-86l-20 60q-21 -28 -60.5 -49t-92.5 -21q-178 0 -178 203v297h130v-298q0 -55 20.5 -78.5t65.5 -23.5q46 0 88 29v371h133v-490z" />
    <glyph glyph-name="v" unicode="v" horiz-adv-x="502" 
d="M495 490l-150 -490h-191l-147 490h147l103 -411h4l102 411h132z" />
    <glyph glyph-name="w" unicode="w" horiz-adv-x="772" 
d="M764 490l-117 -490h-183l-80 369l-100 -369h-174l-103 490h144l58 -390h4l103 390h154l92 -390h3l72 390h127z" />
    <glyph glyph-name="x" unicode="x" horiz-adv-x="497" 
d="M320 0l-82 155l-86 -155h-141l170 258l-160 232h173l70 -140l69 140h142l-152 -247l163 -243h-166z" />
    <glyph glyph-name="y" unicode="y" horiz-adv-x="508" 
d="M242 -3l4 14l-91 -16l-146 495h147l104 -411h2l105 411h130l-151 -502q-31 -103 -83.5 -148t-130.5 -45q-37 0 -78 16.5t-60 32.5l41 89h12q47 -35 91 -35q76 0 104 99z" />
    <glyph glyph-name="z" unicode="z" horiz-adv-x="473" 
d="M432 406l-223 -312h224v-94h-392v75l235 321h-236v94h392v-84z" />
    <glyph glyph-name="braceleft" unicode="{" horiz-adv-x="389" 
d="M372 -22l-31 -81q-103 40 -150 97t-47 140v96l-109 55v82l109 48v99q0 79 47.5 134t149.5 95l31 -81q-51 -24 -73 -59.5t-22 -94.5v-57l-27 -95l-73 -32q66 -32 100 -47v-146q0 -60 22.5 -95.5t72.5 -57.5z" />
    <glyph glyph-name="bar" unicode="|" horiz-adv-x="300" 
d="M177 -168l-54 -1v899h54v-898z" />
    <glyph glyph-name="braceright" unicode="}" horiz-adv-x="389" 
d="M353 285l-110 -55v-106q0 -79 -47 -133t-148 -94l-32 81q50 22 72.5 58t22.5 95v146l76 36q4 3 12.5 7l12.5 6l-101 42v140q0 59 -22 94.5t-73 59.5l32 81q195 -77 195 -218v-110l110 -48v-82z" />
    <glyph glyph-name="asciitilde" unicode="~" horiz-adv-x="534" 
d="M471 316q-37 -123 -136 -97l-131 35q-49 13 -70 -30l-70 29q18 53 56.5 79t91.5 12l124 -34q49 -13 67 31z" />
    <glyph glyph-name="exclamdown" unicode="&#xa1;" horiz-adv-x="283" 
d="M76 34l19 236h93l19 -236v-235h-131v235zM206 489v-140h-128v140h128z" />
    <glyph glyph-name="sterling" unicode="&#xa3;" horiz-adv-x="487" 
d="M373 293h-125v-29q0 -2 -6 -62l-3 -36l26 5q43 13 94 13h72v-108h-379v108h65v109h-65v81h65v47q0 87 48 131.5t152 44.5q55 0 109 -18l-16 -96q-43 10 -84 10q-43 0 -60.5 -18t-17.5 -59v-42h134z" />
    <glyph glyph-name="yen" unicode="&#xa5;" horiz-adv-x="528" 
d="M439 157h-121v-81h-132v81h-112v83h112v52h-112v82h66l-124 213h165l86 -213h5l97 213h143l-141 -213h68v-82h-121v-52h121v-83z" />
    <glyph glyph-name="brokenbar" unicode="&#xa6;" horiz-adv-x="300" 
d="M177 314h-54v416h54v-416zM177 -168h-54v416h54v-416z" />
    <glyph glyph-name="section" unicode="&#xa7;" horiz-adv-x="492" 
d="M89 185q0 34 19 62l241 -154q71 -46 71 -118q0 -71 -50.5 -118t-141.5 -47q-80 0 -147 40l26 87q54 -34 116 -34q32 0 52 16t20 45q0 22 -21 40.5t-51.5 34t-61 33.5t-51.5 47t-21 66zM404 324q0 -38 -18 -69l-236 153q-38 24 -58 53t-20 77q0 60 46 98.5t141 38.5
q80 0 134 -24l-13 -95q-53 25 -120 25q-32 0 -49 -12.5t-17 -32.5q0 -23 33 -45t72 -39t72 -50.5t33 -77.5zM381 195v-62l-264 171v61z" />
    <glyph glyph-name="dieresis" unicode="&#xa8;" horiz-adv-x="521" 
d="M85 574v131h125v-131h-125zM311 574v131h125v-131h-125z" />
    <glyph glyph-name="copyright" unicode="&#xa9;" horiz-adv-x="600" 
d="M544 424q0 -101 -71.5 -172.5t-172.5 -71.5t-172.5 71.5t-71.5 172.5t71.5 172.5t172.5 71.5t172.5 -71.5t71.5 -172.5zM299 505q-33 0 -51 -18t-18 -64q0 -83 69 -83q41 0 84 26l21 -63q-56 -33 -106 -33q-66 0 -106.5 39t-40.5 115q0 75 41 113.5t106 38.5q54 0 97 -20
l-17 -66q-37 15 -79 15zM506 424q0 86 -60 146t-146 60t-146 -60t-60 -146t60 -146t146 -60t146 60t60 146z" />
    <glyph glyph-name="ordfeminine" unicode="&#xaa;" horiz-adv-x="452" 
d="M399 300h-87l-16 58q-45 -68 -128 -68q-50 0 -83 34t-33 93q0 58 41.5 87.5t112.5 29.5h79v15q0 53 -75 53q-58 0 -119 -28l-30 79q79 37 170 37q168 0 168 -139v-251zM285 406v65h-64q-60 0 -60 -48q0 -25 16 -39t40 -14q42 0 68 36z" />
    <glyph glyph-name="guillemotleft" unicode="&#xab;" horiz-adv-x="513" 
d="M483 343l-93 -124l93 -133l-82 -59l-157 194l159 187zM267 351l-93 -132l93 -142l-81 -59l-156 203l157 196z" />
    <glyph glyph-name="registered" unicode="&#xae;" horiz-adv-x="600" 
d="M544 312q0 -101 -71.5 -172.5t-172.5 -71.5t-172.5 71.5t-71.5 172.5t71.5 172.5t172.5 71.5t172.5 -71.5t71.5 -172.5zM506 312q0 86 -60 146t-146 60t-146 -60t-60 -146t60 -146t146 -60t146 60t60 146zM420 364q0 -38 -19 -63t-43 -35l62 -104h-75l-50 95h-32v-95h-62
v305h99q52 0 86 -26t34 -77zM350 364q0 50 -63 50h-24v-104h25q62 0 62 54z" />
    <glyph glyph-name="macron" unicode="&#xaf;" horiz-adv-x="537" 
d="M463 599h-389v65h389v-65z" />
    <glyph glyph-name="degree" unicode="&#xb0;" horiz-adv-x="492" 
d="M157 495q0 -38 25.5 -64t63.5 -26t64 26t26 64t-26 63.5t-64 25.5t-63.5 -26t-25.5 -63zM56 495q0 79 55.5 134t134.5 55t134.5 -55t55.5 -134q0 -80 -55 -135.5t-135 -55.5t-135 55.5t-55 135.5z" />
    <glyph glyph-name="plusminus" unicode="&#xb1;" horiz-adv-x="516" 
d="M428 333h-117v-118h-109v118h-114v97h114v114h109v-114h117v-97zM449 54h-382v91h382v-91z" />
    <glyph glyph-name="twosuperior" unicode="&#xb2;" 
d="M411 571q0 -118 -208 -221v-7q50 11 90 11h119v-96h-332v93q117 67 160.5 109.5t43.5 76.5q0 25 -18.5 38.5t-49.5 13.5q-65 0 -121 -34l-43 91q80 44 183 44q81 0 128.5 -33.5t47.5 -85.5z" />
    <glyph glyph-name="threesuperior" unicode="&#xb3;" 
d="M410 385q0 -61 -51 -99t-136 -38q-49 0 -94 13.5t-67 29.5l37 84q19 -13 54 -25t63 -12q37 0 58 14.5t21 36.5q0 25 -27 35t-85 10l-7 69q46 0 72 14t26 40q0 41 -65 41q-58 0 -106 -29l-34 85q59 36 150 36q77 0 123 -31t46 -80q0 -40 -23.5 -67t-59.5 -37
q44 -7 74.5 -29.5t30.5 -60.5z" />
    <glyph glyph-name="acute" unicode="&#xb4;" horiz-adv-x="615" 
d="M444 616l-257 -50l-13 75l253 71z" />
    <glyph glyph-name="paragraph" unicode="&#xb6;" horiz-adv-x="658" 
d="M299 -160v392q-115 0 -182 60t-67 169q0 106 74 160t184 54h280v-835h-116v724h-161q-57 0 -90 -28.5t-33 -79.5q0 -58 30 -89.5t81 -31.5v161h108v-656h-108z" />
    <glyph glyph-name="periodcentered" unicode="&#xb7;" horiz-adv-x="219" 
d="M43 359v141h132v-141h-132z" />
    <glyph glyph-name="cedilla" unicode="&#xb8;" horiz-adv-x="549" 
d="M219 -59l5 13q30 4 70 4q45 0 70.5 -19t25.5 -53q0 -58 -54.5 -84t-135.5 -27v74q28 0 44 12.5t16 34.5q0 32 -41 45z" />
    <glyph glyph-name="onesuperior" unicode="&#xb9;" 
d="M208 350v103q0 43 6 86q-24 -35 -61.5 -58t-77.5 -25v103q111 22 161 121h87v-330h97v-92h-341v92h129z" />
    <glyph glyph-name="ordmasculine" unicode="&#xba;" horiz-adv-x="482" 
d="M241 690q92 0 146.5 -53t54.5 -143q0 -104 -53 -153.5t-148 -49.5q-94 0 -147.5 49.5t-53.5 153.5q0 90 54 143t147 53zM241 387q30 0 49.5 26t19.5 80t-19.5 78t-49.5 24q-70 0 -70 -102q0 -52 20 -79t50 -27z" />
    <glyph glyph-name="guillemotright" unicode="&#xbb;" horiz-adv-x="516" 
d="M486 221l-156 -203l-82 59l94 142l-94 132l81 66zM268 221l-157 -194l-81 59l93 133l-93 124l80 65z" />
    <glyph glyph-name="onequarter" unicode="&#xbc;" horiz-adv-x="1000" 
d="M641 713l-244 -758h-46l244 758h46zM185 333v103q0 42 6 86q-24 -35 -61.5 -58t-77.5 -25v103q111 22 161 121h87v-330h97v-92h-341v92h129zM947 94h-57v-94h-114v94h-207v68l100 270l78 -25v-41l-64 -181h93v237h114v-237h57v-91z" />
    <glyph glyph-name="onehalf" unicode="&#xbd;" horiz-adv-x="1010" 
d="M641 713l-244 -758h-46l244 758h46zM185 333v103q0 42 6 86q-24 -35 -61.5 -58t-77.5 -25v103q111 22 161 121h87v-330h97v-92h-341v92h129zM957 313q0 -118 -208 -221v-7q49 11 90 11h119v-96h-332v93q117 67 160.5 109.5t43.5 76.5q0 25 -18.5 38.5t-49.5 13.5
q-65 0 -121 -34l-43 91q80 44 183 44q81 0 128.5 -33.5t47.5 -85.5z" />
    <glyph glyph-name="threequarters" unicode="&#xbe;" horiz-adv-x="1444" 
d="M867 713l-244 -758h-46l244 758h46zM636 367q0 -61 -51 -99t-136 -38q-49 0 -94 13.5t-67 29.5l37 84q19 -13 54 -25t63 -12q37 0 58 14.5t21 36.5q0 25 -27 35t-85 10l-7 69q46 0 72 14t26 40q0 41 -65 41q-58 0 -106 -29l-34 85q59 36 150 36q77 0 123 -31t46 -80
q0 -40 -23.5 -67t-59.5 -37q44 -7 74.5 -29.5t30.5 -60.5zM1186 94h-57v-94h-114v94h-207v68l100 270l78 -25v-41l-64 -181h93v237h114v-237h57v-91z" />
    <glyph glyph-name="questiondown" unicode="&#xbf;" horiz-adv-x="433" 
d="M27 -20q0 45 16.5 82t39.5 61.5t46 46t39.5 47t16.5 53.5v19h119v-29q0 -40 -15.5 -71.5t-37.5 -51.5l-44 -39t-37.5 -45t-15.5 -57q0 -46 29 -68.5t74 -22.5q62 0 123 34l35 -98q-89 -42 -181 -42q-89 0 -148 49t-59 132zM308 489v-140h-127v140h127z" />
    <glyph glyph-name="Agrave" unicode="&#xc0;" horiz-adv-x="602" 
d="M176 152l-36 -152h-128l183 675h218l177 -675h-147l-35 152h-232zM315 560h-41l-74 -302h184zM428 712l-265 16l-1 96l276 -37q0 -5 -4.5 -37.5t-5.5 -37.5z" />
    <glyph glyph-name="Aacute" unicode="&#xc1;" horiz-adv-x="602" 
d="M176 152l-36 -152h-128l183 675h218l177 -675h-147l-35 152h-232zM315 560h-41l-74 -302h184zM442 728l-265 -16q-1 5 -5.5 37.5t-4.5 37.5l276 37z" />
    <glyph glyph-name="Acircumflex" unicode="&#xc2;" horiz-adv-x="602" 
d="M176 152l-36 -152h-128l183 675h218l177 -675h-147l-35 152h-232zM315 560h-41l-74 -302h184zM471 771l-30 -72l-141 60l-140 -60l-30 72l153 80h34z" />
    <glyph glyph-name="Atilde" unicode="&#xc3;" horiz-adv-x="602" 
d="M176 152l-36 -152h-128l183 675h218l177 -675h-147l-35 152h-232zM315 560h-41l-74 -302h184zM480 841q-2 -58 -37 -87t-89 -11l-101 33q-49 15 -68 -31l-63 29q4 54 44 82.5t95 10.5l93 -31q49 -16 67 30z" />
    <glyph glyph-name="Adieresis" unicode="&#xc4;" horiz-adv-x="602" 
d="M176 152l-36 -152h-128l183 675h218l177 -675h-147l-35 152h-232zM315 560h-41l-74 -302h184zM125 723v131h125v-131h-125zM351 723v131h125v-131h-125z" />
    <glyph glyph-name="Aring" unicode="&#xc5;" horiz-adv-x="602" 
d="M176 152l-36 -152h-128l183 675h218l177 -675h-147l-35 152h-232zM315 560h-41l-74 -302h184zM440 838q0 -58 -40.5 -97.5t-98.5 -39.5q-59 0 -99.5 39.5t-40.5 97.5t40.5 97.5t99.5 39.5q57 0 98 -40t41 -97zM359 837q0 24 -16.5 40.5t-41.5 16.5q-23 0 -39.5 -16.5
t-16.5 -40.5t16.5 -40t39.5 -16q25 0 41.5 16t16.5 40z" />
    <glyph glyph-name="AE" unicode="&#xc6;" horiz-adv-x="817" 
d="M776 0h-415v150h-172l-48 -150h-129l231 675h533v-111h-284v-166h217l-10 -116h-207v-173h284v-109zM322 564l-100 -308h139v308h-39z" />
    <glyph glyph-name="Ccedilla" unicode="&#xc7;" horiz-adv-x="598" 
d="M568 62q-105 -72 -232 -72q-142 0 -217 91t-75 260q0 160 75.5 252t216.5 92q145 0 230 -57l-50 -106q-61 47 -166 47q-168 0 -168 -227q0 -236 166 -236q94 0 178 62zM260 -59l5 13q30 4 70 4q45 0 70.5 -19t25.5 -53q0 -58 -54.5 -84t-135.5 -27v74q28 0 44 12.5
t16 34.5q0 32 -41 45z" />
    <glyph glyph-name="Egrave" unicode="&#xc8;" horiz-adv-x="522" 
d="M481 0h-415v675h415v-111h-284v-166h217l-10 -116h-207v-173h284v-109zM404 712l-265 16l-1 96l276 -37q0 -5 -5 -37.5t-5 -37.5z" />
    <glyph glyph-name="Eacute" unicode="&#xc9;" horiz-adv-x="522" 
d="M481 0h-415v675h415v-111h-284v-166h217l-10 -116h-207v-173h284v-109zM403 728l-265 -16q0 5 -4.5 37.5t-5.5 37.5l276 37z" />
    <glyph glyph-name="Ecircumflex" unicode="&#xca;" horiz-adv-x="522" 
d="M481 0h-415v675h415v-111h-284v-166h217l-10 -116h-207v-173h284v-109zM432 775l-30 -72l-141 60l-140 -60l-30 72l153 80h34z" />
    <glyph glyph-name="Edieresis" unicode="&#xcb;" horiz-adv-x="522" 
d="M481 0h-415v675h415v-111h-284v-166h217l-10 -116h-207v-173h284v-109zM85 723v131h125v-131h-125zM311 723v131h125v-131h-125z" />
    <glyph glyph-name="Igrave" unicode="&#xcc;" horiz-adv-x="293" 
d="M212 0h-131v675h131v-675zM274 712l-265 16l-1 96l276 -37q0 -5 -5 -37.5t-5 -37.5z" />
    <glyph glyph-name="Iacute" unicode="&#xcd;" horiz-adv-x="290" 
d="M211 0h-131v675h131v-675zM282 728l-265 -16q-1 5 -5.5 37.5t-4.5 37.5l276 37z" />
    <glyph glyph-name="Icircumflex" unicode="&#xce;" horiz-adv-x="293" 
d="M212 0h-131v675h131v-675zM317 775l-30 -72l-141 60l-140 -60l-30 72l153 80h34z" />
    <glyph glyph-name="Idieresis" unicode="&#xcf;" horiz-adv-x="293" 
d="M212 0h-131v675h131v-675zM-29 723v131h125v-131h-125zM197 723v131h125v-131h-125z" />
    <glyph glyph-name="Ntilde" unicode="&#xd1;" horiz-adv-x="670" 
d="M599 0h-207l-210 531h-4l9 -531h-118v675h201l213 -542h4l-9 542h121v-675zM513 830q-2 -58 -37 -87t-89 -11l-101 33q-49 15 -68 -31l-63 29q4 54 44 82.5t95 10.5l93 -31q49 -16 67 30z" />
    <glyph glyph-name="Ograve" unicode="&#xd2;" horiz-adv-x="664" 
d="M620 343q0 -72 -14.5 -132t-46 -111.5t-90 -80.5t-138.5 -29t-138 28.5t-89.5 79.5t-45.5 111.5t-14 133.5q0 71 13.5 129t45 107.5t89.5 77.5t139 28q289 0 289 -342zM481 344q0 228 -150 228q-149 0 -149 -228q0 -54 7 -95.5t23 -76.5t46 -53.5t73 -18.5q150 0 150 244
zM460 712l-265 16l-1 96l276 -37q-1 -5 -5.5 -37.5t-4.5 -37.5z" />
    <glyph glyph-name="Oacute" unicode="&#xd3;" horiz-adv-x="664" 
d="M620 343q0 -72 -14.5 -132t-46 -111.5t-90 -80.5t-138.5 -29t-138 28.5t-89.5 79.5t-45.5 111.5t-14 133.5q0 71 13.5 129t45 107.5t89.5 77.5t139 28q289 0 289 -342zM481 344q0 228 -150 228q-149 0 -149 -228q0 -54 7 -95.5t23 -76.5t46 -53.5t73 -18.5q150 0 150 244
zM469 728l-265 -16q-1 5 -5.5 37.5t-4.5 37.5l276 37z" />
    <glyph glyph-name="Ocircumflex" unicode="&#xd4;" horiz-adv-x="664" 
d="M620 343q0 -72 -14.5 -132t-46 -111.5t-90 -80.5t-138.5 -29t-138 28.5t-89.5 79.5t-45.5 111.5t-14 133.5q0 71 13.5 129t45 107.5t89.5 77.5t139 28q289 0 289 -342zM481 344q0 228 -150 228q-149 0 -149 -228q0 -54 7 -95.5t23 -76.5t46 -53.5t73 -18.5q150 0 150 244
zM502 775l-30 -72l-141 60l-140 -60l-30 72l153 80h34z" />
    <glyph glyph-name="Otilde" unicode="&#xd5;" horiz-adv-x="664" 
d="M620 343q0 -72 -14.5 -132t-46 -111.5t-90 -80.5t-138.5 -29t-138 28.5t-89.5 79.5t-45.5 111.5t-14 133.5q0 71 13.5 129t45 107.5t89.5 77.5t139 28q289 0 289 -342zM481 344q0 228 -150 228q-149 0 -149 -228q0 -54 7 -95.5t23 -76.5t46 -53.5t73 -18.5q150 0 150 244
zM511 841q-2 -58 -37 -87t-89 -11l-101 33q-49 15 -68 -31l-63 29q4 54 44 82.5t95 10.5l93 -31q49 -16 67 30z" />
    <glyph glyph-name="Odieresis" unicode="&#xd6;" horiz-adv-x="664" 
d="M620 343q0 -72 -14.5 -132t-46 -111.5t-90 -80.5t-138.5 -29t-138 28.5t-89.5 79.5t-45.5 111.5t-14 133.5q0 71 13.5 129t45 107.5t89.5 77.5t139 28q289 0 289 -342zM481 344q0 228 -150 228q-149 0 -149 -228q0 -54 7 -95.5t23 -76.5t46 -53.5t73 -18.5q150 0 150 244
zM156 723v131h125v-131h-125zM382 723v131h125v-131h-125z" />
    <glyph glyph-name="multiply" unicode="&#xd7;" horiz-adv-x="495" 
d="M416 174l-71 -72l-102 102l-102 -102l-67 66l102 102l-101 102l71 71l101 -101l107 106l66 -66l-106 -107z" />
    <glyph glyph-name="Ugrave" unicode="&#xd9;" horiz-adv-x="642" 
d="M575 675v-420q0 -114 -64 -189.5t-190 -75.5t-190 74.5t-64 190.5v420h131v-411q0 -77 31 -120t92 -43t91 43t30 120v411h133zM449 712l-265 16l-1 96l276 -37q-1 -5 -5 -37.5t-5 -37.5z" />
    <glyph glyph-name="Uacute" unicode="&#xda;" horiz-adv-x="642" 
d="M575 675v-420q0 -114 -64 -189.5t-190 -75.5t-190 74.5t-64 190.5v420h131v-411q0 -77 31 -120t92 -43t91 43t30 120v411h133zM458 728l-265 -16q-1 5 -5.5 37.5t-4.5 37.5l276 37z" />
    <glyph glyph-name="Ucircumflex" unicode="&#xdb;" horiz-adv-x="642" 
d="M575 675v-420q0 -114 -64 -189.5t-190 -75.5t-190 74.5t-64 190.5v420h131v-411q0 -77 31 -120t92 -43t91 43t30 120v411h133zM491 775l-30 -72l-141 60l-140 -60l-30 72l153 80h34z" />
    <glyph glyph-name="Udieresis" unicode="&#xdc;" horiz-adv-x="642" 
d="M575 675v-420q0 -114 -64 -189.5t-190 -75.5t-190 74.5t-64 190.5v420h131v-411q0 -77 31 -120t92 -43t91 43t30 120v411h133zM146 723v131h125v-131h-125zM372 723v131h125v-131h-125z" />
    <glyph glyph-name="Yacute" unicode="&#xdd;" horiz-adv-x="574" 
d="M568 675l-227 -440v-235h-132v236l-203 439h166l117 -304h5l131 304h143zM424 728l-265 -16q-1 5 -5.5 37.5t-4.5 37.5l276 37z" />
    <glyph glyph-name="germandbls" unicode="&#xdf;" horiz-adv-x="591" 
d="M519 538q0 -40 -18.5 -68.5t-40.5 -42t-40.5 -32.5t-18.5 -41q0 -17 13 -30t32 -20.5t42 -20t42 -27t32 -42t13 -64.5q0 -70 -52 -115t-142 -45q-55 0 -116 33v96q19 -13 54.5 -24.5t57.5 -11.5q35 0 53 16t18 42t-17.5 43t-42.5 29t-50 26.5t-42.5 43.5t-17.5 72
q0 35 19 61.5t42 39.5t42 33t19 44q0 33 -23 54t-65 21q-89 0 -89 -94v-514h-131v396h-72v94h72v34q0 84 57.5 133.5t167.5 49.5q98 0 150 -47t52 -122z" />
    <glyph glyph-name="agrave" unicode="&#xe0;" horiz-adv-x="505" 
d="M453 0h-89l-18 58q-50 -68 -143 -68q-74 0 -119 43.5t-45 113.5q0 69 48.5 107t136.5 38h103v25q0 83 -86 83q-74 0 -147 -33l-33 93q93 40 193 40q103 0 151 -47t48 -142v-311zM327 112v102h-81q-39 0 -59 -17t-20 -46q0 -72 73 -72q45 0 87 33zM374 566l-257 50l17 96
l253 -71z" />
    <glyph glyph-name="aacute" unicode="&#xe1;" horiz-adv-x="505" 
d="M453 0h-89l-18 58q-50 -68 -143 -68q-74 0 -119 43.5t-45 113.5q0 69 48.5 107t136.5 38h103v25q0 83 -86 83q-74 0 -147 -33l-33 93q93 40 193 40q103 0 151 -47t48 -142v-311zM327 112v102h-81q-39 0 -59 -17t-20 -46q0 -72 73 -72q45 0 87 33zM388 616l-257 -50
l-13 75l253 71z" />
    <glyph glyph-name="acircumflex" unicode="&#xe2;" horiz-adv-x="505" 
d="M453 0h-89l-18 58q-50 -68 -143 -68q-74 0 -119 43.5t-45 113.5q0 69 48.5 107t136.5 38h103v25q0 83 -86 83q-74 0 -147 -33l-33 93q93 40 193 40q103 0 151 -47t48 -142v-311zM327 112v102h-81q-39 0 -59 -17t-20 -46q0 -72 73 -72q45 0 87 33zM423 631l-30 -72
l-141 60l-140 -60l-30 72l153 80h34z" />
    <glyph glyph-name="atilde" unicode="&#xe3;" horiz-adv-x="505" 
d="M453 0h-89l-18 58q-50 -68 -143 -68q-74 0 -119 43.5t-45 113.5q0 69 48.5 107t136.5 38h103v25q0 83 -86 83q-74 0 -147 -33l-33 93q93 40 193 40q103 0 151 -47t48 -142v-311zM327 112v102h-81q-39 0 -59 -17t-20 -46q0 -72 73 -72q45 0 87 33zM432 667q-2 -58 -37 -87
t-89 -11l-101 33q-49 15 -68 -31l-63 29q4 54 44 82.5t95 10.5l93 -31q49 -16 67 30z" />
    <glyph glyph-name="adieresis" unicode="&#xe4;" horiz-adv-x="505" 
d="M453 0h-89l-18 58q-50 -68 -143 -68q-74 0 -119 43.5t-45 113.5q0 69 48.5 107t136.5 38h103v25q0 83 -86 83q-74 0 -147 -33l-33 93q93 40 193 40q103 0 151 -47t48 -142v-311zM327 112v102h-81q-39 0 -59 -17t-20 -46q0 -72 73 -72q45 0 87 33zM77 574v131h125v-131
h-125zM303 574v131h125v-131h-125z" />
    <glyph glyph-name="aring" unicode="&#xe5;" horiz-adv-x="505" 
d="M453 0h-89l-18 58q-50 -68 -143 -68q-74 0 -119 43.5t-45 113.5q0 69 48.5 107t136.5 38h103v25q0 83 -86 83q-74 0 -147 -33l-33 93q93 40 193 40q103 0 151 -47t48 -142v-311zM327 112v102h-81q-39 0 -59 -17t-20 -46q0 -72 73 -72q45 0 87 33zM393 658
q0 -58 -40.5 -97.5t-98.5 -39.5q-59 0 -99.5 39.5t-40.5 97.5t40.5 97.5t99.5 39.5q57 0 98 -40t41 -97zM312 657q0 24 -16.5 40.5t-41.5 16.5q-23 0 -39.5 -16.5t-16.5 -40.5t16.5 -40t39.5 -16q25 0 41.5 16t16.5 40z" />
    <glyph glyph-name="ae" unicode="&#xe6;" horiz-adv-x="798" 
d="M380 78h-4q-61 -88 -173 -88q-75 0 -120 43t-45 114q0 68 49 104.5t137 36.5h103v29q0 83 -83 83q-77 0 -153 -34l-34 93q91 41 195 41q101 0 150 -60q58 60 149 60q104 0 155.5 -66t51.5 -167v-56h-304q0 -58 32.5 -90t93.5 -32q57 0 143 42l25 -92q-91 -49 -184 -49
q-128 0 -184 88zM327 118v94h-81q-80 0 -80 -61q0 -72 74 -72q50 0 87 39zM633 288q0 116 -88 116q-45 0 -68 -34t-23 -82h179z" />
    <glyph glyph-name="ccedilla" unicode="&#xe7;" horiz-adv-x="478" 
d="M425 126l24 -93q-80 -43 -168 -43q-112 0 -173 64t-61 191q0 120 62 187.5t171 67.5q98 0 168 -40l-34 -89q-50 30 -123 30q-111 0 -111 -156t112 -156q67 0 133 37zM212 -59l5 13q30 4 70 4q45 0 70.5 -19t25.5 -53q0 -58 -54.5 -84t-135.5 -27v74q28 0 44 12.5t16 34.5
q0 32 -41 45z" />
    <glyph glyph-name="egrave" unicode="&#xe8;" horiz-adv-x="516" 
d="M476 210h-305q0 -59 32.5 -90t93.5 -31q64 0 144 41l25 -92q-89 -48 -185 -48q-114 0 -177.5 67.5t-63.5 188.5q0 117 58 185.5t172 68.5q104 0 155 -66t51 -167v-57zM350 287q0 117 -87 117q-46 0 -69 -34.5t-23 -82.5h179zM383 566l-257 50l17 96l253 -71z" />
    <glyph glyph-name="eacute" unicode="&#xe9;" horiz-adv-x="516" 
d="M476 210h-305q0 -59 32.5 -90t93.5 -31q64 0 144 41l25 -92q-89 -48 -185 -48q-114 0 -177.5 67.5t-63.5 188.5q0 117 58 185.5t172 68.5q104 0 155 -66t51 -167v-57zM350 287q0 117 -87 117q-46 0 -69 -34.5t-23 -82.5h179zM395 616l-257 -50l-13 75l253 71z" />
    <glyph glyph-name="ecircumflex" unicode="&#xea;" horiz-adv-x="516" 
d="M476 210h-305q0 -59 32.5 -90t93.5 -31q64 0 144 41l25 -92q-89 -48 -185 -48q-114 0 -177.5 67.5t-63.5 188.5q0 117 58 185.5t172 68.5q104 0 155 -66t51 -167v-57zM350 287q0 117 -87 117q-46 0 -69 -34.5t-23 -82.5h179zM435 631l-30 -72l-141 60l-140 -60l-30 72
l153 80h34z" />
    <glyph glyph-name="edieresis" unicode="&#xeb;" horiz-adv-x="516" 
d="M476 210h-305q0 -59 32.5 -90t93.5 -31q64 0 144 41l25 -92q-89 -48 -185 -48q-114 0 -177.5 67.5t-63.5 188.5q0 117 58 185.5t172 68.5q104 0 155 -66t51 -167v-57zM350 287q0 117 -87 117q-46 0 -69 -34.5t-23 -82.5h179zM85 574v131h125v-131h-125zM311 574v131h125
v-131h-125z" />
    <glyph glyph-name="igrave" unicode="&#xec;" horiz-adv-x="291" 
d="M267 566l-257 50l17 96l253 -71zM229 0h-130v396l-57 12v82h187v-490z" />
    <glyph glyph-name="iacute" unicode="&#xed;" horiz-adv-x="291" 
d="M285 616l-257 -50l-13 75l253 71zM229 0h-130v396l-57 12v82h187v-490z" />
    <glyph glyph-name="icircumflex" unicode="&#xee;" horiz-adv-x="291" 
d="M229 0h-130v396l-57 12v82h187v-490zM316 631l-30 -72l-141 60l-140 -60l-30 72l153 80h34z" />
    <glyph glyph-name="idieresis" unicode="&#xef;" horiz-adv-x="291" 
d="M-30 574v131h125v-131h-125zM196 574v131h125v-131h-125zM229 0h-130v396l-57 12v82h187v-490z" />
    <glyph glyph-name="ntilde" unicode="&#xf1;" horiz-adv-x="544" 
d="M496 0h-133v291q0 109 -88 109q-40 0 -86 -30v-370h-131v490h90l20 -56q56 66 155 66q173 0 173 -197v-303zM455 667q-2 -58 -37 -87t-89 -11l-101 33q-49 15 -68 -31l-63 29q4 54 44 82.5t95 10.5l93 -31q49 -16 67 30z" />
    <glyph glyph-name="ograve" unicode="&#xf2;" horiz-adv-x="538" 
d="M269 500q108 0 169 -71t61 -183q0 -124 -60 -190t-170 -66q-111 0 -170.5 65.5t-59.5 190.5q0 112 60.5 183t169.5 71zM269 86q49 0 72.5 37t23.5 123q0 85 -24 122t-72 37t-71.5 -37t-23.5 -122q0 -84 23 -122t72 -38zM415 566l-257 50l17 96l253 -71z" />
    <glyph glyph-name="oacute" unicode="&#xf3;" horiz-adv-x="538" 
d="M269 500q108 0 169 -71t61 -183q0 -124 -60 -190t-170 -66q-111 0 -170.5 65.5t-59.5 190.5q0 112 60.5 183t169.5 71zM269 86q49 0 72.5 37t23.5 123q0 85 -24 122t-72 37t-71.5 -37t-23.5 -122q0 -84 23 -122t72 -38zM405 616l-257 -50l-13 75l253 71z" />
    <glyph glyph-name="ocircumflex" unicode="&#xf4;" horiz-adv-x="538" 
d="M269 500q108 0 169 -71t61 -183q0 -124 -60 -190t-170 -66q-111 0 -170.5 65.5t-59.5 190.5q0 112 60.5 183t169.5 71zM269 86q49 0 72.5 37t23.5 123q0 85 -24 122t-72 37t-71.5 -37t-23.5 -122q0 -84 23 -122t72 -38zM440 631l-30 -72l-141 60l-140 -60l-30 72l153 80
h34z" />
    <glyph glyph-name="otilde" unicode="&#xf5;" horiz-adv-x="538" 
d="M269 500q108 0 169 -71t61 -183q0 -124 -60 -190t-170 -66q-111 0 -170.5 65.5t-59.5 190.5q0 112 60.5 183t169.5 71zM269 86q49 0 72.5 37t23.5 123q0 85 -24 122t-72 37t-71.5 -37t-23.5 -122q0 -84 23 -122t72 -38zM449 667q-2 -58 -37 -87t-89 -11l-101 33
q-49 15 -68 -31l-63 29q4 54 44 82.5t95 10.5l93 -31q49 -16 67 30z" />
    <glyph glyph-name="odieresis" unicode="&#xf6;" horiz-adv-x="538" 
d="M269 500q108 0 169 -71t61 -183q0 -124 -60 -190t-170 -66q-111 0 -170.5 65.5t-59.5 190.5q0 112 60.5 183t169.5 71zM269 86q49 0 72.5 37t23.5 123q0 85 -24 122t-72 37t-71.5 -37t-23.5 -122q0 -84 23 -122t72 -38zM94 574v131h125v-131h-125zM320 574v131h125v-131
h-125z" />
    <glyph glyph-name="divide" unicode="&#xf7;" horiz-adv-x="475" 
d="M177 18v134h120v-134h-120zM177 393v134h120v-134h-120zM413 229h-351v91h351v-91z" />
    <glyph glyph-name="ugrave" unicode="&#xf9;" horiz-adv-x="537" 
d="M487 0h-86l-20 60q-21 -28 -60.5 -49t-92.5 -21q-178 0 -178 203v297h130v-298q0 -55 20.5 -78.5t65.5 -23.5q46 0 88 29v371h133v-490zM390 566l-257 50l17 96l253 -71z" />
    <glyph glyph-name="uacute" unicode="&#xfa;" horiz-adv-x="537" 
d="M487 0h-86l-20 60q-21 -28 -60.5 -49t-92.5 -21q-178 0 -178 203v297h130v-298q0 -55 20.5 -78.5t65.5 -23.5q46 0 88 29v371h133v-490zM404 616l-257 -50l-13 75l253 71z" />
    <glyph glyph-name="ucircumflex" unicode="&#xfb;" horiz-adv-x="537" 
d="M487 0h-86l-20 60q-21 -28 -60.5 -49t-92.5 -21q-178 0 -178 203v297h130v-298q0 -55 20.5 -78.5t65.5 -23.5q46 0 88 29v371h133v-490zM439 631l-30 -72l-141 60l-140 -60l-30 72l153 80h34z" />
    <glyph glyph-name="udieresis" unicode="&#xfc;" horiz-adv-x="537" 
d="M487 0h-86l-20 60q-21 -28 -60.5 -49t-92.5 -21q-178 0 -178 203v297h130v-298q0 -55 20.5 -78.5t65.5 -23.5q46 0 88 29v371h133v-490zM96 574v131h125v-131h-125zM322 574v131h125v-131h-125z" />
    <glyph glyph-name="yacute" unicode="&#xfd;" horiz-adv-x="508" 
d="M242 -3l4 14l-91 -16l-146 495h147l104 -411h2l105 411h130l-151 -502q-31 -103 -83.5 -148t-130.5 -45q-37 0 -78 16.5t-60 32.5l41 89h12q47 -35 91 -35q76 0 104 99zM381 616l-257 -50l-13 75l253 71z" />
    <glyph glyph-name="ydieresis" unicode="&#xff;" horiz-adv-x="508" 
d="M242 -3l4 14l-91 -16l-146 495h147l104 -411h2l105 411h130l-151 -502q-31 -103 -83.5 -148t-130.5 -45q-37 0 -78 16.5t-60 32.5l41 89h12q47 -35 91 -35q76 0 104 99zM70 574v131h125v-131h-125zM296 574v131h125v-131h-125z" />
    <glyph glyph-name="dotlessi" unicode="&#x131;" horiz-adv-x="289" 
d="M229 0h-130v396l-57 12v82h187v-490z" />
    <glyph glyph-name="OE" unicode="&#x152;" horiz-adv-x="937" 
d="M895 0h-415l3 48q-61 -58 -153 -58q-80 0 -138 28.5t-89 79.5t-45 111t-14 134q0 71 13.5 129t44.5 107.5t89 77.5t139 28q89 0 153 -55l-3 45h415v-111h-284v-166h217l-10 -116h-207v-173h284v-109zM478 344q0 228 -148 228t-148 -228q0 -73 11.5 -124t45.5 -85.5
t91 -34.5q148 0 148 244z" />
    <glyph glyph-name="oe" unicode="&#x153;" horiz-adv-x="842" 
d="M802 210h-304q0 -58 32.5 -89.5t93.5 -31.5q57 0 143 42l25 -92q-91 -49 -184 -49q-106 0 -173 75q-63 -75 -166 -75q-111 0 -170.5 65.5t-59.5 190.5q0 112 60.5 183t169.5 71q94 0 160 -77q65 77 166 77q104 0 155.5 -66t51.5 -167v-57zM269 86q49 0 72.5 37t23.5 123
q0 85 -24 122t-72 37t-71.5 -37t-23.5 -122q0 -84 23 -122t72 -38zM677 287q0 117 -87 117q-46 0 -69 -34t-23 -83h179z" />
    <glyph glyph-name="Scaron" unicode="&#x160;" horiz-adv-x="544" 
d="M503 197q0 -85 -66 -146t-177 -61q-123 0 -220 72l50 103q31 -27 79 -46t93 -19q46 0 75 25t29 64q0 33 -23 56t-58 35t-75 28.5t-75 36t-58 59t-23 95.5q0 81 62 133.5t176 52.5t201 -46l-44 -105q-62 37 -159 37q-101 0 -101 -70q0 -33 32.5 -55.5t78.5 -38.5t92 -37.5
t78.5 -65t32.5 -107.5zM112 794l30 72l141 -60l140 60l30 -72l-153 -80h-34z" />
    <glyph glyph-name="scaron" unicode="&#x161;" horiz-adv-x="427" 
d="M238 406q-67 0 -67 -45q0 -20 22 -35t53 -27t62 -28t53 -47.5t22 -75.5q0 -70 -50.5 -114t-142.5 -44q-84 0 -147 36l27 91q49 -34 116 -34q32 0 52 15.5t20 38.5q0 24 -21.5 40.5t-52 29.5t-61.5 29t-52.5 48.5t-21.5 78.5q0 59 47 98t140 39q80 0 138 -24l-18 -95
q-55 25 -118 25zM43 644l30 72l141 -60l140 60l30 -72l-153 -80h-34z" />
    <glyph glyph-name="Ydieresis" unicode="&#x178;" horiz-adv-x="574" 
d="M568 675l-227 -440v-235h-132v236l-203 439h166l117 -304h5l131 304h143zM111 723v131h125v-131h-125zM337 723v131h125v-131h-125z" />
    <glyph glyph-name="Zcaron" unicode="&#x17d;" horiz-adv-x="585" 
d="M533 563l-329 -454h330v-109h-483v103l327 461h-326v111h481v-112zM127 789l30 72l141 -60l140 60l30 -72l-153 -80h-34z" />
    <glyph glyph-name="zcaron" unicode="&#x17e;" horiz-adv-x="473" 
d="M432 406l-223 -312h224v-94h-392v75l235 321h-236v94h392v-84zM66 644l30 72l141 -60l140 60l30 -72l-153 -80h-34z" />
    <glyph glyph-name="florin" unicode="&#x192;" horiz-adv-x="353" 
d="M94 157v242h-73v94h75v23q0 174 194 174q37 0 79 -10l-14 -100q-26 8 -61 8q-70 0 -70 -80v-15h109l-7 -94h-102v-234q0 -95 -39 -135t-110 -40q-44 0 -88 14l16 105q22 -8 44 -8q47 0 47 56z" />
    <glyph glyph-name="circumflex" unicode="&#x2c6;" horiz-adv-x="543" 
d="M442 631l-30 -72l-141 60l-140 -60l-30 72l153 80h34z" />
    <glyph glyph-name="caron" unicode="&#x2c7;" horiz-adv-x="537" 
d="M101 644l30 72l141 -60l140 60l30 -72l-153 -80h-34z" />
    <glyph glyph-name="ring" unicode="&#x2da;" horiz-adv-x="499" 
d="M389 658q0 -58 -40.5 -97.5t-98.5 -39.5q-59 0 -99.5 39.5t-40.5 97.5t40.5 97.5t99.5 39.5q57 0 98 -40t41 -97zM308 657q0 24 -16.5 40.5t-41.5 16.5q-23 0 -39.5 -16.5t-16.5 -40.5t16.5 -40t39.5 -16q25 0 41.5 16t16.5 40z" />
    <glyph glyph-name="tilde" unicode="&#x2dc;" horiz-adv-x="585" 
d="M471 667q-2 -58 -37 -87t-89 -11l-101 33q-49 15 -68 -31l-63 29q4 54 44 82.5t95 10.5l93 -31q49 -16 67 30z" />
    <glyph glyph-name="endash" unicode="&#x2013;" horiz-adv-x="493" 
d="M422 234h-351v91h351v-91z" />
    <glyph glyph-name="emdash" unicode="&#x2014;" horiz-adv-x="721" 
d="M653 234h-586v91h586v-91z" />
    <glyph glyph-name="quoteleft" unicode="&#x2018;" horiz-adv-x="259" 
d="M165 393h-133q8 165 96 297l99 -24q-61 -125 -62 -273z" />
    <glyph glyph-name="quoteright" unicode="&#x2019;" horiz-adv-x="259" 
d="M94 690h132q-6 -161 -95 -297l-99 24q59 120 62 273z" />
    <glyph glyph-name="quotesinglbase" unicode="&#x201a;" horiz-adv-x="259" 
d="M94 103h132q-6 -160 -95 -296l-99 24q59 122 62 272z" />
    <glyph glyph-name="quotedblleft" unicode="&#x201c;" horiz-adv-x="429" 
d="M342 393h-133q5 146 84 288l98 -24q-47 -102 -49 -264zM170 393h-133q6 144 106 297l99 -24q-71 -138 -72 -273z" />
    <glyph glyph-name="quotedblright" unicode="&#x201d;" horiz-adv-x="429" 
d="M86 690h133q-5 -147 -84 -288l-98 24q48 102 49 264zM258 690h133q-6 -147 -106 -297l-99 24q71 136 72 273z" />
    <glyph glyph-name="quotedblbase" unicode="&#x201e;" horiz-adv-x="429" 
d="M86 114h133q-5 -145 -84 -286l-98 23q48 102 49 263zM258 114h133q-6 -145 -106 -295l-99 23q71 138 72 272z" />
    <glyph glyph-name="dagger" unicode="&#x2020;" horiz-adv-x="494" 
d="M429 242h-139v-142h-93v142h-132v87h132v136h93v-136h139v-87z" />
    <glyph glyph-name="daggerdbl" unicode="&#x2021;" horiz-adv-x="400" 
d="M350 -168l-300 -1v899h300v-898z" />
    <glyph glyph-name="bullet" unicode="&#x2022;" horiz-adv-x="342" 
d="M237 184h-133q-26 135 0 249h133q28 -111 0 -249z" />
    <glyph glyph-name="ellipsis" unicode="&#x2026;" horiz-adv-x="680" 
d="M47 0v141h132v-141h-132zM274 0v141h132v-141h-132zM501 0v141h131v-141h-131z" />
    <glyph glyph-name="perthousand" unicode="&#x2030;" horiz-adv-x="1193" 
d="M559 208q0 110 46.5 166.5t130.5 56.5q35 0 68 -14.5t50 -36.5q16 21 48.5 36t66.5 15q87 0 134.5 -56t47.5 -167t-48 -164.5t-134 -53.5q-34 0 -66.5 14t-48.5 35q-16 -21 -49.5 -35t-68.5 -14q-84 0 -130.5 53.5t-46.5 164.5zM42 466q0 111 46.5 167t130.5 56
q87 0 134.5 -56t47.5 -167t-48 -164.5t-134 -53.5q-84 0 -130.5 53.5t-46.5 164.5zM623 713l-244 -758h-46l244 758h46zM168 466q0 -72 12.5 -103t38.5 -31q30 0 43 30.5t13 103.5q0 78 -12.5 108.5t-43.5 30.5q-28 0 -39.5 -31t-11.5 -108zM918 208q0 -72 12.5 -103
t38.5 -31q30 0 43 30.5t13 103.5q0 78 -12.5 108.5t-43.5 30.5q-27 0 -39 -31t-12 -108zM685 208q0 -72 12.5 -103t38.5 -31q29 0 42.5 30.5t13.5 103.5q-1 78 -14 108.5t-42 30.5q-28 0 -39.5 -31t-11.5 -108z" />
    <glyph glyph-name="guilsinglleft" unicode="&#x2039;" horiz-adv-x="296" 
d="M187 18l-157 202l157 195l81 -60l-94 -137l94 -146z" />
    <glyph glyph-name="guilsinglright" unicode="&#x203a;" horiz-adv-x="296" 
d="M266 220l-157 -202l-81 54l94 146l-94 137l81 60z" />
    <glyph glyph-name="fraction" unicode="&#x2044;" horiz-adv-x="300" 
d="M295 713l-244 -758h-46l244 758h46z" />
    <glyph glyph-name="zerosuperior" unicode="&#x2070;" 
d="M42 465q0 225 189 225q194 0 194 -225q0 -217 -194 -217q-95 0 -142 50.5t-47 166.5zM169 465q0 -72 14 -99.5t48 -27.5q36 0 51.5 28t15.5 99q0 77 -15.5 106t-51.5 29q-34 0 -48 -29t-14 -106z" />
    <glyph glyph-name="foursuperior" unicode="&#x2074;" 
d="M418 352h-57v-94h-114v94h-207v68l100 270l78 -25v-41l-64 -181h93v237h114v-237h57v-91z" />
    <glyph glyph-name="fivesuperior" unicode="&#x2075;" 
d="M152 425l-87 28v227h328l-9 -91h-205v-42q0 -39 -9 -57q46 51 129 51q53 0 86 -32t33 -90q0 -79 -50.5 -125t-133.5 -46q-89 0 -181 46l29 91q26 -15 67.5 -28t71.5 -13q34 0 53 17.5t19 46.5q0 55 -63 55q-45 0 -78 -38z" />
    <glyph glyph-name="sixsuperior" unicode="&#x2076;" 
d="M278 602q-48 0 -77 -27.5t-34 -74.5q35 53 117 53q64 0 101 -37t37 -93q0 -80 -51.5 -127.5t-142.5 -47.5q-81 0 -132.5 56.5t-51.5 176.5q0 92 61.5 150.5t149.5 58.5q90 0 141 -16l-21 -86q-39 14 -97 14zM236 478q-47 0 -67 -41q0 -53 18 -78t47 -25q28 0 44.5 19
t16.5 53q0 72 -59 72z" />
    <glyph glyph-name="sevensuperior" unicode="&#x2077;" 
d="M407 580l-184 -322h-137l196 322h-222v100h347v-100z" />
    <glyph glyph-name="eightsuperior" unicode="&#x2078;" 
d="M234 248q-78 0 -125.5 33.5t-47.5 98.5q0 59 78 97q-69 37 -69 104q0 51 45.5 80t118.5 29q74 0 118 -29t44 -80q0 -57 -71 -96q81 -39 81 -105q0 -65 -47.5 -98.5t-124.5 -33.5zM234 322q29 0 47 13t18 37q0 23 -18 37t-53 29q-60 -30 -60 -66q0 -50 66 -50zM176 574
q0 -30 66 -54q48 27 48 54q0 18 -14.5 30t-41.5 12q-30 0 -44 -12t-14 -30z" />
    <glyph glyph-name="ninesuperior" unicode="&#x2079;" 
d="M201 336q89 0 98 107q-16 -26 -46.5 -42t-64.5 -16q-65 0 -104.5 39.5t-39.5 108.5q0 72 51.5 114.5t135.5 42.5q89 0 140.5 -52.5t51.5 -164.5q0 -104 -58.5 -164.5t-150.5 -60.5q-80 0 -146 21l22 88q48 -21 111 -21zM231 459q23 0 43 14.5t24 37.5q-7 92 -66 92
q-28 0 -44.5 -18t-16.5 -52q0 -74 60 -74z" />
    <glyph glyph-name="zeroinferior" unicode="&#x2080;" 
d="M42 207q0 225 189 225q194 0 194 -225q0 -217 -194 -217q-95 0 -142 50.5t-47 166.5zM169 207q0 -72 14 -99.5t48 -27.5q36 0 51.5 28t15.5 99q0 77 -15.5 106t-51.5 29q-34 0 -48 -29t-14 -106z" />
    <glyph glyph-name="oneinferior" unicode="&#x2081;" 
d="M208 92v103q0 43 6 86q-24 -35 -61.5 -58t-77.5 -25v103q111 22 161 121h87v-330h97v-92h-341v92h129z" />
    <glyph glyph-name="twoinferior" unicode="&#x2082;" 
d="M411 313q0 -118 -208 -221v-7q49 11 90 11h119v-96h-332v93q117 67 160.5 109.5t43.5 76.5q0 25 -18.5 38.5t-49.5 13.5q-65 0 -121 -34l-43 91q80 44 183 44q81 0 128.5 -33.5t47.5 -85.5z" />
    <glyph glyph-name="threeinferior" unicode="&#x2083;" 
d="M408 127q0 -61 -51 -99t-136 -38q-49 0 -94 13.5t-67 29.5l37 84q19 -13 54 -25t63 -12q37 0 58 14.5t21 36.5q0 25 -27 35t-85 10l-7 69q46 0 72 14t26 40q0 41 -65 41q-58 0 -106 -29l-34 85q59 36 150 36q77 0 123 -31t46 -80q0 -40 -23.5 -67t-59.5 -37
q44 -7 74.5 -29.5t30.5 -60.5z" />
    <glyph glyph-name="fourinferior" unicode="&#x2084;" 
d="M418 94h-57v-94h-114v94h-207v68l100 270l78 -25v-41l-64 -181h93v237h114v-237h57v-91z" />
    <glyph glyph-name="fiveinferior" unicode="&#x2085;" 
d="M152 167l-87 28v227h328l-9 -91h-205v-42q0 -39 -9 -57q46 51 129 51q53 0 86 -32t33 -90q0 -79 -50.5 -125t-133.5 -46q-89 0 -181 46l29 91q26 -15 67.5 -28t71.5 -13q34 0 53 17.5t19 46.5q0 55 -63 55q-45 0 -78 -38z" />
    <glyph glyph-name="sixinferior" unicode="&#x2086;" 
d="M278 344q-48 0 -77 -27.5t-34 -74.5q35 53 117 53q64 0 101 -37t37 -93q0 -80 -51.5 -127.5t-142.5 -47.5q-81 0 -132.5 56.5t-51.5 176.5q0 92 61.5 150.5t149.5 58.5q90 0 141 -16l-21 -86q-39 14 -97 14zM236 220q-47 0 -67 -41q0 -53 18 -78t47 -25q28 0 44.5 19
t16.5 53q0 72 -59 72z" />
    <glyph glyph-name="seveninferior" unicode="&#x2087;" 
d="M407 322l-184 -322h-137l196 322h-222v100h347v-100z" />
    <glyph glyph-name="eightinferior" unicode="&#x2088;" 
d="M234 -10q-78 0 -125.5 33.5t-47.5 98.5q0 59 78 97q-69 37 -69 104q0 51 45.5 80t118.5 29q74 0 118 -29t44 -80q0 -57 -71 -96q81 -39 81 -105q0 -65 -47.5 -98.5t-124.5 -33.5zM234 64q29 0 47 13t18 37q0 23 -18 37t-53 29q-60 -30 -60 -66q0 -50 66 -50zM176 316
q0 -30 66 -54q48 27 48 54q0 18 -14.5 30t-41.5 12q-30 0 -44 -12t-14 -30z" />
    <glyph glyph-name="nineinferior" unicode="&#x2089;" 
d="M201 78q89 0 98 107q-16 -26 -46.5 -42t-64.5 -16q-65 0 -104.5 39.5t-39.5 108.5q0 72 51.5 114.5t135.5 42.5q89 0 140.5 -52.5t51.5 -164.5q0 -104 -58.5 -164.5t-150.5 -60.5q-80 0 -146 21l22 88q48 -21 111 -21zM231 201q23 0 43 14.5t24 37.5q-7 92 -66 92
q-28 0 -44.5 -18t-16.5 -52q0 -74 60 -74z" />
    <glyph glyph-name="Euro" unicode="&#x20ac;" horiz-adv-x="505" 
d="M443 207l24 -93q-76 -42 -160 -42q-180 0 -216 179h-61v65h53v42h-53v65h62q19 83 75 128.5t140 45.5q91 0 158 -33q-16 -62 -25 -93q-52 28 -120 28q-74 0 -95 -76h114l-8 -65h-114v-42h108q-2 -11 -3.5 -32.5t-3.5 -32.5h-93q9 -44 32 -62t63 -18q62 0 123 36z" />
    <glyph glyph-name="trademark" unicode="&#x2122;" horiz-adv-x="828" 
d="M550 262l47 -208l-183 109l-183 -109l46 208l-159 140l211 20l85 195l84 -195l212 -20z" />
    <glyph glyph-name="Omega" unicode="&#x2126;" horiz-adv-x="782" 
d="M389 553q-86 0 -130 -56t-44 -153q0 -72 27 -130.5t67 -92.5l47 -40v-81h-287v107q5 0 30 -1t33 -1t29 -1.5t32 -3.5t26.5 -6t28.5 -9q1 1 1 4q-90 53 -134 116t-44 159q0 125 82 211t236 86q160 0 243 -85.5t83 -211.5q0 -94 -48 -160t-138 -115q0 -3 1 -4q13 5 28.5 9
t26.5 6t32 3.5t29 1.5t33 1t30 1v-107h-287v81l47 40q40 34 66.5 90.5t27.5 129.5q0 212 -174 212z" />
    <glyph glyph-name="onethird" unicode="&#x2153;" horiz-adv-x="990" 
d="M645 713l-244 -758h-46l244 758h46zM185 333v103q0 42 6 86q-24 -35 -61.5 -58t-77.5 -25v103q111 22 161 121h87v-330h97v-92h-341v92h129zM938 127q0 -61 -51 -99t-136 -38q-49 0 -94 13.5t-67 29.5l37 84q19 -13 54 -25t63 -12q37 0 58 14.5t21 36.5q0 25 -27 35
t-85 10l-7 69q46 0 72 14t26 40q0 41 -65 41q-58 0 -106 -29l-34 85q59 36 150 36q77 0 123 -31t46 -80q0 -40 -23.5 -67t-59.5 -37q44 -7 74.5 -29.5t30.5 -60.5z" />
    <glyph glyph-name="twothirds" unicode="&#x2154;" horiz-adv-x="1028" 
d="M676 713l-244 -758h-46l244 758h46zM411 552q0 -118 -208 -221v-7q50 11 90 11h119v-96h-332v93q117 67 160.5 109.5t43.5 76.5q0 25 -18.5 38.5t-49.5 13.5q-65 0 -121 -34l-43 91q80 44 183 44q81 0 128.5 -33.5t47.5 -85.5zM976 127q0 -61 -51 -99t-136 -38
q-49 0 -94 13.5t-67 29.5l37 84q19 -13 54 -25t63 -12q37 0 58 14.5t21 36.5q0 25 -27 35t-85 10l-7 69q46 0 72 14t26 40q0 41 -65 41q-58 0 -106 -29l-34 85q59 36 150 36q77 0 123 -31t46 -80q0 -40 -23.5 -67t-59.5 -37q44 -7 74.5 -29.5t30.5 -60.5z" />
    <glyph glyph-name="oneeighth" unicode="&#x215b;" horiz-adv-x="963" 
d="M640 713l-244 -758h-46l244 758h46zM185 333v103q0 42 6 86q-24 -35 -61.5 -58t-77.5 -25v103q111 22 161 121h87v-330h97v-92h-341v92h129zM739 -10q-78 0 -125.5 33.5t-47.5 98.5q0 59 78 97q-69 37 -69 104q0 51 45.5 80t118.5 29q74 0 118 -29t44 -80q0 -57 -71 -96
q81 -39 81 -105q0 -65 -47.5 -98.5t-124.5 -33.5zM739 64q29 0 47 13t18 37q0 23 -18 37t-53 29q-60 -30 -60 -66q0 -50 66 -50zM681 316q0 -30 66 -54q48 27 48 54q0 18 -14.5 30t-41.5 12q-30 0 -44 -12t-14 -30z" />
    <glyph glyph-name="threeeighths" unicode="&#x215c;" horiz-adv-x="300" 
d="M295 713l-244 -758h-46l244 758h46z" />
    <glyph glyph-name="fiveeighths" unicode="&#x215d;" horiz-adv-x="300" 
d="M295 713l-244 -758h-46l244 758h46z" />
    <glyph glyph-name="seveneighths" unicode="&#x215e;" horiz-adv-x="300" 
d="M295 713l-244 -758h-46l244 758h46z" />
    <glyph glyph-name="minus" unicode="&#x2212;" horiz-adv-x="493" 
d="M422 229h-351v91h351v-91z" />
    <glyph glyph-name="infinity" unicode="&#x221e;" horiz-adv-x="958" 
d="M883 265q0 -90 -50.5 -148.5t-140.5 -58.5q-59 0 -109 35.5t-102 97.5q-51 -63 -102 -98.5t-115 -35.5q-84 0 -136.5 59.5t-52.5 148.5q0 90 51.5 148.5t137.5 58.5q61 0 112.5 -37t104.5 -101q51 65 100.5 101t110.5 36q92 0 141.5 -57.5t49.5 -148.5zM277 159
q39 0 73 27t73 77q-44 54 -77 81t-69 27q-90 0 -90 -106q0 -50 22.5 -78t67.5 -28zM771 265q0 45 -23 75t-69 30q-37 0 -68.5 -27t-71.5 -79q40 -51 72.5 -78t67.5 -27q45 0 68.5 31t23.5 75z" />
    <glyph glyph-name="notequal" unicode="&#x2260;" horiz-adv-x="489" 
d="M427 150h-218l-68 -151h-46l68 151h-101v97h144l38 83h-182v96h225l52 115h46l-52 -115h94v-96h-137l-38 -83h175v-97z" />
    <glyph glyph-name="lessequal" unicode="&#x2264;" horiz-adv-x="418" 
d="M39 515l340 145v-141l-261 -97v-4l261 -96v-137l-340 139v191zM387 55h-356v90h356v-90z" />
    <glyph glyph-name="greaterequal" unicode="&#x2265;" horiz-adv-x="418" 
d="M39 660l340 -145v-191l-340 -139v137l261 96v4l-261 97v141zM387 55h-356v90h356v-90z" />
    <glyph glyph-name="ff" unicode="&#xfb00;" horiz-adv-x="642" 
d="M664 697l-9 -103q-26 8 -62 8q-71 0 -71 -77v-35h109v-94h-109v-396h-131v396h-168v-396h-131v396h-72v94h72v41q0 176 193 176q38 0 80 -10l-9 -103q-27 8 -62 8q-71 0 -71 -77v-35h168v41q0 176 193 176q38 0 80 -10z" />
    <glyph glyph-name="fi" unicode="&#xfb01;" horiz-adv-x="582" 
d="M524 0h-130v396h-171v-396h-131v396h-72v94h72v41q0 86 48.5 131t142.5 45q35 0 79 -10v-103q-27 8 -70 8q-69 0 -69 -77v-35h301v-490zM390 571v119h132v-119h-132z" />
    <glyph glyph-name="fl" unicode="&#xfb02;" horiz-adv-x="639" 
d="M365 697l-9 -103q-27 8 -62 8q-71 0 -71 -77v-35h109v-94h-109v-396h-131v396h-72v94h72v41q0 176 193 176q38 0 80 -10zM541 -10q-72 0 -104 36t-32 104v560h129v-553q0 -29 17.5 -38t61.5 -9v-92q-38 -8 -72 -8z" />
    <glyph glyph-name="ffi" unicode="&#xfb03;" horiz-adv-x="881" 
d="M823 0h-130v396h-171v-396h-131v396h-168v-396h-131v396h-72v94h72v41q0 176 193 176q38 0 80 -10l-9 -103q-27 8 -62 8q-32 0 -51.5 -20.5t-19.5 -56.5v-35h168v41q0 86 48.5 131t142.5 45q37 0 79 -10v-103q-26 8 -70 8q-69 0 -69 -77v-35h301v-490zM689 571v119h132
v-119h-132z" />
    <glyph glyph-name="ffl" unicode="&#xfb04;" horiz-adv-x="938" 
d="M664 697l-9 -103q-26 8 -62 8q-33 0 -52 -20t-19 -57v-35h109v-94h-109v-396h-131v396h-168v-396h-131v396h-72v94h72v41q0 176 193 176q38 0 80 -10l-9 -103q-27 8 -62 8q-33 0 -52 -20t-19 -57v-35h168v41q0 176 193 176q38 0 80 -10zM841 -10q-137 0 -137 140v560h130
v-553q0 -29 17.5 -38t60.5 -9v-92q-37 -8 -71 -8z" />
    <glyph glyph-name="s_t" unicode="&#xfb06;" horiz-adv-x="743" 
d="M438 154v243q-5 0 -27.5 -1t-35.5 -1q-21 0 -66 5.5t-67 5.5q-32 0 -50 -12.5t-18 -32.5t21.5 -35t52 -27t61 -28t52 -47.5t21.5 -75.5q0 -70 -50.5 -114t-142.5 -44q-83 0 -146 36l27 91q49 -34 116 -34q71 0 71 54q0 24 -21 40.5t-51 29.5t-60 29.5t-51 49t-21 78.5
q0 58 47 97t140 39q27 0 76 -6t75 -6q9 0 27 1t22 1v85l128 42v-127h131v-93h-131v-239q0 -57 51 -57q34 0 76 21l20 -96q-61 -36 -129 -36q-66 0 -107 41t-41 123z" />
    <glyph glyph-name="CR" horiz-adv-x="220" 
 />
    <glyph glyph-name="zerooldstyle" horiz-adv-x="578" 
d="M286 -10q-116 0 -177.5 71t-61.5 210q0 135 62.5 210t176.5 75q120 0 182.5 -75t62.5 -210q0 -138 -64.5 -209.5t-180.5 -71.5zM286 95q109 0 109 176q0 179 -109 179q-103 0 -103 -179q0 -176 103 -176z" />
    <glyph glyph-name="oneoldstyle" horiz-adv-x="492" 
d="M214 99v195l6 105q-24 -35 -68.5 -59.5t-87.5 -27.5v108q126 25 180 126h100v-447h102v-99h-358v99h126z" />
    <glyph glyph-name="twooldstyle" horiz-adv-x="533" 
d="M477 379q0 -72 -55.5 -137t-195.5 -145v-7q43 19 102 19h154v-109h-413v99q159 92 216 148.5t57 113.5q0 88 -118 88q-76 0 -140 -35l-35 98q101 44 213 44q102 0 158.5 -49t56.5 -128z" />
    <glyph glyph-name="threeoldstyle" horiz-adv-x="535" 
d="M326 361q0 88 -110 88q-72 0 -134 -34l-35 97q96 44 199 44q106 0 161.5 -47.5t55.5 -127.5q0 -53 -35.5 -95.5t-93.5 -60.5v-4q67 -7 107.5 -46t40.5 -100q0 -80 -61.5 -139t-147 -87t-183.5 -33l-11 112q125 4 196.5 43.5t71.5 103.5q0 89 -133 89h-39v99h38
q53 0 83 26t30 72z" />
    <glyph glyph-name="fouroldstyle" horiz-adv-x="585" 
d="M543 0h-93v-168h-131v168h-280v85l279 461h132v-441h93v-105zM319 105v271l-162 -271h162z" />
    <glyph glyph-name="fiveoldstyle" horiz-adv-x="514" 
d="M469 121q0 -64 -25.5 -116t-66.5 -85.5t-97 -56.5t-110.5 -34t-113.5 -14l-11 111q133 6 211 47.5t78 124.5q0 50 -30 74.5t-71 24.5q-59 0 -102 -35l-84 31l33 353h351l-9 -104h-243l-11 -122q-5 -41 -14 -61q72 38 142 38q68 0 120.5 -46.5t52.5 -129.5z" />
    <glyph glyph-name="sixoldstyle" horiz-adv-x="575" 
d="M479 598q-110 -14 -190 -68.5t-102 -149.5q47 84 153 84q78 0 131.5 -52.5t53.5 -166.5q0 -104 -62.5 -179.5t-175.5 -75.5q-109 0 -173.5 87.5t-64.5 226.5q0 92 35 167t95.5 123t135 76t159.5 35zM288 365q-39 0 -71.5 -26.5t-36.5 -64.5q8 -182 108 -182q50 0 77 37.5
t27 100.5q0 135 -104 135z" />
    <glyph glyph-name="sevenoldstyle" horiz-adv-x="544" 
d="M493 435l-283 -581h-149l295 581h-304v111h441v-111z" />
    <glyph glyph-name="eightoldstyle" horiz-adv-x="571" 
d="M506 520q0 -91 -119 -150q63 -27 99 -66t36 -107q0 -88 -64.5 -147.5t-175.5 -59.5q-106 0 -170 55.5t-64 142.5q0 104 132 154q-55 28 -86 67.5t-31 104.5q0 84 63.5 130t155.5 46q95 0 159.5 -47t64.5 -123zM389 197q0 16 -4.5 29t-16.5 24.5t-20.5 18.5t-30.5 17
t-31 13.5l-36 13.5q-70 -51 -70 -116q0 -52 31.5 -81.5t70.5 -29.5q44 0 75.5 28.5t31.5 82.5zM194 513q0 -45 31.5 -69.5t93.5 -47.5q56 50 56 113q0 39 -26.5 60.5t-66.5 21.5q-36 0 -62 -21t-26 -57z" />
    <glyph glyph-name="nineoldstyle" horiz-adv-x="575" 
d="M82 -74q113 5 197.5 65.5t106.5 169.5q-43 -79 -147 -79q-75 0 -132.5 62.5t-57.5 174.5q0 102 62.5 169.5t176.5 67.5q111 0 174 -79.5t63 -226.5q0 -125 -60.5 -223.5t-157.5 -151.5t-214 -60zM284 182q45 0 77.5 28.5t33.5 71.5q-12 171 -111 171q-49 0 -75.5 -36
t-26.5 -99q0 -67 26.5 -101.5t75.5 -34.5z" />
    <glyph glyph-name="commasuperior" horiz-adv-x="266" 
d="M110 544v126h132v-149q0 -61 -33 -91t-99 -37v68q31 7 31 68z" />
    <glyph glyph-name="escudo" horiz-adv-x="2000" 
d="M1823 295q4 -66 -6.5 -184t-46.5 -239l-3 -7q-3 -7 -5 -11t-7.5 -7.5t-11.5 -1.5q-9 7 -5.5 23t12 41t8.5 30q-1 4 -10 -7.5t-19.5 -21.5t-19.5 0q-5 14 -1.5 20.5t11.5 30t9 50.5q0 4 -4 -3q-14 -28 -26 -23q-6 11 -1.5 17t13.5 31.5t9 55.5q0 -1 -1 -3q-9 -43 -24 -36
q-8 1 -7.5 12.5t4.5 21.5t8 32t2 44l-1 -2q-8 -32 -20 -32h-3q-9 4 -9.5 15t4 23t8 25.5t0.5 21.5q-11 -24 -23 -26q-12 8 -11 34t6.5 44.5t-1.5 23.5q-16 -54 -36 -61q-9 2 -14 6q-12 17 1 38q0 1 -1 1q-5 0 -10 -11q-10 2 -13 5q-15 14 -3 51q0 2 -1 2t-4 -3.5t-5.5 -12
t-2.5 -18.5q3 -32 25 -34v-2q-2 -20 7 -25h3q4 -32 43 -122.5t39 -102.5q-1 -13 -12 -16q-7 -2 -12.5 1t-8.5 7.5t-6 11.5t-4 8q-2 -1 -1 -6.5t-0.5 -12.5t-8.5 -9q-5 0 -8.5 1t-6 3t-5 6.5t-3.5 7t-3 8.5t-3 8q2 -16 -6 -19t-18 2.5t-14 13.5q-1 1 -2 0.5t-3.5 -2
t-4.5 -2.5t-5 -3l-2 -2q5 -10 -2 -26.5t-22 -16.5q-12 0 -20 4q-2 -22 -4 -26q-3 -4 -7.5 -5t-8.5 -0.5t-5 0.5q-2 -2 0 -6t7.5 -11t8.5 -13h-1q-2 -1 -3 -1l-12 -4h-1l-19 39q6 0 9.5 2t4.5 4.5t0 4.5q-7 9 -14.5 6.5t-12.5 -9.5l-6 -8q15 -15 29 -43q-47 -17 -85 -26
q-37 37 -70 49q-36 -1 -48 26q-1 2 -7 -0.5t-16.5 -4.5t-26.5 7q-1 0 -3 -2t-5.5 -4.5t-7.5 -3.5q-1 0 1.5 -1.5t5.5 -5t2 -9.5q0 -1 6.5 -2t15.5 -4t12 -9q0 -1 16.5 -3.5t43 -13t48.5 -28.5l-28 -7q-28 22 -60 19q-30 -1 -42 -37q-17 -3 -58 -7q-10 4 -18.5 12.5
t-0.5 18.5q6 8 17 -2q7 -7 10 3q1 6 4 10l1 5q-1 2 -6 0l-19 -2q-7 0 -12 5.5t-5 12.5q0 8 5 14t12 6q2 0 2 -2q-2 -2 -2 -5t2 -5.5t5 -1.5q5 1 6 7t-3 12t-11 6q-13 -1 -24 -14q-25 -38 -49 -45l1 -4q0 -4 -2 -8.5t-9 -6.5l-1 -3q0 -3 -3.5 -5.5t-10.5 -2.5l-7 -12
q-13 -1 -40 -1t-40 1q-5 12 -7 12q-7 0 -10 2.5t-4 5.5v3q-7 2 -9.5 6.5t-2.5 8.5l1 4q-11 3 -23 14.5t-18 20.5l-7 10q-5 6 -11.5 9.5t-9.5 4.5h-4q-7 0 -11 -6t-2.5 -12t6.5 -7q3 -1 5 1.5t2 5.5q0 2 -3 5l2 2q7 0 12 -6t5 -14q0 -18 -17 -18l-19 2q-5 2 -5 0l1 -5l3 -10
q1 -4 3.5 -5t4.5 1l2 1q5 4 9.5 4.5t6.5 -1.5l2 -1q8 -10 -1.5 -19t-19.5 -12q-38 4 -56 7q-6 16 -16.5 25.5t-18.5 10.5l-8 1q-32 3 -60 -19q-18 4 -27 7q22 18 48 28.5t42.5 13t16.5 3.5q2 3 5 5t6 3.5t6.5 2.5t6.5 1.5t5.5 1t3.5 0.5t1 1q-1 6 2 9.5t6 5t2 1.5
q-3 1 -6 2.5t-4.5 3.5t-3 3t-2.5 1q-17 -9 -27 -7t-16.5 4.5t-7.5 0.5q-5 -12 -17 -18.5t-21 -7.5h-10q-30 -11 -70 -49q-32 8 -92 28l21 9q0 2 -5.5 3t-10.5 1h-5q-13 1 15 16q19 10 61 36l-13 10l-7 5q-4 0 -11 -2.5t-12 -1.5q-4 1 -21.5 13.5l-36 26t-19.5 14.5
q-3 3 -14 10t-19.5 13.5t-12.5 13.5q-4 1 -3 15.5t0 17.5q0 16 -18 29q4 38 -6 72q41 -11 70 -3q0 -3 -0.5 -6t-1 -7.5t-0.5 -9.5q-1 -7 -5 -23.5t-4 -24t2 -23.5q5 -13 13 -25q4 0 7 -10q14 -19 53 -42q6 -5 18 -7q4 -1 22 -1t26 -3q1 -1 9.5 -6t13.5 -7q1 0 6.5 -1.5
t9.5 -3.5t5 -5q23 8 39 7.5t26.5 -3.5t11.5 -2q8 10 17 2l9 -7q17 7 25.5 5t17.5 -10t11 -8q1 0 6 1.5t8 2t8.5 -5t10.5 -16.5q2 -4 6.5 -8t10.5 -6t10.5 -4t9.5 -3l5 -1q6 -1 10 1t5 4l1 2q1 2 2.5 5.5t1.5 4.5l5 7q4 4 13 4q7 0 12 -5.5t5 -12.5q0 -8 -3 -12l-3 2
q-3 1 -6 1q-12 0 -12 -13q-1 -7 4.5 -14.5t11.5 -11.5l5 -4q7 -5 14 -4t11 4l5 4l16 9q4 0 7.5 -3t5.5 -6l1 -2q5 10 15 11q6 -1 15 -9q2 -2 5 -4t11.5 -4.5t13.5 4.5l6.5 4.5t9.5 10.5t6 15q0 13 -13 13q-2 0 -5 -1.5t-4 -1.5q-3 4 -3 12q0 7 5.5 12.5t12.5 5.5q8 0 12 -4
q2 -1 3.5 -3.5t2.5 -3.5l3 -10q0 -1 1 -2.5t5.5 -3.5t10.5 -1l6 2l13.5 4t13 6.5t8.5 9.5q5 11 10.5 16.5t9 5t8.5 -2t6 -1.5t10.5 8t17.5 9.5t25 -4.5l10 7q9 8 17 -2l12 4q12 3 35 1t48 -15l4 -2q15 4 47.5 -6t50.5 -6q8 0 8 29q-19 7 -13 55q-6 2 -9.5 -7.5t-4 -22
t-5 -22.5t-12.5 -9q-6 2 -6 35q0 18 -8 26v-3q-1 -3 -2 -8t-3 -9.5t-6 -7.5t-9 -3q-6 2 -6.5 12t-1.5 32t-9 44q2 -5 -1.5 -10.5t-8.5 -5.5q-14 3 -18.5 21t-0.5 36q-21 4 -39 34l-1 -11q0 -11 -1 -19t-5 -17.5t-11 -12.5q-3 -26 -19 -51q-41 -61 -132 -61h-2
q-13 0 -30.5 -2t-48.5 -16t-44 -39q-1 -3 -6 -8t-10 -5q-6 0 -15 13q-13 25 -44 39t-48.5 16t-30.5 2h-1q-42 0 -75 15.5t-44 28t-13 17.5q-28 40 -18 97q-5 0 -6 1q-12 2 6 33q4 7 7.5 10.5t5.5 2.5h3l-4 12q-3 7 1.5 16t10.5 14l6 5q-2 1 -3 6q-6 15 -8 49q-9 4 -15.5 10
t-8 9.5t-1.5 4.5q-18 2 -44 -5t-38 -7q-10 0 -28 5t-27 5q8 -13 39 -21q-13 -22 -20 -32.5t-28.5 -32t-46.5 -34.5q-1 -1 -3 -1q-2 -2 -13 -6l-3 -2q-32 -13 -81 -10l-9 21q-1 1 -2 1t-1 -1t2 -8.5l3.5 -13t3.5 -16t2 -19.5t-1 -20.5t-4 -21.5q-8 -30 -36 -61t-79 -42
q0 -12 -2 -27t-3 -21t0 -12q5 -12 11 -47t11 -41q10 -1 22 -10l6 27q4 7 6 12.5t2 7.5v2q0 7 1 11t2 5l1 1q3 5 8.5 6t9.5 0l4 -1q10 -2 15.5 -1t7.5 3l2 2q8 5 14 6.5t8 -0.5l3 -1q3 -3 2.5 -7t-3.5 -8l-2 -4q8 0 14 -6t8 -12l2 -5q4 -17 -2.5 -28t-14.5 -13l-8 -2
q-10 0 -16 4.5t-7 9.5v4q-1 8 4.5 13t11.5 5l6 1q-2 5 -5 7.5t-5 2.5h-2q-12 3 -22 -2.5t-14 -12.5l-3 -8q-9 -18 -7.5 -32.5t7.5 -24.5l6 -10l9 -2l37 23q2 0 2 2h9q10 0 29 -7l-45 -40q11 -8 21 -9.5t15 0.5l4 3q12 13 8 45h1q1 -1 2 -1l35 -15l-31 -53q20 -7 28 10.5
t9 40.5q9 -4 17 -6l-1 -9q-1 -10 -6.5 -22t-10.5 -19l-5 -7q9 2 18 -0.5t13 -5.5l4 -3q12 -12 12 -33q-2 -15 -15 -15q-15 0 -15 15t14 15q-3 8 -8.5 9t-9.5 -2l-4 -3q-10 -11 -7 -20.5t12 -15.5l8 -7q13 -7 24 -4t18 11l7 8q-32 57 -30 102q9 -4 27 -10q-5 -22 -1 -37
t11 -23l8 -8q4 3 6 10.5t2 13.5l1 6l9 27q20 -4 24 -6q-4 -12 -7 -28.5t-4 -26.5l-1 -11q2 -3 6.5 -4.5t8.5 -2.5h4q9 -1 11.5 1.5t0.5 5.5l-2 3q-11 9 -8 15q3 7 10 7t13 -3l6 -3q14 -8 19.5 -16.5t4.5 -13.5l-2 -5q-2 -5 -11 -10.5t-17 -8.5l-8 -3q6 -4 15 -6.5t16 -2
t15 1.5h8q0 15 15 18l2 1q12 2 20 -8q3 -3 4 -7l19 5q18 3 24 72q6 0 16 -2l-11 -66l34 19l10.5 6t10.5 4.5t9.5 2.5t8 1.5t6.5 0.5h5.5t4.5 -0.5t3 -0.5h1q13 -2 22 -12.5t9 -24.5q0 -15 -11 -25.5t-26 -10.5t-26 10t-12 26l-24 -14q-39 -25 -74 -25q-4 -21 -26 -21
q-16 0 -23 13q-32 1 -56.5 10t-32.5 17l-9 8q-7 8 -9 3q-12 -16 -31 -20t-32 0l-13 5q-5 3 -7.5 2.5t-3.5 -1.5l-1 -2q-4 -7 -10.5 -9t-11.5 -1l-4 2q-9 5 -11 10.5t1 9.5l2 3q6 6 -2 7q-11 -1 -18 1.5t-8 5.5l-2 3q-2 5 1 10t7 8l4 2q2 3 0.5 5.5t-3.5 4.5l-2 1q-6 4 -9 8
t-3 6v2q-8 0 -11.5 2t-3.5 4v2q0 3 5 5t11 2h5q8 0 11.5 2.5t3.5 5.5l-1 2l-65 13q-25 -21 -60.5 -35.5t-58.5 -18.5l-23 -4q-1 -5 -0.5 -9t0.5 -8l1 -5h2q13 0 13 -13q0 -14 -13 -14q-14 0 -23 15t-10 33h-14q-31 0 -60 13t-42 25l-14 13q-5 5 -9 5q-3 0 -8.5 -5.5
t-13.5 -5.5q-22 0 -22 23q-2 10 6 17.5t23 7.5l28 -2q-14 41 6.5 60.5t46.5 19.5q38 0 38 -31q0 -13 -8.5 -21t-21.5 -8q-21 0 -28 22q-4 -2 -6.5 -5t-3.5 -6l-1 -2q-12 -38 23 -60.5t98 -22.5q36 0 68.5 10t46.5 20l14 10l-22 12q-8 4 -21 4v-3q0 -11 -7 -18.5t-18 -7.5
t-18.5 7.5t-7.5 18.5q0 3 1 6.5t4 9t11 8.5t20 3q-5 17 -18 28.5t-11 22.5q2 17 -4.5 46.5t-13.5 52t-9 45.5t7 26q4 4 19.5 16.5t21.5 20.5l4 8q5 22 -16.5 51t-30.5 30q-6 1 -23 -10.5t-23 1.5q5 1 8 2t4 3t0 5q-2 0 -11 -4t-15 -3q-11 5 -3 18q5 -3 9 -2t5 4
q-1 1 -6.5 2.5t-9.5 4.5t-5 8q-3 7 4 14q0 -7 2.5 -10.5t6.5 -1.5q2 3 2 3.5t-2.5 4t-2.5 4.5q-4 10 -2 23.5t11 17.5q14 5 17 -7q2 -7 -4.5 -20t-0.5 -20q3 -4 13 -5.5t17 2.5q0 24 6 42q9 23 51.5 64t90.5 80.5t49 40.5q2 2 32 25.5t38 35.5q0 8 -3 14q-12 15 -34 49
q-24 36 -28 47q-6 21 -12 25q-1 1 -8 3.5t-15.5 7.5t-14.5 14q-12 6 -28.5 0.5t-18.5 -4.5q-4 14 12 22.5t32 7.5q-2 5 5 15q-30 10 -35 21q-3 7 1 10.5t9 1.5q1 0 10.5 -9t22.5 -12l6 7q-24 8 -28 19q-6 13 10 13q2 -1 5 -5t9.5 -8.5t15.5 -7.5l9 9q-2 11 -9.5 19.5
t-7.5 10.5q-1 5 2.5 8.5t10.5 0.5q11 -6 16 -30q1 0 8 5q-1 10 -5.5 17.5t-8.5 11t-4 5.5q-1 6 2.5 9.5t10.5 -0.5q12 -7 17 -36q14 6 22 6q6 -2 9.5 -15t10.5 -15q-24 -2 -34 -15q3 -1 9 2t8 3q14 2 25 -2q7 -2 14 -11t9 -10q15 -8 48 -12q6 -2 9.5 -9t-0.5 -17t-17 -16
q-6 -3 -21 -4.5t-20 -4.5q-8 -4 0 -11q4 -3 13 -7q47 -11 73 -56l1 -2q1 -2 2 -2q9 -14 14 -40q1 0 2 -1q4 3 14 7.5t14 9.5q8 7 15 19l6.5 13t7.5 13t10.5 7.5t18.5 2.5q10 -1 41 -7.5t51 -3.5q6 3 22 -1q8 -2 20.5 -10t20.5 -10q27 -4 37 -17q-43 -19 -64 -20h-6
q-5 10 -6 11h-24q-3 2 -6.5 7t-5.5 7q-6 4 -15 4q-62 11 -77 -10q-12 -61 -38 -89q-1 15 -6 25.5t-10 14.5t-7 2q15 -21 15 -50q4 -9 11 -16t12.5 -10l16.5 -9t15 -8q9 -5 14.5 -10t9.5 -12.5l6 -11.5t5.5 -16t5.5 -18q1 4 1 8v6.5t-0.5 4.5t-0.5 3v2q-9 56 -54 110
q-3 3 -3 6q0 2 1 4l2 1q42 28 63 49h1q5 5 11 5l9 -4q20 -16 61 -16q22 1 66 19.5t80 18.5q33 0 80.5 -19.5t66.5 -19.5q36 0 61 17q5 4 10 4t10 -5h1q53 -42 63 -49h1q0 -1 1 -2q1 -2 1 -3q0 -4 -3 -6l-5 -6q-4 -6 -9 -12.5t-11.5 -17.5t-11.5 -21.5t-10 -25t-7 -27.5
q-6 -23 8 -67h13q20 0 29.5 -10.5t13 -28.5t4.5 -20v-1l30 -28q4 -10 8 -14l4 -5q4 -4 7 -4.5t4.5 0t1.5 1.5l-1 2q-14 7 -23 33q-12 48 27 70q12 -21 28.5 -37.5t26.5 -22.5l10 -7q-22 18 -38 41t-24 43t-13 41t-6.5 35.5t-2 27t-0.5 13.5l-2 12q0 -1 -1 -2q-4 -35 -1 -68
h-1q3 -29 -16 -31q-22 -1 -27 28q0 -20 -6.5 -29.5t-13.5 -9.5l-7 1q-31 10 -18 58l6 16q12 27 40 65q6 7 6 16q-1 8 -7 11q-7 4 -21.5 15.5l-27.5 22t-14 11.5q-9 7 -18 7q-10 0 -16 -6q-17 -14 -53 -14q-29 1 -57 17q6 15 30 45q41 49 76 67q11 6 26 10.5t31.5 6.5t28 -6
t12.5 -26q0 -5 -6.5 -27.5t-8 -38t8.5 -35.5q5 -7 17 -13.5t25 -5.5q24 2 42 20q1 1 2 3q7 -8 19.5 -13t21.5 -6l8 -1q18 -2 18 4l-1 1q-66 2 -66 42q0 26 27 39t57 12q0 -10 -5 -19q-15 -2 -26 -9t-11 -18q0 -9 4 -14q5 21 18 27.5t47 6.5q61 0 81 14q10 -7 13 -25.5
t-1 -31.5q-8 -21 -59 -23q-2 0 -2 -1q26 -5 53 6q15 -3 32 2.5t25 4.5q2 8 -2.5 19.5t-3.5 18.5q4 17 20 44q4 12 -2.5 28t-6.5 24q0 21 15.5 36t36.5 11q22 -5 40 -22t31 -46.5t19 -45.5t14 -45q25 -89 36 -257zM1233 95q7 9 11 19.5t6 20.5t2.5 19.5t-1 18l-3 16.5
t-4 14.5t-4 11l-2.5 7.5l-2 3q-36 61 -30 107q0 13 2 26t6 24.5t8.5 21t9.5 18.5t8.5 14t7.5 10l3 5q7 7 5 12q-2 10 -6 10l-37 23l-4 3l-3 2q-4 0 -9 -5q-24 -18 -49 -18q-20 0 -66 21t-83 21q-32 0 -80 -21t-68 -21q-23 0 -50 18q-5 5 -8 5q-1 0 -3 -2l-4 -2l-37 -24
q-5 0 -7 -10q0 -7 5 -12q45 -54 45 -120q7 -46 -30 -106l-2 -3q-1 -2 -2.5 -6.5t-4 -11t-4 -14t-3 -16.5t-1 -18.5t2 -19.5t6 -20.5t11.5 -20.5q4 -7 13 -17.5t38 -24t66 -13.5q74 0 97 -43l2 -2q12 -20 15 -26q0 -2 3 -2q2 0 4 2q3 6 15 26l1 2q24 43 97 43q37 0 66 13.5
t38 24t13 17.5zM1280 716l-2 -1q0 -5 15 -3q11 0 23 3q-30 -25 -73 -27.5t-67 13.5q-24 13 -39 45.5t-3 67.5h-1q-1 1 -3 -1.5t-4.5 -10t-3.5 -18.5q-1 1 -4.5 3l-6 3.5t-6 2.5t-6.5 1.5t-6.5 -0.5t-6.5 -4h10q16 0 24 -20q19 -48 33 -61q-4 -11 -13 -22t-19 -12l-1 -1
q0 -3 7 -3q5 0 11.5 4t7.5 8q3 -16 -12.5 -34.5t-32.5 -26.5q10 -3 19 6q-2 -24 -27 -24q4 -12 -3 -21t-16 -9q-5 0 -20 4.5t-28 4.5q-41 0 -59 -15h-1l1 -1q20 10 49 10q20 0 41 -7.5t21 -20.5q0 -5 -4 -11q-41 15 -75 15q-33 0 -73 -14q-5 11 -1.5 19.5t11.5 10.5
q0 1 -9.5 3t-22.5 16.5t-20 43.5q3 -1 12 -2.5t16 -1.5t7 2q-48 6 -70 34q17 -9 37 -9q15 0 15 4l-1 1q-44 -3 -60 24q3 -1 9 -1q7 0 13.5 2.5t9 5t2.5 3.5h-1q-13 -6 -27.5 -1t-13.5 20q6 15 6 31q0 15 -4 15v-2q-4 -40 -30.5 -57.5t-56.5 -17.5q-46 0 -78 27t-32 79
q0 48 30 77t70 29q28 0 70 -14q5 -18 14 -30q10 -14 13 -11q3 2 0 4q-15 17 -17 38q-1 63 40 90.5t93 19.5q-11 -27 -11 -44q0 -21 3 -22q1 1 2 4q5 33 34 47t50 -7q-3 13 -21.5 17t-30.5 -1q-21 -6 -29 -27q13 59 88 59q53 0 76 -29.5t23 -62.5q0 -47 -48 -75q-3 -4 0 -5
q8 0 18 10q37 27 43 56q29 -12 43 -26q28 18 67 18t62 -23t23 -52q0 -20 -10 -39v-2q3 -1 8.5 8t6.5 17q3 -9 4.5 -27t-13.5 -39.5t-42 -28.5q-11 -2 -16 -1zM1515 -107l60 -48q-5 0 -10.5 -1t-10.5 -2.5l-8.5 -2.5t-5.5 -2l-3 -1q-214 -94 -536 -99q-323 5 -537 99
q-20 9 -38 9l60 48q5 4 15 4l9 -1l17 -6q17 -7 38 -13.5l53.5 -16t72.5 -17.5t87 -15.5t105 -11.5t118 -4t118 4t104.5 11.5t86.5 15.5t72.5 17.5l53.5 16t38 13.5l17 6q4 1 9 1q10 0 15 -4zM1617 -237q-39 -11 -65 -13q1 0 0 -2t2.5 -5t11.5 -3l18 -3q3 -2 3 -4v-1
q0 -1 -0.5 -2t-2 -2t-4.5 -2t-8 -1q2 -8 -12 -16q-1 -1 -2 -1.5t-3.5 -3.5t0.5 -6q2 -1 4.5 -3t6 -7t1.5 -10q0 -1 -1.5 -3.5t-8.5 -5t-18 -1.5l-4 -1q-2 -2 2 -6q12 -12 -8 -23q-16 -8 -26 8q0 1 -1 1.5t-3.5 1.5t-7.5 -2l-15 -5t-29 0.5t-32 19.5q-2 6 -9 -3
q-3 -4 -9.5 -9t-31.5 -15t-57 -11q-6 -13 -23 -13q-10 0 -17 6t-9 15q-35 0 -73 25q-13 8 -25 14q-1 -15 -11.5 -25.5t-25.5 -10.5q-16 0 -27 10.5t-11 25.5q0 14 9 24.5t22 12.5h1q1 0 3 0.5t4.5 0.5h5.5t6.5 -0.5t8 -1.5t9.5 -2.5t10.5 -4.5l10.5 -6q28 -19 34 -19
q-6 31 -11 66q10 2 16 2q6 -69 24 -72l19 -5q2 5 4 7q8 10 20 8q1 0 2 -1q15 -3 15 -18h8q8 -1 15 -1.5t16 2t15 6.5q-32 11 -36 22q-9 18 22 35q23 14 29 -1q3 -6 -8 -15q-1 -1 -2.5 -3t1 -5t11.5 -2q15 1 19 7q-3 39 -12 66q4 2 24 6l9 -27q1 -24 9 -30q3 3 7 8t11.5 23.5
t-0.5 37.5q4 1 8.5 2.5l10 3.5t8.5 3q2 -45 -30 -102q1 -1 3 -3.5t7 -7t11 -7t13.5 -2.5t14.5 5q1 1 3.5 2.5t7.5 6.5t7.5 10t2 11.5t-6.5 12.5q-16 13 -23 -4q14 0 14 -15t-15 -15q-13 0 -15 15q0 21 13 33q1 1 4 3.5t12 5t18 0.5q-20 26 -22 48q0 3 -1 9q8 1 17 6
q1 -23 9 -40.5t28 -10.5l-31 53l35 15q1 1 3 1q-4 -32 8 -45q15 -13 40 6q-34 30 -44 40q16 7 28 7h9q7 -8 39 -25q5 -2 9 2q3 4 6 10t7.5 24.5t-7.5 32.5q-1 3 -4 8t-13 11.5t-22 3.5q-8 1 -12 -10q3 0 7 -0.5t10 -5.5t5 -13q0 -2 -0.5 -5t-6.5 -8t-16 -5q-1 0 -3 0.5
t-7.5 3.5t-8.5 7.5t-6 12.5t0 19q5 23 24 23q-1 2 -2.5 4t-3 8t2.5 7q8 7 25 -5q0 -1 1.5 -2t7.5 -3t16 1q15 6 23 -5q4 -2 4 -17q-3 -6 7 -22q16 -30 -2 -73q52 15 67 -8l3 -3h-1q4 -6 4 -12q0 -11 -7.5 -18.5t-18.5 -7.5t-18 7.5t-7 18.5v3q-13 0 -21 -4l-22 -12
q5 -4 15 -11t44 -18t70 -11q63 0 98 22.5t23 60.5q-3 9 -11 13q-7 -22 -28 -22q-13 0 -21.5 8t-8.5 21q0 31 38 31q26 0 46.5 -19.5t6.5 -60.5q11 2 28 2q15 0 23 -7.5t6 -17.5q0 -23 -22 -23q-8 0 -13.5 5.5t-8.5 5.5q-4 0 -9 -5q-5 -6 -15 -14.5t-40 -22.5t-61 -14h-14
q-1 -18 -10 -33t-23 -15q-13 0 -13 14q0 13 13 13h2v5q1 4 1.5 8t-0.5 9q-85 11 -142 58zM1399 667q-4 1 -11 10t-8 16q-1 14 11 22.5t28 8.5q0 -8 3 -12q3 -8 6 -8l1 1q-5 9 -5 21q2 14 15 24.5t31 6.5q-2 8 -1.5 18.5t10.5 11.5q39 -5 82 -41l9 -8l1 -1q1 1 -1 3l-8 11
q-34 32 -77 40q7 9 12 20q4 8 10 4q8 -4 4 -10q-2 -7 0 -11t7 -3.5t8 6.5q1 7 10 4q7 -5 3 -11q-2 -6 0 -10t7 -3t8 7q4 6 10 3q7 -2 3 -10q-2 -6 0 -10.5t7 -3.5t8 7t11 4q6 -4 3 -11q-3 -6 -4 -13t-1.5 -12t-0.5 -6q-2 -21 -16 -32q-6 18 -31.5 35t-45.5 19h-9q0 -1 1 -1
q5 0 7 -1q30 -9 55 -33.5t25 -51.5q0 -39 -21 -57.5t-54 -18.5h-42q5 8 5 19l1 11q-12 1 -19 6.5t-7.5 12l-1 12.5t-0.5 10q-1 7 -10 13t-17 5q-7 -1 -9 -7zM1032 334h155v-6q0 -1 -0.5 -5.5t-0.5 -8.5h-40l26 19l-179 -57v187h249q0 -1 -2 -3q-4 -4 -13 -17h-228l4 -13h216
q-4 -5 -10 -19h-200l4 -13h190l-8 -19h-176l4 -13h168l-3 -20h-159zM1202 250l15 -30v-132q-8 -9 -20 -17v179h-12v-186q-12 -6 -20 -8v194h-13v-198l-19 -3v201h-13v-201h-4q-8 0 -15 -1v76l-108 152l66 -24l24 17h111zM993 276l-111 -154l12 8v-82q-6 1 -12 1h-8v201h-13
v-200l-19 3v197h-13v-192q-7 2 -19 8v184h-13v-176q-6 4 -19 17v144l7 15l7 19h110l25 -17zM1785 22q27 164 22.5 290.5t-31.5 224.5q-26 86 -53 119l-4.5 4.5l-5.5 5.5q-17 21 -29 23q-15 3 -25 -8.5t-8 -26.5q1 -7 6 -18t5 -15t-11.5 -19.5t-13.5 -23.5q-3 -9 -0.5 -28.5
t9.5 -22.5q5 -2 12.5 0.5t8.5 6.5q1 3 -8 20t1 38q1 1 4.5 5.5t6.5 9.5t3 9q0 7 -6 15t-6 12q-2 12 6 21t18 11q5 -2 3 -9.5t2 -10.5q3 -4 10 -0.5t8 2.5q2 -4 1 -17.5t5 -18.5q3 -1 6.5 3t6.5 0q4 -4 4.5 -8.5t-1 -11t-1.5 -9.5q0 -8 3.5 -14.5t7 -9t8.5 -5.5t6 -4
q2 -2 -10 -40t4 -41q4 -1 8 2t6.5 5.5t5.5 -0.5q11 -24 2 -49.5l-18.5 -50t-1.5 -29.5q8 -6 14.5 1t10.5 17.5t6 11.5q5 1 9 -30.5t0.5 -136.5t-20.5 -259q1 -1 2 3t2.5 11t3 15t3.5 17t3 13zM1034 -313q19 -8 20 -22q2 -10 -16 -24q-12 -14 -15 -25q-2 -15 -22 -15
q-9 0 -15 3.5t-7 7.5l-1 4q-1 5 -5 11t-7 10l-3 4q-8 6 -11.5 12t-3.5 9v3q0 13 18 22q-3 1 -5 4t-3 5v3q0 9 3.5 17t6.5 11l4 3q5 0 14.5 -0.5t14.5 -0.5q6 0 14.5 0.5t13.5 0.5q2 -1 4.5 -3.5t6 -10.5t3.5 -17q-2 -9 -9 -12zM992 463l-6 -20h-223q-4 7 -10 13q-3 3 -3 7
h242zM839 314h-38v20h152l40 -58l-180 57zM999 607q12 25 7 61t-20 41q-42 11 -75.5 35t-49.5 49h-1q1 -4 3 -8q13 -22 45 -45.5t57 -39t25 -21.5q-4 0 -23 10.5t-36 18.5t-17 2q-1 -8 11.5 -15t28 -12.5t27.5 -13.5t11 -17q-3 -5 -10.5 1t-15 13t-10.5 2q-5 -8 2.5 -15
t20.5 -12.5t15 -6.5q0 -5 -1.5 -7t-5 -0.5t-6 3t-6.5 4.5q0 -1 1 -4.5t1.5 -4.5t1.5 -4t1.5 -4t2 -3.5t3 -3t3.5 -1.5t4.5 -1.5t5.5 -0.5zM792 741q8 2 15 19t3 43.5t-24 46.5q-29 29 -70 15q-28 -10 -39 -38q14 12 21 16q28 14 49 9.5t27 -23.5q-30 6 -52.5 -6.5
t-30.5 -35.5q42 36 75 29q28 -7 32.5 -32t-6.5 -43zM982 430l-6 -19h-194l-11 19h211zM1271 793q10 7 11 24.5t-7 33.5q-5 15 -19 25q19 1 35 -26q2 -2 2 -5q12 -23 -2 -57v-1h2q17 17 15 45q0 9 -3 17q-7 15 -12 21q9 -2 18 -20q10 -19 6 -36v-1q1 0 2 1q9 19 0 39
q-16 37 -54 37q-23 0 -38.5 -8.5t-18.5 -17.5l-4 -8q17 18 37.5 8.5t27.5 -38.5q4 -11 2 -23q-1 -4 -1 -10h1zM1003 197l20 -14v-167q-6 -6 -12 -15v-2q-2 -2 -8 -12v210zM971 189l19 15v-208q0 1 -1 1.5t-1 1.5l-1 2q-7 13 -16 19v169zM972 398l-6 -19h-172q-3 12 -7 19
h185zM963 366l-6 -20h-157l-3 20h166zM920 486h1l1 1q14 5 25 8h92q4 -1 25 -8q1 -1 2 -1t8 -3.5l11 -5.5l2 -2h-189l1 1zM1036 172l20 -15v-120q-14 -6 -20 -10v145zM939 165l19 14v-149q-8 5 -19 9v126zM562 550q32 -10 64 -30q-8 25 -32 45l-1 1h-2q-19 11 -89 15
q5 -9 13 -14t25.5 -10t21.5 -7zM906 47v93l20 15v-112q-6 2 -20 4zM489 665q4 0 14.5 2t15.5 1q5 0 17.5 -6t21.5 -4q2 2 3 6t-2 8t-12 4h-14.5t-15.5 1q-6 1 -16.5 4.5t-14.5 4t-15 -1.5q-8 -2 -20.5 -17.5t-7.5 -27.5q2 -4 7.5 -1.5t5.5 7.5q-1 5 1 9.5t5 7.5l3 3
q4 3 7.5 3t9 -1.5t7.5 -1.5zM1068 42v106l20 -15v-87q-14 -2 -20 -4zM1054 756q-1 -5 -9 -13t-14 -15.5t-5 -22t14 -32.5q7 2 19.5 21.5t6.5 24.5q-2 2 -6.5 -0.5t-10.5 -7t-7 -5.5q1 1 4 7l6 11.5t5.5 12t2 12t-5.5 7.5zM591 -174q3 9 -1 16t-15 12q-4 1 -11 1
q-6 -1 -11 -5q-4 -4 -7 -10v-10q0 -6 5 -11q3 -3 11 -7q12 -3 19 1t10 13zM1091 -244q5 6 5 16q0 9 -7 15q-6 6 -18 6q-9 -3 -11 -4q-5 -1 -8 -8q-4 -6 -2 -11q0 -7 2 -10q3 -6 9 -8q6 -3 13 -3q8 0 17 7zM960 -245q6 6 6 15q0 10 -6 15q-4 7 -17 7q-7 0 -11 -2q-7 -3 -9 -8
q-2 -4 -4 -10q0 -3 2 -11q4 -6 8 -9q6 -3 13 -3q12 0 18 6zM714 718q25 -2 41.5 9t12.5 33q-6 22 -30 22q-29 0 -31 -31q13 19 28 18q11 -1 15 -12q6 -27 -36 -39zM714 178q17 0 26.5 18.5t10.5 37.5l1 18v3q0 37 -11 43q-1 -1 2 -11t3 -22t-7 -19q-17 -18 -2 -31
q-1 -2 -11 -4q-1 -1 -2 -3t-2 -5t-2 -5t-4 -7.5t-4 -8.5zM1023 591q10 20 3 78q-3 28 -21.5 63t-29.5 49q24 -47 37 -95q8 -26 8 -77q0 -1 -1 -6t0 -8t4 -4zM1101 282l27 19h59q3 -17 4 -19h-90zM857 301l27 -19h-88q1 2 4 19h57zM1265 274q-11 0 -21 -6.5t-11 -17.5
q2 0 7 5t12 7q5 0 9 -1q-4 -13 4.5 -27t18.5 -14q6 0 8.5 5t-1.5 8q-2 2 -4.5 7t-4.5 10l-1 4q-4 19 -9 19q-2 1 -7 1zM1101 129v121h-13v-84zM633 -195q-1 7 -4 10q9 0 11 8q3 8 -8 13q-4 2 -27 8l-1 -3l1 -1q2 0 4 -2q0 -2 -1 -4l-6 -24l-2 -4q-3 0 -5 1l-1 -4l22 -6l1 4
q-1 1 -3 1l-2 1v4l3 10l4 -2q2 0 2 -2q0 -1 1 -3t1 -3q1 -8 3 -12l13 -4l1 4q-1 0 -3 2zM819 -241v4q-3 0 -3 1q-3 3 -5 8l-5 10q8 0 10 9q0 3 -1 5l-4 4l-4 3q-5 0 -29 4l-1 -4q5 0 6 -1v-5l-3 -24l-2 -4h-4h-1v-4l22 -3v4q-2 0 -3 1h-1q-1 1 -1 5l2 10l4 -2h1l1 -1
q0 -1 3 -6q3 -11 5 -12zM1407 -198l13 4l-1 3h-3q-1 0 -8 5q-7 7 -9 7q8 5 5 12q0 3 -2 5q-5 5 -10 3l-12 -3l-16 -5l1 -3h5q1 0 1 -1l1 -2l7 -24q1 -6 -5 -6l1 -4l22 6l-1 4q-6 -3 -7 3l-3 9q3 1 5 1q1 0 1 -0.5t1 -0.5t2 -1l3 -3zM1471 710q-2 -1 -6 -2t-6.5 -2t-2.5 -3
q1 -3 3 -3.5t4.5 0.5l5 2t6.5 3.5l7 4.5q3 4 8 2t7 -2t6 -4.5t5.5 -6.5t4.5 -7.5t4 -6.5q6 -7 10.5 -6t7 6.5t0.5 8.5q-2 5 -17 15q-16 14 -18 15q-8 2 -11.5 1t-9.5 -7.5t-8 -7.5zM637 -18q10 0 10 6q-1 1 -16 4h-3q-3 1 -8 2t-10.5 1.5t-11.5 0.5t-10.5 -0.5t-8 -3
t-3.5 -6.5q20 0 28 -6h2q2 -2 3 -2q7 -15 16 -15q5 0 8.5 2t2.5 6q-1 1 -5 2.5t-6 3.5t-2 6q2 0 6.5 -0.5t7.5 -0.5zM737 349q2 12 -10 22t-32.5 12t-46.5 -12q28 -9 45 -1q12 2 21 -1t12 -8t6 -9t5 -3zM1282 138q15 0 15 33q0 1 -0.5 4.5t-0.5 5.5v18q0 11 -4 11
q-7 0 -7 -31q0 -29 -7 -29q-2 0 -9 5q-7 -1 -3 -10q4 -7 16 -7zM543 -149v6q0 1 -3 6q-3 3 -5 3q-7 4 -9 4l-16 5l-1 -3h1q3 0 3 -3v-3l-9 -24q0 -3 -2 -3h-4h-1l-1 -3l21 -8l2 4h-1l-4 2q0 2 1 5l3 9l3 -1q2 -1 5.5 -2t4.5 -1q2 0 4 0.5t3 0.5q4 5 5 6zM1425 -61l7 14
q-18 0 -29 9q-10 8 -23 8q-24 0 -24 -19q0 -3 2 -9q2 2 5.5 6.5t7 7.5t8.5 3q9 0 16 -5q21 -14 30 -15zM330 -155q-14 18 -31 18q-5 0 -8 -2q12 -7 12 -19q0 -22 18 -22q4 0 5 4q-11 11 -7 16q11 -7 17 -9q6 0 6 4q-1 2 -12 10zM894 250v-95l12 38v57h-12zM1021 -213v4h-16
v-4q6 0 6 -7v-15l-22 26h-14v-4q6 0 6 -6v-22q0 -7 -6 -7v-3h15v3q-3 0 -4 1q-2 2 -2 6v20l27 -31h4v32q0 6 6 7zM1329 -218l38 9l-3 13l-3 -1q0 -3 -4 -9q-3 -5 -10 -3q-3 0 -3 4l-3 11h9q0 -2 1 -3h3l-3 14l-4 -1q2 -4 0 -4q0 -2 -3 -2l-3 -1l-4 14l8 2h4q1 0 1 -0.5
t1 -0.5q1 -1 2 -3l1 -1l4 1l-3 10l-35 -8v-3h6l2 -4l5 -24q2 -4 0 -4q0 -2 -4 -3v-3zM1427 -192l36 11l-3 12l-4 -1q0 -4 -1 -6q0 -4 -7 -6l-9 -3l11 41l-1 3l-33 -11l3 -11l3 1q0 6 1 7q1 0 2 1t2.5 2t3.5 1l6 2l-11 -41zM1446 115q11 3 17.5 8t7.5 9.5t0 5.5h-3
q-11 -9 -29 -11.5t-33 3.5q-7 3 -14 8t-12 9l-4 4q-2 0 6.5 -9.5t26 -18.5t37.5 -8zM1190 -241l22 2v4q-6 0 -9 6l-17 31l-4 -1l-9 -34q-2 -7 -5 -7v-3l14 1v3q-6 0 -5 6l1 2l13 1l1 -3q3 -4 -2 -5v-3zM748 -231l1 4q-2 0 -3 1q-2 2 -2 6l-8 35h-4l-18 -30q-6 -6 -7 -5
l-1 -4l14 -2v4l-3 1q-1 1 0 2v3l2 2l13 -3v-7h-4v-3zM909 -209l1 2l-35 3l-2 -11h3q2 4 5 5q1 1 8 1h7l-26 -34v-3l37 -2l2 12h-3q0 -1 -2 -3q-1 -1 -1 -2l-4 -3h-6l-10 1zM1490 -171l19 7l-1 4q-1 -1 -3 -1q-3 1 -5 5l-24 25l-3 -1l-1 -35q0 -5 -4 -9l1 -3l13 6l-1 3
q-2 -1 -3 -1l-2 1v6l12 4l3 -4q1 -1 0 -2q0 -1 -3 -1zM1311 -189v4q0 1 1 2l2 1v3l-15 -3v-3q7 2 8 -5l2 -13q2 -7 1 -9q0 -1 -2 -5l-6 -3q-5 -2 -6 1q-4 1 -5 4q-1 1 -1 3q-1 2 -1 3l-3 16v5h2q1 1 2 1v4l-21 -5v-3h4q2 0 2 -3l3 -17l3 -7q0 -1 3 -4q1 -1 7 -3h8q6 2 9 4
l5 5q1 1 1 6v7zM864 -245l1 3q-2 0 -3 1l-3 6l-10 34h-3l-16 -31q-3 -6 -8 -6v-4h14v3h-3q-1 1 -1 3q0 1 1 3l1 2l13 -2l1 -3q1 -1 1 -3q-1 0 -1 -1h-4v-4zM1275 634q1 1 -1 4.5t-8.5 7t-17.5 3.5q-42 -3 -67 -42q1 0 5 4l10.5 10t12.5 9q36 18 62 3q3 0 4 1zM1262 -200l4 1
l-3 11l-34 -6v-3h1q4 1 6 -4l3 -25q2 -2 0 -4q-1 -1 -4 -2l1 -3l22 4l-1 3q-6 -2 -6 4l-2 12h6q2 -2 2 -5l3 1l-2 14l-3 -1q0 -3 -1 -4q0 -1 -3 -2h-3l-2 15h6q3 2 5 0q1 0 3 -1q0 -1 2 -5zM765 112q-22 44 0 98v-98zM702 -223l3 14h-3q0 -1 -5 -6q-4 -2 -9 -1q-1 0 -2 1
q-2 0 -2 1q-1 0 -1 2v3l5 24q0 3 2 3q0 2 4 0h1l1 3l-22 6l-1 -4q1 0 2 -1q2 0 2 -1q1 -1 1 -4l-6 -24q0 -4 -2 -4q-1 -1 -4 -1l-1 -3zM1126 -247l38 3l-1 14h-3l-3 -8q-2 -2 -8 -4q-7 0 -7 6l-2 24v3q2 2 4 2h1v4l-23 -3v-3h6q0 -3 1 -4l2 -25q0 -5 -5 -6v-3zM1616 509
q0 1 2 2q3 3 2 4q-3 0 -5.5 -1.5l-5 -3t-4.5 -2.5q-15 -3 -17 -3q-9 -2 -23 1.5t-20 1.5q14 -21 42 -13q17 4 29 14zM1368 514q0 3 -2 2q-18 -18 -36 -19q-10 -1 -40 8q0 -2 7 -7t19 -9t23 -1q16 5 29 26zM943 -212q7 0 8 -4q3 -4 3 -14q-2 -11 -4 -14q-3 -3 -8 -3t-8 5
q-2 6 -1 14q0 10 3 13q2 3 7 3zM1072 -212q6 0 8 -3q3 -5 3 -14q0 -11 -2 -13q-2 -5 -7 -5t-9 4q-3 9 -3 14q0 11 2 13q3 4 8 4zM574 -150q6 -3 7 -7q1 -3 -2 -13q-4 -11 -7 -12q-3 -4 -8 -2q-6 2 -6 7q-2 5 1 13q3 9 6 12q4 4 9 2zM1048 606q9 10 14.5 21t6 17t-0.5 6
q-2 -2 -8.5 -6.5t-10.5 -9t-5 -10.5q-3 -15 4 -18zM1044 643q10 3 21 24q9 19 -4 18q-1 -4 -8 -13.5t-9.5 -15t0.5 -13.5zM1230 198q18 -44 0 -86v86zM1065 993q0 -1 4 -2.5t9.5 -5t8.5 -7.5q18 -22 7 -48q0 -2 1 -2q1 -1 4 1t5.5 8.5t2.5 15.5q-1 7 -4 12.5t-7 9.5
t-8.5 7.5t-8.5 5.5t-7 3t-5 1zM813 475h-45l22 15l11.5 -7.5zM1204 490l1 -1q2 -2 8.5 -6.5l10.5 -7.5h-40q15 10 19 14zM1473 697q-4 -6 0.5 -13.5t12 -8.5t15.5 8q-10 -3 -15.5 1.5t-8 9.5t-4.5 3zM462 643q12 -16 25 -4q8 8 3 16q-2 3 -4.5 -2t-8.5 -9.5t-15 -0.5z
M1412 707q-4 5 -10 1.5t-8.5 -9.5t1.5 -10q1 5 8 10t9 8zM621 -164l7 -4q3 -3 1 -6q-2 -7 -6 -7q-1 0 -7 2l4 15h1zM796 -200q3 0 7 -2q1 -1 1 -7q0 -2 -2 -4q-1 -2 -3 -2h-7l2 16q1 -1 2 -1zM1381 -166q10 4 13 -4v-6q0 -1 -2 -3l-6 -2zM525 -134q2 0 6 -2l1 -2v-2
q1 -1 -1 -5q0 -4 -3 -4q-1 -3 -7 0h-2zM947 -195l-5 -10h3l14 9zM1476 -161v14l9 -10zM836 -228l6 12l4 -13zM721 -211l7 11l3 -12zM1179 -227l3 12l7 -11z" />
    <glyph glyph-name="acute.cp" horiz-adv-x="600" 
d="M437 728l-265 -16q0 5 -4.5 37.5t-5.5 37.5l276 37z" />
    <glyph glyph-name="Q.alt" horiz-adv-x="662" 
d="M618 343q0 -83 -31.5 -157.5t-88.5 -125.5q74 9 149 9v-125q-145 -3 -293 47q-4 0 -12 -0.5t-13 -0.5q-80 0 -137.5 28.5t-88.5 79.5t-45 111t-14 134q0 71 13.5 129t44.5 107.5t88.5 77.5t138.5 28q289 0 289 -342zM479 344q0 228 -150 228q-147 0 -147 -228
q0 -113 32.5 -178.5t114.5 -65.5q150 0 150 244z" />
    <glyph glyph-name="g.alt" horiz-adv-x="553" 
d="M365 127v246q-34 29 -88 29q-103 0 -103 -156q0 -161 99 -161q52 0 92 42zM390 446l19 44h85v-478q0 -96 -63.5 -156t-173.5 -60q-113 0 -194 52l33 100q27 -19 69.5 -34.5t83.5 -15.5q57 0 87 29.5t30 83.5l3 41q-18 -25 -52.5 -43.5t-74.5 -18.5q-88 0 -143.5 64.5
t-55.5 190.5q0 118 59.5 186.5t151.5 68.5q82 0 136 -54z" />
    <glyph glyph-name="c_h" horiz-adv-x="933" 
d="M580 370v-35q0 -97 -24 -167t-66 -107.5t-88 -54t-99 -16.5q-114 0 -185 65.5t-71 189.5q0 119 61.5 187t167.5 68q67 0 122 -23l-6 -96q-49 20 -101 20q-111 0 -111 -156q0 -77 36.5 -116.5t92.5 -39.5q140 0 140 232v369h131v-178q0 -20 -5 -46.5t-8 -31.5
q56 66 140 66q100 0 139.5 -49t39.5 -148v-303h-132v291q0 109 -88 109q-42 0 -86 -30z" />
    <glyph glyph-name="star.alt" horiz-adv-x="828" 
d="M550 262l47 -208l-183 109l-183 -109l46 208l-159 140l211 20l85 195l84 -195l212 -20zM488 209l-19 83l65 57l-86 8l-34 78l-34 -78l-86 -8l64 -57l-18 -83l74 44z" />
    </font>
</defs>
</svg>
