<?xml version="1.0" standalone="no"?>
<!DOCTYPE svg PUBLIC "-//W3C//DTD SVG 1.1//EN" "http://www.w3.org/Graphics/SVG/1.1/DTD/svg11.dtd" >
<svg>
<metadata>
Created by FontForge 20090622 at Tue Jun 21 19:39:45 2016
 By deploy user
&#194;&#169;Rodrigo Ramirez, frescotype.com
</metadata>
<defs>
<font id="gobCL" horiz-adv-x="422" >
  <font-face 
    font-family="gobCL"
    font-weight="400"
    font-stretch="normal"
    units-per-em="1000"
    panose-1="0 0 0 0 0 0 0 0 0 0"
    ascent="750"
    descent="-250"
    x-height="490"
    cap-height="675"
    bbox="-29 -399 1972.4 1017"
    underline-thickness="50"
    underline-position="-50"
    unicode-range="U+0020-U+FB06"
  />
<missing-glyph horiz-adv-x="811" 
 />
    <glyph glyph-name=".notdef" horiz-adv-x="811" 
 />
    <glyph glyph-name=".null" horiz-adv-x="0" 
 />
    <glyph glyph-name="nonmarkingreturn" horiz-adv-x="333" 
 />
    <glyph glyph-name="space" unicode=" " horiz-adv-x="220" 
 />
    <glyph glyph-name="exclam" unicode="!" horiz-adv-x="265" 
d="M171 432l-13 -233h-51l-13 233v258h77v-258zM95 0v111h74v-111h-74z" />
    <glyph glyph-name="quotedbl" unicode="&#x22;" horiz-adv-x="301" 
d="M125 690l-8 -299h-52l-8 299h68zM244 690l-8 -299h-52l-8 299h68z" />
    <glyph glyph-name="numbersign" unicode="#" horiz-adv-x="537" 
d="M447 209h-98l-28 -143h-57l27 143h-85l-27 -143h-58l28 143h-59v63h70l19 94h-89v62h100l30 156h58l-31 -156h86l30 156h57l-30 -156h57v-62h-68l-19 -94h87v-63zM236 366l-19 -94h86l18 94h-85z" />
    <glyph glyph-name="dollar" unicode="$" horiz-adv-x="475" 
d="M277 -10h-72l1 92q-71 4 -128 42l22 56q19 -16 54.5 -28.5t69.5 -12.5q42 0 70.5 23t28.5 61q0 32 -24.5 53.5t-60 34.5t-70.5 28.5t-59.5 46.5t-24.5 77t31.5 81t90.5 44l-2 101h73l-3 -99q72 -5 121 -31l-18 -56q-59 31 -130 31q-44 0 -68.5 -20.5t-24.5 -52.5
q0 -28 25 -47.5t60.5 -32.5t71 -28.5t60.5 -47t25 -77.5q0 -51 -32 -90t-89 -51z" />
    <glyph glyph-name="percent" unicode="%" horiz-adv-x="891" 
d="M50 482q0 105 41 156.5t110 51.5q157 0 157 -208q0 -109 -43.5 -160t-113.5 -51q-66 0 -108.5 51t-42.5 160zM122 482q0 -156 79 -156q41 0 63 36t22 120q0 86 -20.5 120t-64.5 34q-40 0 -59.5 -34.5t-19.5 -119.5zM533 200q0 105 41 157t110 52q157 0 157 -209
q0 -108 -43.5 -159t-113.5 -51q-66 0 -108.5 51t-42.5 159zM605 200q0 -156 79 -156q41 0 63 36t22 120q0 87 -20.5 121t-64.5 34q-40 0 -59.5 -35t-19.5 -120zM587 713l-244 -758h-46l244 758h46z" />
    <glyph glyph-name="ampersand" unicode="&#x26;" horiz-adv-x="596" 
d="M418 549q0 -32 -10.5 -58t-34 -48t-42.5 -35t-54 -33l158 -208q38 69 58 160l65 -16q-24 -119 -80 -200l84 -111h-87l-46 59q-69 -69 -182 -69q-35 0 -69.5 12t-64.5 35.5t-49 64t-19 91.5q0 69 36 113.5t99 81.5l-7 9q-60 77 -60 149q0 67 47 105.5t109 38.5
q68 0 108.5 -36.5t40.5 -104.5zM261 51q78 0 129 59l-172 227q-45 -30 -70 -62.5t-25 -80.5q0 -68 41.5 -105.5t96.5 -37.5zM188 543q0 -52 48 -115l6 -7q53 30 79.5 56t26.5 67q0 42 -21.5 64t-54.5 22t-58.5 -23t-25.5 -64z" />
    <glyph glyph-name="quotesingle" unicode="'" horiz-adv-x="183" 
d="M125 690l-8 -299h-52l-8 299h68z" />
    <glyph glyph-name="parenleft" unicode="(" horiz-adv-x="270" 
d="M53 341q0 113 45 216t110 159l38 -37q-48 -48 -82.5 -144t-34.5 -194q0 -100 34.5 -195.5t83.5 -143.5l-39 -37q-65 56 -110 159t-45 217z" />
    <glyph glyph-name="parenright" unicode=")" horiz-adv-x="270" 
d="M217 341q0 -114 -45 -217t-110 -159l-39 37q49 48 83.5 143.5t34.5 195.5q0 98 -34.5 194t-82.5 144l38 37q65 -56 110 -159t45 -216z" />
    <glyph glyph-name="asterisk" unicode="*" horiz-adv-x="467" 
d="M413 530l-129 -42l80 -110l-51 -36l-80 109l-80 -110l-50 37l80 109l-130 43l19 59l130 -42v135h62v-135l131 42z" />
    <glyph glyph-name="plus" unicode="+" horiz-adv-x="462" 
d="M397 265h-139v-149h-59v149h-134v56h134v142h59v-142h139v-56z" />
    <glyph glyph-name="comma" unicode="," horiz-adv-x="180" 
d="M52 5v107h75v-114q0 -62 -17.5 -87t-57.5 -31v29q14 5 19 24t5 67z" />
    <glyph glyph-name="hyphen" unicode="-" horiz-adv-x="462" 
d="M392 248h-322v53h322v-53z" />
    <glyph glyph-name="period" unicode="." horiz-adv-x="177" 
d="M51 0v112h75v-112h-75z" />
    <glyph glyph-name="slash" unicode="/" horiz-adv-x="300" 
d="M295 713l-244 -758h-46l244 758h46z" />
    <glyph glyph-name="zero" unicode="0" horiz-adv-x="537" 
d="M266 -10q-118 0 -168 92t-50 260q0 348 218 348q223 0 223 -348q0 -352 -223 -352zM266 54q79 0 112 75.5t33 212.5q0 284 -145 284q-76 0 -108 -74t-32 -210q0 -90 11.5 -150.5t43.5 -99t85 -38.5z" />
    <glyph glyph-name="one" unicode="1" horiz-adv-x="537" 
d="M460 0h-333v59h134v437l5 93q-23 -32 -73 -61.5t-99 -40.5l-11 63q54 11 108.5 49t84.5 81h61v-621h123v-59z" />
    <glyph glyph-name="two" unicode="2" horiz-adv-x="537" 
d="M239 626q-77 0 -154 -35l-24 58q89 41 190 41q91 0 155.5 -49.5t64.5 -143.5q0 -83 -65 -173t-256 -263q51 4 85 4h241v-65h-411v61q134 120 208 204t96.5 131t22.5 93q0 71 -43.5 104t-109.5 33z" />
    <glyph glyph-name="three" unicode="3" horiz-adv-x="537" 
d="M369 510q0 57 -38 86t-101 29q-78 0 -142 -34l-25 58q91 41 182 41q89 0 147 -47.5t58 -122.5q0 -64 -42 -111t-89 -57v-3q60 -7 108 -47t48 -110q0 -83 -65.5 -142.5t-162.5 -59.5q-93 0 -185 48l19 61q83 -45 162 -45q68 0 111 38.5t43 101.5q0 62 -45 91t-121 29h-36
v63h30q67 0 105.5 38.5t38.5 94.5z" />
    <glyph glyph-name="four" unicode="4" horiz-adv-x="537" 
d="M485 186h-83v-186h-75v186h-281v58l278 436h78v-427h83v-67zM116 253h211v328z" />
    <glyph glyph-name="five" unicode="5" horiz-adv-x="537" 
d="M476 233q0 -104 -67 -173.5t-165 -69.5q-94 0 -184 47l20 62q82 -45 160 -45q71 0 113.5 47.5t42.5 128.5q0 76 -38 113.5t-106 37.5q-35 0 -69 -15t-52 -34l-61 21v327h353l-7 -65h-271v-174l-6 -51q58 56 141 56t139.5 -55.5t56.5 -157.5z" />
    <glyph glyph-name="six" unicode="6" horiz-adv-x="537" 
d="M301 628q-92 0 -135.5 -78.5t-41.5 -201.5q55 96 176 96q82 0 133.5 -58.5t51.5 -153.5q0 -103 -59.5 -172.5t-155.5 -69.5q-104 0 -161.5 92.5t-57.5 259.5q0 170 72 259t178 89q77 0 141 -24l-13 -61q-62 23 -128 23zM279 380q-60 0 -100.5 -32t-50.5 -77
q8 -104 44.5 -161.5t97.5 -57.5q67 0 101.5 49.5t34.5 126.5q0 71 -33 111.5t-94 40.5z" />
    <glyph glyph-name="seven" unicode="7" horiz-adv-x="537" 
d="M475 613l-301 -613h-82l303 613h-332v67h412v-67z" />
    <glyph glyph-name="eight" unicode="8" horiz-adv-x="537" 
d="M465 525q0 -102 -131 -166q70 -30 108 -68.5t38 -108.5q0 -81 -60 -136.5t-154 -55.5q-90 0 -149.5 53.5t-59.5 132.5q0 119 141 174q-60 28 -93 67.5t-33 106.5q0 75 56.5 120.5t137.5 45.5q87 0 143 -45.5t56 -119.5zM403 182q0 29 -11 51.5t-35 39t-44 26.5t-55 24
l-15 6q-56 -29 -83 -63.5t-27 -86.5q0 -60 41 -96.5t92 -36.5q55 0 96 36t41 100zM148 523q0 -30 11 -53.5t34 -41t43 -27.5t55 -24q97 59 97 144q0 53 -34 82.5t-88 29.5q-51 0 -84.5 -29.5t-33.5 -80.5z" />
    <glyph glyph-name="nine" unicode="9" horiz-adv-x="537" 
d="M245 244q-83 0 -138.5 60.5t-55.5 157.5q0 104 57 166t152 62q107 0 167 -81t60 -253q0 -188 -65 -277t-181 -89q-79 0 -163 39l16 62q76 -38 145 -38q168 0 174 271q-76 -80 -168 -80zM259 627q-64 0 -96.5 -46t-32.5 -120q0 -72 35.5 -112t97.5 -40q76 0 151 73
q-7 245 -155 245z" />
    <glyph glyph-name="colon" unicode=":" horiz-adv-x="180" 
d="M53 0v112h74v-112h-74zM53 377v113h74v-113h-74z" />
    <glyph glyph-name="semicolon" unicode=";" horiz-adv-x="180" 
d="M53 377v113h74v-113h-74zM52 5v107h75v-114q0 -62 -17.5 -87t-57.5 -31v29q14 5 19 24.5t5 66.5z" />
    <glyph glyph-name="less" unicode="&#x3c;" horiz-adv-x="400" 
d="M30 341l340 151v-82l-293 -123v-3l293 -116v-81l-340 141v113z" />
    <glyph glyph-name="equal" unicode="=" horiz-adv-x="458" 
d="M391 329h-324v62h324v-62zM391 177h-324v63h324v-63z" />
    <glyph glyph-name="greater" unicode="&#x3e;" horiz-adv-x="400" 
d="M30 492l340 -151v-113l-340 -141v81l292 116v3l-292 123v82z" />
    <glyph glyph-name="question" unicode="?" horiz-adv-x="423" 
d="M389 508q0 -46 -17.5 -82.5t-42.5 -61l-49.5 -46.5t-42 -50t-17.5 -60v-27h-70v41q0 35 16.5 65t40 52l47.5 44t40.5 52.5t16.5 66.5q0 61 -36 92.5t-92 31.5q-57 0 -131 -35l-21 60q89 39 162 39q86 0 141 -47.5t55 -134.5zM147 0v111h74v-111h-74z" />
    <glyph glyph-name="at" unicode="@" horiz-adv-x="1000" 
d="M558 -8l9 72q-60 -74 -143 -74q-60 0 -104 52.5t-44 163.5q0 120 66.5 197t158.5 77q36 0 67.5 -16.5t50.5 -41.5l17 48h50l-55 -467q18 -8 46 -8q73 0 131.5 71.5t58.5 193.5q0 157 -97.5 253.5t-257.5 96.5q-166 0 -272.5 -108t-106.5 -278q0 -157 90 -270h-57
q-83 124 -83 270q0 189 123 311t306 122q179 0 291.5 -111t112.5 -286q0 -138 -77 -223t-171 -85q-35 0 -66 12t-44 28zM454 47q56 0 119 63l32 267q-37 45 -99 45q-65 0 -110 -60t-45 -157q0 -83 29.5 -120.5t73.5 -37.5z" />
    <glyph glyph-name="A" unicode="A" horiz-adv-x="557" 
d="M137 172l-44 -172h-75l185 675h165l171 -675h-84l-41 172h-277zM310 609h-57l-100 -371h246z" />
    <glyph glyph-name="B" unicode="B" horiz-adv-x="529" 
d="M496 188q0 -88 -65.5 -143t-165.5 -55q-109 0 -197 35v650h175q102 0 159 -45t57 -118q0 -65 -31.5 -106.5t-79.5 -55.5v-3q64 -12 106 -55t42 -104zM379 505q0 106 -136 106h-98v-239h99q135 0 135 133zM416 188q0 124 -165 124h-106v-239q59 -21 120 -21q67 0 109 36.5
t42 99.5z" />
    <glyph glyph-name="C" unicode="C" horiz-adv-x="570" 
d="M542 60q-100 -70 -214 -70q-135 0 -205.5 94t-70.5 257t74 253.5t204 90.5q131 0 208 -55l-30 -62q-64 49 -174 49q-100 0 -151 -73t-51 -200q0 -134 51 -210t149 -76q101 0 186 64z" />
    <glyph glyph-name="D" unicode="D" horiz-adv-x="614" 
d="M556 344q0 -169 -70.5 -261.5t-202.5 -92.5q-103 0 -218 34v651h190q149 0 225 -75.5t76 -255.5zM475 345q0 144 -53 206t-172 62h-108v-538q64 -20 144 -20q93 0 141 68.5t48 221.5z" />
    <glyph glyph-name="E" unicode="E" horiz-adv-x="485" 
d="M441 0h-373v675h373v-67h-296v-232h235l-10 -68h-225v-244h296v-64z" />
    <glyph glyph-name="F" unicode="F" horiz-adv-x="474" 
d="M441 608h-296v-251h235l-10 -68h-225v-289h-77v675h373v-67z" />
    <glyph glyph-name="G" unicode="G" horiz-adv-x="615" 
d="M559 327v-285q-115 -52 -221 -52q-134 0 -210 96.5t-76 258.5q0 151 77.5 245.5t217.5 94.5q116 0 196 -49l-33 -60q-66 41 -163 41q-103 0 -159 -76t-56 -194q0 -135 54 -213t157 -78q78 0 139 24v186h-112l-3 61h192z" />
    <glyph glyph-name="H" unicode="H" horiz-adv-x="602" 
d="M533 0h-80v304h-307v-304h-78v675h78v-300h307v300h80v-675z" />
    <glyph glyph-name="I" unicode="I" horiz-adv-x="263" 
d="M170 0h-77v675h77v-675z" />
    <glyph glyph-name="J" unicode="J" horiz-adv-x="378" 
d="M311 675v-513q0 -82 -41.5 -127t-108.5 -45q-70 0 -133 29l13 67q60 -28 112 -28q80 0 80 105v512h78z" />
    <glyph glyph-name="K" unicode="K" horiz-adv-x="510" 
d="M506 0h-101l-245 297h-22l4 -106v-191h-77v675h77v-222l-4 -102l244 324h94l-261 -334z" />
    <glyph glyph-name="L" unicode="L" horiz-adv-x="466" 
d="M453 0h-373v675h77v-611h296v-64z" />
    <glyph glyph-name="M" unicode="M" horiz-adv-x="810" 
d="M739 0h-83l-20 601h-3q-11 -43 -45 -150l-144 -451h-97l-136 452q-31 96 -45 149h-3l-19 -601h-73l26 675h133q149 -490 172 -598h2q12 48 57.5 197.5l84.5 275.5l40 125h127z" />
    <glyph glyph-name="N" unicode="N" horiz-adv-x="600" 
d="M532 0h-134l-255 599h-4l2 -599h-73v675h128l258 -604h5l-3 604h76v-675z" />
    <glyph glyph-name="O" unicode="O" horiz-adv-x="634" 
d="M582 343q0 -70 -14.5 -131t-45 -112t-83.5 -80.5t-123 -29.5q-71 0 -123.5 28t-82.5 78t-44 111.5t-14 135.5q0 71 14 130t43.5 108t82 76.5t124.5 27.5q73 0 126.5 -27.5t83 -76.5t43 -107.5t13.5 -130.5zM501 344q0 55 -9 101.5t-29 87.5t-57.5 64t-89.5 23
q-51 0 -88.5 -23.5t-57.5 -64.5t-29 -87.5t-9 -100.5q0 -289 184 -289q185 0 185 289z" />
    <glyph glyph-name="P" unicode="P" horiz-adv-x="511" 
d="M486 474q0 -103 -67 -159.5t-175 -56.5h-101v-258h-76v675h177q106 0 174 -51t68 -150zM404 472q0 69 -44.5 103.5t-120.5 34.5h-96v-289h96q79 0 122 38t43 113z" />
    <glyph glyph-name="Q" unicode="Q" horiz-adv-x="634" 
d="M582 343q0 -119 -49.5 -215.5t-143.5 -125.5q99 -35 220 -35v-74q-159 0 -291 97h-2q-133 0 -198.5 99t-65.5 254q0 71 14 130t43.5 108t82 76.5t124.5 27.5q73 0 126.5 -27.5t83 -76.5t43 -107.5t13.5 -130.5zM501 344q0 55 -9 101.5t-29 87.5t-57.5 64t-89.5 23
q-51 0 -88.5 -23.5t-57.5 -64.5t-29 -87.5t-9 -100.5q0 -289 184 -289q185 0 185 289z" />
    <glyph glyph-name="R" unicode="R" horiz-adv-x="528" 
d="M237 273h-93v-273h-76v675h181q106 0 171.5 -47.5t65.5 -145.5q0 -137 -136 -192l153 -290h-92l-136 275q-18 -2 -38 -2zM404 480q0 71 -42.5 102t-123.5 31h-94v-276h94q78 0 122 36t44 107z" />
    <glyph glyph-name="S" unicode="S" horiz-adv-x="510" 
d="M469 184q0 -82 -61 -138t-163 -56q-112 0 -205 69l32 61q33 -27 82 -46t95 -19q64 0 102 34t38 92q0 41 -25 70.5t-62 44.5l-80.5 33.5t-80.5 37.5t-62 57t-25 91q0 72 57 121t157 49q110 0 192 -49l-27 -62q-69 43 -164 43q-67 0 -101.5 -29.5t-34.5 -73.5q0 -36 25 -63
t62 -41.5t81 -33.5t81 -39.5t62 -59.5t25 -93z" />
    <glyph glyph-name="T" unicode="T" horiz-adv-x="483" 
d="M458 608h-184v-608h-80v608h-169v67h433v-67z" />
    <glyph glyph-name="U" unicode="U" horiz-adv-x="596" 
d="M526 675v-424q0 -114 -57 -187.5t-170 -73.5q-115 0 -172.5 73t-57.5 188v424h77v-415q0 -204 153 -204q149 0 149 204v415h78z" />
    <glyph glyph-name="V" unicode="V" horiz-adv-x="539" 
d="M529 675l-199 -675h-124l-196 675h85l172 -607h6l174 607h82z" />
    <glyph glyph-name="W" unicode="W" horiz-adv-x="849" 
d="M838 675l-156 -675h-126l-131 566h-2l-140 -566h-125l-147 675h88l124 -608h6l154 608h93l144 -608h5l135 608h78z" />
    <glyph glyph-name="X" unicode="X" horiz-adv-x="530" 
d="M37 675h93l146 -262l147 262h93l-204 -326l208 -349h-91l-164 276l-162 -276h-93l219 342z" />
    <glyph glyph-name="Y" unicode="Y" horiz-adv-x="494" 
d="M486 675l-213 -412v-263h-78v264l-187 411h94l141 -328h4l156 328h83z" />
    <glyph glyph-name="Z" unicode="Z" horiz-adv-x="529" 
d="M484 607l-354 -544h355v-63h-441v58l355 552h-353v65h438v-68z" />
    <glyph glyph-name="bracketleft" unicode="[" horiz-adv-x="287" 
d="M257 -123h-168v884h168v-69h-92v-746h92v-69z" />
    <glyph glyph-name="backslash" unicode="\" horiz-adv-x="300" 
d="M249 -45l-244 758h46l244 -758h-46z" />
    <glyph glyph-name="bracketright" unicode="]" horiz-adv-x="287" 
d="M198 -123h-168v69h91v746h-91v69h168v-884z" />
    <glyph glyph-name="asciicircum" unicode="^" horiz-adv-x="450" 
d="M390 615l-30 -42l-135 84l-137 -84l-28 42l118 83l58 27z" />
    <glyph glyph-name="underscore" unicode="_" horiz-adv-x="698" 
d="M629 0h-560v56h560v-56z" />
    <glyph glyph-name="grave" unicode="`" horiz-adv-x="587" 
d="M413 566l-225 70l15 57l222 -82z" />
    <glyph glyph-name="a" unicode="a" horiz-adv-x="485" 
d="M421 0h-52l-13 63q-57 -73 -151 -73q-73 0 -115.5 43t-42.5 107q0 65 45.5 102.5t127.5 37.5h127v39q0 63 -27.5 92t-83.5 29q-76 0 -148 -32l-20 55q85 37 178 37q175 0 175 -177v-323zM347 106v122h-115q-111 0 -111 -85q0 -46 25.5 -72t77.5 -26q69 0 123 61z" />
    <glyph glyph-name="b" unicode="b" horiz-adv-x="520" 
d="M142 500l-8 -66q26 28 66 47t80 19q93 0 141.5 -65t48.5 -189q0 -125 -56 -190.5t-148 -65.5q-81 0 -142 63l-16 -53h-42v690h76v-190zM142 387v-284q54 -56 119 -56q66 0 99 47.5t33 151.5q0 196 -127 196q-71 0 -124 -55z" />
    <glyph glyph-name="c" unicode="c" horiz-adv-x="462" 
d="M410 90l18 -57q-76 -43 -163 -43q-99 0 -156.5 62.5t-57.5 192.5q0 121 59.5 188t154.5 67q96 0 160 -39l-22 -54q-55 32 -134 32q-67 0 -104.5 -51t-37.5 -143q0 -196 142 -196q73 0 141 41z" />
    <glyph glyph-name="d" unicode="d" horiz-adv-x="525" 
d="M402 0l-13 59q-22 -29 -60.5 -49t-80.5 -20q-90 0 -143.5 66t-53.5 190q0 114 54.5 184t150.5 70q78 0 131 -42q-4 35 -4 80v152h76v-690h-57zM383 109v298q-50 35 -119 35q-136 0 -136 -196q0 -199 131 -199q66 0 124 62z" />
    <glyph glyph-name="e" unicode="e" horiz-adv-x="506" 
d="M456 223h-330q0 -88 41 -131t114 -43q71 0 152 49l19 -54q-89 -54 -179 -54q-103 0 -163 67t-60 191q0 117 55 184.5t155 67.5q98 0 147 -67t49 -167v-43zM382 276q0 72 -29 119t-96 47q-65 0 -98 -48t-33 -118h256z" />
    <glyph glyph-name="f" unicode="f" horiz-adv-x="321" 
d="M349 697l-7 -62q-27 9 -63 9q-49 0 -72 -28t-23 -87v-39h116v-58h-116v-432h-75v432h-79v58h79v44q0 173 164 173q36 0 76 -10z" />
    <glyph glyph-name="g" unicode="g" horiz-adv-x="513" 
d="M249 500q17 0 95.5 -4t142.5 -6v-53q-37 -4 -119 10q67 -49 67 -117q0 -79 -59.5 -122t-125.5 -43q-29 0 -64 11q-52 -4 -52 -35q0 -16 33 -24t80 -13.5t94.5 -16.5t80.5 -41t33 -79q0 -81 -62 -125t-148 -44q-78 0 -136.5 39t-58.5 106q0 48 33.5 78t90.5 38
q-110 11 -110 74q0 56 74 65q-75 46 -75 132q0 45 18.5 80t48 53.5t60 27.5t59.5 9zM379 -37q0 38 -33 59t-106 28q-55 -1 -86 -27.5t-31 -71.5q0 -44 37 -72t87 -28q59 0 95.5 28t36.5 84zM249 220q46 0 80.5 25.5t34.5 85.5q0 61 -35 87t-80 26q-46 0 -81 -26t-35 -87
q0 -60 34.5 -85.5t81.5 -25.5z" />
    <glyph glyph-name="h" unicode="h" horiz-adv-x="504" 
d="M142 0h-76v690h76v-197q0 -43 -7 -62q64 69 148 69q88 0 128.5 -48t40.5 -143v-309h-78v296q0 144 -112 144q-58 0 -120 -56v-384z" />
    <glyph glyph-name="i" unicode="i" horiz-adv-x="246" 
d="M179 0h-74v429l-54 11v50h128v-490zM98 603v80h81v-80h-81z" />
    <glyph glyph-name="j" unicode="j" horiz-adv-x="266" 
d="M183 490v-498q0 -72 -33 -110t-87 -38q-31 0 -70 13l9 64q25 -9 48 -9q58 0 58 79v439l-54 11v49h129zM102 603v80h81v-80h-81z" />
    <glyph glyph-name="k" unicode="k" horiz-adv-x="440" 
d="M441 0h-95l-184 238h-21v-238h-75v690h75v-288l-3 -125l193 213h90l-199 -213z" />
    <glyph glyph-name="l" unicode="l" horiz-adv-x="263" 
d="M186 -10q-66 0 -91 35.5t-25 109.5v555h75v-583q0 -32 16.5 -45.5t56.5 -13.5h16v-52q-24 -6 -48 -6z" />
    <glyph glyph-name="m" unicode="m" horiz-adv-x="804" 
d="M439 384q8 -29 8 -75v-309h-77v296q0 73 -25 108.5t-85 35.5q-56 0 -118 -56v-384h-76v490h50l16 -59q67 69 149 69q107 0 144 -75q68 75 153 75q173 0 173 -191v-309h-77v296q0 144 -118 144q-59 0 -117 -56z" />
    <glyph glyph-name="n" unicode="n" horiz-adv-x="508" 
d="M452 0h-78v296q0 72 -26 108t-86 36q-58 0 -120 -56v-384h-76v490h51l15 -58q66 68 154 68q166 0 166 -191v-309z" />
    <glyph glyph-name="o" unicode="o" horiz-adv-x="518" 
d="M258 500q99 0 155 -70.5t56 -183.5q0 -123 -56 -189.5t-155 -66.5q-100 0 -154.5 66t-54.5 190q0 113 53.5 183.5t155.5 70.5zM258 47q70 0 101.5 49.5t31.5 149.5q0 197 -133 197q-132 0 -132 -197q0 -199 132 -199z" />
    <glyph glyph-name="p" unicode="p" horiz-adv-x="517" 
d="M132 46q11 -48 11 -79v-157h-77v680h59l12 -58q61 68 143 68q187 0 187 -254q0 -125 -55.5 -190.5t-147.5 -65.5q-76 0 -132 56zM143 384v-284q51 -53 116 -53q67 0 99 47t32 152q0 98 -30 146.5t-96 48.5t-121 -57z" />
    <glyph glyph-name="q" unicode="q" horiz-adv-x="525" 
d="M383 109v296q-47 37 -118 37q-68 0 -102.5 -51t-34.5 -145q0 -199 131 -199q66 0 124 62zM459 -190h-76v191l7 58q-22 -29 -61.5 -49t-80.5 -20q-88 0 -142.5 66.5t-54.5 189.5q0 114 54.5 184t150.5 70q77 0 141 -46l14 36h48v-680z" />
    <glyph glyph-name="r" unicode="r" horiz-adv-x="339" 
d="M320 489l-5 -65q-25 9 -63 9q-59 0 -110 -53v-380h-76v490h51l14 -62q52 69 127 69q30 0 62 -8z" />
    <glyph glyph-name="s" unicode="s" horiz-adv-x="411" 
d="M214 442q-92 0 -92 -72q0 -29 25 -48.5t60.5 -32.5t71.5 -28.5t61 -47t25 -77.5q0 -62 -45.5 -104t-124.5 -42q-80 0 -148 42l22 56q20 -16 55.5 -28.5t69.5 -12.5q45 0 71 23t26 61q0 32 -24.5 53.5t-60 35t-71 29t-60 46t-24.5 76.5q0 54 41.5 91.5t120.5 37.5
q89 0 147 -32l-18 -56q-57 30 -128 30z" />
    <glyph glyph-name="t" unicode="t" horiz-adv-x="372" 
d="M339 19q-47 -29 -108 -29q-126 0 -126 150v295h-74v55h74v89l76 24v-113h143v-55h-143v-304q0 -77 65 -77q36 0 78 21z" />
    <glyph glyph-name="u" unicode="u" horiz-adv-x="505" 
d="M445 0h-53l-11 56q-23 -25 -62.5 -45.5t-89.5 -20.5q-169 0 -169 199v301h76v-296q0 -76 26 -109.5t85 -33.5q64 0 121 48v391h77v-490z" />
    <glyph glyph-name="v" unicode="v" horiz-adv-x="454" 
d="M441 490l-159 -490h-113l-157 490h84l133 -443h2l132 443h78z" />
    <glyph glyph-name="w" unicode="w" horiz-adv-x="690" 
d="M678 490l-139 -490h-111l-86 403l-113 -403h-107l-110 490h83l85 -436h3l121 436h87l95 -436h3l112 436h77z" />
    <glyph glyph-name="x" unicode="x" horiz-adv-x="432" 
d="M327 0l-120 201l-117 -201h-77l160 258l-148 232h95l102 -181l101 181h77l-143 -239l161 -251h-91z" />
    <glyph glyph-name="y" unicode="y" horiz-adv-x="471" 
d="M229 -15l6 18l-50 -4l-157 491h84q92 -298 134 -445l133 445h78l-157 -485q-38 -116 -81.5 -161t-114.5 -45q-29 0 -60.5 12.5t-48.5 26.5l25 51h6q39 -31 82 -31t70.5 28.5t50.5 98.5z" />
    <glyph glyph-name="z" unicode="z" horiz-adv-x="442" 
d="M400 437l-267 -383h269v-54h-362v44l275 391h-275v55h360v-53z" />
    <glyph glyph-name="braceleft" unicode="{" horiz-adv-x="323" 
d="M304 -45l-25 -56q-89 39 -120.5 96t-31.5 159v84l-109 56v65l109 52v112q0 145 152 208l25 -57q-53 -32 -76 -66t-23 -92v-103l-80 -73l-24 -16l104 -55v-156q0 -109 99 -158z" />
    <glyph glyph-name="bar" unicode="|" horiz-adv-x="300" 
d="M177 -168l-54 -1v899h54v-898z" />
    <glyph glyph-name="braceright" unicode="}" horiz-adv-x="323" 
d="M304 294l-109 -56v-114q0 -84 -34 -136t-117 -89l-26 56q99 46 99 158v156l96 52l9 9l-105 48v138q0 58 -23 92t-76 66l26 57q151 -63 151 -198v-122l109 -52v-65z" />
    <glyph glyph-name="asciitilde" unicode="~" horiz-adv-x="496" 
d="M425 322q-29 -93 -114 -69l-121 33q-52 13 -74 -28l-44 19q36 90 126 65l117 -33q50 -14 67 30z" />
    <glyph glyph-name="exclamdown" unicode="&#xa1;" horiz-adv-x="273" 
d="M98 56l13 233h51l13 -233v-257h-77v257zM174 489v-112h-74v112h74z" />
    <glyph glyph-name="sterling" unicode="&#xa3;" horiz-adv-x="462" 
d="M348 305h-140v-113l-5 -60q48 8 95 8h105v-64h-346v64h74v165h-74v52h74v67q0 84 42.5 128.5t126.5 44.5q50 0 102 -16l-12 -58q-41 11 -84 11q-52 0 -75 -27.5t-23 -86.5v-63h147z" />
    <glyph glyph-name="yen" unicode="&#xa5;" horiz-adv-x="478" 
d="M393 171h-128v-95h-77v95h-118v57h118v66h-118v56h86l-138 237h91l126 -237h5l137 237h82l-158 -237h92v-56h-128v-66h128v-57z" />
    <glyph glyph-name="brokenbar" unicode="&#xa6;" horiz-adv-x="300" 
d="M177 314h-54v416h54v-416zM177 -168h-54v416h54v-416z" />
    <glyph glyph-name="section" unicode="&#xa7;" horiz-adv-x="472" 
d="M379 272l-212 133q-24 15 -36.5 24.5t-28 26t-22.5 37t-7 47.5q0 55 41 92t122 37q86 0 146 -33q-13 -46 -15 -56q-59 31 -130 31q-43 0 -68 -20.5t-25 -51.5q0 -24 24.5 -46.5t59 -42.5l69.5 -41.5t59.5 -52.5t24.5 -67q0 -5 -2 -17zM93 221l221 -131q39 -23 61.5 -51
t22.5 -76q0 -62 -46.5 -104.5t-125.5 -42.5q-75 0 -146 44l10.5 25.5t11.5 29.5q20 -16 55.5 -29t68.5 -13q42 0 70 23.5t28 61.5q0 27 -24 51t-58 43l-68.5 39t-58.5 49.5t-24 65.5q0 5 2 15zM373 193v-56l-270 167v57z" />
    <glyph glyph-name="dieresis" unicode="&#xa8;" horiz-adv-x="517" 
d="M121 579v109h74v-109h-74zM321 579v109h74v-109h-74z" />
    <glyph glyph-name="copyright" unicode="&#xa9;" horiz-adv-x="608" 
d="M548 424q0 -101 -71.5 -172.5t-172.5 -71.5t-172.5 71.5t-71.5 172.5t71.5 172.5t172.5 71.5t172.5 -71.5t71.5 -172.5zM302 523q-39 0 -59.5 -23t-20.5 -78q0 -100 80 -100q45 0 86 26l14 -44q-51 -31 -100 -31q-60 0 -97 37.5t-37 112.5t37 112t97 37q53 0 93 -21
l-11 -46q-39 18 -82 18zM510 424q0 86 -60 146t-146 60t-146 -60t-60 -146t60 -146t146 -60t146 60t60 146z" />
    <glyph glyph-name="ordfeminine" unicode="&#xaa;" horiz-adv-x="430" 
d="M373 300h-50l-13 62q-47 -72 -129 -72q-54 0 -89 34t-35 91q0 58 40 87.5t106 29.5h102v23q0 79 -92 79q-66 0 -124 -28l-20 51q72 33 154 33q74 0 112 -34.5t38 -95.5v-260zM305 402v84h-93q-89 0 -89 -68q0 -36 22 -56t60 -20q57 0 100 60z" />
    <glyph glyph-name="guillemotleft" unicode="&#xab;" horiz-adv-x="440" 
d="M399 349l-101 -135l102 -145l-48 -36l-144 182l145 175zM231 352l-102 -138l102 -149l-47 -36l-144 186l144 178z" />
    <glyph glyph-name="registered" unicode="&#xae;" horiz-adv-x="605" 
d="M546 312q0 -101 -71.5 -172.5t-172.5 -71.5t-172.5 71.5t-71.5 172.5t71.5 172.5t172.5 71.5t172.5 -71.5t71.5 -172.5zM508 312q0 86 -60 146t-146 60t-146 -60t-60 -146t60 -146t146 -60t146 60t60 146zM415 370q0 -80 -78 -98l69 -110h-50l-63 105h-37v-105h-43v305
h85q50 0 83.5 -24.5t33.5 -72.5zM367 369q0 34 -19.5 48.5t-60.5 14.5h-31v-129h32q79 0 79 66z" />
    <glyph glyph-name="macron" unicode="&#xaf;" horiz-adv-x="512" 
d="M423 587h-335v47h335v-47z" />
    <glyph glyph-name="degree" unicode="&#xb0;" horiz-adv-x="487" 
d="M121 495q0 -52 35.5 -87.5t87.5 -35.5t87 35.5t35 87.5q0 51 -35 86.5t-87 35.5t-87.5 -35.5t-35.5 -86.5zM58 495q0 77 54 130.5t132 53.5q77 0 130.5 -53.5t53.5 -130.5q0 -79 -53.5 -132.5t-130.5 -53.5q-78 0 -132 53.5t-54 132.5z" />
    <glyph glyph-name="plusminus" unicode="&#xb1;" horiz-adv-x="477" 
d="M401 331h-132v-138h-65v138h-128v59h128v133h65v-133h132v-59zM405 72h-334v57h334v-57z" />
    <glyph glyph-name="twosuperior" unicode="&#xb2;" 
d="M361 258h-291v59q126 94 171.5 146t45.5 94q0 35 -24.5 53.5t-63.5 18.5q-62 0 -121 -32l-25 55q76 38 156 38q67 0 109.5 -33t42.5 -83q0 -61 -48.5 -115.5t-174.5 -147.5q55 5 107 5h116v-58z" />
    <glyph glyph-name="threesuperior" unicode="&#xb3;" 
d="M365 379q0 -57 -47.5 -94t-119.5 -37q-84 0 -141 39l26 51q48 -34 115 -34q42 0 69.5 20t27.5 54q0 68 -126 68l-6 48q112 0 112 79q0 27 -23 42.5t-64 15.5q-62 0 -102 -27l-22 53q64 33 131 33q70 0 109.5 -31t39.5 -76t-25.5 -73.5t-63.5 -34.5q45 -6 77.5 -30
t32.5 -66z" />
    <glyph glyph-name="acute" unicode="&#xb4;" horiz-adv-x="605" 
d="M424 636l-225 -70l-11 45l221 82z" />
    <glyph glyph-name="paragraph" unicode="&#xb6;" horiz-adv-x="610" 
d="M293 -160v416q-106 0 -175.5 55t-69.5 160q0 100 69 152t175 52h229v-835h-71v770h-153q-76 0 -121.5 -36t-45.5 -105q0 -76 44 -113t119 -37v220h69v-699h-69z" />
    <glyph glyph-name="periodcentered" unicode="&#xb7;" horiz-adv-x="177" 
d="M51 377v112h75v-112h-75z" />
    <glyph glyph-name="cedilla" unicode="&#xb8;" horiz-adv-x="516" 
d="M227 -59l5 13q63 0 94.5 -15t31.5 -51q0 -49 -46.5 -74.5t-101.5 -27.5v47q70 5 70 57q0 37 -53 51z" />
    <glyph glyph-name="onesuperior" unicode="&#xb9;" horiz-adv-x="421" 
d="M198 505l5 86q-17 -34 -57 -65t-84 -40v64q47 9 87 44.5t64 85.5h55v-367h106v-55h-303v55h127v192z" />
    <glyph glyph-name="ordmasculine" unicode="&#xba;" horiz-adv-x="487" 
d="M243 690q80 0 132 -50.5t52 -145.5q0 -106 -52 -154.5t-132 -48.5q-78 0 -130.5 48t-52.5 155q0 96 50 146t133 50zM243 348q45 0 76 34t31 111q0 75 -30 107.5t-77 32.5t-77 -33t-30 -107q0 -71 31 -108t76 -37z" />
    <glyph glyph-name="guillemotright" unicode="&#xbb;" horiz-adv-x="444" 
d="M404 215l-144 -186l-48 36l102 149l-102 138l47 41zM231 215l-144 -182l-47 36l101 145l-101 135l46 41z" />
    <glyph glyph-name="onequarter" unicode="&#xbc;" horiz-adv-x="946" 
d="M198 488l5 86q-17 -34 -57 -65t-84 -40v64q47 9 87 44.5t64 85.5h55v-367h106v-55h-303v55h127v192zM884 104h-56v-104h-68v104h-203v46l122 280l46 -15v-24l-99 -231h134v262h68v-262h56v-56zM642 713l-244 -758h-46l244 758h46z" />
    <glyph glyph-name="onehalf" unicode="&#xbd;" horiz-adv-x="985" 
d="M642 713l-244 -758h-46l244 758h46zM198 488l5 86q-17 -34 -57 -65t-84 -40v64q47 9 87 44.5t64 85.5h55v-367h106v-55h-303v55h127v192zM924 0h-291v59q126 94 171.5 146t45.5 94q0 35 -24.5 53.5t-63.5 18.5q-62 0 -121 -32l-25 55q76 38 156 38q67 0 109.5 -33
t42.5 -83q0 -61 -48.5 -115.5t-174.5 -147.5q55 5 107 5h116v-58z" />
    <glyph glyph-name="threequarters" unicode="&#xbe;" horiz-adv-x="962" 
d="M639 713l-275 -758l-35 13l274 757zM900 104h-56v-104h-68v104h-203v46l122 280l46 -15v-24l-99 -231h134v262h68v-262h56v-56zM369 361q0 -57 -47.5 -94t-119.5 -37q-84 0 -141 39l26 51q48 -34 115 -34q42 0 69.5 20t27.5 54q0 68 -126 68l-6 48q112 0 112 79
q0 27 -23 42.5t-64 15.5q-62 0 -102 -27l-22 53q64 33 131 33q70 0 109.5 -31t39.5 -76t-25.5 -73.5t-63.5 -34.5q45 -6 77.5 -30t32.5 -66z" />
    <glyph glyph-name="questiondown" unicode="&#xbf;" horiz-adv-x="409" 
d="M31 -19q0 46 17.5 82.5t42.5 61l49.5 46.5t42 49.5t17.5 59.5v28h69v-42q0 -35 -16.5 -64.5t-40 -51.5l-47 -44t-40 -52.5t-16.5 -66.5q0 -62 36 -93t92 -31q59 0 131 35l21 -60q-84 -39 -162 -39q-86 0 -141 47.5t-55 134.5zM273 489v-112h-74v112h74z" />
    <glyph glyph-name="Agrave" unicode="&#xc0;" horiz-adv-x="556" 
d="M136 172l-44 -172h-75l185 675h165l171 -675h-84l-41 172h-277zM309 609h-57l-100 -371h246zM395 721l-239 19l1 57l243 -31z" />
    <glyph glyph-name="Aacute" unicode="&#xc1;" horiz-adv-x="548" 
d="M133 172l-44 -172h-75l185 675h165l171 -675h-84l-41 172h-277zM306 609h-57l-100 -371h246zM402 740l-239 -19l-5 45l243 31z" />
    <glyph glyph-name="Acircumflex" unicode="&#xc2;" horiz-adv-x="556" 
d="M136 172l-44 -172h-75l185 675h165l171 -675h-84l-41 172h-277zM309 609h-57l-100 -371h246zM431 761l-20 -43l-133 68l-133 -68l-20 43l153 91z" />
    <glyph glyph-name="Atilde" unicode="&#xc3;" horiz-adv-x="556" 
d="M136 172l-44 -172h-75l185 675h165l171 -675h-84l-41 172h-277zM309 609h-57l-100 -371h246zM438 804q-5 -45 -34.5 -66t-73.5 -6l-99 35q-50 18 -72 -28l-41 18q10 42 43 62.5t78 4.5l95 -34q47 -17 65 29z" />
    <glyph glyph-name="Adieresis" unicode="&#xc4;" horiz-adv-x="556" 
d="M136 172l-44 -172h-75l185 675h165l171 -675h-84l-41 172h-277zM309 609h-57l-100 -371h246zM141 722v109h74v-109h-74zM341 722v109h74v-109h-74z" />
    <glyph glyph-name="Aring" unicode="&#xc5;" horiz-adv-x="556" 
d="M136 172l-44 -172h-75l185 675h165l171 -675h-84l-41 172h-277zM309 609h-57l-100 -371h246zM397 820q0 -50 -34.5 -84.5t-84.5 -34.5t-85 34.5t-35 84.5t35 84.5t85 34.5t84.5 -34.5t34.5 -84.5zM346 819q0 29 -19.5 49t-48.5 20t-48.5 -20t-19.5 -49t19.5 -48.5
t48.5 -19.5t48.5 19.5t19.5 48.5z" />
    <glyph glyph-name="AE" unicode="&#xc6;" horiz-adv-x="762" 
d="M718 0h-373v168h-198l-54 -168h-76l222 675h479v-67h-296v-232h235l-10 -68h-225v-244h296v-64zM290 608l-122 -374h177v374h-55z" />
    <glyph glyph-name="Ccedilla" unicode="&#xc7;" horiz-adv-x="576" 
d="M549 60q-100 -70 -214 -70q-135 0 -205.5 94t-70.5 257t74 253.5t204 90.5q131 0 208 -55l-30 -62q-64 49 -174 49q-100 0 -151 -73t-51 -200q0 -134 51 -210t149 -76q101 0 186 64zM271 -59l5 13q63 0 94.5 -15t31.5 -51q0 -49 -46.5 -74.5t-101.5 -27.5v47q70 5 70 57
q0 37 -53 51z" />
    <glyph glyph-name="Egrave" unicode="&#xc8;" horiz-adv-x="485" 
d="M441 0h-373v675h373v-67h-296v-232h235l-10 -68h-225v-244h296v-64zM359 721l-239 19l1 57l243 -31z" />
    <glyph glyph-name="Eacute" unicode="&#xc9;" horiz-adv-x="485" 
d="M441 0h-373v675h373v-67h-296v-232h235l-10 -68h-225v-244h296v-64zM368 740l-239 -19l-5 45l243 31z" />
    <glyph glyph-name="Ecircumflex" unicode="&#xca;" horiz-adv-x="485" 
d="M441 0h-373v675h373v-67h-296v-232h235l-10 -68h-225v-244h296v-64zM395 761l-20 -43l-133 68l-133 -68l-20 43l153 91z" />
    <glyph glyph-name="Edieresis" unicode="&#xcb;" horiz-adv-x="485" 
d="M441 0h-373v675h373v-67h-296v-232h235l-10 -68h-225v-244h296v-64zM105 722v109h74v-109h-74zM305 722v109h74v-109h-74z" />
    <glyph glyph-name="Igrave" unicode="&#xcc;" horiz-adv-x="264" 
d="M170 0h-77v675h77v-675zM249 721l-239 19l1 57l243 -31z" />
    <glyph glyph-name="Iacute" unicode="&#xcd;" horiz-adv-x="264" 
d="M170 0h-77v675h77v-675zM254 740l-239 -19l-5 45l243 31z" />
    <glyph glyph-name="Icircumflex" unicode="&#xce;" horiz-adv-x="264" 
d="M170 0h-77v675h77v-675zM285 761l-20 -43l-133 68l-133 -68l-20 43l153 91z" />
    <glyph glyph-name="Idieresis" unicode="&#xcf;" horiz-adv-x="264" 
d="M170 0h-77v675h77v-675zM-5 722v109h74v-109h-74zM195 722v109h74v-109h-74z" />
    <glyph glyph-name="Ntilde" unicode="&#xd1;" horiz-adv-x="623" 
d="M543 0h-134l-255 599h-4l2 -599h-73v675h128l258 -604h5l-3 604h76v-675zM471 804q-5 -45 -34.5 -66t-73.5 -6l-99 35q-50 18 -72 -28l-41 18q10 42 43 62.5t78 4.5l95 -34q47 -17 65 29z" />
    <glyph glyph-name="Ograve" unicode="&#xd2;" horiz-adv-x="634" 
d="M582 343q0 -70 -14.5 -131t-45 -112t-83.5 -80.5t-123 -29.5q-71 0 -123.5 28t-82.5 78t-44 111.5t-14 135.5q0 71 14 130t43.5 108t82 76.5t124.5 27.5q73 0 126.5 -27.5t83 -76.5t43 -107.5t13.5 -130.5zM501 344q0 55 -9 101.5t-29 87.5t-57.5 64t-89.5 23
q-51 0 -88.5 -23.5t-57.5 -64.5t-29 -87.5t-9 -100.5q0 -289 184 -289q185 0 185 289zM435 721l-239 19l1 57l243 -31z" />
    <glyph glyph-name="Oacute" unicode="&#xd3;" horiz-adv-x="634" 
d="M582 343q0 -70 -14.5 -131t-45 -112t-83.5 -80.5t-123 -29.5q-71 0 -123.5 28t-82.5 78t-44 111.5t-14 135.5q0 71 14 130t43.5 108t82 76.5t124.5 27.5q73 0 126.5 -27.5t83 -76.5t43 -107.5t13.5 -130.5zM501 344q0 55 -9 101.5t-29 87.5t-57.5 64t-89.5 23
q-51 0 -88.5 -23.5t-57.5 -64.5t-29 -87.5t-9 -100.5q0 -289 184 -289q185 0 185 289zM440 740l-239 -19l-5 45l243 31z" />
    <glyph glyph-name="Ocircumflex" unicode="&#xd4;" horiz-adv-x="634" 
d="M582 343q0 -70 -14.5 -131t-45 -112t-83.5 -80.5t-123 -29.5q-71 0 -123.5 28t-82.5 78t-44 111.5t-14 135.5q0 71 14 130t43.5 108t82 76.5t124.5 27.5q73 0 126.5 -27.5t83 -76.5t43 -107.5t13.5 -130.5zM501 344q0 55 -9 101.5t-29 87.5t-57.5 64t-89.5 23
q-51 0 -88.5 -23.5t-57.5 -64.5t-29 -87.5t-9 -100.5q0 -289 184 -289q185 0 185 289zM471 761l-20 -43l-133 68l-133 -68l-20 43l153 91z" />
    <glyph glyph-name="Otilde" unicode="&#xd5;" horiz-adv-x="634" 
d="M582 343q0 -70 -14.5 -131t-45 -112t-83.5 -80.5t-123 -29.5q-71 0 -123.5 28t-82.5 78t-44 111.5t-14 135.5q0 71 14 130t43.5 108t82 76.5t124.5 27.5q73 0 126.5 -27.5t83 -76.5t43 -107.5t13.5 -130.5zM501 344q0 55 -9 101.5t-29 87.5t-57.5 64t-89.5 23
q-51 0 -88.5 -23.5t-57.5 -64.5t-29 -87.5t-9 -100.5q0 -289 184 -289q185 0 185 289zM478 804q-5 -45 -34.5 -66t-73.5 -6l-99 35q-50 18 -72 -28l-41 18q10 42 43 62.5t78 4.5l95 -34q47 -17 65 29z" />
    <glyph glyph-name="Odieresis" unicode="&#xd6;" horiz-adv-x="634" 
d="M582 343q0 -70 -14.5 -131t-45 -112t-83.5 -80.5t-123 -29.5q-71 0 -123.5 28t-82.5 78t-44 111.5t-14 135.5q0 71 14 130t43.5 108t82 76.5t124.5 27.5q73 0 126.5 -27.5t83 -76.5t43 -107.5t13.5 -130.5zM501 344q0 55 -9 101.5t-29 87.5t-57.5 64t-89.5 23
q-51 0 -88.5 -23.5t-57.5 -64.5t-29 -87.5t-9 -100.5q0 -289 184 -289q185 0 185 289zM181 722v109h74v-109h-74zM381 722v109h74v-109h-74z" />
    <glyph glyph-name="multiply" unicode="&#xd7;" horiz-adv-x="443" 
d="M360 170l-43 -42l-96 96l-98 -98l-42 42l98 98l-94 94l42 42l94 -94l97 97l41 -41l-97 -98z" />
    <glyph glyph-name="Ugrave" unicode="&#xd9;" horiz-adv-x="596" 
d="M526 675v-424q0 -114 -57 -187.5t-170 -73.5q-115 0 -172.5 73t-57.5 188v424h77v-415q0 -204 153 -204q149 0 149 204v415h78zM417 721l-239 19l1 57l243 -31z" />
    <glyph glyph-name="Uacute" unicode="&#xda;" horiz-adv-x="596" 
d="M526 675v-424q0 -114 -57 -187.5t-170 -73.5q-115 0 -172.5 73t-57.5 188v424h77v-415q0 -204 153 -204q149 0 149 204v415h78zM420 740l-239 -19l-5 45l243 31z" />
    <glyph glyph-name="Ucircumflex" unicode="&#xdb;" horiz-adv-x="596" 
d="M526 675v-424q0 -114 -57 -187.5t-170 -73.5q-115 0 -172.5 73t-57.5 188v424h77v-415q0 -204 153 -204q149 0 149 204v415h78zM451 761l-20 -43l-133 68l-133 -68l-20 43l153 91z" />
    <glyph glyph-name="Udieresis" unicode="&#xdc;" horiz-adv-x="596" 
d="M526 675v-424q0 -114 -57 -187.5t-170 -73.5q-115 0 -172.5 73t-57.5 188v424h77v-415q0 -204 153 -204q149 0 149 204v415h78zM161 722v109h74v-109h-74zM361 722v109h74v-109h-74z" />
    <glyph glyph-name="Yacute" unicode="&#xdd;" horiz-adv-x="494" 
d="M486 675l-213 -412v-263h-78v264l-187 411h94l141 -328h4l156 328h83zM369 740l-239 -19l-5 45l243 31z" />
    <glyph glyph-name="germandbls" unicode="&#xdf;" horiz-adv-x="563" 
d="M472 555q0 -34 -14 -58.5t-34 -39l-39.5 -27.5t-33.5 -31t-14 -41q0 -27 21.5 -44t52 -28t61 -25t52 -44.5t21.5 -76.5q0 -62 -46.5 -106t-125.5 -44q-72 0 -135 41v63q20 -16 62 -31.5t73 -15.5q46 0 72 24.5t26 64.5q0 33 -21 54t-51.5 33l-60.5 25t-51 40.5t-21 70.5
q0 38 21 65.5t45.5 40.5t45.5 36t21 53q0 40 -28 66t-74 26q-54 0 -83 -30.5t-29 -89.5v-526h-77v432h-78v58h78v42q0 81 51.5 128t139.5 47q79 0 126 -42t47 -110z" />
    <glyph glyph-name="agrave" unicode="&#xe0;" horiz-adv-x="485" 
d="M421 0h-52l-13 63q-57 -73 -151 -73q-73 0 -115.5 43t-42.5 107q0 65 45.5 102.5t127.5 37.5h127v39q0 63 -27.5 92t-83.5 29q-76 0 -148 -32l-20 55q85 37 178 37q175 0 175 -177v-323zM347 106v122h-115q-111 0 -111 -85q0 -46 25.5 -72t77.5 -26q69 0 123 61zM357 566
l-225 70l15 57l222 -82z" />
    <glyph glyph-name="aacute" unicode="&#xe1;" horiz-adv-x="485" 
d="M421 0h-52l-13 63q-57 -73 -151 -73q-73 0 -115.5 43t-42.5 107q0 65 45.5 102.5t127.5 37.5h127v39q0 63 -27.5 92t-83.5 29q-76 0 -148 -32l-20 55q85 37 178 37q175 0 175 -177v-323zM347 106v122h-115q-111 0 -111 -85q0 -46 25.5 -72t77.5 -26q69 0 123 61zM361 636
l-225 -70l-11 45l221 82z" />
    <glyph glyph-name="acircumflex" unicode="&#xe2;" horiz-adv-x="485" 
d="M421 0h-52l-13 63q-57 -73 -151 -73q-73 0 -115.5 43t-42.5 107q0 65 45.5 102.5t127.5 37.5h127v39q0 63 -27.5 92t-83.5 29q-76 0 -148 -32l-20 55q85 37 178 37q175 0 175 -177v-323zM347 106v122h-115q-111 0 -111 -85q0 -46 25.5 -72t77.5 -26q69 0 123 61zM396 607
l-20 -43l-133 68l-133 -68l-20 43l153 91z" />
    <glyph glyph-name="atilde" unicode="&#xe3;" horiz-adv-x="485" 
d="M421 0h-52l-13 63q-57 -73 -151 -73q-73 0 -115.5 43t-42.5 107q0 65 45.5 102.5t127.5 37.5h127v39q0 63 -27.5 92t-83.5 29q-76 0 -148 -32l-20 55q85 37 178 37q175 0 175 -177v-323zM347 106v122h-115q-111 0 -111 -85q0 -46 25.5 -72t77.5 -26q69 0 123 61zM403 649
q-5 -45 -34.5 -66t-73.5 -6l-99 35q-50 18 -72 -28l-41 18q10 42 43 62.5t78 4.5l95 -34q47 -17 65 29z" />
    <glyph glyph-name="adieresis" unicode="&#xe4;" horiz-adv-x="485" 
d="M421 0h-52l-13 63q-57 -73 -151 -73q-73 0 -115.5 43t-42.5 107q0 65 45.5 102.5t127.5 37.5h127v39q0 63 -27.5 92t-83.5 29q-76 0 -148 -32l-20 55q85 37 178 37q175 0 175 -177v-323zM347 106v122h-115q-111 0 -111 -85q0 -46 25.5 -72t77.5 -26q69 0 123 61zM105 579
v109h74v-109h-74zM305 579v109h74v-109h-74z" />
    <glyph glyph-name="aring" unicode="&#xe5;" horiz-adv-x="485" 
d="M421 0h-52l-13 63q-57 -73 -151 -73q-73 0 -115.5 43t-42.5 107q0 65 45.5 102.5t127.5 37.5h127v39q0 63 -27.5 92t-83.5 29q-76 0 -148 -32l-20 55q85 37 178 37q175 0 175 -177v-323zM347 106v122h-115q-111 0 -111 -85q0 -46 25.5 -72t77.5 -26q69 0 123 61zM363 650
q0 -50 -34.5 -84.5t-84.5 -34.5t-85 34.5t-35 84.5t35 84.5t85 34.5t84.5 -34.5t34.5 -84.5zM312 649q0 29 -19.5 49t-48.5 20t-48.5 -20t-19.5 -49t19.5 -48.5t48.5 -19.5t48.5 19.5t19.5 48.5z" />
    <glyph glyph-name="ae" unicode="&#xe6;" horiz-adv-x="802" 
d="M386 92h-4q-24 -42 -71.5 -72t-105.5 -30q-72 0 -115.5 43t-43.5 107t46 100.5t128 36.5h127v42q0 121 -111 121q-77 0 -153 -34l-20 56q87 38 181 38q112 0 152 -83q53 83 161 83q97 0 146 -67t49 -167v-41h-330q0 -88 41.5 -132t113.5 -44q69 0 152 50l21 -53
q-92 -56 -180 -56q-67 0 -114.5 27.5t-69.5 74.5zM347 114v112h-116q-111 0 -111 -83q0 -98 103 -98q37 0 70.5 20t53.5 49zM678 276q0 72 -29 119t-96 47q-65 0 -98 -48t-33 -118h256z" />
    <glyph glyph-name="ccedilla" unicode="&#xe7;" horiz-adv-x="463" 
d="M410 90l18 -57q-76 -43 -163 -43q-99 0 -156.5 62.5t-57.5 192.5q0 121 59.5 188t154.5 67q96 0 160 -39l-22 -54q-55 32 -134 32q-67 0 -104.5 -51t-37.5 -143q0 -196 142 -196q73 0 141 41zM221 -59l5 13q63 0 94.5 -15t31.5 -51q0 -49 -46.5 -74.5t-101.5 -27.5v47
q70 5 70 57q0 37 -53 51z" />
    <glyph glyph-name="egrave" unicode="&#xe8;" horiz-adv-x="506" 
d="M456 223h-330q0 -88 41 -131t114 -43q71 0 152 49l19 -54q-89 -54 -179 -54q-103 0 -163 67t-60 191q0 117 55 184.5t155 67.5q98 0 147 -67t49 -167v-43zM382 276q0 72 -29 119t-96 47q-65 0 -98 -48t-33 -118h256zM369 566l-225 70l15 57l222 -82z" />
    <glyph glyph-name="eacute" unicode="&#xe9;" horiz-adv-x="506" 
d="M456 223h-330q0 -88 41 -131t114 -43q71 0 152 49l19 -54q-89 -54 -179 -54q-103 0 -163 67t-60 191q0 117 55 184.5t155 67.5q98 0 147 -67t49 -167v-43zM382 276q0 72 -29 119t-96 47q-65 0 -98 -48t-33 -118h256zM372 636l-225 -70l-11 45l221 82z" />
    <glyph glyph-name="ecircumflex" unicode="&#xea;" horiz-adv-x="506" 
d="M456 223h-330q0 -88 41 -131t114 -43q71 0 152 49l19 -54q-89 -54 -179 -54q-103 0 -163 67t-60 191q0 117 55 184.5t155 67.5q98 0 147 -67t49 -167v-43zM382 276q0 72 -29 119t-96 47q-65 0 -98 -48t-33 -118h256zM408 607l-20 -43l-133 68l-133 -68l-20 43l153 91z
" />
    <glyph glyph-name="edieresis" unicode="&#xeb;" horiz-adv-x="506" 
d="M456 223h-330q0 -88 41 -131t114 -43q71 0 152 49l19 -54q-89 -54 -179 -54q-103 0 -163 67t-60 191q0 117 55 184.5t155 67.5q98 0 147 -67t49 -167v-43zM382 276q0 72 -29 119t-96 47q-65 0 -98 -48t-33 -118h256zM117 579v109h74v-109h-74zM317 579v109h74v-109h-74z
" />
    <glyph glyph-name="igrave" unicode="&#xec;" horiz-adv-x="247" 
d="M179 0h-74v429l-54 11v50h128v-490zM230 566l-225 70l15 57l222 -82z" />
    <glyph glyph-name="iacute" unicode="&#xed;" horiz-adv-x="247" 
d="M179 0h-74v429l-54 11v50h128v-490zM244 636l-225 -70l-11 45l221 82z" />
    <glyph glyph-name="icircumflex" unicode="&#xee;" horiz-adv-x="247" 
d="M179 0h-74v429l-54 11v50h128v-490zM277 607l-20 -43l-133 68l-133 -68l-20 43l153 91z" />
    <glyph glyph-name="idieresis" unicode="&#xef;" horiz-adv-x="247" 
d="M179 0h-74v429l-54 11v50h128v-490zM-13 579v109h74v-109h-74zM187 579v109h74v-109h-74z" />
    <glyph glyph-name="ntilde" unicode="&#xf1;" horiz-adv-x="508" 
d="M452 0h-78v296q0 72 -26 108t-86 36q-58 0 -120 -56v-384h-76v490h51l15 -58q66 68 154 68q166 0 166 -191v-309zM415 649q-5 -45 -34.5 -66t-73.5 -6l-99 35q-50 18 -72 -28l-41 18q10 42 43 62.5t78 4.5l95 -34q47 -17 65 29z" />
    <glyph glyph-name="ograve" unicode="&#xf2;" horiz-adv-x="518" 
d="M258 500q99 0 155 -70.5t56 -183.5q0 -123 -56 -189.5t-155 -66.5q-100 0 -154.5 66t-54.5 190q0 113 53.5 183.5t155.5 70.5zM258 47q70 0 101.5 49.5t31.5 149.5q0 197 -133 197q-132 0 -132 -197q0 -199 132 -199zM375 566l-225 70l15 57l222 -82z" />
    <glyph glyph-name="oacute" unicode="&#xf3;" horiz-adv-x="518" 
d="M258 500q99 0 155 -70.5t56 -183.5q0 -123 -56 -189.5t-155 -66.5q-100 0 -154.5 66t-54.5 190q0 113 53.5 183.5t155.5 70.5zM258 47q70 0 101.5 49.5t31.5 149.5q0 197 -133 197q-132 0 -132 -197q0 -199 132 -199zM377 636l-225 -70l-11 45l221 82z" />
    <glyph glyph-name="ocircumflex" unicode="&#xf4;" horiz-adv-x="518" 
d="M258 500q99 0 155 -70.5t56 -183.5q0 -123 -56 -189.5t-155 -66.5q-100 0 -154.5 66t-54.5 190q0 113 53.5 183.5t155.5 70.5zM258 47q70 0 101.5 49.5t31.5 149.5q0 197 -133 197q-132 0 -132 -197q0 -199 132 -199zM412 607l-20 -43l-133 68l-133 -68l-20 43l153 91z
" />
    <glyph glyph-name="otilde" unicode="&#xf5;" horiz-adv-x="518" 
d="M258 500q99 0 155 -70.5t56 -183.5q0 -123 -56 -189.5t-155 -66.5q-100 0 -154.5 66t-54.5 190q0 113 53.5 183.5t155.5 70.5zM258 47q70 0 101.5 49.5t31.5 149.5q0 197 -133 197q-132 0 -132 -197q0 -199 132 -199zM420 649q-5 -45 -34.5 -66t-73.5 -6l-99 35
q-50 18 -72 -28l-41 18q10 42 43 62.5t78 4.5l95 -34q47 -17 65 29z" />
    <glyph glyph-name="odieresis" unicode="&#xf6;" horiz-adv-x="518" 
d="M258 500q99 0 155 -70.5t56 -183.5q0 -123 -56 -189.5t-155 -66.5q-100 0 -154.5 66t-54.5 190q0 113 53.5 183.5t155.5 70.5zM258 47q70 0 101.5 49.5t31.5 149.5q0 197 -133 197q-132 0 -132 -197q0 -199 132 -199zM122 579v109h74v-109h-74zM322 579v109h74v-109h-74z
" />
    <glyph glyph-name="divide" unicode="&#xf7;" horiz-adv-x="457" 
d="M191 19v110h73v-110h-73zM191 405v110h73v-110h-73zM389 245h-322v55h322v-55z" />
    <glyph glyph-name="ugrave" unicode="&#xf9;" horiz-adv-x="505" 
d="M445 0h-53l-11 56q-23 -25 -62.5 -45.5t-89.5 -20.5q-169 0 -169 199v301h76v-296q0 -76 26 -109.5t85 -33.5q64 0 121 48v391h77v-490zM359 566l-225 70l15 57l222 -82z" />
    <glyph glyph-name="uacute" unicode="&#xfa;" horiz-adv-x="505" 
d="M445 0h-53l-11 56q-23 -25 -62.5 -45.5t-89.5 -20.5q-169 0 -169 199v301h76v-296q0 -76 26 -109.5t85 -33.5q64 0 121 48v391h77v-490zM370 636l-225 -70l-11 45l221 82z" />
    <glyph glyph-name="ucircumflex" unicode="&#xfb;" horiz-adv-x="505" 
d="M445 0h-53l-11 56q-23 -25 -62.5 -45.5t-89.5 -20.5q-169 0 -169 199v301h76v-296q0 -76 26 -109.5t85 -33.5q64 0 121 48v391h77v-490zM405 607l-20 -43l-133 68l-133 -68l-20 43l153 91z" />
    <glyph glyph-name="udieresis" unicode="&#xfc;" horiz-adv-x="505" 
d="M445 0h-53l-11 56q-23 -25 -62.5 -45.5t-89.5 -20.5q-169 0 -169 199v301h76v-296q0 -76 26 -109.5t85 -33.5q64 0 121 48v391h77v-490zM115 579v109h74v-109h-74zM315 579v109h74v-109h-74z" />
    <glyph glyph-name="yacute" unicode="&#xfd;" horiz-adv-x="471" 
d="M229 -15l6 18l-50 -4l-157 491h84q92 -298 134 -445l133 445h78l-157 -485q-38 -116 -81.5 -161t-114.5 -45q-29 0 -60.5 12.5t-48.5 26.5l25 51h6q39 -31 82 -31t70.5 28.5t50.5 98.5zM353 636l-225 -70l-11 45l221 82z" />
    <glyph glyph-name="ydieresis" unicode="&#xff;" horiz-adv-x="472" 
d="M230 -15l6 18l-50 -4l-157 491h84q92 -298 134 -445l133 445h78l-157 -485q-38 -116 -81.5 -161t-114.5 -45q-29 0 -60.5 12.5t-48.5 26.5l25 51h6q39 -31 82 -31t70.5 28.5t50.5 98.5zM99 579v109h74v-109h-74zM299 579v109h74v-109h-74z" />
    <glyph glyph-name="dotlessi" unicode="&#x131;" horiz-adv-x="246" 
d="M179 0h-74v429l-54 11v50h128v-490z" />
    <glyph glyph-name="OE" unicode="&#x152;" horiz-adv-x="916" 
d="M872 0h-373l1 92q-66 -102 -185 -102q-71 0 -123 28t-82 78t-44 111.5t-14 135.5q0 56 8 104.5t27.5 93t49 76t75 50t103.5 18.5q120 0 185 -93l-1 83h373v-67h-296v-232h234l-10 -68h-224v-244h296v-64zM497 344q0 55 -8.5 101.5t-28 87.5t-56.5 64t-89 23
q-51 0 -88 -23.5t-57 -64.5t-29 -87.5t-9 -100.5q0 -289 183 -289q182 0 182 289z" />
    <glyph glyph-name="oe" unicode="&#x153;" horiz-adv-x="848" 
d="M798 224h-330q0 -88 41.5 -131.5t114.5 -43.5q67 0 152 50l19 -54q-92 -55 -179 -55q-128 0 -184 105q-53 -105 -174 -105q-100 0 -154.5 66t-54.5 190q0 113 53.5 183.5t155.5 70.5q116 0 171 -105q53 105 174 105q97 0 146 -67t49 -167v-42zM258 47q70 0 101.5 49.5
t31.5 149.5q0 197 -133 197q-132 0 -132 -197q0 -199 132 -199zM725 275q0 46 -10.5 81.5t-39.5 60.5t-75 25q-66 0 -99 -48.5t-33 -118.5h257z" />
    <glyph glyph-name="Scaron" unicode="&#x160;" horiz-adv-x="509" 
d="M467 184q0 -82 -61 -138t-163 -56q-112 0 -205 69l32 61q33 -27 82 -46t95 -19q64 0 102 34t38 92q0 41 -25 70.5t-62 44.5l-80.5 33.5t-80.5 37.5t-62 57t-25 91q0 72 57 121t157 49q110 0 192 -49l-27 -62q-69 43 -164 43q-67 0 -101.5 -29.5t-34.5 -73.5q0 -36 25 -63
t62 -41.5t81 -33.5t81 -39.5t62 -59.5t25 -93zM105 865l20 43l133 -68l133 68l20 -43l-153 -91z" />
    <glyph glyph-name="scaron" unicode="&#x161;" horiz-adv-x="411" 
d="M214 442q-92 0 -92 -72q0 -29 25 -48.5t60.5 -32.5t71.5 -28.5t61 -47t25 -77.5q0 -62 -45.5 -104t-124.5 -42q-80 0 -148 42l22 56q20 -16 55.5 -28.5t69.5 -12.5q45 0 71 23t26 61q0 32 -24.5 53.5t-60 35t-71 29t-60 46t-24.5 76.5q0 54 41.5 91.5t120.5 37.5
q89 0 147 -32l-18 -56q-57 30 -128 30zM56 655l20 43l133 -68l133 68l20 -43l-153 -91z" />
    <glyph glyph-name="Ydieresis" unicode="&#x178;" horiz-adv-x="494" 
d="M486 675l-213 -412v-263h-78v264l-187 411h94l141 -328h4l156 328h83zM110 722v109h74v-109h-74zM310 722v109h74v-109h-74z" />
    <glyph glyph-name="Zcaron" unicode="&#x17d;" horiz-adv-x="528" 
d="M483 607l-354 -544h355v-63h-441v58l355 552h-353v65h438v-68zM114 796l20 43l133 -68l133 68l20 -43l-153 -91z" />
    <glyph glyph-name="zcaron" unicode="&#x17e;" horiz-adv-x="442" 
d="M400 437l-267 -383h269v-54h-362v44l275 391h-275v55h360v-53zM68 655l20 43l133 -68l133 68l20 -43l-153 -91z" />
    <glyph glyph-name="florin" unicode="&#x192;" horiz-adv-x="351" 
d="M112 135v286h-79v58h80v39q0 84 41.5 128t123.5 44q33 0 75 -10l-9 -62q-30 10 -62 10q-49 0 -71 -28t-22 -88v-33h114l-5 -58h-109v-284q0 -147 -120 -147q-41 0 -70 12l10 64q23 -9 48 -9q55 0 55 78z" />
    <glyph glyph-name="circumflex" unicode="&#x2c6;" horiz-adv-x="514" 
d="M410 607l-20 -43l-133 68l-133 -68l-20 43l153 91z" />
    <glyph glyph-name="caron" unicode="&#x2c7;" horiz-adv-x="512" 
d="M107 655l20 43l133 -68l133 68l20 -43l-153 -91z" />
    <glyph glyph-name="ring" unicode="&#x2da;" horiz-adv-x="499" 
d="M369 650q0 -50 -34.5 -84.5t-84.5 -34.5t-85 34.5t-35 84.5t35 84.5t85 34.5t84.5 -34.5t34.5 -84.5zM318 649q0 29 -19.5 49t-48.5 20t-48.5 -20t-19.5 -49t19.5 -48.5t48.5 -19.5t48.5 19.5t19.5 48.5z" />
    <glyph glyph-name="tilde" unicode="&#x2dc;" horiz-adv-x="595" 
d="M457 649q-5 -45 -34.5 -66t-73.5 -6l-99 35q-50 18 -72 -28l-41 18q10 42 43 62.5t78 4.5l95 -34q47 -17 65 29z" />
    <glyph glyph-name="endash" unicode="&#x2013;" horiz-adv-x="471" 
d="M396 250h-322v55h322v-55z" />
    <glyph glyph-name="emdash" unicode="&#x2014;" horiz-adv-x="754" 
d="M681 249h-608v56h608v-56z" />
    <glyph glyph-name="quoteleft" unicode="&#x2018;" horiz-adv-x="215" 
d="M117 416h-79q3 144 82 274l57 -13q-59 -116 -60 -261z" />
    <glyph glyph-name="quoteright" unicode="&#x2019;" horiz-adv-x="215" 
d="M97 690h80q-3 -146 -82 -274l-57 13q59 116 59 261z" />
    <glyph glyph-name="quotesinglbase" unicode="&#x201a;" horiz-adv-x="215" 
d="M97 102h80q-3 -145 -82 -273l-57 12q59 118 59 261z" />
    <glyph glyph-name="quotedblleft" unicode="&#x201c;" horiz-adv-x="333" 
d="M245 416h-79q1 148 72 271l57 -13q-48 -98 -50 -258zM116 416h-79q1 136 85 274l57 -13q-62 -118 -63 -261z" />
    <glyph glyph-name="quotedblright" unicode="&#x201d;" horiz-adv-x="333" 
d="M88 690h79q-1 -148 -72 -271l-57 13q48 98 50 258zM217 690h79q-1 -139 -85 -274l-57 13q62 118 63 261z" />
    <glyph glyph-name="quotedblbase" unicode="&#x201e;" horiz-adv-x="333" 
d="M88 106h79q-1 -148 -72 -270l-57 12q48 98 50 258zM217 106h79q-1 -138 -85 -273l-57 12q62 118 63 261z" />
    <glyph glyph-name="dagger" unicode="&#x2020;" horiz-adv-x="462" 
d="M397 265h-139v-149h-59v149h-134v56h134v142h59v-142h139v-56z" />
    <glyph glyph-name="daggerdbl" unicode="&#x2021;" horiz-adv-x="400" 
d="M350 -168l-300 -1v899h300v-898z" />
    <glyph glyph-name="bullet" unicode="&#x2022;" horiz-adv-x="360" 
d="M215 184h-71q-26 135 0 249h71q28 -111 0 -249z" />
    <glyph glyph-name="ellipsis" unicode="&#x2026;" horiz-adv-x="540" 
d="M52 0v112h75v-112h-75zM232 0v112h76v-112h-76zM413 0v112h75v-112h-75z" />
    <glyph glyph-name="perthousand" unicode="&#x2030;" horiz-adv-x="1129" 
d="M533 202q0 105 41.5 158t110.5 53q84 0 122 -68q17 32 48 50t67 18q157 0 157 -211q0 -108 -44 -160t-113 -52q-36 0 -67.5 18.5t-48.5 52.5q-18 -34 -51 -52.5t-70 -18.5q-66 0 -109 52t-43 160zM50 479q0 105 41.5 157.5t110.5 52.5q157 0 157 -210q0 -109 -44 -161
t-113 -52q-66 0 -109 52t-43 161zM588 713l-244 -758h-46l244 758h46zM770 202q0 87 -21 122t-64 35q-40 0 -60 -36t-20 -121q0 -158 80 -158q85 0 85 158zM842 202q0 -158 80 -158q85 0 85 158q0 87 -20.5 122t-64.5 35q-40 0 -59.5 -35.5t-20.5 -121.5zM122 479
q0 -158 80 -158q85 0 85 158q0 86 -20.5 121t-64.5 35q-40 0 -60 -35.5t-20 -120.5z" />
    <glyph glyph-name="guilsinglleft" unicode="&#x2039;" horiz-adv-x="268" 
d="M185 30l-145 184l145 178l47 -39l-102 -139l102 -150q-6 -4 -25 -18t-22 -16z" />
    <glyph glyph-name="guilsinglright" unicode="&#x203a;" horiz-adv-x="268" 
d="M227 214l-144 -184l-47 34l102 150l-102 139l47 39z" />
    <glyph glyph-name="fraction" unicode="&#x2044;" horiz-adv-x="300" 
d="M295 713l-244 -758h-46l244 758h46z" />
    <glyph glyph-name="zerosuperior" unicode="&#x2070;" 
d="M45 464q0 123 47 174t118 51q167 0 167 -225q0 -217 -167 -217q-165 0 -165 217zM118 464q0 -96 22 -127.5t70 -31.5q33 0 51.5 10.5t30 46.5t11.5 102q0 98 -23 132.5t-70 34.5q-46 0 -69 -34.5t-23 -132.5z" />
    <glyph glyph-name="foursuperior" unicode="&#x2074;" 
d="M371 362h-56v-104h-68v104h-203v46l122 280l46 -15v-24l-99 -231h134v262h68v-262h56v-56z" />
    <glyph glyph-name="fivesuperior" unicode="&#x2075;" horiz-adv-x="426" 
d="M123 442l-57 21v217h287l-6 -60h-213v-84q0 -36 -5 -48q42 52 116 52q59 0 94.5 -34t35.5 -99q0 -66 -43.5 -112.5t-125.5 -46.5q-72 0 -154 44l20 57q71 -43 130 -43q47 0 73 27t26 71q0 84 -87 84q-49 0 -91 -46z" />
    <glyph glyph-name="sixsuperior" unicode="&#x2076;" 
d="M116 490v-12q32 71 126 71q60 0 97 -38t37 -96q0 -77 -46.5 -122t-118.5 -45q-69 0 -117.5 56t-48.5 177q0 92 55 150.5t139 58.5q58 0 107 -14l-14 -57q-43 12 -86 12q-60 0 -94 -38.5t-36 -102.5zM218 497q-36 0 -64.5 -22.5t-33.5 -55.5q8 -62 33.5 -90t60.5 -28
q38 0 64 27t26 75q0 94 -86 94z" />
    <glyph glyph-name="sevensuperior" unicode="&#x2077;" 
d="M365 618l-188 -360h-82l201 361h-239v61h308v-62z" />
    <glyph glyph-name="eightsuperior" unicode="&#x2078;" 
d="M212 248q-71 0 -113.5 34t-42.5 93q0 36 23.5 60.5t66.5 45.5q-37 18 -57 42t-20 65q0 48 41 75t102 27q62 0 101.5 -27t39.5 -76q0 -54 -83 -97q45 -18 70.5 -44t25.5 -72q0 -57 -42.5 -91.5t-111.5 -34.5zM212 299q37 0 61 19.5t24 49.5q0 36 -23 54t-70 35
q-39 -18 -59.5 -38t-20.5 -50q0 -32 22.5 -51t65.5 -19zM137 583q0 -26 19.5 -41.5t57.5 -29.5q34 17 52.5 33t18.5 38q0 24 -19.5 40t-53.5 16q-37 0 -56 -16.5t-19 -39.5z" />
    <glyph glyph-name="ninesuperior" unicode="&#x2079;" 
d="M197 305q104 0 108 157q-15 -34 -46 -53.5t-70 -19.5q-60 0 -101.5 39.5t-41.5 106.5q0 73 45.5 114t116.5 41q74 0 121 -50.5t47 -158.5q0 -119 -49.5 -176t-127.5 -57q-69 0 -124 21l15 57q50 -21 107 -21zM205 441q37 0 65.5 24t32.5 60q-13 109 -97 109
q-39 0 -63.5 -24t-24.5 -70q0 -48 23.5 -73.5t63.5 -25.5z" />
    <glyph glyph-name="zeroinferior" unicode="&#x2080;" 
d="M45 207q0 123 47 174t118 51q167 0 167 -225q0 -217 -167 -217q-165 0 -165 217zM118 207q0 -96 22 -127.5t70 -31.5q33 0 51.5 10.5t30 46.5t11.5 102q0 98 -23 132.5t-70 34.5q-46 0 -69 -34.5t-23 -132.5z" />
    <glyph glyph-name="oneinferior" unicode="&#x2081;" 
d="M199 247l5 86q-17 -34 -57 -65t-84 -40v64q47 9 87 44.5t64 85.5h55v-367h106v-55h-303v55h127v192z" />
    <glyph glyph-name="twoinferior" unicode="&#x2082;" 
d="M361 0h-291v59q126 94 171.5 146t45.5 94q0 35 -24.5 53.5t-63.5 18.5q-62 0 -121 -32l-25 55q76 38 156 38q67 0 109.5 -33t42.5 -83q0 -61 -48.5 -115.5t-174.5 -147.5q55 5 107 5h116v-58z" />
    <glyph glyph-name="threeinferior" unicode="&#x2083;" 
d="M365 121q0 -57 -47.5 -94t-119.5 -37q-84 0 -141 39l26 51q48 -34 115 -34q42 0 69.5 20t27.5 54q0 68 -126 68l-6 48q112 0 112 79q0 27 -23 42.5t-64 15.5q-62 0 -102 -27l-22 53q64 33 131 33q70 0 109.5 -31t39.5 -76t-25.5 -73.5t-63.5 -34.5q45 -6 77.5 -30
t32.5 -66z" />
    <glyph glyph-name="fourinferior" unicode="&#x2084;" 
d="M371 104h-56v-104h-68v104h-203v46l122 280l46 -15v-24l-99 -231h134v262h68v-262h56v-56z" />
    <glyph glyph-name="fiveinferior" unicode="&#x2085;" 
d="M123 184l-57 21v217h287l-6 -60h-213v-84q0 -36 -5 -48q42 52 116 52q59 0 94.5 -34t35.5 -99q0 -66 -43.5 -112.5t-125.5 -46.5q-72 0 -154 44l20 57q71 -43 130 -43q47 0 73 27t26 71q0 84 -87 84q-49 0 -91 -46z" />
    <glyph glyph-name="sixinferior" unicode="&#x2086;" 
d="M116 232v-12q32 71 126 71q60 0 97 -38t37 -96q0 -77 -46.5 -122t-118.5 -45q-69 0 -117.5 56t-48.5 177q0 92 55 150.5t139 58.5q58 0 107 -14l-14 -57q-43 12 -86 12q-60 0 -94 -38.5t-36 -102.5zM218 239q-36 0 -64.5 -22.5t-33.5 -55.5q8 -62 33.5 -90t60.5 -28
q38 0 64 27t26 75q0 94 -86 94z" />
    <glyph glyph-name="seveninferior" unicode="&#x2087;" 
d="M365 360l-188 -360h-82l201 361h-239v61h308v-62z" />
    <glyph glyph-name="eightinferior" unicode="&#x2088;" 
d="M212 -10q-71 0 -113.5 34t-42.5 93q0 36 23.5 60.5t66.5 45.5q-37 18 -57 42t-20 65q0 48 41 75t102 27q62 0 101.5 -27t39.5 -76q0 -54 -83 -97q45 -18 70.5 -44t25.5 -72q0 -57 -42.5 -91.5t-111.5 -34.5zM212 41q37 0 61 19.5t24 49.5q0 36 -23 54t-70 35
q-39 -18 -59.5 -38t-20.5 -50q0 -32 22.5 -51t65.5 -19zM137 325q0 -26 19.5 -41.5t57.5 -29.5q34 17 52.5 33t18.5 38q0 24 -19.5 40t-53.5 16q-37 0 -56 -16.5t-19 -39.5z" />
    <glyph glyph-name="nineinferior" unicode="&#x2089;" 
d="M197 47q104 0 108 157q-15 -34 -46 -53.5t-70 -19.5q-60 0 -101.5 39.5t-41.5 106.5q0 73 45.5 114t116.5 41q74 0 121 -50.5t47 -158.5q0 -119 -49.5 -176t-127.5 -57q-69 0 -124 21l15 57q50 -21 107 -21zM205 183q37 0 65.5 24t32.5 60q-13 109 -97 109
q-39 0 -63.5 -24t-24.5 -70q0 -48 23.5 -73.5t63.5 -25.5z" />
    <glyph glyph-name="Euro" unicode="&#x20ac;" horiz-adv-x="515" 
d="M447 171l15 -57q-74 -42 -150 -42q-169 0 -198 183h-64v51h59q-1 10 -1 30q0 21 1 32h-59v51h66q17 88 71 133t125 45q81 0 146 -33l-16 -57q-56 30 -126 30q-47 0 -78.5 -30.5t-44.5 -87.5h141l-7 -51h-141q-1 -10 -1 -32q0 -20 1 -30h132l-6 -51h-121q11 -67 42 -95.5
t83 -28.5q69 0 131 40z" />
    <glyph glyph-name="trademark" unicode="&#x2122;" horiz-adv-x="828" 
d="M597 54l-183 109l-183 -109l46 208l-159 140l211 20l85 195l84 -195l212 -20l-160 -140z" />
    <glyph glyph-name="Omega" unicode="&#x2126;" horiz-adv-x="746" 
d="M372 596q-106 0 -161.5 -65.5t-55.5 -175.5q0 -34 5.5 -65t19 -58l23 -45.5t32.5 -42.5l32 -33t35 -32t30 -26v-53h-255v62q151 0 193 -10q1 1 1 3q-90 56 -144 128t-54 179q0 130 79.5 214.5t219.5 84.5q142 0 221.5 -84t79.5 -215q0 -177 -169 -285l-31 -22v-3
q43 10 194 10v-62h-256v53q3 3 22.5 19l26.5 22t25.5 23.5t26.5 28.5l23 30.5t22 37l15.5 40t12 47t3.5 51.5q0 112 -54 178t-162 66z" />
    <glyph glyph-name="onethird" unicode="&#x2153;" horiz-adv-x="961" 
d="M631 713l-252 -758l-43 3l251 758zM198 488l5 86q-17 -34 -57 -65t-84 -40v64q47 9 87 44.5t64 85.5h55v-367h106v-55h-303v55h127v192zM900 121q0 -57 -47.5 -94t-119.5 -37q-84 0 -141 39l26 51q48 -34 115 -34q42 0 69.5 20t27.5 54q0 68 -126 68l-6 48q112 0 112 79
q0 27 -23 42.5t-64 15.5q-61 0 -102 -27l-22 53q64 33 131 33q70 0 109.5 -31t39.5 -76t-25.5 -73.5t-63.5 -34.5q45 -6 77.5 -30t32.5 -66z" />
    <glyph glyph-name="twothirds" unicode="&#x2154;" horiz-adv-x="951" 
d="M624 680l-257 -706l-35 13l256 705zM369 239h-291v59q126 94 171.5 146t45.5 94q0 35 -24.5 53.5t-63.5 18.5q-62 0 -121 -32l-25 55q76 38 156 38q67 0 109.5 -33t42.5 -83q0 -61 -48.5 -115.5t-174.5 -147.5q55 5 107 5h116v-58zM890 121q0 -57 -47.5 -94t-119.5 -37
q-84 0 -141 39l26 51q48 -34 115 -34q42 0 69.5 20t27.5 54q0 68 -126 68l-6 48q112 0 112 79q0 27 -23 42.5t-64 15.5q-61 0 -102 -27l-22 53q64 33 131 33q70 0 109.5 -31t39.5 -76t-25.5 -73.5t-63.5 -34.5q45 -6 77.5 -30t32.5 -66z" />
    <glyph glyph-name="oneeighth" unicode="&#x215b;" horiz-adv-x="933" 
d="M622 713l-244 -758h-46l244 758h46zM198 488l5 86q-17 -34 -57 -65t-84 -40v64q47 9 87 44.5t64 85.5h55v-367h106v-55h-303v55h127v192zM716 -10q-71 0 -113.5 34t-42.5 93q0 36 23.5 60.5t66.5 45.5q-37 18 -57 42t-20 65q0 48 41 75t102 27q62 0 101.5 -27t39.5 -76
q0 -54 -83 -97q45 -18 70.5 -44t25.5 -72q0 -57 -42.5 -91.5t-111.5 -34.5zM716 41q37 0 61 19.5t24 49.5q0 36 -23 54t-70 35q-39 -18 -59.5 -38t-20.5 -50q0 -32 22.5 -51t65.5 -19zM641 325q0 -26 19.5 -41.5t57.5 -29.5q34 17 52.5 33t18.5 38q0 24 -19.5 40t-53.5 16
q-37 0 -56 -16.5t-19 -39.5z" />
    <glyph glyph-name="threeeighths" unicode="&#x215c;" horiz-adv-x="300" 
d="M295 713l-244 -758h-46l244 758h46z" />
    <glyph glyph-name="fiveeighths" unicode="&#x215d;" horiz-adv-x="300" 
d="M295 713l-244 -758h-46l244 758h46z" />
    <glyph glyph-name="seveneighths" unicode="&#x215e;" horiz-adv-x="300" 
d="M295 713l-244 -758h-46l244 758h46z" />
    <glyph glyph-name="minus" unicode="&#x2212;" horiz-adv-x="471" 
d="M396 245h-322v55h322v-55z" />
    <glyph glyph-name="infinity" unicode="&#x221e;" horiz-adv-x="944" 
d="M869 265q0 -86 -51.5 -141.5t-133.5 -55.5q-59 0 -108 39t-104 110q-51 -72 -100.5 -111t-115.5 -39q-79 1 -130 56.5t-51 141.5q0 90 48.5 143t132.5 53q59 0 108.5 -41t108.5 -117q36 51 60.5 79.5t65 53.5t85.5 25q89 0 137 -52.5t48 -143.5zM260 127q53 0 94 34.5
t85 97.5q-38 49 -58.5 73t-54.5 47.5t-66 23.5q-60 0 -89.5 -36.5t-29.5 -101.5q0 -62 30 -100t89 -38zM803 265q0 62 -31.5 100t-92.5 38q-50 0 -88.5 -36t-85.5 -105q51 -66 90.5 -100.5t83.5 -34.5q57 0 90.5 39.5t33.5 98.5z" />
    <glyph glyph-name="notequal" unicode="&#x2260;" horiz-adv-x="458" 
d="M391 177h-187l-80 -178h-46l80 178h-91v63h119l40 89h-159v62h187l68 150h46l-68 -150h91v-62h-119l-40 -89h159v-63z" />
    <glyph glyph-name="lessequal" unicode="&#x2264;" horiz-adv-x="406" 
d="M33 439l340 151v-82l-293 -122v-4l293 -116v-81l-340 141v113zM373 87h-339v56h339v-56z" />
    <glyph glyph-name="greaterequal" unicode="&#x2265;" horiz-adv-x="406" 
d="M33 590l340 -151v-113l-340 -141v81l293 116v4l-293 122v82zM371 87h-338v56h338v-56z" />
    <glyph glyph-name="ff" unicode="&#xfb00;" horiz-adv-x="580" 
d="M608 697l-6 -62q-27 9 -63 9q-50 0 -72 -28t-22 -87v-39h114v-58h-114v-432h-75v432h-187v-432h-75v432h-78v58h78v44q0 173 163 173q35 0 75 -10l-6 -62q-27 9 -63 9q-49 0 -71.5 -28t-22.5 -87v-39h187v44q0 173 163 173q33 0 75 -10z" />
    <glyph glyph-name="fi" unicode="&#xfb01;" horiz-adv-x="528" 
d="M462 0h-75v432h-204v-432h-75v432h-78v58h78v44q0 173 161 173q33 0 73 -10v-62q-27 9 -66 9q-50 0 -71.5 -28t-21.5 -87v-39h279v-490zM380 603v80h80v-80h-80z" />
    <glyph glyph-name="fl" unicode="&#xfb02;" horiz-adv-x="578" 
d="M346 697l-6 -62q-27 9 -63 9q-49 0 -71.5 -28t-22.5 -87v-39h115v-58h-115v-432h-75v432h-78v58h78v44q0 173 163 173q35 0 75 -10zM501 -10q-70 0 -93 35t-23 111v554h75v-583q0 -32 16.5 -45.5t56.5 -13.5h16v-52q-24 -6 -48 -6z" />
    <glyph glyph-name="ffi" unicode="&#xfb03;" horiz-adv-x="790" 
d="M723 0h-74v432h-204v-432h-75v432h-187v-432h-75v432h-78v58h78v44q0 173 163 173q35 0 75 -10l-6 -62q-27 9 -63 9q-94 0 -94 -115v-39h187v44q0 173 161 173q33 0 73 -10v-62q-27 9 -67 9q-92 0 -92 -115v-39h278v-490zM641 603v80h81v-80h-81z" />
    <glyph glyph-name="ffl" unicode="&#xfb04;" horiz-adv-x="840" 
d="M608 697l-6 -62q-27 9 -63 9q-94 0 -94 -115v-39h114v-58h-114v-432h-75v432h-187v-432h-75v432h-78v58h78v44q0 173 163 173q35 0 75 -10l-6 -62q-27 9 -63 9q-94 0 -94 -115v-39h187v44q0 173 163 173q33 0 75 -10zM763 -10q-70 0 -93.5 35t-23.5 111v554h76v-583
q0 -32 17 -45.5t56 -13.5h16v-52q-24 -6 -48 -6z" />
    <glyph glyph-name="s_t" unicode="&#xfb06;" horiz-adv-x="733" 
d="M466 130v305q-60 -6 -83 -6q-28 0 -84.5 6.5t-82.5 6.5q-45 0 -69 -20t-24 -52q0 -28 25 -47.5t60.5 -33t70.5 -29.5t60 -47t25 -77q0 -62 -46.5 -104t-125.5 -42q-78 0 -146 42l22 57q20 -16 55 -29t69 -13q42 0 70 23.5t28 60.5q0 32 -24.5 53.5t-59 35t-69.5 29
t-59.5 47t-24.5 77.5q0 53 41.5 90t121.5 37q34 0 90.5 -7t90.5 -7q33 0 69 4v89l76 24v-113h143v-55h-143v-302q0 -41 15 -60.5t50 -19.5q36 0 78 25l15 -55q-16 -11 -48 -22t-60 -11q-55 0 -90.5 33t-35.5 107z" />
    <glyph glyph-name="CR" horiz-adv-x="220" 
 />
    <glyph glyph-name="zerooldstyle" horiz-adv-x="539" 
d="M266 -10q-102 0 -159.5 71.5t-57.5 209.5q0 134 56.5 209.5t160.5 75.5q112 0 168 -74t56 -211q0 -138 -59.5 -209.5t-164.5 -71.5zM266 54q146 0 146 217q0 221 -146 221q-139 0 -139 -221q0 -112 37 -164.5t102 -52.5z" />
    <glyph glyph-name="oneoldstyle" horiz-adv-x="466" 
d="M216 59v299l5 95q-18 -35 -62 -67t-91 -42v66q49 10 94 47.5t70 88.5h60v-487h115v-59h-319v59h128z" />
    <glyph glyph-name="twooldstyle" horiz-adv-x="492" 
d="M433 393q0 -71 -55 -137t-224 -195v-5q20 9 71 9h210v-65h-374v60q128 95 191 153t83 94t20 80q0 51 -35.5 77.5t-97.5 26.5q-83 0 -148 -36l-21 59q84 42 182 42q92 0 145 -44t53 -119z" />
    <glyph glyph-name="threeoldstyle" horiz-adv-x="495" 
d="M336 381q0 52 -33.5 81t-92.5 29q-75 0 -137 -34l-22 58q84 41 169 41q93 0 146 -46.5t53 -122.5q0 -58 -36.5 -101.5t-91.5 -62.5v-2q61 -9 103.5 -50t42.5 -102q0 -56 -31 -102t-82.5 -76t-114 -47.5t-130.5 -20.5l-7 65q128 4 206.5 53.5t78.5 129.5q0 51 -41.5 83
t-125.5 32h-22v61h30q66 0 102 37t36 97z" />
    <glyph glyph-name="fouroldstyle" horiz-adv-x="555" 
d="M511 0h-91v-168h-79v168h-295v53l296 493h78v-480h91v-66zM341 66v368l-219 -368h219z" />
    <glyph glyph-name="fiveoldstyle" horiz-adv-x="511" 
d="M456 115q0 -70 -36 -126.5t-94.5 -91.5t-126 -54.5t-137.5 -23.5l-7 65q87 5 156.5 28.5t117 74t47.5 121.5q0 66 -36.5 95.5t-87.5 29.5q-37 0 -75 -15.5t-56 -31.5l-59 19l32 341h317l-6 -64h-250l-18 -185l-12 -49q73 47 151 47q74 0 127 -47t53 -133z" />
    <glyph glyph-name="sixoldstyle" horiz-adv-x="539" 
d="M434 642q-123 -20 -206.5 -97t-95.5 -200q21 45 64.5 72t93.5 27q84 0 139.5 -52.5t55.5 -158.5q0 -100 -60 -171.5t-158 -71.5t-156 87.5t-58 223.5q0 169 106.5 274.5t270.5 129.5zM268 381q-47 0 -89.5 -34t-46.5 -77q5 -100 39 -159t97 -59q70 0 104 51.5t34 124.5
q0 78 -37.5 115.5t-100.5 37.5z" />
    <glyph glyph-name="sevenoldstyle" horiz-adv-x="520" 
d="M466 479l-301 -597h-82l304 597h-330v67h409v-67z" />
    <glyph glyph-name="eightoldstyle" horiz-adv-x="529" 
d="M460 525q0 -103 -130 -166q70 -30 108 -68.5t38 -108.5q0 -81 -60 -136.5t-154 -55.5q-90 0 -150 53.5t-60 132.5q0 119 142 174q-60 28 -93 67.5t-33 106.5q0 76 56 121t138 45q87 0 142.5 -45.5t55.5 -119.5zM399 182q0 29 -11 51.5t-35 39t-44 26.5t-55 24l-15 6
q-57 -29 -83.5 -63.5t-26.5 -86.5q0 -60 41.5 -96.5t91.5 -36.5q55 0 96 36t41 100zM144 523q0 -57 36 -87.5t107 -58.5q97 59 97 144q0 53 -34.5 82.5t-87.5 29.5q-51 0 -84.5 -29.5t-33.5 -80.5z" />
    <glyph glyph-name="nineoldstyle" horiz-adv-x="539" 
d="M77 -116q121 8 218 95.5t109 218.5q-22 -42 -64.5 -67.5t-99.5 -25.5q-78 0 -132.5 61t-54.5 160q0 105 56 167.5t155 62.5q105 0 163 -76.5t58 -231.5q0 -120 -60 -218.5t-151 -151.5t-190 -59zM262 168q60 0 101 33.5t44 78.5q-11 213 -145 213q-65 0 -97.5 -46.5
t-32.5 -121.5q0 -74 34.5 -115.5t95.5 -41.5z" />
    <glyph glyph-name="commasuperior" horiz-adv-x="180" 
d="M52 583v107h75v-114q0 -62 -17.5 -87t-57.5 -31v29q14 5 19 24t5 67z" />
    <glyph glyph-name="escudo" horiz-adv-x="2000" 
d="M1823 295q4 -66 -6.5 -184t-46.5 -239l-3 -7q-3 -7 -5 -11t-7.5 -7.5t-11.5 -1.5q-9 7 -5.5 23t12 41t8.5 30q-1 4 -10 -7.5t-19.5 -21.5t-19.5 0q-5 14 -1.5 20.5t11.5 30t9 50.5q0 4 -4 -3q-14 -28 -26 -23q-6 11 -1.5 17t13.5 31.5t9 55.5q0 -1 -1 -3q-9 -43 -24 -36
q-8 1 -7.5 12.5t4.5 21.5t8 32t2 44l-1 -2q-8 -32 -20 -32h-3q-9 4 -9.5 15t4 23t8 25.5t0.5 21.5q-11 -24 -23 -26q-12 8 -11 34t6.5 44.5t-1.5 23.5q-16 -54 -36 -61q-9 2 -14 6q-12 17 1 38q0 1 -1 1q-5 0 -10 -11q-10 2 -13 5q-15 14 -3 51q0 2 -1 2t-4 -3.5t-5.5 -12
t-2.5 -18.5q3 -32 25 -34v-2q-2 -20 7 -25h3q4 -32 43 -122.5t39 -102.5q-1 -13 -12 -16q-7 -2 -12.5 1t-8.5 7.5t-6 11.5t-4 8q-2 -1 -1 -6.5t-0.5 -12.5t-8.5 -9q-5 0 -8.5 1t-6 3t-5 6.5t-3.5 7t-3 8.5t-3 8q2 -16 -6 -19t-18 2.5t-14 13.5q-1 1 -2 0.5t-3.5 -2
t-4.5 -2.5t-5 -3l-2 -2q5 -10 -2 -26.5t-22 -16.5q-12 0 -20 4q-2 -22 -4 -26q-3 -4 -7.5 -5t-8.5 -0.5t-5 0.5q-2 -2 0 -6t7.5 -11t8.5 -13h-1q-2 -1 -3 -1l-12 -4h-1l-19 39q6 0 9.5 2t4.5 4.5t0 4.5q-7 9 -14.5 6.5t-12.5 -9.5l-6 -8q15 -15 29 -43q-47 -17 -85 -26
q-37 37 -70 49q-36 -1 -48 26q-1 2 -7 -0.5t-16.5 -4.5t-26.5 7q-1 0 -3 -2t-5.5 -4.5t-7.5 -3.5q-1 0 1.5 -1.5t5.5 -5t2 -9.5q0 -1 6.5 -2t15.5 -4t12 -9q0 -1 16.5 -3.5t43 -13t48.5 -28.5l-28 -7q-28 22 -60 19q-30 -1 -42 -37q-17 -3 -58 -7q-10 4 -18.5 12.5
t-0.5 18.5q6 8 17 -2q7 -7 10 3q1 6 4 10l1 5q-1 2 -6 0l-19 -2q-7 0 -12 5.5t-5 12.5q0 8 5 14t12 6q2 0 2 -2q-2 -2 -2 -5t2 -5.5t5 -1.5q5 1 6 7t-3 12t-11 6q-13 -1 -24 -14q-25 -38 -49 -45l1 -4q0 -4 -2 -8.5t-9 -6.5l-1 -3q0 -3 -3.5 -5.5t-10.5 -2.5l-7 -12
q-13 -1 -40 -1t-40 1q-5 12 -7 12q-7 0 -10 2.5t-4 5.5v3q-7 2 -9.5 6.5t-2.5 8.5l1 4q-11 3 -23 14.5t-18 20.5l-7 10q-5 6 -11.5 9.5t-9.5 4.5h-4q-7 0 -11 -6t-2.5 -12t6.5 -7q3 -1 5 1.5t2 5.5q0 2 -3 5l2 2q7 0 12 -6t5 -14q0 -18 -17 -18l-19 2q-5 2 -5 0l1 -5l3 -10
q1 -4 3.5 -5t4.5 1l2 1q5 4 9.5 4.5t6.5 -1.5l2 -1q8 -10 -1.5 -19t-19.5 -12q-38 4 -56 7q-6 16 -16.5 25.5t-18.5 10.5l-8 1q-32 3 -60 -19q-18 4 -27 7q22 18 48 28.5t42.5 13t16.5 3.5q2 3 5 5t6 3.5t6.5 2.5t6.5 1.5t5.5 1t3.5 0.5t1 1q-1 6 2 9.5t6 5t2 1.5
q-3 1 -6 2.5t-4.5 3.5t-3 3t-2.5 1q-17 -9 -27 -7t-16.5 4.5t-7.5 0.5q-5 -12 -17 -18.5t-21 -7.5h-10q-30 -11 -70 -49q-32 8 -92 28l21 9q0 2 -5.5 3t-10.5 1h-5q-13 1 15 16q19 10 61 36l-13 10l-7 5q-4 0 -11 -2.5t-12 -1.5q-4 1 -21.5 13.5l-36 26t-19.5 14.5
q-3 3 -14 10t-19.5 13.5t-12.5 13.5q-4 1 -3 15.5t0 17.5q0 16 -18 29q4 38 -6 72q41 -11 70 -3q0 -3 -0.5 -6t-1 -7.5t-0.5 -9.5q-1 -7 -5 -23.5t-4 -24t2 -23.5q5 -13 13 -25q4 0 7 -10q14 -19 53 -42q6 -5 18 -7q4 -1 22 -1t26 -3q1 -1 9.5 -6t13.5 -7q1 0 6.5 -1.5
t9.5 -3.5t5 -5q23 8 39 7.5t26.5 -3.5t11.5 -2q8 10 17 2l9 -7q17 7 25.5 5t17.5 -10t11 -8q1 0 6 1.5t8 2t8.5 -5t10.5 -16.5q2 -4 6.5 -8t10.5 -6t10.5 -4t9.5 -3l5 -1q6 -1 10 1t5 4l1 2q1 2 2.5 5.5t1.5 4.5l5 7q4 4 13 4q7 0 12 -5.5t5 -12.5q0 -8 -3 -12l-3 2
q-3 1 -6 1q-12 0 -12 -13q-1 -7 4.5 -14.5t11.5 -11.5l5 -4q7 -5 14 -4t11 4l5 4l16 9q4 0 7.5 -3t5.5 -6l1 -2q5 10 15 11q6 -1 15 -9q2 -2 5 -4t11.5 -4.5t13.5 4.5l6.5 4.5t9.5 10.5t6 15q0 13 -13 13q-2 0 -5 -1.5t-4 -1.5q-3 4 -3 12q0 7 5.5 12.5t12.5 5.5q8 0 12 -4
q2 -1 3.5 -3.5t2.5 -3.5l3 -10q0 -1 1 -2.5t5.5 -3.5t10.5 -1l6 2l13.5 4t13 6.5t8.5 9.5q5 11 10.5 16.5t9 5t8.5 -2t6 -1.5t10.5 8t17.5 9.5t25 -4.5l10 7q9 8 17 -2l12 4q12 3 35 1t48 -15l4 -2q15 4 47.5 -6t50.5 -6q8 0 8 29q-19 7 -13 55q-6 2 -9.5 -7.5t-4 -22
t-5 -22.5t-12.5 -9q-6 2 -6 35q0 18 -8 26v-3q-1 -3 -2 -8t-3 -9.5t-6 -7.5t-9 -3q-6 2 -6.5 12t-1.5 32t-9 44q2 -5 -1.5 -10.5t-8.5 -5.5q-14 3 -18.5 21t-0.5 36q-21 4 -39 34l-1 -11q0 -11 -1 -19t-5 -17.5t-11 -12.5q-3 -26 -19 -51q-41 -61 -132 -61h-2
q-13 0 -30.5 -2t-48.5 -16t-44 -39q-1 -3 -6 -8t-10 -5q-6 0 -15 13q-13 25 -44 39t-48.5 16t-30.5 2h-1q-42 0 -75 15.5t-44 28t-13 17.5q-28 40 -18 97q-5 0 -6 1q-12 2 6 33q4 7 7.5 10.5t5.5 2.5h3l-4 12q-3 7 1.5 16t10.5 14l6 5q-2 1 -3 6q-6 15 -8 49q-9 4 -15.5 10
t-8 9.5t-1.5 4.5q-18 2 -44 -5t-38 -7q-10 0 -28 5t-27 5q8 -13 39 -21q-13 -22 -20 -32.5t-28.5 -32t-46.5 -34.5q-1 -1 -3 -1q-2 -2 -13 -6l-3 -2q-32 -13 -81 -10l-9 21q-1 1 -2 1t-1 -1t2 -8.5l3.5 -13t3.5 -16t2 -19.5t-1 -20.5t-4 -21.5q-8 -30 -36 -61t-79 -42
q0 -12 -2 -27t-3 -21t0 -12q5 -12 11 -47t11 -41q10 -1 22 -10l6 27q4 7 6 12.5t2 7.5v2q0 7 1 11t2 5l1 1q3 5 8.5 6t9.5 0l4 -1q10 -2 15.5 -1t7.5 3l2 2q8 5 14 6.5t8 -0.5l3 -1q3 -3 2.5 -7t-3.5 -8l-2 -4q8 0 14 -6t8 -12l2 -5q4 -17 -2.5 -28t-14.5 -13l-8 -2
q-10 0 -16 4.5t-7 9.5v4q-1 8 4.5 13t11.5 5l6 1q-2 5 -5 7.5t-5 2.5h-2q-12 3 -22 -2.5t-14 -12.5l-3 -8q-9 -18 -7.5 -32.5t7.5 -24.5l6 -10l9 -2l37 23q2 0 2 2h9q10 0 29 -7l-45 -40q11 -8 21 -9.5t15 0.5l4 3q12 13 8 45h1q1 -1 2 -1l35 -15l-31 -53q20 -7 28 10.5
t9 40.5q9 -4 17 -6l-1 -9q-1 -10 -6.5 -22t-10.5 -19l-5 -7q9 2 18 -0.5t13 -5.5l4 -3q12 -12 12 -33q-2 -15 -15 -15q-15 0 -15 15t14 15q-3 8 -8.5 9t-9.5 -2l-4 -3q-10 -11 -7 -20.5t12 -15.5l8 -7q13 -7 24 -4t18 11l7 8q-32 57 -30 102q9 -4 27 -10q-5 -22 -1 -37
t11 -23l8 -8q4 3 6 10.5t2 13.5l1 6l9 27q20 -4 24 -6q-4 -12 -7 -28.5t-4 -26.5l-1 -11q2 -3 6.5 -4.5t8.5 -2.5h4q9 -1 11.5 1.5t0.5 5.5l-2 3q-11 9 -8 15q3 7 10 7t13 -3l6 -3q14 -8 19.5 -16.5t4.5 -13.5l-2 -5q-2 -5 -11 -10.5t-17 -8.5l-8 -3q6 -4 15 -6.5t16 -2
t15 1.5h8q0 15 15 18l2 1q12 2 20 -8q3 -3 4 -7l19 5q18 3 24 72q6 0 16 -2l-11 -66l34 19l10.5 6t10.5 4.5t9.5 2.5t8 1.5t6.5 0.5h5.5t4.5 -0.5t3 -0.5h1q13 -2 22 -12.5t9 -24.5q0 -15 -11 -25.5t-26 -10.5t-26 10t-12 26l-24 -14q-39 -25 -74 -25q-4 -21 -26 -21
q-16 0 -23 13q-32 1 -56.5 10t-32.5 17l-9 8q-7 8 -9 3q-12 -16 -31 -20t-32 0l-13 5q-5 3 -7.5 2.5t-3.5 -1.5l-1 -2q-4 -7 -10.5 -9t-11.5 -1l-4 2q-9 5 -11 10.5t1 9.5l2 3q6 6 -2 7q-11 -1 -18 1.5t-8 5.5l-2 3q-2 5 1 10t7 8l4 2q2 3 0.5 5.5t-3.5 4.5l-2 1q-6 4 -9 8
t-3 6v2q-8 0 -11.5 2t-3.5 4v2q0 3 5 5t11 2h5q8 0 11.5 2.5t3.5 5.5l-1 2l-65 13q-25 -21 -60.5 -35.5t-58.5 -18.5l-23 -4q-1 -5 -0.5 -9t0.5 -8l1 -5h2q13 0 13 -13q0 -14 -13 -14q-14 0 -23 15t-10 33h-14q-31 0 -60 13t-42 25l-14 13q-5 5 -9 5q-3 0 -8.5 -5.5
t-13.5 -5.5q-22 0 -22 23q-2 10 6 17.5t23 7.5l28 -2q-14 41 6.5 60.5t46.5 19.5q38 0 38 -31q0 -13 -8.5 -21t-21.5 -8q-21 0 -28 22q-4 -2 -6.5 -5t-3.5 -6l-1 -2q-12 -38 23 -60.5t98 -22.5q36 0 68.5 10t46.5 20l14 10l-22 12q-8 4 -21 4v-3q0 -11 -7 -18.5t-18 -7.5
t-18.5 7.5t-7.5 18.5q0 3 1 6.5t4 9t11 8.5t20 3q-5 17 -18 28.5t-11 22.5q2 17 -4.5 46.5t-13.5 52t-9 45.5t7 26q4 4 19.5 16.5t21.5 20.5l4 8q5 22 -16.5 51t-30.5 30q-6 1 -23 -10.5t-23 1.5q5 1 8 2t4 3t0 5q-2 0 -11 -4t-15 -3q-11 5 -3 18q5 -3 9 -2t5 4
q-1 1 -6.5 2.5t-9.5 4.5t-5 8q-3 7 4 14q0 -7 2.5 -10.5t6.5 -1.5q2 3 2 3.5t-2.5 4t-2.5 4.5q-4 10 -2 23.5t11 17.5q14 5 17 -7q2 -7 -4.5 -20t-0.5 -20q3 -4 13 -5.5t17 2.5q0 24 6 42q9 23 51.5 64t90.5 80.5t49 40.5q2 2 32 25.5t38 35.5q0 8 -3 14q-12 15 -34 49
q-24 36 -28 47q-6 21 -12 25q-1 1 -8 3.5t-15.5 7.5t-14.5 14q-12 6 -28.5 0.5t-18.5 -4.5q-4 14 12 22.5t32 7.5q-2 5 5 15q-30 10 -35 21q-3 7 1 10.5t9 1.5q1 0 10.5 -9t22.5 -12l6 7q-24 8 -28 19q-6 13 10 13q2 -1 5 -5t9.5 -8.5t15.5 -7.5l9 9q-2 11 -9.5 19.5
t-7.5 10.5q-1 5 2.5 8.5t10.5 0.5q11 -6 16 -30q1 0 8 5q-1 10 -5.5 17.5t-8.5 11t-4 5.5q-1 6 2.5 9.5t10.5 -0.5q12 -7 17 -36q14 6 22 6q6 -2 9.5 -15t10.5 -15q-24 -2 -34 -15q3 -1 9 2t8 3q14 2 25 -2q7 -2 14 -11t9 -10q15 -8 48 -12q6 -2 9.5 -9t-0.5 -17t-17 -16
q-6 -3 -21 -4.5t-20 -4.5q-8 -4 0 -11q4 -3 13 -7q47 -11 73 -56l1 -2q1 -2 2 -2q9 -14 14 -40q1 0 2 -1q4 3 14 7.5t14 9.5q8 7 15 19l6.5 13t7.5 13t10.5 7.5t18.5 2.5q10 -1 41 -7.5t51 -3.5q6 3 22 -1q8 -2 20.5 -10t20.5 -10q27 -4 37 -17q-43 -19 -64 -20h-6
q-5 10 -6 11h-24q-3 2 -6.5 7t-5.5 7q-6 4 -15 4q-62 11 -77 -10q-12 -61 -38 -89q-1 15 -6 25.5t-10 14.5t-7 2q15 -21 15 -50q4 -9 11 -16t12.5 -10l16.5 -9t15 -8q9 -5 14.5 -10t9.5 -12.5l6 -11.5t5.5 -16t5.5 -18q1 4 1 8v6.5t-0.5 4.5t-0.5 3v2q-9 56 -54 110
q-3 3 -3 6q0 2 1 4l2 1q42 28 63 49h1q5 5 11 5l9 -4q20 -16 61 -16q22 1 66 19.5t80 18.5q33 0 80.5 -19.5t66.5 -19.5q36 0 61 17q5 4 10 4t10 -5h1q53 -42 63 -49h1q0 -1 1 -2q1 -2 1 -3q0 -4 -3 -6l-5 -6q-4 -6 -9 -12.5t-11.5 -17.5t-11.5 -21.5t-10 -25t-7 -27.5
q-6 -23 8 -67h13q20 0 29.5 -10.5t13 -28.5t4.5 -20v-1l30 -28q4 -10 8 -14l4 -5q4 -4 7 -4.5t4.5 0t1.5 1.5l-1 2q-14 7 -23 33q-12 48 27 70q12 -21 28.5 -37.5t26.5 -22.5l10 -7q-22 18 -38 41t-24 43t-13 41t-6.5 35.5t-2 27t-0.5 13.5l-2 12q0 -1 -1 -2q-4 -35 -1 -68
h-1q3 -29 -16 -31q-22 -1 -27 28q0 -20 -6.5 -29.5t-13.5 -9.5l-7 1q-31 10 -18 58l6 16q12 27 40 65q6 7 6 16q-1 8 -7 11q-7 4 -21.5 15.5l-27.5 22t-14 11.5q-9 7 -18 7q-10 0 -16 -6q-17 -14 -53 -14q-29 1 -57 17q6 15 30 45q41 49 76 67q11 6 26 10.5t31.5 6.5t28 -6
t12.5 -26q0 -5 -6.5 -27.5t-8 -38t8.5 -35.5q5 -7 17 -13.5t25 -5.5q24 2 42 20q1 1 2 3q7 -8 19.5 -13t21.5 -6l8 -1q18 -2 18 4l-1 1q-66 2 -66 42q0 26 27 39t57 12q0 -10 -5 -19q-15 -2 -26 -9t-11 -18q0 -9 4 -14q5 21 18 27.5t47 6.5q61 0 81 14q10 -7 13 -25.5
t-1 -31.5q-8 -21 -59 -23q-2 0 -2 -1q26 -5 53 6q15 -3 32 2.5t25 4.5q2 8 -2.5 19.5t-3.5 18.5q4 17 20 44q4 12 -2.5 28t-6.5 24q0 21 15.5 36t36.5 11q22 -5 40 -22t31 -46.5t19 -45.5t14 -45q25 -89 36 -257zM1233 95q7 9 11 19.5t6 20.5t2.5 19.5t-1 18l-3 16.5
t-4 14.5t-4 11l-2.5 7.5l-2 3q-36 61 -30 107q0 13 2 26t6 24.5t8.5 21t9.5 18.5t8.5 14t7.5 10l3 5q7 7 5 12q-2 10 -6 10l-37 23l-4 3l-3 2q-4 0 -9 -5q-24 -18 -49 -18q-20 0 -66 21t-83 21q-32 0 -80 -21t-68 -21q-23 0 -50 18q-5 5 -8 5q-1 0 -3 -2l-4 -2l-37 -24
q-5 0 -7 -10q0 -7 5 -12q45 -54 45 -120q7 -46 -30 -106l-2 -3q-1 -2 -2.5 -6.5t-4 -11t-4 -14t-3 -16.5t-1 -18.5t2 -19.5t6 -20.5t11.5 -20.5q4 -7 13 -17.5t38 -24t66 -13.5q74 0 97 -43l2 -2q12 -20 15 -26q0 -2 3 -2q2 0 4 2q3 6 15 26l1 2q24 43 97 43q37 0 66 13.5
t38 24t13 17.5zM1280 716l-2 -1q0 -5 15 -3q11 0 23 3q-30 -25 -73 -27.5t-67 13.5q-24 13 -39 45.5t-3 67.5h-1q-1 1 -3 -1.5t-4.5 -10t-3.5 -18.5q-1 1 -4.5 3l-6 3.5t-6 2.5t-6.5 1.5t-6.5 -0.5t-6.5 -4h10q16 0 24 -20q19 -48 33 -61q-4 -11 -13 -22t-19 -12l-1 -1
q0 -3 7 -3q5 0 11.5 4t7.5 8q3 -16 -12.5 -34.5t-32.5 -26.5q10 -3 19 6q-2 -24 -27 -24q4 -12 -3 -21t-16 -9q-5 0 -20 4.5t-28 4.5q-41 0 -59 -15h-1l1 -1q20 10 49 10q20 0 41 -7.5t21 -20.5q0 -5 -4 -11q-41 15 -75 15q-33 0 -73 -14q-5 11 -1.5 19.5t11.5 10.5
q0 1 -9.5 3t-22.5 16.5t-20 43.5q3 -1 12 -2.5t16 -1.5t7 2q-48 6 -70 34q17 -9 37 -9q15 0 15 4l-1 1q-44 -3 -60 24q3 -1 9 -1q7 0 13.5 2.5t9 5t2.5 3.5h-1q-13 -6 -27.5 -1t-13.5 20q6 15 6 31q0 15 -4 15v-2q-4 -40 -30.5 -57.5t-56.5 -17.5q-46 0 -78 27t-32 79
q0 48 30 77t70 29q28 0 70 -14q5 -18 14 -30q10 -14 13 -11q3 2 0 4q-15 17 -17 38q-1 63 40 90.5t93 19.5q-11 -27 -11 -44q0 -21 3 -22q1 1 2 4q5 33 34 47t50 -7q-3 13 -21.5 17t-30.5 -1q-21 -6 -29 -27q13 59 88 59q53 0 76 -29.5t23 -62.5q0 -47 -48 -75q-3 -4 0 -5
q8 0 18 10q37 27 43 56q29 -12 43 -26q28 18 67 18t62 -23t23 -52q0 -20 -10 -39v-2q3 -1 8.5 8t6.5 17q3 -9 4.5 -27t-13.5 -39.5t-42 -28.5q-11 -2 -16 -1zM1515 -107l60 -48q-5 0 -10.5 -1t-10.5 -2.5l-8.5 -2.5t-5.5 -2l-3 -1q-214 -94 -536 -99q-323 5 -537 99
q-20 9 -38 9l60 48q5 4 15 4l9 -1l17 -6q17 -7 38 -13.5l53.5 -16t72.5 -17.5t87 -15.5t105 -11.5t118 -4t118 4t104.5 11.5t86.5 15.5t72.5 17.5l53.5 16t38 13.5l17 6q4 1 9 1q10 0 15 -4zM1617 -237q-39 -11 -65 -13q1 0 0 -2t2.5 -5t11.5 -3l18 -3q3 -2 3 -4v-1
q0 -1 -0.5 -2t-2 -2t-4.5 -2t-8 -1q2 -8 -12 -16q-1 -1 -2 -1.5t-3.5 -3.5t0.5 -6q2 -1 4.5 -3t6 -7t1.5 -10q0 -1 -1.5 -3.5t-8.5 -5t-18 -1.5l-4 -1q-2 -2 2 -6q12 -12 -8 -23q-16 -8 -26 8q0 1 -1 1.5t-3.5 1.5t-7.5 -2l-15 -5t-29 0.5t-32 19.5q-2 6 -9 -3
q-3 -4 -9.5 -9t-31.5 -15t-57 -11q-6 -13 -23 -13q-10 0 -17 6t-9 15q-35 0 -73 25q-13 8 -25 14q-1 -15 -11.5 -25.5t-25.5 -10.5q-16 0 -27 10.5t-11 25.5q0 14 9 24.5t22 12.5h1q1 0 3 0.5t4.5 0.5h5.5t6.5 -0.5t8 -1.5t9.5 -2.5t10.5 -4.5l10.5 -6q28 -19 34 -19
q-6 31 -11 66q10 2 16 2q6 -69 24 -72l19 -5q2 5 4 7q8 10 20 8q1 0 2 -1q15 -3 15 -18h8q8 -1 15 -1.5t16 2t15 6.5q-32 11 -36 22q-9 18 22 35q23 14 29 -1q3 -6 -8 -15q-1 -1 -2.5 -3t1 -5t11.5 -2q15 1 19 7q-3 39 -12 66q4 2 24 6l9 -27q1 -24 9 -30q3 3 7 8t11.5 23.5
t-0.5 37.5q4 1 8.5 2.5l10 3.5t8.5 3q2 -45 -30 -102q1 -1 3 -3.5t7 -7t11 -7t13.5 -2.5t14.5 5q1 1 3.5 2.5t7.5 6.5t7.5 10t2 11.5t-6.5 12.5q-16 13 -23 -4q14 0 14 -15t-15 -15q-13 0 -15 15q0 21 13 33q1 1 4 3.5t12 5t18 0.5q-20 26 -22 48q0 3 -1 9q8 1 17 6
q1 -23 9 -40.5t28 -10.5l-31 53l35 15q1 1 3 1q-4 -32 8 -45q15 -13 40 6q-34 30 -44 40q16 7 28 7h9q7 -8 39 -25q5 -2 9 2q3 4 6 10t7.5 24.5t-7.5 32.5q-1 3 -4 8t-13 11.5t-22 3.5q-8 1 -12 -10q3 0 7 -0.5t10 -5.5t5 -13q0 -2 -0.5 -5t-6.5 -8t-16 -5q-1 0 -3 0.5
t-7.5 3.5t-8.5 7.5t-6 12.5t0 19q5 23 24 23q-1 2 -2.5 4t-3 8t2.5 7q8 7 25 -5q0 -1 1.5 -2t7.5 -3t16 1q15 6 23 -5q4 -2 4 -17q-3 -6 7 -22q16 -30 -2 -73q52 15 67 -8l3 -3h-1q4 -6 4 -12q0 -11 -7.5 -18.5t-18.5 -7.5t-18 7.5t-7 18.5v3q-13 0 -21 -4l-22 -12
q5 -4 15 -11t44 -18t70 -11q63 0 98 22.5t23 60.5q-3 9 -11 13q-7 -22 -28 -22q-13 0 -21.5 8t-8.5 21q0 31 38 31q26 0 46.5 -19.5t6.5 -60.5q11 2 28 2q15 0 23 -7.5t6 -17.5q0 -23 -22 -23q-8 0 -13.5 5.5t-8.5 5.5q-4 0 -9 -5q-5 -6 -15 -14.5t-40 -22.5t-61 -14h-14
q-1 -18 -10 -33t-23 -15q-13 0 -13 14q0 13 13 13h2v5q1 4 1.5 8t-0.5 9q-85 11 -142 58zM1399 667q-4 1 -11 10t-8 16q-1 14 11 22.5t28 8.5q0 -8 3 -12q3 -8 6 -8l1 1q-5 9 -5 21q2 14 15 24.5t31 6.5q-2 8 -1.5 18.5t10.5 11.5q39 -5 82 -41l9 -8l1 -1q1 1 -1 3l-8 11
q-34 32 -77 40q7 9 12 20q4 8 10 4q8 -4 4 -10q-2 -7 0 -11t7 -3.5t8 6.5q1 7 10 4q7 -5 3 -11q-2 -6 0 -10t7 -3t8 7q4 6 10 3q7 -2 3 -10q-2 -6 0 -10.5t7 -3.5t8 7t11 4q6 -4 3 -11q-3 -6 -4 -13t-1.5 -12t-0.5 -6q-2 -21 -16 -32q-6 18 -31.5 35t-45.5 19h-9q0 -1 1 -1
q5 0 7 -1q30 -9 55 -33.5t25 -51.5q0 -39 -21 -57.5t-54 -18.5h-42q5 8 5 19l1 11q-12 1 -19 6.5t-7.5 12l-1 12.5t-0.5 10q-1 7 -10 13t-17 5q-7 -1 -9 -7zM1032 334h155v-6q0 -1 -0.5 -5.5t-0.5 -8.5h-40l26 19l-179 -57v187h249q0 -1 -2 -3q-4 -4 -13 -17h-228l4 -13h216
q-4 -5 -10 -19h-200l4 -13h190l-8 -19h-176l4 -13h168l-3 -20h-159zM1202 250l15 -30v-132q-8 -9 -20 -17v179h-12v-186q-12 -6 -20 -8v194h-13v-198l-19 -3v201h-13v-201h-4q-8 0 -15 -1v76l-108 152l66 -24l24 17h111zM993 276l-111 -154l12 8v-82q-6 1 -12 1h-8v201h-13
v-200l-19 3v197h-13v-192q-7 2 -19 8v184h-13v-176q-6 4 -19 17v144l7 15l7 19h110l25 -17zM1785 22q27 164 22.5 290.5t-31.5 224.5q-26 86 -53 119l-4.5 4.5l-5.5 5.5q-17 21 -29 23q-15 3 -25 -8.5t-8 -26.5q1 -7 6 -18t5 -15t-11.5 -19.5t-13.5 -23.5q-3 -9 -0.5 -28.5
t9.5 -22.5q5 -2 12.5 0.5t8.5 6.5q1 3 -8 20t1 38q1 1 4.5 5.5t6.5 9.5t3 9q0 7 -6 15t-6 12q-2 12 6 21t18 11q5 -2 3 -9.5t2 -10.5q3 -4 10 -0.5t8 2.5q2 -4 1 -17.5t5 -18.5q3 -1 6.5 3t6.5 0q4 -4 4.5 -8.5t-1 -11t-1.5 -9.5q0 -8 3.5 -14.5t7 -9t8.5 -5.5t6 -4
q2 -2 -10 -40t4 -41q4 -1 8 2t6.5 5.5t5.5 -0.5q11 -24 2 -49.5l-18.5 -50t-1.5 -29.5q8 -6 14.5 1t10.5 17.5t6 11.5q5 1 9 -30.5t0.5 -136.5t-20.5 -259q1 -1 2 3t2.5 11t3 15t3.5 17t3 13zM1034 -313q19 -8 20 -22q2 -10 -16 -24q-12 -14 -15 -25q-2 -15 -22 -15
q-9 0 -15 3.5t-7 7.5l-1 4q-1 5 -5 11t-7 10l-3 4q-8 6 -11.5 12t-3.5 9v3q0 13 18 22q-3 1 -5 4t-3 5v3q0 9 3.5 17t6.5 11l4 3q5 0 14.5 -0.5t14.5 -0.5q6 0 14.5 0.5t13.5 0.5q2 -1 4.5 -3.5t6 -10.5t3.5 -17q-2 -9 -9 -12zM992 463l-6 -20h-223q-4 7 -10 13q-3 3 -3 7
h242zM839 314h-38v20h152l40 -58l-180 57zM999 607q12 25 7 61t-20 41q-42 11 -75.5 35t-49.5 49h-1q1 -4 3 -8q13 -22 45 -45.5t57 -39t25 -21.5q-4 0 -23 10.5t-36 18.5t-17 2q-1 -8 11.5 -15t28 -12.5t27.5 -13.5t11 -17q-3 -5 -10.5 1t-15 13t-10.5 2q-5 -8 2.5 -15
t20.5 -12.5t15 -6.5q0 -5 -1.5 -7t-5 -0.5t-6 3t-6.5 4.5q0 -1 1 -4.5t1.5 -4.5t1.5 -4t1.5 -4t2 -3.5t3 -3t3.5 -1.5t4.5 -1.5t5.5 -0.5zM792 741q8 2 15 19t3 43.5t-24 46.5q-29 29 -70 15q-28 -10 -39 -38q14 12 21 16q28 14 49 9.5t27 -23.5q-30 6 -52.5 -6.5
t-30.5 -35.5q42 36 75 29q28 -7 32.5 -32t-6.5 -43zM982 430l-6 -19h-194l-11 19h211zM1271 793q10 7 11 24.5t-7 33.5q-5 15 -19 25q19 1 35 -26q2 -2 2 -5q12 -23 -2 -57v-1h2q17 17 15 45q0 9 -3 17q-7 15 -12 21q9 -2 18 -20q10 -19 6 -36v-1q1 0 2 1q9 19 0 39
q-16 37 -54 37q-23 0 -38.5 -8.5t-18.5 -17.5l-4 -8q17 18 37.5 8.5t27.5 -38.5q4 -11 2 -23q-1 -4 -1 -10h1zM1003 197l20 -14v-167q-6 -6 -12 -15v-2q-2 -2 -8 -12v210zM971 189l19 15v-208q0 1 -1 1.5t-1 1.5l-1 2q-7 13 -16 19v169zM972 398l-6 -19h-172q-3 12 -7 19
h185zM963 366l-6 -20h-157l-3 20h166zM920 486h1l1 1q14 5 25 8h92q4 -1 25 -8q1 -1 2 -1t8 -3.5l11 -5.5l2 -2h-189l1 1zM1036 172l20 -15v-120q-14 -6 -20 -10v145zM939 165l19 14v-149q-8 5 -19 9v126zM562 550q32 -10 64 -30q-8 25 -32 45l-1 1h-2q-19 11 -89 15
q5 -9 13 -14t25.5 -10t21.5 -7zM906 47v93l20 15v-112q-6 2 -20 4zM489 665q4 0 14.5 2t15.5 1q5 0 17.5 -6t21.5 -4q2 2 3 6t-2 8t-12 4h-14.5t-15.5 1q-6 1 -16.5 4.5t-14.5 4t-15 -1.5q-8 -2 -20.5 -17.5t-7.5 -27.5q2 -4 7.5 -1.5t5.5 7.5q-1 5 1 9.5t5 7.5l3 3
q4 3 7.5 3t9 -1.5t7.5 -1.5zM1068 42v106l20 -15v-87q-14 -2 -20 -4zM1054 756q-1 -5 -9 -13t-14 -15.5t-5 -22t14 -32.5q7 2 19.5 21.5t6.5 24.5q-2 2 -6.5 -0.5t-10.5 -7t-7 -5.5q1 1 4 7l6 11.5t5.5 12t2 12t-5.5 7.5zM591 -174q3 9 -1 16t-15 12q-4 1 -11 1
q-6 -1 -11 -5q-4 -4 -7 -10v-10q0 -6 5 -11q3 -3 11 -7q12 -3 19 1t10 13zM1091 -244q5 6 5 16q0 9 -7 15q-6 6 -18 6q-9 -3 -11 -4q-5 -1 -8 -8q-4 -6 -2 -11q0 -7 2 -10q3 -6 9 -8q6 -3 13 -3q8 0 17 7zM960 -245q6 6 6 15q0 10 -6 15q-4 7 -17 7q-7 0 -11 -2q-7 -3 -9 -8
q-2 -4 -4 -10q0 -3 2 -11q4 -6 8 -9q6 -3 13 -3q12 0 18 6zM714 718q25 -2 41.5 9t12.5 33q-6 22 -30 22q-29 0 -31 -31q13 19 28 18q11 -1 15 -12q6 -27 -36 -39zM714 178q17 0 26.5 18.5t10.5 37.5l1 18v3q0 37 -11 43q-1 -1 2 -11t3 -22t-7 -19q-17 -18 -2 -31
q-1 -2 -11 -4q-1 -1 -2 -3t-2 -5t-2 -5t-4 -7.5t-4 -8.5zM1023 591q10 20 3 78q-3 28 -21.5 63t-29.5 49q24 -47 37 -95q8 -26 8 -77q0 -1 -1 -6t0 -8t4 -4zM1101 282l27 19h59q3 -17 4 -19h-90zM857 301l27 -19h-88q1 2 4 19h57zM1265 274q-11 0 -21 -6.5t-11 -17.5
q2 0 7 5t12 7q5 0 9 -1q-4 -13 4.5 -27t18.5 -14q6 0 8.5 5t-1.5 8q-2 2 -4.5 7t-4.5 10l-1 4q-4 19 -9 19q-2 1 -7 1zM1101 129v121h-13v-84zM633 -195q-1 7 -4 10q9 0 11 8q3 8 -8 13q-4 2 -27 8l-1 -3l1 -1q2 0 4 -2q0 -2 -1 -4l-6 -24l-2 -4q-3 0 -5 1l-1 -4l22 -6l1 4
q-1 1 -3 1l-2 1v4l3 10l4 -2q2 0 2 -2q0 -1 1 -3t1 -3q1 -8 3 -12l13 -4l1 4q-1 0 -3 2zM819 -241v4q-3 0 -3 1q-3 3 -5 8l-5 10q8 0 10 9q0 3 -1 5l-4 4l-4 3q-5 0 -29 4l-1 -4q5 0 6 -1v-5l-3 -24l-2 -4h-4h-1v-4l22 -3v4q-2 0 -3 1h-1q-1 1 -1 5l2 10l4 -2h1l1 -1
q0 -1 3 -6q3 -11 5 -12zM1407 -198l13 4l-1 3h-3q-1 0 -8 5q-7 7 -9 7q8 5 5 12q0 3 -2 5q-5 5 -10 3l-12 -3l-16 -5l1 -3h5q1 0 1 -1l1 -2l7 -24q1 -6 -5 -6l1 -4l22 6l-1 4q-6 -3 -7 3l-3 9q3 1 5 1q1 0 1 -0.5t1 -0.5t2 -1l3 -3zM1471 710q-2 -1 -6 -2t-6.5 -2t-2.5 -3
q1 -3 3 -3.5t4.5 0.5l5 2t6.5 3.5l7 4.5q3 4 8 2t7 -2t6 -4.5t5.5 -6.5t4.5 -7.5t4 -6.5q6 -7 10.5 -6t7 6.5t0.5 8.5q-2 5 -17 15q-16 14 -18 15q-8 2 -11.5 1t-9.5 -7.5t-8 -7.5zM637 -18q10 0 10 6q-1 1 -16 4h-3q-3 1 -8 2t-10.5 1.5t-11.5 0.5t-10.5 -0.5t-8 -3
t-3.5 -6.5q20 0 28 -6h2q2 -2 3 -2q7 -15 16 -15q5 0 8.5 2t2.5 6q-1 1 -5 2.5t-6 3.5t-2 6q2 0 6.5 -0.5t7.5 -0.5zM737 349q2 12 -10 22t-32.5 12t-46.5 -12q28 -9 45 -1q12 2 21 -1t12 -8t6 -9t5 -3zM1282 138q15 0 15 33q0 1 -0.5 4.5t-0.5 5.5v18q0 11 -4 11
q-7 0 -7 -31q0 -29 -7 -29q-2 0 -9 5q-7 -1 -3 -10q4 -7 16 -7zM543 -149v6q0 1 -3 6q-3 3 -5 3q-7 4 -9 4l-16 5l-1 -3h1q3 0 3 -3v-3l-9 -24q0 -3 -2 -3h-4h-1l-1 -3l21 -8l2 4h-1l-4 2q0 2 1 5l3 9l3 -1q2 -1 5.5 -2t4.5 -1q2 0 4 0.5t3 0.5q4 5 5 6zM1425 -61l7 14
q-18 0 -29 9q-10 8 -23 8q-24 0 -24 -19q0 -3 2 -9q2 2 5.5 6.5t7 7.5t8.5 3q9 0 16 -5q21 -14 30 -15zM330 -155q-14 18 -31 18q-5 0 -8 -2q12 -7 12 -19q0 -22 18 -22q4 0 5 4q-11 11 -7 16q11 -7 17 -9q6 0 6 4q-1 2 -12 10zM894 250v-95l12 38v57h-12zM1021 -213v4h-16
v-4q6 0 6 -7v-15l-22 26h-14v-4q6 0 6 -6v-22q0 -7 -6 -7v-3h15v3q-3 0 -4 1q-2 2 -2 6v20l27 -31h4v32q0 6 6 7zM1329 -218l38 9l-3 13l-3 -1q0 -3 -4 -9q-3 -5 -10 -3q-3 0 -3 4l-3 11h9q0 -2 1 -3h3l-3 14l-4 -1q2 -4 0 -4q0 -2 -3 -2l-3 -1l-4 14l8 2h4q1 0 1 -0.5
t1 -0.5q1 -1 2 -3l1 -1l4 1l-3 10l-35 -8v-3h6l2 -4l5 -24q2 -4 0 -4q0 -2 -4 -3v-3zM1427 -192l36 11l-3 12l-4 -1q0 -4 -1 -6q0 -4 -7 -6l-9 -3l11 41l-1 3l-33 -11l3 -11l3 1q0 6 1 7q1 0 2 1t2.5 2t3.5 1l6 2l-11 -41zM1446 115q11 3 17.5 8t7.5 9.5t0 5.5h-3
q-11 -9 -29 -11.5t-33 3.5q-7 3 -14 8t-12 9l-4 4q-2 0 6.5 -9.5t26 -18.5t37.5 -8zM1190 -241l22 2v4q-6 0 -9 6l-17 31l-4 -1l-9 -34q-2 -7 -5 -7v-3l14 1v3q-6 0 -5 6l1 2l13 1l1 -3q3 -4 -2 -5v-3zM748 -231l1 4q-2 0 -3 1q-2 2 -2 6l-8 35h-4l-18 -30q-6 -6 -7 -5
l-1 -4l14 -2v4l-3 1q-1 1 0 2v3l2 2l13 -3v-7h-4v-3zM909 -209l1 2l-35 3l-2 -11h3q2 4 5 5q1 1 8 1h7l-26 -34v-3l37 -2l2 12h-3q0 -1 -2 -3q-1 -1 -1 -2l-4 -3h-6l-10 1zM1490 -171l19 7l-1 4q-1 -1 -3 -1q-3 1 -5 5l-24 25l-3 -1l-1 -35q0 -5 -4 -9l1 -3l13 6l-1 3
q-2 -1 -3 -1l-2 1v6l12 4l3 -4q1 -1 0 -2q0 -1 -3 -1zM1311 -189v4q0 1 1 2l2 1v3l-15 -3v-3q7 2 8 -5l2 -13q2 -7 1 -9q0 -1 -2 -5l-6 -3q-5 -2 -6 1q-4 1 -5 4q-1 1 -1 3q-1 2 -1 3l-3 16v5h2q1 1 2 1v4l-21 -5v-3h4q2 0 2 -3l3 -17l3 -7q0 -1 3 -4q1 -1 7 -3h8q6 2 9 4
l5 5q1 1 1 6v7zM864 -245l1 3q-2 0 -3 1l-3 6l-10 34h-3l-16 -31q-3 -6 -8 -6v-4h14v3h-3q-1 1 -1 3q0 1 1 3l1 2l13 -2l1 -3q1 -1 1 -3q-1 0 -1 -1h-4v-4zM1275 634q1 1 -1 4.5t-8.5 7t-17.5 3.5q-42 -3 -67 -42q1 0 5 4l10.5 10t12.5 9q36 18 62 3q3 0 4 1zM1262 -200l4 1
l-3 11l-34 -6v-3h1q4 1 6 -4l3 -25q2 -2 0 -4q-1 -1 -4 -2l1 -3l22 4l-1 3q-6 -2 -6 4l-2 12h6q2 -2 2 -5l3 1l-2 14l-3 -1q0 -3 -1 -4q0 -1 -3 -2h-3l-2 15h6q3 2 5 0q1 0 3 -1q0 -1 2 -5zM765 112q-22 44 0 98v-98zM702 -223l3 14h-3q0 -1 -5 -6q-4 -2 -9 -1q-1 0 -2 1
q-2 0 -2 1q-1 0 -1 2v3l5 24q0 3 2 3q0 2 4 0h1l1 3l-22 6l-1 -4q1 0 2 -1q2 0 2 -1q1 -1 1 -4l-6 -24q0 -4 -2 -4q-1 -1 -4 -1l-1 -3zM1126 -247l38 3l-1 14h-3l-3 -8q-2 -2 -8 -4q-7 0 -7 6l-2 24v3q2 2 4 2h1v4l-23 -3v-3h6q0 -3 1 -4l2 -25q0 -5 -5 -6v-3zM1616 509
q0 1 2 2q3 3 2 4q-3 0 -5.5 -1.5l-5 -3t-4.5 -2.5q-15 -3 -17 -3q-9 -2 -23 1.5t-20 1.5q14 -21 42 -13q17 4 29 14zM1368 514q0 3 -2 2q-18 -18 -36 -19q-10 -1 -40 8q0 -2 7 -7t19 -9t23 -1q16 5 29 26zM943 -212q7 0 8 -4q3 -4 3 -14q-2 -11 -4 -14q-3 -3 -8 -3t-8 5
q-2 6 -1 14q0 10 3 13q2 3 7 3zM1072 -212q6 0 8 -3q3 -5 3 -14q0 -11 -2 -13q-2 -5 -7 -5t-9 4q-3 9 -3 14q0 11 2 13q3 4 8 4zM574 -150q6 -3 7 -7q1 -3 -2 -13q-4 -11 -7 -12q-3 -4 -8 -2q-6 2 -6 7q-2 5 1 13q3 9 6 12q4 4 9 2zM1048 606q9 10 14.5 21t6 17t-0.5 6
q-2 -2 -8.5 -6.5t-10.5 -9t-5 -10.5q-3 -15 4 -18zM1044 643q10 3 21 24q9 19 -4 18q-1 -4 -8 -13.5t-9.5 -15t0.5 -13.5zM1230 198q18 -44 0 -86v86zM1065 993q0 -1 4 -2.5t9.5 -5t8.5 -7.5q18 -22 7 -48q0 -2 1 -2q1 -1 4 1t5.5 8.5t2.5 15.5q-1 7 -4 12.5t-7 9.5
t-8.5 7.5t-8.5 5.5t-7 3t-5 1zM813 475h-45l22 15l11.5 -7.5zM1204 490l1 -1q2 -2 8.5 -6.5l10.5 -7.5h-40q15 10 19 14zM1473 697q-4 -6 0.5 -13.5t12 -8.5t15.5 8q-10 -3 -15.5 1.5t-8 9.5t-4.5 3zM462 643q12 -16 25 -4q8 8 3 16q-2 3 -4.5 -2t-8.5 -9.5t-15 -0.5z
M1412 707q-4 5 -10 1.5t-8.5 -9.5t1.5 -10q1 5 8 10t9 8zM621 -164l7 -4q3 -3 1 -6q-2 -7 -6 -7q-1 0 -7 2l4 15h1zM796 -200q3 0 7 -2q1 -1 1 -7q0 -2 -2 -4q-1 -2 -3 -2h-7l2 16q1 -1 2 -1zM1381 -166q10 4 13 -4v-6q0 -1 -2 -3l-6 -2zM525 -134q2 0 6 -2l1 -2v-2
q1 -1 -1 -5q0 -4 -3 -4q-1 -3 -7 0h-2zM947 -195l-5 -10h3l14 9zM1476 -161v14l9 -10zM836 -228l6 12l4 -13zM721 -211l7 11l3 -12zM1179 -227l3 12l7 -11z" />
    <glyph glyph-name="acute.cp" horiz-adv-x="600" 
d="M422 740l-239 -19l-5 45l243 31z" />
    <glyph glyph-name="Q.alt" horiz-adv-x="632" 
d="M582 343q0 -106 -38 -187.5t-108 -125.5q94 9 185 9v-74q-142 -1 -279 26q-4 0 -13 -0.5t-14 -0.5q-70 0 -122.5 28t-82.5 78t-44 111.5t-14 135.5q0 56 8 104.5t27.5 93t49 76t75 50t103.5 18.5q73 0 126.5 -27.5t83 -76.5t43.5 -108t14 -130zM501 344q0 55 -9 101.5
t-29.5 87t-58 64t-89.5 23.5q-51 0 -88 -23.5t-57 -64.5t-29 -87.5t-9 -100.5q0 -289 183 -289q52 0 89.5 23.5t58 65.5t29.5 91t9 109z" />
    <glyph glyph-name="g.alt" horiz-adv-x="525" 
d="M383 109v296q-50 37 -118 37t-102.5 -51t-34.5 -145q0 -199 131 -199q66 0 124 62zM396 452l13 38h50v-483q0 -94 -56 -150.5t-154 -56.5q-49 0 -100 16.5t-78 35.5l25 58q24 -17 67.5 -33.5t83.5 -16.5q67 0 102 38t35 109l3 51q-22 -29 -60 -48.5t-79 -19.5
q-89 0 -143 66t-54 190q0 114 54.5 184t150.5 70q84 0 140 -48z" />
    <glyph glyph-name="c_h" horiz-adv-x="901" 
d="M540 385v-54q0 -79 -16 -140.5t-41 -98.5t-59 -60.5t-67 -32.5t-68 -9q-101 0 -169.5 64t-68.5 191q0 121 59 188t153 67q75 0 138 -30l-6 -58q-55 27 -127 27q-66 0 -103.5 -51t-37.5 -143q0 -97 46.5 -146.5t117.5 -49.5q31 0 58 11t54.5 39t43.5 86t16 141v364h77
v-199q0 -4 -2 -18.5t-4 -27.5l-1 -13q63 68 148 68q88 0 128 -48t40 -143v-309h-77v296q0 72 -26 108t-86 36q-61 0 -120 -55z" />
    <glyph glyph-name="star.alt" horiz-adv-x="828" 
d="M550 262l47 -208l-183 109l-183 -109l46 208l-159 140l211 20l85 195l84 -195l212 -20zM517 166l-27 115l91 80l-119 11l-48 108l-48 -108l-119 -11l88 -80l-24 -115l103 61z" />
    </font>
</defs>
</svg>
