<?xml version="1.0" standalone="no"?>
<!DOCTYPE svg PUBLIC "-//W3C//DTD SVG 1.1//EN" "http://www.w3.org/Graphics/SVG/1.1/DTD/svg11.dtd" >
<svg>
<metadata>
Created by FontForge 20090622 at Tue Jun 21 19:37:10 2016
 By deploy user
(c) 2010 by Rodrigo Ramirez / www.frescotype.com
</metadata>
<defs>
<font id="gobCL-Heavy" horiz-adv-x="490" >
  <font-face 
    font-family="gobCL"
    font-weight="900"
    font-stretch="normal"
    units-per-em="1000"
    panose-1="2 0 6 3 6 0 0 2 0 4"
    ascent="780"
    descent="-220"
    x-height="490"
    cap-height="675"
    bbox="-42 -399 1972.4 1017"
    underline-thickness="20"
    underline-position="-113"
    unicode-range="U+0020-U+FB06"
  />
<missing-glyph horiz-adv-x="245" 
 />
    <glyph glyph-name=".notdef" horiz-adv-x="245" 
 />
    <glyph glyph-name=".null" horiz-adv-x="0" 
 />
    <glyph glyph-name="nonmarkingreturn" horiz-adv-x="333" 
 />
    <glyph glyph-name="space" unicode=" " horiz-adv-x="220" 
 />
    <glyph glyph-name="exclam" unicode="!" horiz-adv-x="288" 
d="M223 690v-224l-22 -238h-114l-22 238v224h158zM65 0v153h155v-153h-155z" />
    <glyph glyph-name="quotedbl" unicode="&#x22;" horiz-adv-x="400" 
d="M185 690l-20 -310h-113l-17 310h150zM365 690l-20 -310h-113l-17 310h150z" />
    <glyph glyph-name="numbersign" unicode="#" horiz-adv-x="590" 
d="M474 584l-22 -115h48v-113h-70l-14 -75h84v-114h-106l-19 -101h-91l19 101h-72l-19 -101h-91l19 101h-50v114h72l14 75h-86v113h108l22 115h91l-22 -115h72l22 115h91zM267 356l-14 -75h72l14 75h-72z" />
    <glyph glyph-name="dollar" unicode="$" horiz-adv-x="501" 
d="M330 -10h-146l3 94q-67 6 -112 31l29 109q51 -31 112 -31q27 0 43 10.5t16 29.5t-20 33.5t-48.5 27t-57 29t-48.5 49.5t-20 79q0 98 105 129l-4 110h146l-4 -100q51 -4 91 -17l-18 -115q-52 22 -114 22q-54 0 -54 -31q0 -17 20.5 -29.5t49.5 -24t57.5 -27.5t49 -47
t20.5 -74q0 -107 -100 -148z" />
    <glyph glyph-name="percent" unicode="%" horiz-adv-x="1000" 
d="M40 462q0 113 49.5 170t141.5 57q94 0 144.5 -57t50.5 -170q0 -219 -195 -219q-191 0 -191 219zM193 462q0 -65 9 -92.5t29 -27.5q24 0 33 26.5t9 93.5q0 74 -9 101t-33 27q-21 0 -29.5 -27.5t-8.5 -100.5zM574 209q0 113 49.5 170t141.5 57q94 0 144.5 -57t50.5 -170
q0 -219 -195 -219q-191 0 -191 219zM727 209q0 -65 9 -92.5t29 -27.5q24 0 33 26.5t9 93.5q0 74 -9 101t-33 27q-21 0 -29.5 -27.5t-8.5 -100.5zM644 713l-244 -758h-46l244 758h46z" />
    <glyph glyph-name="ampersand" unicode="&#x26;" horiz-adv-x="645" 
d="M458 540q0 -30 -7.5 -56t-17 -42t-29.5 -34t-32.5 -26.5l-38.5 -25.5l91 -118q28 46 42 117l137 -30q-19 -111 -84 -203l96 -122h-184l-32 45q-50 -55 -151 -55q-91 0 -154 50t-63 157q0 108 106 183l-10 14q-47 62 -47 137q0 72 54 113t136 41q83 0 135.5 -38.5
t52.5 -106.5zM274 118q34 0 52 18l-108 137q-27 -34 -27 -75q0 -43 24.5 -61.5t58.5 -18.5zM224 524q0 -30 21 -55l14 -19q65 37 65 72q0 25 -13 39.5t-38 14.5q-22 0 -35.5 -14.5t-13.5 -37.5z" />
    <glyph glyph-name="quotesingle" unicode="'" horiz-adv-x="220" 
d="M185 690l-20 -310h-113l-17 310h150z" />
    <glyph glyph-name="parenleft" unicode="(" horiz-adv-x="326" 
d="M30 341q0 110 54 220.5t142 180.5l80 -83q-60 -54 -87 -139t-27 -179t27 -179t87 -139l-80 -83q-88 70 -142 180.5t-54 220.5z" />
    <glyph glyph-name="parenright" unicode=")" horiz-adv-x="326" 
d="M296 341q0 -110 -54 -220.5t-142 -180.5l-80 83q60 54 87 139t27 179t-27 179t-87 139l80 83q88 -70 142 -180.5t54 -220.5z" />
    <glyph glyph-name="asterisk" unicode="*" 
d="M455 491l-105 -33l65 -91l-105 -75l-65 90l-65 -90l-105 75l66 90l-106 34l40 122l106 -34v111h128v-111l107 34z" />
    <glyph glyph-name="plus" unicode="+" horiz-adv-x="511" 
d="M446 231h-140v-139h-110v139h-131v102h131v133h110v-133h140v-102z" />
    <glyph glyph-name="comma" unicode="," horiz-adv-x="250" 
d="M45 20v136h160v-167q0 -120 -160 -134v92q35 4 35 53z" />
    <glyph glyph-name="hyphen" unicode="-" horiz-adv-x="505" 
d="M435 218h-365v99h365v-99z" />
    <glyph glyph-name="period" unicode="." horiz-adv-x="240" 
d="M40 0v156h160v-156h-160z" />
    <glyph glyph-name="slash" unicode="/" horiz-adv-x="300" 
d="M295 713l-244 -758h-46l244 758h46z" />
    <glyph glyph-name="zero" unicode="0" horiz-adv-x="590" 
d="M293 -10q-76 0 -128 27t-78 78.5t-36.5 109.5t-10.5 137q0 76 11 134.5t38 109t78.5 77.5t125.5 27q62 0 108.5 -19t74.5 -50t45 -77.5t23 -94.5t6 -107q0 -61 -6.5 -110.5t-24.5 -95.5t-46 -77.5t-74 -50t-106 -18.5zM293 116q52 0 72 54.5t20 171.5q0 116 -21 169
t-71 53t-69 -53t-19 -169q0 -117 19.5 -171.5t68.5 -54.5z" />
    <glyph glyph-name="one" unicode="1" horiz-adv-x="590" 
d="M126 0v119h130v289q0 55 5 97q-27 -32 -72 -51.5t-87 -22.5l-19 123q137 35 209 126h120v-561h123v-119h-409z" />
    <glyph glyph-name="two" unicode="2" horiz-adv-x="590" 
d="M240 562q-78 0 -138 -32l-43 116q93 44 207 44q116 0 187.5 -54t71.5 -141q0 -89 -64.5 -177t-220.5 -197q47 10 110 10h178v-131h-462v118q171 127 232.5 207.5t61.5 140.5q0 41 -31.5 68.5t-88.5 27.5z" />
    <glyph glyph-name="three" unicode="3" horiz-adv-x="590" 
d="M341 490q0 35 -26 53.5t-74 18.5q-74 0 -131 -30l-44 116q93 42 208 42q104 0 168 -47.5t64 -119.5q0 -68 -38 -111.5t-91 -56.5v-5q67 -7 108 -46t41 -109q0 -91 -76 -148t-177 -57q-110 0 -208 49l36 123q26 -15 71 -28t80 -13q49 0 80.5 21.5t31.5 66.5q0 74 -111 74
h-46v121h32q51 0 76.5 23.5t25.5 62.5z" />
    <glyph glyph-name="four" unicode="4" horiz-adv-x="590" 
d="M545 154h-75v-154h-156v154h-274v93l272 433h158v-400h75v-126zM180 280h134v211z" />
    <glyph glyph-name="five" unicode="5" horiz-adv-x="590" 
d="M531 249q0 -81 -40.5 -141.5t-99 -89t-123.5 -28.5q-112 0 -212 50l37 123q26 -14 73 -28t82 -14q55 0 86.5 28.5t31.5 87.5q0 49 -25.5 75.5t-68.5 26.5q-48 0 -89 -43l-116 33v351h408l-11 -128h-242v-67q0 -45 -10 -75q49 54 133 54q77 0 131.5 -56t54.5 -159z" />
    <glyph glyph-name="six" unicode="6" horiz-adv-x="590" 
d="M341 568q-59 0 -97 -43.5t-46 -123.5q50 68 152 68q88 0 142.5 -60.5t54.5 -162.5q0 -109 -68 -182.5t-182 -73.5t-184.5 89.5t-70.5 280.5q0 153 82.5 241.5t204.5 88.5q89 0 166 -24l-27 -121q-54 23 -127 23zM297 347q-73 0 -97 -63q14 -172 97 -172q43 0 66.5 32
t23.5 90q0 54 -23.5 83.5t-66.5 29.5z" />
    <glyph glyph-name="seven" unicode="7" horiz-adv-x="590" 
d="M529 547l-274 -547h-181l290 547h-302v133h467v-133z" />
    <glyph glyph-name="eight" unicode="8" horiz-adv-x="590" 
d="M528 518q0 -87 -113 -142q60 -25 95 -64.5t35 -106.5q0 -91 -66.5 -153t-186.5 -62q-114 0 -180.5 57t-66.5 147q0 47 35 85t93 60q-113 57 -113 171q0 88 67 134t165 46t167 -47t69 -125zM383 205q0 16 -7.5 29.5t-17 22.5t-30 18.5t-33.5 14.5l-40 15q-50 -48 -50 -99
q0 -48 26 -73.5t61 -25.5q39 0 65 24.5t26 73.5zM218 509q0 -39 29.5 -61t86.5 -42q36 44 36 98q0 32 -23 49t-55 17q-29 0 -51.5 -16.5t-22.5 -44.5z" />
    <glyph glyph-name="nine" unicode="9" horiz-adv-x="590" 
d="M265 220q-96 0 -159 61t-63 172q0 107 69 172t179 65q123 0 189.5 -81t66.5 -242q0 -188 -70 -282.5t-201 -94.5q-118 0 -210 46l37 127q77 -46 155 -46q58 0 92 35.5t41 119.5q-54 -52 -126 -52zM293 568q-43 0 -66.5 -28.5t-23.5 -81.5q0 -107 98 -107q47 0 95 28
q0 92 -23 140.5t-80 48.5z" />
    <glyph glyph-name="colon" unicode=":" horiz-adv-x="250" 
d="M45 0v156h160v-156h-160zM45 334v156h160v-156h-160z" />
    <glyph glyph-name="semicolon" unicode=";" horiz-adv-x="250" 
d="M45 334v156h160v-156h-160zM45 20v136h160v-167q0 -120 -160 -134v92q35 4 35 53z" />
    <glyph glyph-name="less" unicode="&#x3c;" horiz-adv-x="400" 
d="M30 404l340 142v-171l-244 -85v-4l244 -85v-165l-340 138v230z" />
    <glyph glyph-name="equal" unicode="=" horiz-adv-x="505" 
d="M445 333h-385v113h385v-113zM445 130h-385v114h385v-114z" />
    <glyph glyph-name="greater" unicode="&#x3e;" horiz-adv-x="400" 
d="M30 546l340 -142v-230l-340 -138v165l244 85v4l-244 85v171z" />
    <glyph glyph-name="question" unicode="?" horiz-adv-x="442" 
d="M422 511q0 -42 -16 -78.5t-38 -61.5t-44.5 -48t-38.5 -48.5t-16 -51.5v-14h-143v22q0 43 13 76t32 53t38 38t32 40.5t13 49.5q0 29 -20 47.5t-56 18.5q-59 0 -119 -25l-39 123q88 38 188 38q95 0 154.5 -48t59.5 -131zM120 0v153h155v-153h-155z" />
    <glyph glyph-name="at" unicode="@" horiz-adv-x="1000" 
d="M501 0l6 49q-50 -59 -125 -59q-57 0 -98 53t-41 157q0 122 67.5 201t157.5 79q73 0 112 -52l23 42h106l-52 -470q10 -2 18 -2q69 0 126 70t57 181q0 142 -95 234t-250 92q-156 0 -263 -108t-107 -261q0 -150 92 -259h-95q-81 127 -81 259q0 123 59.5 226.5t164 164
t230.5 60.5q192 0 310.5 -114.5t118.5 -293.5q0 -74 -25.5 -137t-67 -104t-92 -63.5t-102.5 -22.5q-55 0 -98.5 23t-55.5 55zM467 105q24 0 49 15l30 234q-20 9 -42 9q-38 0 -68.5 -40t-30.5 -124q0 -94 62 -94z" />
    <glyph glyph-name="A" unicode="A" horiz-adv-x="626" 
d="M436 0l-32 142h-211l-30 -142h-158l185 675h246l185 -675h-185zM284 536l-63 -268h155l-57 268h-35z" />
    <glyph glyph-name="B" unicode="B" horiz-adv-x="590" 
d="M565 199q0 -93 -74.5 -151t-195.5 -58t-230 38v647h219q113 0 179.5 -46t66.5 -132q0 -54 -29 -91t-79 -52v-5q64 -12 103.5 -52t39.5 -98zM363 481q0 66 -87 66h-53v-145h53q44 0 65.5 17t21.5 62zM399 206q0 80 -93 80h-83v-155q35 -11 72 -11q45 0 74.5 21t29.5 65z
" />
    <glyph glyph-name="C" unicode="C" horiz-adv-x="605" 
d="M575 63q-107 -73 -241 -73q-145 0 -222 89.5t-77 261.5q0 159 76 251.5t223 92.5q151 0 240 -58l-59 -127q-59 45 -162 45q-151 0 -151 -203q0 -109 37 -160t112 -51q89 0 174 61z" />
    <glyph glyph-name="D" unicode="D" horiz-adv-x="686" 
d="M637 345q0 -169 -78 -262t-243 -93q-122 0 -251 37v648h244q161 0 244.5 -75.5t83.5 -254.5zM469 345q0 112 -36.5 157.5t-128.5 45.5h-81v-412q43 -13 102 -13q65 0 104.5 47.5t39.5 174.5z" />
    <glyph glyph-name="E" unicode="E" horiz-adv-x="541" 
d="M501 0h-436v675h436v-133h-278v-133h208l-10 -139h-198v-138h278v-132z" />
    <glyph glyph-name="F" unicode="F" horiz-adv-x="526" 
d="M501 542h-278v-152h208l-10 -139h-198v-251h-158v675h436v-133z" />
    <glyph glyph-name="G" unicode="G" horiz-adv-x="653" 
d="M607 354v-301q-138 -63 -253 -63q-155 0 -234.5 94.5t-79.5 259.5q0 161 81 251t241 90q140 0 235 -64l-67 -119q-64 44 -165 44q-157 0 -157 -200q0 -223 156 -223q58 0 98 19v97h-80l-10 115h235z" />
    <glyph glyph-name="H" unicode="H" horiz-adv-x="670" 
d="M605 0h-159v268h-222v-268h-159v675h159v-264h222v264h159v-675z" />
    <glyph glyph-name="I" unicode="I" horiz-adv-x="308" 
d="M233 0h-158v675h158v-675z" />
    <glyph glyph-name="J" unicode="J" horiz-adv-x="455" 
d="M380 675v-450q0 -110 -47.5 -172.5t-140.5 -62.5t-167 29l28 138q54 -26 107 -26q61 0 61 72v472h159z" />
    <glyph glyph-name="K" unicode="K" horiz-adv-x="600" 
d="M211 399l185 276h188l-241 -321l257 -354h-205l-183 285h-1l12 -156v-129h-158v675h158v-126z" />
    <glyph glyph-name="L" unicode="L" horiz-adv-x="511" 
d="M501 0h-436v675h158v-542h278v-133z" />
    <glyph glyph-name="M" unicode="M" horiz-adv-x="876" 
d="M523 0h-219l-65 321q-26 132 -38 205h-5l-8 -526h-143l26 675h264q62 -311 92 -533h4q17 99 45 232.5t48 217.5l19 83h261l27 -675h-183l-12 526h-5q-17 -104 -40 -205z" />
    <glyph glyph-name="N" unicode="N" horiz-adv-x="694" 
d="M629 0h-251l-183 527h-4l15 -527h-141v675h243l188 -540h4l-15 540h144v-675z" />
    <glyph glyph-name="O" unicode="O" horiz-adv-x="667" 
d="M632 343q0 -73 -14 -132.5t-46.5 -111t-93.5 -80.5t-146 -29q-297 0 -297 353q0 342 297 342q300 0 300 -342zM464 344q0 97 -29 151t-103 54q-73 0 -101.5 -54t-28.5 -151q0 -106 29 -163.5t101 -57.5t102 58t30 163z" />
    <glyph glyph-name="P" unicode="P" horiz-adv-x="560" 
d="M278 223h-60v-223h-158v675h218q114 0 189.5 -55.5t75.5 -161.5q0 -99 -71.5 -167t-193.5 -68zM375 451q0 41 -26 66t-73 25h-58v-197h58q46 0 72.5 30.5t26.5 75.5z" />
    <glyph glyph-name="Q" unicode="Q" horiz-adv-x="677" 
d="M637 343q0 -97 -52 -191.5t-139 -136.5q62 -7 208 -7v-153q-95 0 -179 38.5t-138 96.5q-297 0 -297 353q0 342 297 342q300 0 300 -342zM469 344q0 97 -29 151t-103 54q-73 0 -101.5 -54t-28.5 -151q0 -106 29 -163.5t101 -57.5t102 58t30 163z" />
    <glyph glyph-name="R" unicode="R" horiz-adv-x="583" 
d="M373 0l-99 246h-52v-246h-157v675h235q108 0 175 -52t67 -154q0 -65 -33 -117t-90 -79l138 -273h-184zM374 469q0 44 -24 64t-76 20h-52v-185h52q55 0 77.5 25t22.5 76z" />
    <glyph glyph-name="S" unicode="S" horiz-adv-x="562" 
d="M511 640l-53 -127q-65 35 -155 35q-86 0 -86 -53q0 -28 31.5 -47t76.5 -34.5t89.5 -36.5t76 -65t31.5 -108q0 -87 -70 -150.5t-185 -63.5q-127 0 -227 74l59 120q30 -26 77.5 -43.5t91.5 -17.5q41 0 65 19.5t24 50.5q0 29 -22.5 49t-56 30t-73 26t-73 36t-56 61t-22.5 98
q0 84 65.5 138t185.5 54q116 0 206 -45z" />
    <glyph glyph-name="T" unicode="T" horiz-adv-x="504" 
d="M494 542h-160v-542h-163v542h-161v133h484v-133z" />
    <glyph glyph-name="U" unicode="U" horiz-adv-x="664" 
d="M599 675v-417q0 -115 -67.5 -191.5t-199.5 -76.5q-133 0 -200 75.5t-67 192.5v417h158v-409q0 -65 28.5 -103.5t80.5 -38.5q51 0 79 39t28 103v409h160z" />
    <glyph glyph-name="V" unicode="V" horiz-adv-x="637" 
d="M191 675l132 -538h5l131 538h173l-197 -675h-232l-198 675h186z" />
    <glyph glyph-name="W" unicode="W" horiz-adv-x="917" 
d="M260 134l104 541h230l85 -541h4l66 541h163l-123 -675h-245l-81 535h-2l-104 -535h-229l-123 675h183l69 -541h3z" />
    <glyph glyph-name="X" unicode="X" horiz-adv-x="638" 
d="M31 675h193l107 -223l107 223h192l-221 -335l208 -340h-194l-115 218l-108 -218h-192l223 335z" />
    <glyph glyph-name="Y" unicode="Y" horiz-adv-x="614" 
d="M609 675l-234 -448v-227h-159v228l-211 447h202l106 -292h5l118 292h173z" />
    <glyph glyph-name="Z" unicode="Z" horiz-adv-x="600" 
d="M547 543l-307 -411h308v-132h-496v124l304 418h-302v133h493v-132z" />
    <glyph glyph-name="bracketleft" unicode="[" horiz-adv-x="324" 
d="M309 -131h-249v886h249v-142h-88v-602h88v-142z" />
    <glyph glyph-name="backslash" unicode="\" horiz-adv-x="300" 
d="M249 -45l-244 758h46l244 -758h-46z" />
    <glyph glyph-name="bracketright" unicode="]" horiz-adv-x="324" 
d="M264 -131h-249v142h87v602h-87v142h249v-886z" />
    <glyph glyph-name="asciicircum" unicode="^" horiz-adv-x="550" 
d="M483 625l-48 -78l-161 76l-162 -76l-45 78l168 106h83z" />
    <glyph glyph-name="underscore" unicode="_" horiz-adv-x="656" 
d="M608 1h-560v104h560v-104z" />
    <glyph glyph-name="grave" unicode="`" horiz-adv-x="550" 
d="M440 566l-273 40l18 116l269 -66z" />
    <glyph glyph-name="a" unicode="a" horiz-adv-x="515" 
d="M470 0h-108l-20 56q-19 -28 -55.5 -47t-83.5 -19q-74 0 -121 44t-47 117q0 70 50 108.5t141 38.5h91v18q0 64 -74 64q-75 0 -146 -32l-39 112q94 40 200 40q111 0 161.5 -48t50.5 -147v-305zM317 116v91h-63q-64 0 -64 -52q0 -59 59 -59q33 0 68 20z" />
    <glyph glyph-name="b" unicode="b" horiz-adv-x="562" 
d="M167 62l-29 -62h-83v690h158v-161l-9 -86q13 22 48 39.5t74 17.5q87 0 144 -64t57 -189q0 -120 -64.5 -188.5t-154.5 -68.5q-54 0 -86 17.5t-55 54.5zM213 355v-202q28 -47 74 -47q36 0 59 33t23 107q0 140 -81 140q-42 0 -75 -31z" />
    <glyph glyph-name="c" unicode="c" horiz-adv-x="485" 
d="M460 460l-40 -106q-50 28 -117 28q-96 0 -96 -136q0 -72 24 -104t73 -32q64 0 128 35l28 -112q-80 -43 -171 -43q-118 0 -181 65.5t-63 190.5q0 119 63.5 186.5t179.5 67.5q99 0 172 -40z" />
    <glyph glyph-name="d" unicode="d" horiz-adv-x="567" 
d="M253 500q79 0 118 -50q-16 42 -16 94v146h157v-690h-131l-16 52q-14 -24 -47 -43t-77 -19q-88 0 -144.5 64t-56.5 191q0 120 61.5 187.5t151.5 67.5zM355 136v228q-34 19 -74 19t-62 -30t-22 -107q0 -80 22 -110.5t61 -30.5q42 0 75 31z" />
    <glyph glyph-name="e" unicode="e" horiz-adv-x="521" 
d="M486 203h-291q0 -43 28.5 -68t83.5 -25q56 0 138 36l28 -110q-90 -46 -190 -46q-117 0 -182.5 68t-65.5 188q0 117 58.5 185.5t178.5 68.5q108 0 161 -65.5t53 -166.5v-65zM336 293q0 92 -69 92q-36 0 -54 -27t-18 -65h141z" />
    <glyph glyph-name="f" unicode="f" horiz-adv-x="354" 
d="M374 698l-11 -124q-27 8 -61 8q-27 0 -43.5 -15.5t-16.5 -43.5v-33h106v-112h-106v-378h-158v378h-69v112h69v40q0 177 207 177q38 0 83 -9z" />
    <glyph glyph-name="g" unicode="g" horiz-adv-x="531" 
d="M258 500q140 -10 253 -10l-2 -122q-41 6 -81 25q33 -37 40 -61q0 -57 -35 -97.5t-81 -57t-94 -16.5q-28 0 -62 8q-14 -5 -14 -19t32 -20t77.5 -11t91 -16t77.5 -43.5t32 -85.5q0 -83 -70.5 -131.5t-174.5 -48.5q-87 0 -149.5 33t-62.5 95q0 84 133 104q-130 15 -130 87
q0 32 28 53.5t72 24.5q-90 49 -90 141q0 46 20.5 81t54 52.5t67.5 26t68 8.5zM336 -37q0 28 -24.5 39.5t-78.5 15.5q-24 -4 -38.5 -19.5t-14.5 -39.5q0 -26 20.5 -43.5t55.5 -17.5q37 0 58.5 18t21.5 47zM257 271q31 0 52 14.5t21 47.5q0 29 -22 42.5t-51 13.5t-51 -13.5
t-22 -42.5q0 -33 21 -47.5t52 -14.5z" />
    <glyph glyph-name="h" unicode="h" horiz-adv-x="563" 
d="M518 0h-160v289q0 91 -75 91q-34 0 -70 -17v-363h-158v690h158v-167q0 -46 -16 -88q51 65 136 65q107 0 146 -49t39 -151v-300z" />
    <glyph glyph-name="i" unicode="i" horiz-adv-x="310" 
d="M255 0h-157v378l-58 13v99h215v-490zM95 556v138h158v-138h-158z" />
    <glyph glyph-name="j" unicode="j" horiz-adv-x="315" 
d="M250 490v-496q0 -105 -42.5 -147t-121.5 -42q-53 0 -96 15l18 126q20 -8 43 -8q42 0 42 46v397l-58 14v95h215zM92 556v138h158v-138h-158z" />
    <glyph glyph-name="k" unicode="k" horiz-adv-x="530" 
d="M535 0h-189l-119 205h-15v-205h-157v690h157v-260l-7 -115l128 175h187l-174 -201z" />
    <glyph glyph-name="l" unicode="l" horiz-adv-x="310" 
d="M55 690h157v-538q0 -36 33 -38l40 -3v-112q-44 -9 -83 -9q-73 0 -110 36t-37 101v563z" />
    <glyph glyph-name="m" unicode="m" horiz-adv-x="862" 
d="M511 363q4 -25 4 -63v-300h-160v289q0 91 -76 91q-30 0 -66 -17v-363h-158v490h106l25 -55q52 65 144 65q117 0 157 -65q52 65 145 65q107 0 146 -49t39 -151v-300h-160v289q0 91 -79 91q-31 0 -67 -17z" />
    <glyph glyph-name="n" unicode="n" horiz-adv-x="563" 
d="M518 0h-160v289q0 91 -76 91q-33 0 -69 -17v-363h-158v490h109l22 -55q52 65 156 65q93 0 134.5 -51t41.5 -149v-300z" />
    <glyph glyph-name="o" unicode="o" horiz-adv-x="550" 
d="M275 500q112 0 176 -71.5t64 -182.5q0 -125 -62 -190.5t-178 -65.5t-178 65.5t-62 190.5q0 111 64 182.5t176 71.5zM275 106q39 0 58 31t19 109q0 80 -19.5 110t-57.5 30t-57.5 -30t-19.5 -110q0 -78 19 -109t58 -31z" />
    <glyph glyph-name="p" unicode="p" horiz-adv-x="562" 
d="M196 48q19 -52 19 -101v-137h-160v680h139l10 -50q13 22 48 41t74 19q87 0 144 -64t57 -189q0 -120 -64.5 -188.5t-154.5 -68.5q-40 0 -65 13.5t-47 44.5zM215 355v-203q28 -46 72 -46q36 0 59 33t23 107q0 140 -81 140q-40 0 -73 -31z" />
    <glyph glyph-name="q" unicode="q" horiz-adv-x="567" 
d="M392 450l27 40h93v-680h-157v170l10 70q-14 -23 -48 -41.5t-77 -18.5q-88 0 -144 64t-56 191q0 120 61.5 187.5t151.5 67.5q41 0 79.5 -13.5t59.5 -36.5zM355 136v221q-29 26 -72 26q-86 0 -86 -137q0 -80 22 -110.5t61 -30.5q42 0 75 31z" />
    <glyph glyph-name="r" unicode="r" horiz-adv-x="366" 
d="M211 345v-345h-156v490h110l15 -68h5q10 31 41 54.5t71 23.5q31 0 54 -6l-2 -134q-29 8 -61 8q-44 0 -77 -23z" />
    <glyph glyph-name="s" unicode="s" horiz-adv-x="435" 
d="M382 481l-18 -115q-52 22 -114 22q-54 0 -54 -31q0 -17 20.5 -29.5t49 -24t57.5 -27.5t49.5 -47t20.5 -74q0 -74 -53 -119.5t-152 -45.5q-84 0 -146 33l29 109q51 -31 112 -31q27 0 43 10.5t16 29.5t-20 33.5t-48.5 27t-57 29t-48.5 49.5t-20 79q0 62 49.5 101.5
t150.5 39.5q75 0 134 -19z" />
    <glyph glyph-name="t" unicode="t" horiz-adv-x="409" 
d="M366 142l23 -117q-66 -35 -139 -35q-72 0 -116 45.5t-44 130.5v212h-70v112h73v84l154 50v-134h125v-112h-125v-207q0 -46 45 -46q40 0 74 17z" />
    <glyph glyph-name="u" unicode="u" horiz-adv-x="553" 
d="M508 0h-102l-25 62q-20 -29 -59.5 -50.5t-93.5 -21.5q-95 0 -139 51t-44 154v295h158v-299q0 -44 18 -62.5t56 -18.5q36 0 71 19v361h160v-490z" />
    <glyph glyph-name="v" unicode="v" horiz-adv-x="527" 
d="M522 490l-145 -490h-230l-142 490h178l89 -394h4l88 394h158z" />
    <glyph glyph-name="w" unicode="w" horiz-adv-x="813" 
d="M808 490l-107 -490h-219l-76 352h-4l-90 -352h-207l-100 490h174l45 -367h4l94 367h188l90 -367h4l52 367h152z" />
    <glyph glyph-name="x" unicode="x" horiz-adv-x="530" 
d="M317 0l-63 132l-70 -132h-174l175 258l-166 232h212l55 -119l53 119h174l-157 -250l164 -240h-203z" />
    <glyph glyph-name="y" unicode="y" horiz-adv-x="544" 
d="M266 4l2 11l-104 -21l-147 496h178l89 -393h3l91 393h156l-150 -510q-58 -186 -223 -186q-43 0 -86 17.5t-65 35.5l49 108h15q44 -37 94 -37q36 0 62.5 24t35.5 62z" />
    <glyph glyph-name="z" unicode="z" horiz-adv-x="489" 
d="M448 393l-200 -278h201v-115h-407v90l215 287h-217v113h408v-97z" />
    <glyph glyph-name="braceleft" unicode="{" horiz-adv-x="418" 
d="M403 656q-50 -22 -72 -56.5t-22 -94.5v-141l-98 -40l98 -43v-141q0 -60 21.5 -94.5t72.5 -56.5l-35 -93q-111 42 -165 97t-54 131v103l-109 54v90l109 47v103q0 76 54 131t165 97z" />
    <glyph glyph-name="bar" unicode="|" horiz-adv-x="300" 
d="M177 -168l-54 -1v899h54v-898z" />
    <glyph glyph-name="braceright" unicode="}" horiz-adv-x="418" 
d="M378 281l-110 -54v-103q0 -76 -53.5 -131t-164.5 -97l-35 93q50 22 72 56.5t22 94.5v141l98 43l-98 40v141q0 60 -22 94.5t-72 56.5l35 93q110 -42 164 -97.5t54 -130.5v-103l110 -47v-90z" />
    <glyph glyph-name="asciitilde" unicode="~" horiz-adv-x="553" 
d="M494 313q-20 -68 -54.5 -96.5t-91.5 -13.5l-137 36q-47 12 -67 -32l-84 34q19 58 61 89t98 16l128 -35q48 -13 67 32z" />
    <glyph glyph-name="exclamdown" unicode="&#xa1;" horiz-adv-x="288" 
d="M65 -201v224l22 238h114l22 -238v-224h-158zM223 489v-153h-155v153h155z" />
    <glyph glyph-name="sterling" unicode="&#xa3;" horiz-adv-x="500" 
d="M386 288h-118v-16l-11 -89q53 24 118 24h70v-131h-395v131h60v81h-60v95h60v37q0 89 51 133t165 44q56 0 113 -19l-19 -115q-42 10 -83 10q-39 0 -54 -13.5t-15 -45.5v-31h128z" />
    <glyph glyph-name="yen" unicode="&#xa5;" horiz-adv-x="554" 
d="M462 150h-117v-74h-159v74h-109v96h109v45h-109v95h55l-117 201h202l66 -201h5l78 201h173l-133 -201h56v-95h-117v-45h117v-96z" />
    <glyph glyph-name="brokenbar" unicode="&#xa6;" horiz-adv-x="300" 
d="M177 314h-54v416h54v-416zM177 -168h-54v416h54v-416z" />
    <glyph glyph-name="section" unicode="&#xa7;" horiz-adv-x="503" 
d="M86 176q0 50 30 84l264 -174q51 -34 51 -105q0 -75 -53 -124.5t-151 -49.5q-74 0 -146 38l29 104q51 -31 112 -31q58 0 58 49q0 23 -30.5 44t-66.5 36.5t-66.5 49t-30.5 79.5zM417 341q0 -53 -27 -94l-261 172q-57 37 -57 118q0 62 49 101.5t150 39.5q75 0 129 -19
l-13 -114q-50 21 -115 21q-52 0 -52 -31q0 -20 31 -38.5t67.5 -32.5t67.5 -46.5t31 -76.5zM385 196v-64l-261 172v64z" />
    <glyph glyph-name="dieresis" unicode="&#xa8;" horiz-adv-x="524" 
d="M66 572v142h156v-142h-156zM302 572v142h156v-142h-156z" />
    <glyph glyph-name="copyright" unicode="&#xa9;" horiz-adv-x="598" 
d="M543 424q0 -101 -71.5 -172.5t-172.5 -71.5t-172.5 71.5t-71.5 172.5t71.5 172.5t172.5 71.5t172.5 -71.5t71.5 -172.5zM299 496q-60 0 -60 -72q0 -41 14.5 -57.5t43.5 -16.5q42 0 85 25l24 -73q-60 -34 -108 -34q-69 0 -110.5 40t-41.5 117q0 76 42 115.5t110 39.5
q54 0 99 -21l-20 -77q-36 14 -78 14zM505 424q0 86 -60.5 146t-145.5 60t-145.5 -60t-60.5 -146t60.5 -146t145.5 -60t145.5 60t60.5 146z" />
    <glyph glyph-name="ordfeminine" unicode="&#xaa;" horiz-adv-x="463" 
d="M413 300h-106l-17 56q-46 -66 -128 -66q-48 0 -80 34t-32 94q0 58 42 87.5t116 29.5h67v11q0 20 -14 30t-52 10q-57 0 -116 -28l-35 93q80 39 177 39q178 0 178 -143v-247zM275 408v56h-49q-46 0 -46 -38q0 -20 13 -30.5t30 -10.5q16 0 29 5.5t18 11.5z" />
    <glyph glyph-name="guillemotleft" unicode="&#xab;" horiz-adv-x="549" 
d="M189 12l-160 212l162 206l97 -78l-87 -130l87 -140zM425 23l-161 201l163 195l97 -78l-87 -119l87 -128z" />
    <glyph glyph-name="registered" unicode="&#xae;" horiz-adv-x="598" 
d="M543 312q0 -101 -71.5 -172.5t-172.5 -71.5t-172.5 71.5t-71.5 172.5t71.5 172.5t172.5 71.5t172.5 -71.5t71.5 -172.5zM505 312q0 86 -60.5 146t-145.5 60t-145.5 -60t-60.5 -146t60.5 -146t145.5 -60t145.5 60t60.5 146zM423 362q0 -40 -19.5 -65t-49.5 -33l63 -102
h-85l-51 91h-14v-91h-71v305h105q51 0 86.5 -26.5t35.5 -78.5zM342 363q0 46 -55 46h-20v-94h21q54 0 54 48z" />
    <glyph glyph-name="macron" unicode="&#xaf;" horiz-adv-x="550" 
d="M483 605h-416v74h416v-74z" />
    <glyph glyph-name="degree" unicode="&#xb0;" horiz-adv-x="495" 
d="M175 495q0 -31 21 -52t52 -21t52 21t21 52t-21 52t-52 21t-52 -21t-21 -52zM55 495q0 80 56 136t137 56q80 0 136 -56t56 -136q0 -81 -56 -137t-136 -56q-81 0 -137 56t-56 137z" />
    <glyph glyph-name="plusminus" unicode="&#xb1;" horiz-adv-x="536" 
d="M442 335h-110v-109h-131v109h-107v115h107v105h131v-105h110v-115zM471 45h-406v109h406v-109z" />
    <glyph glyph-name="twosuperior" unicode="&#xb2;" 
d="M436 570q0 -63 -46.5 -111.5t-153.5 -89.5v-8q46 12 82 12h119v-115h-351v111q113 55 155 91.5t42 67.5q0 19 -16 30.5t-43 11.5q-66 0 -120 -36l-51 109q81 47 195 47q89 0 138.5 -34t49.5 -86z" />
    <glyph glyph-name="threesuperior" unicode="&#xb3;" 
d="M432 388q0 -62 -53 -101t-143 -39q-53 0 -101 15t-70 31l42 99q18 -12 54.5 -24.5t63.5 -12.5q34 0 51.5 11t17.5 28q0 20 -19 27.5t-61 7.5h-24l-8 77h21q34 0 53 11.5t19 31.5q0 31 -55 31q-61 0 -109 -29l-40 101q60 37 160 37q82 0 130.5 -30.5t48.5 -82.5
q0 -37 -22.5 -64t-56.5 -37v-2q42 -5 71.5 -27.5t29.5 -58.5z" />
    <glyph glyph-name="acute" unicode="&#xb4;" horiz-adv-x="621" 
d="M454 606l-273 -40l-14 90l269 66z" />
    <glyph glyph-name="paragraph" unicode="&#xb6;" horiz-adv-x="671" 
d="M296 -160v381q-118 0 -184.5 64t-66.5 172t76.5 163t189.5 55h305v-835h-138v702h-166q-48 0 -74 -24.5t-26 -67.5q0 -107 84 -107v132h128v-635h-128z" />
    <glyph glyph-name="periodcentered" unicode="&#xb7;" horiz-adv-x="240" 
d="M40 345v156h160v-156h-160z" />
    <glyph glyph-name="cedilla" unicode="&#xb8;" horiz-adv-x="566" 
d="M215 -59l5 13q42 7 92 7q44 0 69 -20t25 -56q0 -115 -211 -115v87q57 0 57 43q0 29 -37 41z" />
    <glyph glyph-name="onesuperior" unicode="&#xb9;" 
d="M82 369h130v58l8 86q-60 -73 -138 -73v125q113 21 167 115h101v-311h92v-111h-360v111z" />
    <glyph glyph-name="ordmasculine" unicode="&#xba;" horiz-adv-x="480" 
d="M240 690q98 0 154 -54t56 -142q0 -203 -210 -203t-210 203q0 88 56 142t154 54zM240 407q22 0 36.5 21.5t14.5 64.5q0 83 -51 83t-51 -83q0 -43 14.5 -64.5t36.5 -21.5z" />
    <glyph glyph-name="guillemotright" unicode="&#xbb;" horiz-adv-x="549" 
d="M520 224l-160 -212l-99 70l87 140l-87 130l97 78zM285 224l-161 -201l-99 71l87 128l-87 119l97 78z" />
    <glyph glyph-name="onequarter" unicode="&#xbc;" horiz-adv-x="1045" 
d="M669 713l-275 -758l-35 13l274 757zM47 352h130v58l8 86q-60 -73 -138 -73v125q113 21 167 115h101v-311h92v-111h-360v111zM997 89h-57v-89h-137v89h-210v80l90 264l94 -29v-50l-46 -156h72v224h137v-224h57v-109z" />
    <glyph glyph-name="onehalf" unicode="&#xbd;" horiz-adv-x="1041" 
d="M669 713l-275 -758h-39l274 758h40zM47 352h130v58l8 86q-60 -73 -138 -73v125q113 21 167 115h101v-311h92v-111h-360v111zM992 312q0 -63 -46.5 -111.5t-153.5 -89.5v-8q46 12 82 12h119v-115h-351v111q113 55 155 91.5t42 67.5q0 19 -16 30.5t-43 11.5q-66 0 -120 -36
l-51 109q81 47 195 47q89 0 138.5 -34t49.5 -86z" />
    <glyph glyph-name="threequarters" unicode="&#xbe;" horiz-adv-x="1051" 
d="M674 713l-275 -758l-35 13l274 757zM1003 89h-57v-89h-137v89h-210v80l90 264l94 -29v-50l-46 -156h72v224h137v-224h57v-109zM415 370q0 -62 -53 -101t-143 -39q-53 0 -101 15t-70 31l42 99q18 -12 54.5 -24.5t63.5 -12.5q34 0 51.5 11t17.5 28q0 20 -19 27.5t-61 7.5
h-24l-8 77h21q34 0 53 11.5t19 31.5q0 31 -55 31q-61 0 -109 -29l-40 101q60 37 160 37q82 0 130.5 -30.5t48.5 -82.5q0 -37 -22.5 -64t-56.5 -37v-2q42 -5 71.5 -27.5t29.5 -58.5z" />
    <glyph glyph-name="questiondown" unicode="&#xbf;" horiz-adv-x="442" 
d="M20 -21q0 42 16 78.5t38 61.5t44.5 48t38.5 48.5t16 51.5v14h143v-22q0 -43 -13 -76t-32 -53t-38 -38t-32 -40.5t-13 -49.5q0 -29 20 -47.5t56 -18.5q59 0 119 25l39 -123q-88 -38 -188 -38q-95 0 -154.5 48t-59.5 131zM322 490v-153h-155v153h155z" />
    <glyph glyph-name="Agrave" unicode="&#xc0;" horiz-adv-x="626" 
d="M439 0l-32 142h-211l-30 -142h-158l185 675h246l185 -675h-185zM287 536l-63 -268h155l-57 268h-35zM444 712l-278 14l-2 116l293 -40z" />
    <glyph glyph-name="Aacute" unicode="&#xc1;" horiz-adv-x="626" 
d="M439 0l-32 142h-211l-30 -142h-158l185 675h246l185 -675h-185zM287 536l-63 -268h155l-57 268h-35zM461 726l-278 -14l-13 90l293 40z" />
    <glyph glyph-name="Acircumflex" unicode="&#xc2;" horiz-adv-x="626" 
d="M439 0l-32 142h-211l-30 -142h-158l185 675h246l185 -675h-185zM287 536l-63 -268h155l-57 268h-35zM457 704l-144 56l-144 -56l-35 86l160 79h36l162 -79z" />
    <glyph glyph-name="Atilde" unicode="&#xc3;" horiz-adv-x="626" 
d="M439 0l-32 142h-211l-30 -142h-158l185 675h246l185 -675h-185zM287 536l-63 -268h155l-57 268h-35zM502 866q-1 -65 -38.5 -97.5t-97.5 -13.5l-101 32q-49 15 -67 -32l-74 34q1 59 45 92t104 14l92 -29q23 -7 41.5 1t25.5 29z" />
    <glyph glyph-name="Adieresis" unicode="&#xc4;" horiz-adv-x="626" 
d="M439 0l-32 142h-211l-30 -142h-158l185 675h246l185 -675h-185zM287 536l-63 -268h155l-57 268h-35zM117 722v142h156v-142h-156zM353 722v142h156v-142h-156z" />
    <glyph glyph-name="Aring" unicode="&#xc5;" horiz-adv-x="626" 
d="M439 0l-32 142h-211l-30 -142h-158l185 675h246l185 -675h-185zM287 536l-63 -268h155l-57 268h-35zM462 852q0 -62 -43.5 -104t-105.5 -42q-63 0 -106.5 42t-43.5 104t43.5 104t106.5 42q62 0 105.5 -42t43.5 -104zM366 851q0 22 -15 36.5t-37 14.5q-21 0 -36 -14.5
t-15 -36.5q0 -21 15 -35.5t36 -14.5q22 0 37 14.5t15 35.5z" />
    <glyph glyph-name="AE" unicode="&#xc6;" horiz-adv-x="845" 
d="M805 0h-436v141h-159l-45 -141h-155l236 675h559v-133h-278v-133h208l-10 -139h-198v-138h278v-132zM339 542l-89 -275h119v275h-30z" />
    <glyph glyph-name="Ccedilla" unicode="&#xc7;" horiz-adv-x="612" 
d="M581 63q-107 -73 -241 -73q-145 0 -222 89.5t-77 261.5q0 159 76 251.5t223 92.5q151 0 240 -58l-59 -127q-59 45 -162 45q-151 0 -151 -203q0 -109 37 -160t112 -51q89 0 174 61zM261 -59l5 13q42 7 92 7q44 0 69 -20t25 -56q0 -115 -211 -115v87q57 0 57 43
q0 29 -37 41z" />
    <glyph glyph-name="Egrave" unicode="&#xc8;" horiz-adv-x="541" 
d="M501 0h-436v675h436v-133h-278v-133h208l-10 -139h-198v-138h278v-132zM434 712l-278 14l-2 116l293 -40z" />
    <glyph glyph-name="Eacute" unicode="&#xc9;" horiz-adv-x="541" 
d="M501 0h-436v675h436v-133h-278v-133h208l-10 -139h-198v-138h278v-132zM421 726l-278 -14l-13 90l293 40z" />
    <glyph glyph-name="Ecircumflex" unicode="&#xca;" horiz-adv-x="541" 
d="M501 0h-436v675h436v-133h-278v-133h208l-10 -139h-198v-138h278v-132zM415 712l-144 56l-144 -56l-35 86l160 79h36l162 -79z" />
    <glyph glyph-name="Edieresis" unicode="&#xcb;" horiz-adv-x="541" 
d="M501 0h-436v675h436v-133h-278v-133h208l-10 -139h-198v-138h278v-132zM74 722v142h156v-142h-156zM310 722v142h156v-142h-156z" />
    <glyph glyph-name="Igrave" unicode="&#xcc;" horiz-adv-x="308" 
d="M233 0h-158v675h158v-675zM287 712l-278 14l-2 116l293 -40z" />
    <glyph glyph-name="Iacute" unicode="&#xcd;" horiz-adv-x="308" 
d="M233 0h-158v675h158v-675zM299 726l-278 -14l-13 90l293 40z" />
    <glyph glyph-name="Icircumflex" unicode="&#xce;" horiz-adv-x="308" 
d="M233 0h-158v675h158v-675zM298 712l-144 56l-144 -56l-35 86l160 79h36l162 -79z" />
    <glyph glyph-name="Idieresis" unicode="&#xcf;" horiz-adv-x="308" 
d="M233 0h-158v675h158v-675zM-42 722v142h156v-142h-156zM194 722v142h156v-142h-156z" />
    <glyph glyph-name="Ntilde" unicode="&#xd1;" horiz-adv-x="694" 
d="M629 0h-251l-183 527h-4l15 -527h-141v675h243l188 -540h4l-15 540h144v-675zM536 843q-1 -65 -38.5 -97.5t-97.5 -13.5l-101 32q-49 15 -67 -32l-74 34q1 59 45 92t104 14l92 -29q23 -7 41.5 1t25.5 29z" />
    <glyph glyph-name="Ograve" unicode="&#xd2;" horiz-adv-x="677" 
d="M637 343q0 -73 -14 -132.5t-46.5 -111t-93.5 -80.5t-146 -29q-297 0 -297 353q0 342 297 342q300 0 300 -342zM469 344q0 97 -29 151t-103 54q-73 0 -101.5 -54t-28.5 -151q0 -106 29 -163.5t101 -57.5t102 58t30 163zM472 712l-278 14l-2 116l293 -40z" />
    <glyph glyph-name="Oacute" unicode="&#xd3;" horiz-adv-x="677" 
d="M637 343q0 -73 -14 -132.5t-46.5 -111t-93.5 -80.5t-146 -29q-297 0 -297 353q0 342 297 342q300 0 300 -342zM469 344q0 97 -29 151t-103 54q-73 0 -101.5 -54t-28.5 -151q0 -106 29 -163.5t101 -57.5t102 58t30 163zM483 726l-278 -14l-13 90l293 40z" />
    <glyph glyph-name="Ocircumflex" unicode="&#xd4;" horiz-adv-x="677" 
d="M637 343q0 -73 -14 -132.5t-46.5 -111t-93.5 -80.5t-146 -29q-297 0 -297 353q0 342 297 342q300 0 300 -342zM469 344q0 97 -29 151t-103 54q-73 0 -101.5 -54t-28.5 -151q0 -106 29 -163.5t101 -57.5t102 58t30 163zM482 712l-144 56l-144 -56l-35 86l160 79h36
l162 -79z" />
    <glyph glyph-name="Otilde" unicode="&#xd5;" horiz-adv-x="677" 
d="M637 343q0 -73 -14 -132.5t-46.5 -111t-93.5 -80.5t-146 -29q-297 0 -297 353q0 342 297 342q300 0 300 -342zM469 344q0 97 -29 151t-103 54q-73 0 -101.5 -54t-28.5 -151q0 -106 29 -163.5t101 -57.5t102 58t30 163zM527 866q-1 -65 -38.5 -97.5t-97.5 -13.5l-101 32
q-49 15 -67 -32l-74 34q1 59 45 92t104 14l92 -29q23 -7 41.5 1t25.5 29z" />
    <glyph glyph-name="Odieresis" unicode="&#xd6;" horiz-adv-x="677" 
d="M637 343q0 -73 -14 -132.5t-46.5 -111t-93.5 -80.5t-146 -29q-297 0 -297 353q0 342 297 342q300 0 300 -342zM469 344q0 97 -29 151t-103 54q-73 0 -101.5 -54t-28.5 -151q0 -106 29 -163.5t101 -57.5t102 58t30 163zM142 722v142h156v-142h-156zM378 722v142h156v-142
h-156z" />
    <glyph glyph-name="multiply" unicode="&#xd7;" horiz-adv-x="521" 
d="M451 391l-111 -111l104 -104l-85 -86l-104 104l-104 -104l-80 79l104 104l-105 106l86 85l105 -105l111 111z" />
    <glyph glyph-name="Ugrave" unicode="&#xd9;" horiz-adv-x="666" 
d="M600 675v-417q0 -115 -67.5 -191.5t-199.5 -76.5q-133 0 -200 75.5t-67 192.5v417h158v-409q0 -65 28.5 -103.5t80.5 -38.5q51 0 79 39t28 103v409h160zM467 712l-278 14l-2 116l293 -40z" />
    <glyph glyph-name="Uacute" unicode="&#xda;" horiz-adv-x="666" 
d="M600 675v-417q0 -115 -67.5 -191.5t-199.5 -76.5q-133 0 -200 75.5t-67 192.5v417h158v-409q0 -65 28.5 -103.5t80.5 -38.5q51 0 79 39t28 103v409h160zM478 726l-278 -14l-13 90l293 40z" />
    <glyph glyph-name="Ucircumflex" unicode="&#xdb;" horiz-adv-x="666" 
d="M600 675v-417q0 -115 -67.5 -191.5t-199.5 -76.5q-133 0 -200 75.5t-67 192.5v417h158v-409q0 -65 28.5 -103.5t80.5 -38.5q51 0 79 39t28 103v409h160zM477 712l-144 56l-144 -56l-35 86l160 79h36l162 -79z" />
    <glyph glyph-name="Udieresis" unicode="&#xdc;" horiz-adv-x="666" 
d="M600 675v-417q0 -115 -67.5 -191.5t-199.5 -76.5q-133 0 -200 75.5t-67 192.5v417h158v-409q0 -65 28.5 -103.5t80.5 -38.5q51 0 79 39t28 103v409h160zM137 722v142h156v-142h-156zM373 722v142h156v-142h-156z" />
    <glyph glyph-name="Yacute" unicode="&#xdd;" horiz-adv-x="614" 
d="M609 675l-234 -448v-227h-159v228l-211 447h202l106 -292h5l118 292h173zM452 726l-278 -14l-13 90l293 40z" />
    <glyph glyph-name="germandbls" unicode="&#xdf;" horiz-adv-x="605" 
d="M543 530q0 -39 -17 -67.5t-38 -42t-38 -31t-17 -36.5q0 -17 16 -29.5t39.5 -23.5t46.5 -26t39 -45.5t16 -73.5q0 -73 -54 -119t-151 -46q-48 0 -106 29v113q18 -11 51 -21t51 -10q58 0 58 43q0 22 -16 37.5t-38.5 27.5t-45 27t-38.5 45t-16 72q0 33 18.5 59.5t40 39.5
t40 32t18.5 39q0 30 -20 48t-60 18q-80 0 -80 -81v-508h-158v378h-69v112h69v30q0 85 61.5 136t183.5 51q107 0 160.5 -48.5t53.5 -128.5z" />
    <glyph glyph-name="agrave" unicode="&#xe0;" horiz-adv-x="515" 
d="M470 0h-108l-20 56q-19 -28 -55.5 -47t-83.5 -19q-74 0 -121 44t-47 117q0 70 50 108.5t141 38.5h91v18q0 64 -74 64q-75 0 -146 -32l-39 112q94 40 200 40q111 0 161.5 -48t50.5 -147v-305zM317 116v91h-63q-64 0 -64 -52q0 -59 59 -59q33 0 68 20zM387 566l-273 40
l18 116l269 -66z" />
    <glyph glyph-name="aacute" unicode="&#xe1;" horiz-adv-x="515" 
d="M470 0h-108l-20 56q-19 -28 -55.5 -47t-83.5 -19q-74 0 -121 44t-47 117q0 70 50 108.5t141 38.5h91v18q0 64 -74 64q-75 0 -146 -32l-39 112q94 40 200 40q111 0 161.5 -48t50.5 -147v-305zM317 116v91h-63q-64 0 -64 -52q0 -59 59 -59q33 0 68 20zM401 606l-273 -40
l-14 90l269 66z" />
    <glyph glyph-name="acircumflex" unicode="&#xe2;" horiz-adv-x="515" 
d="M470 0h-108l-20 56q-19 -28 -55.5 -47t-83.5 -19q-74 0 -121 44t-47 117q0 70 50 108.5t141 38.5h91v18q0 64 -74 64q-75 0 -146 -32l-39 112q94 40 200 40q111 0 161.5 -48t50.5 -147v-305zM317 116v91h-63q-64 0 -64 -52q0 -59 59 -59q33 0 68 20zM402 557l-144 56
l-144 -56l-35 86l160 79h36l162 -79z" />
    <glyph glyph-name="atilde" unicode="&#xe3;" horiz-adv-x="515" 
d="M470 0h-108l-20 56q-19 -28 -55.5 -47t-83.5 -19q-74 0 -121 44t-47 117q0 70 50 108.5t141 38.5h91v18q0 64 -74 64q-75 0 -146 -32l-39 112q94 40 200 40q111 0 161.5 -48t50.5 -147v-305zM317 116v91h-63q-64 0 -64 -52q0 -59 59 -59q33 0 68 20zM447 676
q-1 -65 -38.5 -97.5t-97.5 -13.5l-101 32q-49 15 -67 -32l-74 34q1 59 45 92t104 14l92 -29q23 -7 41.5 1t25.5 29z" />
    <glyph glyph-name="adieresis" unicode="&#xe4;" horiz-adv-x="515" 
d="M470 0h-108l-20 56q-19 -28 -55.5 -47t-83.5 -19q-74 0 -121 44t-47 117q0 70 50 108.5t141 38.5h91v18q0 64 -74 64q-75 0 -146 -32l-39 112q94 40 200 40q111 0 161.5 -48t50.5 -147v-305zM317 116v91h-63q-64 0 -64 -52q0 -59 59 -59q33 0 68 20zM62 572v142h156v-142
h-156zM298 572v142h156v-142h-156z" />
    <glyph glyph-name="aring" unicode="&#xe5;" horiz-adv-x="515" 
d="M470 0h-108l-20 56q-19 -28 -55.5 -47t-83.5 -19q-74 0 -121 44t-47 117q0 70 50 108.5t141 38.5h91v18q0 64 -74 64q-75 0 -146 -32l-39 112q94 40 200 40q111 0 161.5 -48t50.5 -147v-305zM317 116v91h-63q-64 0 -64 -52q0 -59 59 -59q33 0 68 20zM408 662
q0 -62 -43.5 -104t-105.5 -42q-63 0 -106.5 42t-43.5 104t43.5 104t106.5 42q62 0 105.5 -42t43.5 -104zM312 661q0 22 -15 36.5t-37 14.5q-21 0 -36 -14.5t-15 -36.5q0 -21 15 -35.5t36 -14.5q22 0 37 14.5t15 35.5z" />
    <glyph glyph-name="ae" unicode="&#xe6;" horiz-adv-x="796" 
d="M761 205h-291q0 -44 28.5 -69.5t83.5 -25.5q53 0 138 37l28 -110q-92 -47 -187 -47q-121 0 -183 81h-5q-62 -81 -170 -81q-77 0 -122.5 43.5t-45.5 117.5q0 70 50.5 106.5t140.5 36.5h91v22q0 64 -69 64q-78 0 -153 -34l-40 112q95 42 202 42q96 0 149 -48q62 48 142 48
q108 0 160.5 -65.5t52.5 -166.5v-63zM317 121v84h-63q-64 0 -64 -50q0 -59 59 -59q38 0 68 25zM611 294q0 91 -69 91q-36 0 -54 -26.5t-18 -64.5h141z" />
    <glyph glyph-name="ccedilla" unicode="&#xe7;" horiz-adv-x="485" 
d="M460 460l-40 -106q-50 28 -117 28q-96 0 -96 -136q0 -72 24 -104t73 -32q64 0 128 35l28 -112q-80 -43 -171 -43q-118 0 -181 65.5t-63 190.5q0 119 63.5 186.5t179.5 67.5q99 0 172 -40zM210 -59l5 13q42 7 92 7q44 0 69 -20t25 -56q0 -115 -211 -115v87q57 0 57 43
q0 29 -37 41z" />
    <glyph glyph-name="egrave" unicode="&#xe8;" horiz-adv-x="521" 
d="M486 203h-291q0 -43 28.5 -68t83.5 -25q56 0 138 36l28 -110q-90 -46 -190 -46q-117 0 -182.5 68t-65.5 188q0 117 58.5 185.5t178.5 68.5q108 0 161 -65.5t53 -166.5v-65zM336 293q0 92 -69 92q-36 0 -54 -27t-18 -65h141zM395 566l-273 40l18 116l269 -66z" />
    <glyph glyph-name="eacute" unicode="&#xe9;" horiz-adv-x="521" 
d="M486 203h-291q0 -43 28.5 -68t83.5 -25q56 0 138 36l28 -110q-90 -46 -190 -46q-117 0 -182.5 68t-65.5 188q0 117 58.5 185.5t178.5 68.5q108 0 161 -65.5t53 -166.5v-65zM336 293q0 92 -69 92q-36 0 -54 -27t-18 -65h141zM407 606l-273 -40l-14 90l269 66z" />
    <glyph glyph-name="ecircumflex" unicode="&#xea;" horiz-adv-x="521" 
d="M486 203h-291q0 -43 28.5 -68t83.5 -25q56 0 138 36l28 -110q-90 -46 -190 -46q-117 0 -182.5 68t-65.5 188q0 117 58.5 185.5t178.5 68.5q108 0 161 -65.5t53 -166.5v-65zM336 293q0 92 -69 92q-36 0 -54 -27t-18 -65h141zM413 557l-144 56l-144 -56l-35 86l160 79h36
l162 -79z" />
    <glyph glyph-name="edieresis" unicode="&#xeb;" horiz-adv-x="521" 
d="M486 203h-291q0 -43 28.5 -68t83.5 -25q56 0 138 36l28 -110q-90 -46 -190 -46q-117 0 -182.5 68t-65.5 188q0 117 58.5 185.5t178.5 68.5q108 0 161 -65.5t53 -166.5v-65zM336 293q0 92 -69 92q-36 0 -54 -27t-18 -65h141zM69 572v142h156v-142h-156zM305 572v142h156
v-142h-156z" />
    <glyph glyph-name="igrave" unicode="&#xec;" horiz-adv-x="314" 
d="M254 0h-157v378l-58 13v99h215v-490zM287 566l-273 40l18 116l269 -66z" />
    <glyph glyph-name="iacute" unicode="&#xed;" horiz-adv-x="315" 
d="M255 0h-157v378l-58 13v99h215v-490zM342 606l-273 -40l-14 90l269 66z" />
    <glyph glyph-name="icircumflex" unicode="&#xee;" horiz-adv-x="314" 
d="M254 0h-157v378l-58 13v99h215v-490zM301 557l-144 56l-144 -56l-35 86l160 79h36l162 -79z" />
    <glyph glyph-name="idieresis" unicode="&#xef;" horiz-adv-x="314" 
d="M254 0h-157v378l-58 13v99h215v-490zM-39 572v142h156v-142h-156zM197 572v142h156v-142h-156z" />
    <glyph glyph-name="ntilde" unicode="&#xf1;" horiz-adv-x="563" 
d="M518 0h-160v289q0 91 -76 91q-33 0 -69 -17v-363h-158v490h109l22 -55q52 65 156 65q93 0 134.5 -51t41.5 -149v-300zM475 676q-1 -65 -38.5 -97.5t-97.5 -13.5l-101 32q-49 15 -67 -32l-74 34q1 59 45 92t104 14l92 -29q23 -7 41.5 1t25.5 29z" />
    <glyph glyph-name="ograve" unicode="&#xf2;" horiz-adv-x="550" 
d="M275 500q112 0 176 -71.5t64 -182.5q0 -125 -62 -190.5t-178 -65.5t-178 65.5t-62 190.5q0 111 64 182.5t176 71.5zM275 106q39 0 58 31t19 109q0 80 -19.5 110t-57.5 30t-57.5 -30t-19.5 -110q0 -78 19 -109t58 -31zM405 566l-273 40l18 116l269 -66z" />
    <glyph glyph-name="oacute" unicode="&#xf3;" horiz-adv-x="550" 
d="M275 500q112 0 176 -71.5t64 -182.5q0 -125 -62 -190.5t-178 -65.5t-178 65.5t-62 190.5q0 111 64 182.5t176 71.5zM275 106q39 0 58 31t19 109q0 80 -19.5 110t-57.5 30t-57.5 -30t-19.5 -110q0 -78 19 -109t58 -31zM419 606l-273 -40l-14 90l269 66z" />
    <glyph glyph-name="ocircumflex" unicode="&#xf4;" horiz-adv-x="550" 
d="M275 500q112 0 176 -71.5t64 -182.5q0 -125 -62 -190.5t-178 -65.5t-178 65.5t-62 190.5q0 111 64 182.5t176 71.5zM275 106q39 0 58 31t19 109q0 80 -19.5 110t-57.5 30t-57.5 -30t-19.5 -110q0 -78 19 -109t58 -31zM419 557l-144 56l-144 -56l-35 86l160 79h36l162 -79
z" />
    <glyph glyph-name="otilde" unicode="&#xf5;" horiz-adv-x="550" 
d="M275 500q112 0 176 -71.5t64 -182.5q0 -125 -62 -190.5t-178 -65.5t-178 65.5t-62 190.5q0 111 64 182.5t176 71.5zM275 106q39 0 58 31t19 109q0 80 -19.5 110t-57.5 30t-57.5 -30t-19.5 -110q0 -78 19 -109t58 -31zM464 676q-1 -65 -38.5 -97.5t-97.5 -13.5l-101 32
q-49 15 -67 -32l-74 34q1 59 45 92t104 14l92 -29q23 -7 41.5 1t25.5 29z" />
    <glyph glyph-name="odieresis" unicode="&#xf6;" horiz-adv-x="550" 
d="M275 500q112 0 176 -71.5t64 -182.5q0 -125 -62 -190.5t-178 -65.5t-178 65.5t-62 190.5q0 111 64 182.5t176 71.5zM275 106q39 0 58 31t19 109q0 80 -19.5 110t-57.5 30t-57.5 -30t-19.5 -110q0 -78 19 -109t58 -31zM79 572v142h156v-142h-156zM315 572v142h156v-142
h-156z" />
    <glyph glyph-name="divide" unicode="&#xf7;" horiz-adv-x="485" 
d="M169 18v146h146v-146h-146zM169 387v146h146v-146h-146zM425 222h-365v108h365v-108z" />
    <glyph glyph-name="ugrave" unicode="&#xf9;" horiz-adv-x="553" 
d="M508 0h-102l-25 62q-20 -29 -59.5 -50.5t-93.5 -21.5q-95 0 -139 51t-44 154v295h158v-299q0 -44 18 -62.5t56 -18.5q36 0 71 19v361h160v-490zM406 566l-273 40l18 116l269 -66z" />
    <glyph glyph-name="uacute" unicode="&#xfa;" horiz-adv-x="553" 
d="M508 0h-102l-25 62q-20 -29 -59.5 -50.5t-93.5 -21.5q-95 0 -139 51t-44 154v295h158v-299q0 -44 18 -62.5t56 -18.5q36 0 71 19v361h160v-490zM420 606l-273 -40l-14 90l269 66z" />
    <glyph glyph-name="ucircumflex" unicode="&#xfb;" horiz-adv-x="553" 
d="M508 0h-102l-25 62q-20 -29 -59.5 -50.5t-93.5 -21.5q-95 0 -139 51t-44 154v295h158v-299q0 -44 18 -62.5t56 -18.5q36 0 71 19v361h160v-490zM420 557l-144 56l-144 -56l-35 86l160 79h36l162 -79z" />
    <glyph glyph-name="udieresis" unicode="&#xfc;" horiz-adv-x="553" 
d="M508 0h-102l-25 62q-20 -29 -59.5 -50.5t-93.5 -21.5q-95 0 -139 51t-44 154v295h158v-299q0 -44 18 -62.5t56 -18.5q36 0 71 19v361h160v-490zM85 572v142h156v-142h-156zM321 572v142h156v-142h-156z" />
    <glyph glyph-name="yacute" unicode="&#xfd;" horiz-adv-x="544" 
d="M266 4l2 11l-104 -21l-147 496h178l89 -393h3l91 393h156l-150 -510q-58 -186 -223 -186q-43 0 -86 17.5t-65 35.5l49 108h15q44 -37 94 -37q36 0 62.5 24t35.5 62zM416 606l-273 -40l-14 90l269 66z" />
    <glyph glyph-name="ydieresis" unicode="&#xff;" horiz-adv-x="544" 
d="M266 4l2 11l-104 -21l-147 496h178l89 -393h3l91 393h156l-150 -510q-58 -186 -223 -186q-43 0 -86 17.5t-65 35.5l49 108h15q44 -37 94 -37q36 0 62.5 24t35.5 62zM76 572v142h156v-142h-156zM312 572v142h156v-142h-156z" />
    <glyph glyph-name="dotlessi" unicode="&#x131;" horiz-adv-x="310" 
d="M255 0h-157v378l-58 13v99h215v-490z" />
    <glyph glyph-name="OE" unicode="&#x152;" horiz-adv-x="947" 
d="M907 0h-436l3 36q-53 -46 -137 -46q-297 0 -297 353q0 342 297 342q85 0 137 -45l-3 35h436v-133h-278v-133h208l-10 -139h-198v-138h278v-132zM469 344q0 97 -29 151t-103 54q-73 0 -101.5 -54t-28.5 -151q0 -106 29 -163.5t101 -57.5t102 58t30 163z" />
    <glyph glyph-name="oe" unicode="&#x153;" horiz-adv-x="839" 
d="M804 203h-291q0 -43 28.5 -68t83.5 -25q53 0 138 37l28 -110q-92 -47 -187 -47q-91 0 -167 60q-35 -29 -71.5 -44.5t-90.5 -15.5q-116 0 -178 65.5t-62 190.5q0 111 64 182.5t176 71.5q82 0 155 -62q71 62 161 62q108 0 160.5 -65.5t52.5 -166.5v-65zM275 106q39 0 58 31
t19 109q0 80 -19.5 110t-57.5 30t-57.5 -30t-19.5 -110q0 -78 19 -109t58 -31zM654 293q0 92 -69 92q-36 0 -54 -27t-18 -65h141z" />
    <glyph glyph-name="Scaron" unicode="&#x160;" horiz-adv-x="562" 
d="M511 640l-53 -127q-65 35 -155 35q-86 0 -86 -53q0 -28 31.5 -47t76.5 -34.5t89.5 -36.5t76 -65t31.5 -108q0 -87 -70 -150.5t-185 -63.5q-127 0 -227 74l59 120q30 -26 77.5 -43.5t91.5 -17.5q41 0 65 19.5t24 50.5q0 29 -22.5 49t-56 30t-73 26t-73 36t-56 61t-22.5 98
q0 84 65.5 138t185.5 54q116 0 206 -45zM147 885l144 -56l144 56l35 -86l-160 -79h-36l-162 79z" />
    <glyph glyph-name="scaron" unicode="&#x161;" horiz-adv-x="435" 
d="M382 481l-18 -115q-52 22 -114 22q-54 0 -54 -31q0 -17 20.5 -29.5t49 -24t57.5 -27.5t49.5 -47t20.5 -74q0 -74 -53 -119.5t-152 -45.5q-84 0 -146 33l29 109q51 -31 112 -31q27 0 43 10.5t16 29.5t-20 33.5t-48.5 27t-57 29t-48.5 49.5t-20 79q0 62 49.5 101.5
t150.5 39.5q75 0 134 -19zM74 725l144 -56l144 56l35 -86l-160 -79h-36l-162 79z" />
    <glyph glyph-name="Ydieresis" unicode="&#x178;" horiz-adv-x="614" 
d="M609 675l-234 -448v-227h-159v228l-211 447h202l106 -292h5l118 292h173zM111 722v142h156v-142h-156zM347 722v142h156v-142h-156z" />
    <glyph glyph-name="Zcaron" unicode="&#x17d;" horiz-adv-x="614" 
d="M554 543l-307 -411h308v-132h-496v124l304 418h-302v133h493v-132zM173 875l144 -56l144 56l35 -86l-160 -79h-36l-162 79z" />
    <glyph glyph-name="zcaron" unicode="&#x17e;" horiz-adv-x="489" 
d="M448 393l-200 -278h201v-115h-407v90l215 287h-217v113h408v-97zM101 725l144 -56l144 56l35 -86l-160 -79h-36l-162 79z" />
    <glyph glyph-name="florin" unicode="&#x192;" horiz-adv-x="354" 
d="M85 168v220h-70v112h73v16q0 174 208 174q37 0 82 -9l-17 -120q-27 8 -61 8q-26 0 -42 -17t-16 -46v-6h106l-8 -112h-98v-209q0 -105 -42.5 -147t-121.5 -42q-53 0 -96 15l18 126q20 -8 42 -8q20 0 31.5 12.5t11.5 32.5z" />
    <glyph glyph-name="circumflex" unicode="&#x2c6;" horiz-adv-x="558" 
d="M423 557l-144 56l-144 -56l-35 86l160 79h36l162 -79z" />
    <glyph glyph-name="caron" unicode="&#x2c7;" horiz-adv-x="550" 
d="M135 725l144 -56l144 56l35 -86l-160 -79h-36l-162 79z" />
    <glyph glyph-name="ring" unicode="&#x2da;" horiz-adv-x="499" 
d="M399 662q0 -62 -43.5 -104t-105.5 -42q-63 0 -106.5 42t-43.5 104t43.5 104t106.5 42q62 0 105.5 -42t43.5 -104zM303 661q0 22 -15 36.5t-37 14.5q-21 0 -36 -14.5t-15 -36.5q0 -21 15 -35.5t36 -14.5q22 0 37 14.5t15 35.5z" />
    <glyph glyph-name="tilde" unicode="&#x2dc;" horiz-adv-x="580" 
d="M479 676q-1 -65 -38.5 -97.5t-97.5 -13.5l-101 32q-49 15 -67 -32l-74 34q1 59 45 92t104 14l92 -29q23 -7 41.5 1t25.5 29z" />
    <glyph glyph-name="endash" unicode="&#x2013;" horiz-adv-x="505" 
d="M435 227h-365v108h365v-108z" />
    <glyph glyph-name="emdash" unicode="&#x2014;" horiz-adv-x="705" 
d="M640 227h-575v108h575v-108z" />
    <glyph glyph-name="quoteleft" unicode="&#x2018;" horiz-adv-x="282" 
d="M132 690l120 -29q-60 -125 -63 -279h-159q9 171 102 308z" />
    <glyph glyph-name="quoteright" unicode="&#x2019;" horiz-adv-x="282" 
d="M150 382l-120 29q60 125 63 279h159q-9 -171 -102 -308z" />
    <glyph glyph-name="quotesinglbase" unicode="&#x201a;" horiz-adv-x="282" 
d="M150 -204l-120 29q60 125 63 279h159q-9 -171 -102 -308z" />
    <glyph glyph-name="quotedblleft" unicode="&#x201c;" horiz-adv-x="472" 
d="M151 690l120 -29q-75 -144 -77 -279h-159q8 147 116 308zM318 678l119 -29q-46 -102 -49 -267h-159q6 145 89 296z" />
    <glyph glyph-name="quotedblright" unicode="&#x201d;" horiz-adv-x="472" 
d="M321 382l-120 29q75 144 77 279h159q-8 -147 -116 -308zM154 394l-119 29q46 102 49 267h159q-6 -145 -89 -296z" />
    <glyph glyph-name="quotedblbase" unicode="&#x201e;" horiz-adv-x="472" 
d="M321 -189l-120 29q75 144 77 279h159q-8 -147 -116 -308zM154 -177l-119 29q46 102 49 267h159q-6 -145 -89 -296z" />
    <glyph glyph-name="dagger" unicode="&#x2020;" horiz-adv-x="511" 
d="M446 231h-140v-139h-110v139h-131v102h131v133h110v-133h140v-102z" />
    <glyph glyph-name="daggerdbl" unicode="&#x2021;" horiz-adv-x="400" 
d="M350 -168l-300 -1v899h300v-898z" />
    <glyph glyph-name="bullet" unicode="&#x2022;" horiz-adv-x="334" 
d="M249 184h-165q-26 135 0 249h165q28 -111 0 -249z" />
    <glyph glyph-name="ellipsis" unicode="&#x2026;" horiz-adv-x="750" 
d="M45 0v156h160v-156h-160zM295 0v156h160v-156h-160zM545 0v156h160v-156h-160z" />
    <glyph glyph-name="perthousand" unicode="&#x2030;" horiz-adv-x="1229" 
d="M574 211q0 113 49 171t141 58q33 0 66.5 -13t49.5 -30q16 17 49 30t66 13q93 0 143.5 -58t50.5 -171q0 -221 -194 -221q-33 0 -66 12t-49 28q-16 -16 -49.5 -28t-66.5 -12q-190 0 -190 221zM40 460q0 113 49 171t141 58q93 0 143.5 -58t50.5 -171q0 -221 -194 -221
q-190 0 -190 221zM643 713l-244 -758h-46l244 758h46zM193 460q0 -66 8.5 -94t28.5 -28q24 0 32.5 27.5t8.5 94.5q0 75 -8.5 102.5t-32.5 27.5q-21 0 -29 -28t-8 -102zM958 211q0 -66 8.5 -94t28.5 -28q24 0 32.5 27.5t8.5 94.5q0 75 -8.5 102.5t-32.5 27.5
q-20 0 -28.5 -28.5t-8.5 -101.5zM727 211q0 -66 8.5 -94t28.5 -28q24 0 32.5 27.5t8.5 94.5q-1 74 -10 102t-31 28q-21 0 -29 -28t-8 -102z" />
    <glyph glyph-name="guilsinglleft" unicode="&#x2039;" horiz-adv-x="311" 
d="M286 76l-98 -63l-163 210l163 204l98 -71l-89 -135z" />
    <glyph glyph-name="guilsinglright" unicode="&#x203a;" horiz-adv-x="311" 
d="M286 223l-163 -210l-98 63l89 145l-89 135l98 71z" />
    <glyph glyph-name="fraction" unicode="&#x2044;" horiz-adv-x="300" 
d="M295 713l-244 -758h-46l244 758h46z" />
    <glyph glyph-name="zerosuperior" unicode="&#x2070;" 
d="M40 465q0 225 203 225q106 0 156.5 -56t50.5 -169q0 -217 -207 -217q-105 0 -154 52.5t-49 164.5zM193 465q0 -63 9 -86.5t41 -23.5q36 0 45 23t9 87q0 69 -10 93.5t-44 24.5q-33 0 -41.5 -23.5t-8.5 -94.5z" />
    <glyph glyph-name="foursuperior" unicode="&#x2074;" 
d="M442 347h-57v-89h-137v89h-210v80l90 264l94 -29v-50l-46 -156h72v224h137v-224h57v-109z" />
    <glyph glyph-name="fivesuperior" unicode="&#x2075;" 
d="M167 418l-102 33v230h350l-11 -107h-202v-21q0 -38 -12 -61q47 51 137 51q50 0 82 -31t32 -85q0 -86 -54 -132t-139 -46q-99 0 -195 48l36 108q22 -14 67.5 -27.5t73.5 -13.5q58 0 58 48q0 19 -13 29.5t-36 10.5q-41 0 -72 -34z" />
    <glyph glyph-name="sixsuperior" unicode="&#x2076;" 
d="M307 590q-49 0 -78.5 -23.5t-35.5 -63.5q39 51 114 51q63 0 100.5 -35.5t37.5 -91.5q0 -81 -54 -130t-154 -49q-84 0 -138.5 57.5t-54.5 175.5q0 94 66.5 151.5t168.5 57.5q79 0 145 -17l-24 -101q-48 18 -93 18zM246 468q-38 0 -52 -36q4 -47 16.5 -64.5t33.5 -17.5
q47 0 47 58q0 60 -45 60z" />
    <glyph glyph-name="sevensuperior" unicode="&#x2077;" 
d="M428 562l-181 -304h-165l193 305h-213v117h366v-118z" />
    <glyph glyph-name="eightsuperior" unicode="&#x2078;" 
d="M245 248q-80 0 -130 33t-50 102q0 57 72 92q-67 39 -67 103q0 53 47.5 82.5t127.5 29.5t127 -29.5t47 -82.5q0 -56 -66 -95q72 -39 72 -100q0 -70 -49.5 -102.5t-130.5 -32.5zM245 334q55 0 55 40q0 29 -60 55q-50 -26 -50 -55q0 -40 55 -40zM196 569q0 -22 60 -44
q37 20 37 44q0 15 -12 25.5t-36 10.5q-49 0 -49 -36z" />
    <glyph glyph-name="ninesuperior" unicode="&#x2079;" 
d="M205 351q79 0 92 82q-36 -49 -97 -49q-74 0 -115.5 39t-41.5 109q0 72 54.5 115t147.5 43q202 0 202 -218q0 -96 -61.5 -160t-153.5 -64t-167 21l25 103q52 -21 115 -21zM244 469q17 0 32 9.5t21 26.5q-4 48 -17 65.5t-35 17.5q-48 0 -48 -58q0 -61 47 -61z" />
    <glyph glyph-name="zeroinferior" unicode="&#x2080;" 
d="M40 206q0 225 203 225q106 0 156.5 -56t50.5 -169q0 -217 -207 -217q-105 0 -154 52.5t-49 164.5zM193 206q0 -63 9 -86.5t41 -23.5q36 0 45 23t9 87q0 69 -10 93.5t-44 24.5q-33 0 -41.5 -23.5t-8.5 -94.5z" />
    <glyph glyph-name="oneinferior" unicode="&#x2081;" 
d="M82 111h130v58l8 86q-60 -73 -138 -73v125q113 21 167 115h101v-311h92v-111h-360v111z" />
    <glyph glyph-name="twoinferior" unicode="&#x2082;" 
d="M436 312q0 -63 -46.5 -111.5t-153.5 -89.5v-8q46 12 82 12h119v-115h-351v111q113 55 155 91.5t42 67.5q0 19 -16 30.5t-43 11.5q-66 0 -120 -36l-51 109q81 47 195 47q89 0 138.5 -34t49.5 -86z" />
    <glyph glyph-name="threeinferior" unicode="&#x2083;" 
d="M429 130q0 -62 -53 -101t-143 -39q-53 0 -101 15t-70 31l42 99q18 -12 54.5 -24.5t63.5 -12.5q34 0 51.5 11t17.5 28q0 20 -19 27.5t-61 7.5h-24l-8 77h21q34 0 53 11.5t19 31.5q0 31 -55 31q-61 0 -109 -29l-40 101q60 37 160 37q82 0 130.5 -30.5t48.5 -82.5
q0 -37 -22.5 -64t-56.5 -37v-2q42 -5 71.5 -27.5t29.5 -58.5z" />
    <glyph glyph-name="fourinferior" unicode="&#x2084;" 
d="M442 89h-57v-89h-137v89h-210v80l90 264l94 -29v-50l-46 -156h72v224h137v-224h57v-109z" />
    <glyph glyph-name="fiveinferior" unicode="&#x2085;" 
d="M167 159l-102 33v230h350l-11 -107h-202v-21q0 -38 -12 -61q47 51 137 51q50 0 82 -31t32 -85q0 -86 -54 -132t-139 -46q-99 0 -195 48l36 108q22 -14 67.5 -27.5t73.5 -13.5q58 0 58 48q0 19 -13 29.5t-36 10.5q-41 0 -72 -34z" />
    <glyph glyph-name="sixinferior" unicode="&#x2086;" 
d="M307 332q-49 0 -78.5 -23.5t-35.5 -63.5q39 51 114 51q63 0 100.5 -35.5t37.5 -91.5q0 -81 -54 -130t-154 -49q-84 0 -138.5 57.5t-54.5 175.5q0 94 66.5 151.5t168.5 57.5q79 0 145 -17l-24 -101q-48 18 -93 18zM246 210q-38 0 -52 -36q4 -47 16.5 -64.5t33.5 -17.5
q47 0 47 58q0 60 -45 60z" />
    <glyph glyph-name="seveninferior" unicode="&#x2087;" 
d="M428 304l-181 -304h-165l193 305h-213v117h366v-118z" />
    <glyph glyph-name="eightinferior" unicode="&#x2088;" 
d="M245 -10q-80 0 -130 33t-50 102q0 57 72 92q-67 39 -67 103q0 53 47.5 82.5t127.5 29.5t127 -29.5t47 -82.5q0 -56 -66 -95q72 -39 72 -100q0 -70 -49.5 -102.5t-130.5 -32.5zM245 76q55 0 55 40q0 29 -60 55q-50 -26 -50 -55q0 -40 55 -40zM196 311q0 -22 60 -44
q37 20 37 44q0 15 -12 25.5t-36 10.5q-49 0 -49 -36z" />
    <glyph glyph-name="nineinferior" unicode="&#x2089;" 
d="M205 93q79 0 92 82q-36 -49 -97 -49q-74 0 -115.5 39t-41.5 109q0 72 54.5 115t147.5 43q202 0 202 -218q0 -96 -61.5 -160t-153.5 -64t-167 21l25 103q52 -21 115 -21zM244 211q17 0 32 9.5t21 26.5q-4 48 -17 65.5t-35 17.5q-48 0 -48 -58q0 -61 47 -61z" />
    <glyph glyph-name="Euro" unicode="&#x20ac;" horiz-adv-x="500" 
d="M469 564l-29 -111q-48 27 -118 27q-62 0 -80 -55h100l-9 -71h-100v-16v-17h96l-8 -72h-79q9 -32 27.5 -44.5t52.5 -12.5q60 0 120 33l28 -111q-78 -42 -165 -42q-92 0 -149 45.5t-76 131.5h-60v72h51v17v16h-51v71h60q20 81 77.5 126.5t147.5 45.5q95 0 164 -33z" />
    <glyph glyph-name="trademark" unicode="&#x2122;" horiz-adv-x="828" 
d="M550 262l47 -208l-183 109l-183 -109l46 208l-159 140l211 20l85 195l84 -195l212 -20z" />
    <glyph glyph-name="Omega" unicode="&#x2126;" horiz-adv-x="801" 
d="M398 661q88 0 155 -25t106 -68t58 -94t19 -108q0 -90 -42.5 -148t-136.5 -112l2 -4q41 20 89 23l82 5v-130h-302v95l42 37q81 72 81 207q0 193 -153 193q-77 0 -115 -51t-38 -142q0 -67 23 -121.5t58 -85.5l42 -37v-95h-303v130l83 -5q48 -3 89 -23l2 4q-91 52 -130 110
t-39 150q0 57 19.5 108t57.5 94t103 68t148 25z" />
    <glyph glyph-name="onethird" unicode="&#x2153;" horiz-adv-x="1000" 
d="M47 352h130v58l8 86q-60 -73 -138 -73v125q113 21 167 115h101v-311h92v-111h-360v111zM952 130q0 -62 -53 -101t-143 -39q-53 0 -101 15t-70 31l42 99q18 -12 54.5 -24.5t63.5 -12.5q34 0 51.5 11t17.5 28q0 20 -19 27.5t-61 7.5h-24l-8 77h21q34 0 53 11.5t19 31.5
q0 31 -55 31q-61 0 -109 -29l-40 101q60 37 160 37q82 0 130.5 -30.5t48.5 -82.5q0 -37 -22.5 -64t-56.5 -37v-2q42 -5 71.5 -27.5t29.5 -58.5zM648 713l-244 -758h-46l244 758h46z" />
    <glyph glyph-name="twothirds" unicode="&#x2154;" horiz-adv-x="1066" 
d="M1018 130q0 -62 -53 -101t-143 -39q-53 0 -101 15t-70 31l42 99q18 -12 54.5 -24.5t63.5 -12.5q34 0 51.5 11t17.5 28q0 20 -19 27.5t-61 7.5h-24l-8 77h21q34 0 53 11.5t19 31.5q0 31 -55 31q-61 0 -109 -29l-40 101q60 37 160 37q82 0 130.5 -30.5t48.5 -82.5
q0 -37 -22.5 -64t-56.5 -37v-2q42 -5 71.5 -27.5t29.5 -58.5zM431 552q0 -63 -46.5 -111.5t-153.5 -89.5v-8q46 12 82 12h119v-115h-351v111q113 55 155 91.5t42 67.5q0 19 -16 30.5t-43 11.5q-66 0 -120 -36l-51 109q81 47 195 47q89 0 138.5 -34t49.5 -86zM695 713
l-244 -758h-46l244 758h46z" />
    <glyph glyph-name="oneeighth" unicode="&#x215b;" horiz-adv-x="977" 
d="M47 352h130v58l8 86q-60 -73 -138 -73v125q113 21 167 115h101v-311h92v-111h-360v111zM754 -10q-80 0 -130 33t-50 102q0 57 72 92q-67 39 -67 103q0 53 47.5 82.5t127.5 29.5t127 -29.5t47 -82.5q0 -56 -66 -95q72 -39 72 -100q0 -70 -49.5 -102.5t-130.5 -32.5z
M754 76q55 0 55 40q0 29 -60 55q-50 -26 -50 -55q0 -40 55 -40zM705 311q0 -22 60 -44q37 20 37 44q0 15 -12 25.5t-36 10.5q-49 0 -49 -36zM647 713l-244 -758h-46l244 758h46z" />
    <glyph glyph-name="threeeighths" unicode="&#x215c;" horiz-adv-x="300" 
d="M295 713l-244 -758h-46l244 758h46z" />
    <glyph glyph-name="fiveeighths" unicode="&#x215d;" horiz-adv-x="300" 
d="M295 713l-244 -758h-46l244 758h46z" />
    <glyph glyph-name="seveneighths" unicode="&#x215e;" horiz-adv-x="300" 
d="M295 713l-244 -758h-46l244 758h46z" />
    <glyph glyph-name="minus" unicode="&#x2212;" horiz-adv-x="505" 
d="M435 222h-365v108h365v-108z" />
    <glyph glyph-name="infinity" unicode="&#x221e;" horiz-adv-x="965" 
d="M890 265q0 -91 -49.5 -151.5t-143.5 -60.5q-60 0 -110 33.5t-101 92.5q-51 -59 -103 -93t-115 -34q-87 1 -140 62.5t-53 151.5t53 151t140 61q63 0 114.5 -34t103.5 -94q50 59 100.5 93t110.5 34q94 0 143.5 -60.5t49.5 -151.5zM286 175q53 0 129 90q-77 90 -129 90
q-76 0 -76 -89q0 -90 76 -91zM755 265q0 37 -18.5 63t-57.5 26q-50 0 -123 -89q73 -89 123 -89q39 0 57.5 26t18.5 63z" />
    <glyph glyph-name="notequal" unicode="&#x2260;" horiz-adv-x="505" 
d="M445 130h-236l-59 -131h-46l59 131h-103v114h154l40 89h-194v113h245l43 95h46l-43 -95h94v-113h-145l-40 -89h185v-114z" />
    <glyph glyph-name="lessequal" unicode="&#x2264;" horiz-adv-x="425" 
d="M42 554l340 142v-171l-244 -85v-4l244 -85v-165l-340 138v230zM395 39h-365v108h365v-108z" />
    <glyph glyph-name="greaterequal" unicode="&#x2265;" horiz-adv-x="425" 
d="M43 696l340 -142v-230l-340 -138v165l244 85v4l-244 85v171zM395 39h-365v108h365v-108z" />
    <glyph glyph-name="ff" unicode="&#xfb00;" horiz-adv-x="671" 
d="M691 698l-11 -124q-27 8 -61 8q-27 0 -43.5 -15.5t-16.5 -43.5v-33h106v-112h-106v-378h-158v378h-159v-378h-158v378h-69v112h69v40q0 177 207 177q38 0 83 -9l-11 -124q-27 8 -61 8q-27 0 -43.5 -15.5t-16.5 -43.5v-33h159v40q0 177 207 177q38 0 83 -9z" />
    <glyph glyph-name="fi" unicode="&#xfb01;" horiz-adv-x="609" 
d="M554 0h-157v378h-155v-378h-158v378h-69v112h69v40q0 87 52 132t153 45q37 0 82 -9v-124q-27 8 -72 8q-57 0 -57 -59v-33h312v-490zM394 556v138h158v-138h-158z" />
    <glyph glyph-name="fl" unicode="&#xfb02;" horiz-adv-x="669" 
d="M374 698l-11 -124q-27 8 -61 8q-27 0 -43.5 -15.5t-16.5 -43.5v-33h106v-112h-106v-378h-158v378h-69v112h69v40q0 177 207 177q38 0 83 -9zM414 690h157v-538q0 -36 33 -38l40 -3v-112q-44 -9 -83 -9q-73 0 -110 36t-37 101v563z" />
    <glyph glyph-name="ffi" unicode="&#xfb03;" horiz-adv-x="926" 
d="M401 490v40q0 87 52 132t153 45q37 0 82 -9v-124q-27 8 -72 8q-57 0 -57 -59v-33h312v-490h-157v378h-155v-378h-158v378h-159v-378h-158v378h-69v112h69v40q0 177 207 177q38 0 83 -9l-11 -124q-27 8 -61 8q-27 0 -43.5 -15.5t-16.5 -43.5v-33h159zM711 556v138h158
v-138h-158z" />
    <glyph glyph-name="ffl" unicode="&#xfb04;" horiz-adv-x="986" 
d="M691 698l-11 -124q-27 8 -61 8q-27 0 -43.5 -15.5t-16.5 -43.5v-33h106v-112h-106v-378h-158v378h-159v-378h-158v378h-69v112h69v40q0 177 207 177q38 0 83 -9l-11 -124q-27 8 -61 8q-27 0 -43.5 -15.5t-16.5 -43.5v-33h159v40q0 177 207 177q38 0 83 -9zM731 690h157
v-538q0 -36 33 -38l40 -3v-112q-44 -9 -83 -9q-73 0 -110 36t-37 101v563z" />
    <glyph glyph-name="s_t" unicode="&#xfb06;" horiz-adv-x="748" 
d="M424 378h-52q-18 0 -57.5 5t-59.5 5q-55 0 -55 -31q0 -19 30 -35.5t66 -30t66 -48.5t30 -88q0 -74 -52.5 -119.5t-151.5 -45.5q-84 0 -146 33l29 109q51 -31 112 -31q27 0 42.5 10.5t15.5 29.5t-19.5 33.5t-47.5 27t-55.5 29t-47 49.5t-19.5 79q0 62 49.5 101.5
t151.5 39.5q24 0 68.5 -5t66.5 -5h39v84l154 50v-134h125v-112h-125v-207q0 -46 45 -46q34 0 74 20l23 -117q-68 -38 -139 -38q-72 0 -116 45.5t-44 130.5v212z" />
    <glyph glyph-name="zerooldstyle" horiz-adv-x="598" 
d="M296 -10q-123 0 -186.5 71t-63.5 210q0 136 65.5 210.5t184.5 74.5q125 0 190.5 -75t65.5 -210q0 -138 -67 -209.5t-189 -71.5zM296 116q45 0 68 36t23 119q0 159 -91 159q-85 0 -85 -159q0 -155 85 -155z" />
    <glyph glyph-name="oneoldstyle" horiz-adv-x="506" 
d="M214 119v143l6 110q-27 -34 -71.5 -55t-86.5 -21v130q135 26 188 120h120v-427h96v-119h-378v119h126z" />
    <glyph glyph-name="twooldstyle" horiz-adv-x="554" 
d="M499 373q0 -73 -55 -136.5t-182 -120.5v-9q54 24 123 24h121v-131h-432v119q146 69 204 122t58 108q0 79 -110 79q-72 0 -136 -34l-42 117q104 45 228 45q107 0 165 -50.5t58 -132.5z" />
    <glyph glyph-name="threeoldstyle" horiz-adv-x="555" 
d="M321 351q0 77 -102 77q-70 0 -132 -33l-42 116q104 45 213 45q114 0 171 -47.5t57 -129.5q0 -50 -35 -92.5t-95 -60.5v-4q70 -7 109.5 -44.5t39.5 -98.5q0 -63 -37.5 -114t-98.5 -82t-130.5 -48.5t-142.5 -21.5l-13 134q124 4 192 39t68 92q0 76 -117 76h-47v117h42
q46 0 73 20.5t27 59.5z" />
    <glyph glyph-name="fouroldstyle" horiz-adv-x="600" 
d="M560 0h-95v-168h-158v168h-271v101l270 445h159v-421h95v-125zM307 125v222l-132 -222h132z" />
    <glyph glyph-name="fiveoldstyle" horiz-adv-x="516" 
d="M476 125q0 -68 -26.5 -122t-68.5 -87.5t-100 -56.5t-112.5 -33t-115.5 -13l-13 134q274 10 274 146q0 43 -27 65t-63 22q-47 0 -87 -29l-97 36l33 359h368l-10 -124h-240l-8 -90q-4 -45 -15 -68q74 35 138 35q65 0 117.5 -46.5t52.5 -127.5z" />
    <glyph glyph-name="sixoldstyle" horiz-adv-x="593" 
d="M502 577q-105 -12 -183.5 -55t-104.5 -124q46 77 151 77q74 0 127 -53t53 -171q0 -105 -64 -183t-184 -78q-114 0 -181.5 88t-67.5 228q0 95 37.5 171t102 123t142.5 73.5t166 31.5zM298 357q-35 0 -62 -22.5t-32 -57.5q5 -92 29.5 -128.5t64.5 -36.5q41 0 64 31t23 88
q0 126 -87 126z" />
    <glyph glyph-name="sevenoldstyle" horiz-adv-x="557" 
d="M507 413l-274 -573h-182l290 573h-291v133h457v-133z" />
    <glyph glyph-name="eightoldstyle" horiz-adv-x="592" 
d="M529 518q0 -87 -113 -142q60 -25 95 -64.5t35 -106.5q0 -91 -66.5 -153t-186.5 -62q-114 0 -180.5 57t-66.5 147q0 47 35 85t93 60q-113 57 -113 171q0 88 67 134t165 46t167 -47t69 -125zM384 205q0 16 -7.5 29.5t-17 22.5t-30 18.5t-33.5 14.5l-40 15q-50 -48 -50 -99
q0 -48 26 -73.5t61 -25.5q39 0 65 24.5t26 73.5zM219 509q0 -39 29.5 -61t86.5 -42q36 44 36 98q0 32 -22.5 49t-55.5 17q-29 0 -51.5 -16.5t-22.5 -44.5z" />
    <glyph glyph-name="nineoldstyle" horiz-adv-x="593" 
d="M85 -53q111 4 189 51.5t104 144.5q-40 -72 -139 -72q-73 0 -132 63.5t-59 181.5q0 102 65.5 171t187.5 69q115 0 179.5 -80.5t64.5 -223.5q0 -192 -127 -310t-320 -129zM295 189q38 0 65.5 26t28.5 68q-10 151 -94 151q-41 0 -64 -31t-23 -88q0 -126 87 -126z" />
    <glyph glyph-name="commasuperior" horiz-adv-x="250" 
d="M45 533v136h160v-167q0 -120 -160 -134v92q35 4 35 53z" />
    <glyph glyph-name="escudo" horiz-adv-x="2000" 
d="M1823 295q4 -66 -6.5 -184t-46.5 -239l-3 -7q-3 -7 -5 -11t-7.5 -7.5t-11.5 -1.5q-9 7 -5.5 23t12 41t8.5 30q-1 4 -10 -7.5t-19.5 -21.5t-19.5 0q-5 14 -1.5 20.5t11.5 30t9 50.5q0 4 -4 -3q-14 -28 -26 -23q-6 11 -1.5 17t13.5 31.5t9 55.5q0 -1 -1 -3q-9 -43 -24 -36
q-8 1 -7.5 12.5t4.5 21.5t8 32t2 44l-1 -2q-8 -32 -20 -32h-3q-9 4 -9.5 15t4 23t8 25.5t0.5 21.5q-11 -24 -23 -26q-12 8 -11 34t6.5 44.5t-1.5 23.5q-16 -54 -36 -61q-9 2 -14 6q-12 17 1 38q0 1 -1 1q-5 0 -10 -11q-10 2 -13 5q-15 14 -3 51q0 2 -1 2t-4 -3.5t-5.5 -12
t-2.5 -18.5q3 -32 25 -34v-2q-2 -20 7 -25h3q4 -32 43 -122.5t39 -102.5q-1 -13 -12 -16q-7 -2 -12.5 1t-8.5 7.5t-6 11.5t-4 8q-2 -1 -1 -6.5t-0.5 -12.5t-8.5 -9q-5 0 -8.5 1t-6 3t-5 6.5t-3.5 7t-3 8.5t-3 8q2 -16 -6 -19t-18 2.5t-14 13.5q-1 1 -2 0.5t-3.5 -2
t-4.5 -2.5t-5 -3l-2 -2q5 -10 -2 -26.5t-22 -16.5q-12 0 -20 4q-2 -22 -4 -26q-3 -4 -7.5 -5t-8.5 -0.5t-5 0.5q-2 -2 0 -6t7.5 -11t8.5 -13h-1q-2 -1 -3 -1l-12 -4h-1l-19 39q6 0 9.5 2t4.5 4.5t0 4.5q-7 9 -14.5 6.5t-12.5 -9.5l-6 -8q15 -15 29 -43q-47 -17 -85 -26
q-37 37 -70 49q-36 -1 -48 26q-1 2 -7 -0.5t-16.5 -4.5t-26.5 7q-1 0 -3 -2t-5.5 -4.5t-7.5 -3.5q-1 0 1.5 -1.5t5.5 -5t2 -9.5q0 -1 6.5 -2t15.5 -4t12 -9q0 -1 16.5 -3.5t43 -13t48.5 -28.5l-28 -7q-28 22 -60 19q-30 -1 -42 -37q-17 -3 -58 -7q-10 4 -18.5 12.5
t-0.5 18.5q6 8 17 -2q7 -7 10 3q1 6 4 10l1 5q-1 2 -6 0l-19 -2q-7 0 -12 5.5t-5 12.5q0 8 5 14t12 6q2 0 2 -2q-2 -2 -2 -5t2 -5.5t5 -1.5q5 1 6 7t-3 12t-11 6q-13 -1 -24 -14q-25 -38 -49 -45l1 -4q0 -4 -2 -8.5t-9 -6.5l-1 -3q0 -3 -3.5 -5.5t-10.5 -2.5l-7 -12
q-13 -1 -40 -1t-40 1q-5 12 -7 12q-7 0 -10 2.5t-4 5.5v3q-7 2 -9.5 6.5t-2.5 8.5l1 4q-11 3 -23 14.5t-18 20.5l-7 10q-5 6 -11.5 9.5t-9.5 4.5h-4q-7 0 -11 -6t-2.5 -12t6.5 -7q3 -1 5 1.5t2 5.5q0 2 -3 5l2 2q7 0 12 -6t5 -14q0 -18 -17 -18l-19 2q-5 2 -5 0l1 -5l3 -10
q1 -4 3.5 -5t4.5 1l2 1q5 4 9.5 4.5t6.5 -1.5l2 -1q8 -10 -1.5 -19t-19.5 -12q-38 4 -56 7q-6 16 -16.5 25.5t-18.5 10.5l-8 1q-32 3 -60 -19q-18 4 -27 7q22 18 48 28.5t42.5 13t16.5 3.5q2 3 5 5t6 3.5t6.5 2.5t6.5 1.5t5.5 1t3.5 0.5t1 1q-1 6 2 9.5t6 5t2 1.5
q-3 1 -6 2.5t-4.5 3.5t-3 3t-2.5 1q-17 -9 -27 -7t-16.5 4.5t-7.5 0.5q-5 -12 -17 -18.5t-21 -7.5h-10q-30 -11 -70 -49q-32 8 -92 28l21 9q0 2 -5.5 3t-10.5 1h-5q-13 1 15 16q19 10 61 36l-13 10l-7 5q-4 0 -11 -2.5t-12 -1.5q-4 1 -21.5 13.5l-36 26t-19.5 14.5
q-3 3 -14 10t-19.5 13.5t-12.5 13.5q-4 1 -3 15.5t0 17.5q0 16 -18 29q4 38 -6 72q41 -11 70 -3q0 -3 -0.5 -6t-1 -7.5t-0.5 -9.5q-1 -7 -5 -23.5t-4 -24t2 -23.5q5 -13 13 -25q4 0 7 -10q14 -19 53 -42q6 -5 18 -7q4 -1 22 -1t26 -3q1 -1 9.5 -6t13.5 -7q1 0 6.5 -1.5
t9.5 -3.5t5 -5q23 8 39 7.5t26.5 -3.5t11.5 -2q8 10 17 2l9 -7q17 7 25.5 5t17.5 -10t11 -8q1 0 6 1.5t8 2t8.5 -5t10.5 -16.5q2 -4 6.5 -8t10.5 -6t10.5 -4t9.5 -3l5 -1q6 -1 10 1t5 4l1 2q1 2 2.5 5.5t1.5 4.5l5 7q4 4 13 4q7 0 12 -5.5t5 -12.5q0 -8 -3 -12l-3 2
q-3 1 -6 1q-12 0 -12 -13q-1 -7 4.5 -14.5t11.5 -11.5l5 -4q7 -5 14 -4t11 4l5 4l16 9q4 0 7.5 -3t5.5 -6l1 -2q5 10 15 11q6 -1 15 -9q2 -2 5 -4t11.5 -4.5t13.5 4.5l6.5 4.5t9.5 10.5t6 15q0 13 -13 13q-2 0 -5 -1.5t-4 -1.5q-3 4 -3 12q0 7 5.5 12.5t12.5 5.5q8 0 12 -4
q2 -1 3.5 -3.5t2.5 -3.5l3 -10q0 -1 1 -2.5t5.5 -3.5t10.5 -1l6 2l13.5 4t13 6.5t8.5 9.5q5 11 10.5 16.5t9 5t8.5 -2t6 -1.5t10.5 8t17.5 9.5t25 -4.5l10 7q9 8 17 -2l12 4q12 3 35 1t48 -15l4 -2q15 4 47.5 -6t50.5 -6q8 0 8 29q-19 7 -13 55q-6 2 -9.5 -7.5t-4 -22
t-5 -22.5t-12.5 -9q-6 2 -6 35q0 18 -8 26v-3q-1 -3 -2 -8t-3 -9.5t-6 -7.5t-9 -3q-6 2 -6.5 12t-1.5 32t-9 44q2 -5 -1.5 -10.5t-8.5 -5.5q-14 3 -18.5 21t-0.5 36q-21 4 -39 34l-1 -11q0 -11 -1 -19t-5 -17.5t-11 -12.5q-3 -26 -19 -51q-41 -61 -132 -61h-2
q-13 0 -30.5 -2t-48.5 -16t-44 -39q-1 -3 -6 -8t-10 -5q-6 0 -15 13q-13 25 -44 39t-48.5 16t-30.5 2h-1q-42 0 -75 15.5t-44 28t-13 17.5q-28 40 -18 97q-5 0 -6 1q-12 2 6 33q4 7 7.5 10.5t5.5 2.5h3l-4 12q-3 7 1.5 16t10.5 14l6 5q-2 1 -3 6q-6 15 -8 49q-9 4 -15.5 10
t-8 9.5t-1.5 4.5q-18 2 -44 -5t-38 -7q-10 0 -28 5t-27 5q8 -13 39 -21q-13 -22 -20 -32.5t-28.5 -32t-46.5 -34.5q-1 -1 -3 -1q-2 -2 -13 -6l-3 -2q-32 -13 -81 -10l-9 21q-1 1 -2 1t-1 -1t2 -8.5l3.5 -13t3.5 -16t2 -19.5t-1 -20.5t-4 -21.5q-8 -30 -36 -61t-79 -42
q0 -12 -2 -27t-3 -21t0 -12q5 -12 11 -47t11 -41q10 -1 22 -10l6 27q4 7 6 12.5t2 7.5v2q0 7 1 11t2 5l1 1q3 5 8.5 6t9.5 0l4 -1q10 -2 15.5 -1t7.5 3l2 2q8 5 14 6.5t8 -0.5l3 -1q3 -3 2.5 -7t-3.5 -8l-2 -4q8 0 14 -6t8 -12l2 -5q4 -17 -2.5 -28t-14.5 -13l-8 -2
q-10 0 -16 4.5t-7 9.5v4q-1 8 4.5 13t11.5 5l6 1q-2 5 -5 7.5t-5 2.5h-2q-12 3 -22 -2.5t-14 -12.5l-3 -8q-9 -18 -7.5 -32.5t7.5 -24.5l6 -10l9 -2l37 23q2 0 2 2h9q10 0 29 -7l-45 -40q11 -8 21 -9.5t15 0.5l4 3q12 13 8 45h1q1 -1 2 -1l35 -15l-31 -53q20 -7 28 10.5
t9 40.5q9 -4 17 -6l-1 -9q-1 -10 -6.5 -22t-10.5 -19l-5 -7q9 2 18 -0.5t13 -5.5l4 -3q12 -12 12 -33q-2 -15 -15 -15q-15 0 -15 15t14 15q-3 8 -8.5 9t-9.5 -2l-4 -3q-10 -11 -7 -20.5t12 -15.5l8 -7q13 -7 24 -4t18 11l7 8q-32 57 -30 102q9 -4 27 -10q-5 -22 -1 -37
t11 -23l8 -8q4 3 6 10.5t2 13.5l1 6l9 27q20 -4 24 -6q-4 -12 -7 -28.5t-4 -26.5l-1 -11q2 -3 6.5 -4.5t8.5 -2.5h4q9 -1 11.5 1.5t0.5 5.5l-2 3q-11 9 -8 15q3 7 10 7t13 -3l6 -3q14 -8 19.5 -16.5t4.5 -13.5l-2 -5q-2 -5 -11 -10.5t-17 -8.5l-8 -3q6 -4 15 -6.5t16 -2
t15 1.5h8q0 15 15 18l2 1q12 2 20 -8q3 -3 4 -7l19 5q18 3 24 72q6 0 16 -2l-11 -66l34 19l10.5 6t10.5 4.5t9.5 2.5t8 1.5t6.5 0.5h5.5t4.5 -0.5t3 -0.5h1q13 -2 22 -12.5t9 -24.5q0 -15 -11 -25.5t-26 -10.5t-26 10t-12 26l-24 -14q-39 -25 -74 -25q-4 -21 -26 -21
q-16 0 -23 13q-32 1 -56.5 10t-32.5 17l-9 8q-7 8 -9 3q-12 -16 -31 -20t-32 0l-13 5q-5 3 -7.5 2.5t-3.5 -1.5l-1 -2q-4 -7 -10.5 -9t-11.5 -1l-4 2q-9 5 -11 10.5t1 9.5l2 3q6 6 -2 7q-11 -1 -18 1.5t-8 5.5l-2 3q-2 5 1 10t7 8l4 2q2 3 0.5 5.5t-3.5 4.5l-2 1q-6 4 -9 8
t-3 6v2q-8 0 -11.5 2t-3.5 4v2q0 3 5 5t11 2h5q8 0 11.5 2.5t3.5 5.5l-1 2l-65 13q-25 -21 -60.5 -35.5t-58.5 -18.5l-23 -4q-1 -5 -0.5 -9t0.5 -8l1 -5h2q13 0 13 -13q0 -14 -13 -14q-14 0 -23 15t-10 33h-14q-31 0 -60 13t-42 25l-14 13q-5 5 -9 5q-3 0 -8.5 -5.5
t-13.5 -5.5q-22 0 -22 23q-2 10 6 17.5t23 7.5l28 -2q-14 41 6.5 60.5t46.5 19.5q38 0 38 -31q0 -13 -8.5 -21t-21.5 -8q-21 0 -28 22q-4 -2 -6.5 -5t-3.5 -6l-1 -2q-12 -38 23 -60.5t98 -22.5q36 0 68.5 10t46.5 20l14 10l-22 12q-8 4 -21 4v-3q0 -11 -7 -18.5t-18 -7.5
t-18.5 7.5t-7.5 18.5q0 3 1 6.5t4 9t11 8.5t20 3q-5 17 -18 28.5t-11 22.5q2 17 -4.5 46.5t-13.5 52t-9 45.5t7 26q4 4 19.5 16.5t21.5 20.5l4 8q5 22 -16.5 51t-30.5 30q-6 1 -23 -10.5t-23 1.5q5 1 8 2t4 3t0 5q-2 0 -11 -4t-15 -3q-11 5 -3 18q5 -3 9 -2t5 4
q-1 1 -6.5 2.5t-9.5 4.5t-5 8q-3 7 4 14q0 -7 2.5 -10.5t6.5 -1.5q2 3 2 3.5t-2.5 4t-2.5 4.5q-4 10 -2 23.5t11 17.5q14 5 17 -7q2 -7 -4.5 -20t-0.5 -20q3 -4 13 -5.5t17 2.5q0 24 6 42q9 23 51.5 64t90.5 80.5t49 40.5q2 2 32 25.5t38 35.5q0 8 -3 14q-12 15 -34 49
q-24 36 -28 47q-6 21 -12 25q-1 1 -8 3.5t-15.5 7.5t-14.5 14q-12 6 -28.5 0.5t-18.5 -4.5q-4 14 12 22.5t32 7.5q-2 5 5 15q-30 10 -35 21q-3 7 1 10.5t9 1.5q1 0 10.5 -9t22.5 -12l6 7q-24 8 -28 19q-6 13 10 13q2 -1 5 -5t9.5 -8.5t15.5 -7.5l9 9q-2 11 -9.5 19.5
t-7.5 10.5q-1 5 2.5 8.5t10.5 0.5q11 -6 16 -30q1 0 8 5q-1 10 -5.5 17.5t-8.5 11t-4 5.5q-1 6 2.5 9.5t10.5 -0.5q12 -7 17 -36q14 6 22 6q6 -2 9.5 -15t10.5 -15q-24 -2 -34 -15q3 -1 9 2t8 3q14 2 25 -2q7 -2 14 -11t9 -10q15 -8 48 -12q6 -2 9.5 -9t-0.5 -17t-17 -16
q-6 -3 -21 -4.5t-20 -4.5q-8 -4 0 -11q4 -3 13 -7q47 -11 73 -56l1 -2q1 -2 2 -2q9 -14 14 -40q1 0 2 -1q4 3 14 7.5t14 9.5q8 7 15 19l6.5 13t7.5 13t10.5 7.5t18.5 2.5q10 -1 41 -7.5t51 -3.5q6 3 22 -1q8 -2 20.5 -10t20.5 -10q27 -4 37 -17q-43 -19 -64 -20h-6
q-5 10 -6 11h-24q-3 2 -6.5 7t-5.5 7q-6 4 -15 4q-62 11 -77 -10q-12 -61 -38 -89q-1 15 -6 25.5t-10 14.5t-7 2q15 -21 15 -50q4 -9 11 -16t12.5 -10l16.5 -9t15 -8q9 -5 14.5 -10t9.5 -12.5l6 -11.5t5.5 -16t5.5 -18q1 4 1 8v6.5t-0.5 4.5t-0.5 3v2q-9 56 -54 110
q-3 3 -3 6q0 2 1 4l2 1q42 28 63 49h1q5 5 11 5l9 -4q20 -16 61 -16q22 1 66 19.5t80 18.5q33 0 80.5 -19.5t66.5 -19.5q36 0 61 17q5 4 10 4t10 -5h1q53 -42 63 -49h1q0 -1 1 -2q1 -2 1 -3q0 -4 -3 -6l-5 -6q-4 -6 -9 -12.5t-11.5 -17.5t-11.5 -21.5t-10 -25t-7 -27.5
q-6 -23 8 -67h13q20 0 29.5 -10.5t13 -28.5t4.5 -20v-1l30 -28q4 -10 8 -14l4 -5q4 -4 7 -4.5t4.5 0t1.5 1.5l-1 2q-14 7 -23 33q-12 48 27 70q12 -21 28.5 -37.5t26.5 -22.5l10 -7q-22 18 -38 41t-24 43t-13 41t-6.5 35.5t-2 27t-0.5 13.5l-2 12q0 -1 -1 -2q-4 -35 -1 -68
h-1q3 -29 -16 -31q-22 -1 -27 28q0 -20 -6.5 -29.5t-13.5 -9.5l-7 1q-31 10 -18 58l6 16q12 27 40 65q6 7 6 16q-1 8 -7 11q-7 4 -21.5 15.5l-27.5 22t-14 11.5q-9 7 -18 7q-10 0 -16 -6q-17 -14 -53 -14q-29 1 -57 17q6 15 30 45q41 49 76 67q11 6 26 10.5t31.5 6.5t28 -6
t12.5 -26q0 -5 -6.5 -27.5t-8 -38t8.5 -35.5q5 -7 17 -13.5t25 -5.5q24 2 42 20q1 1 2 3q7 -8 19.5 -13t21.5 -6l8 -1q18 -2 18 4l-1 1q-66 2 -66 42q0 26 27 39t57 12q0 -10 -5 -19q-15 -2 -26 -9t-11 -18q0 -9 4 -14q5 21 18 27.5t47 6.5q61 0 81 14q10 -7 13 -25.5
t-1 -31.5q-8 -21 -59 -23q-2 0 -2 -1q26 -5 53 6q15 -3 32 2.5t25 4.5q2 8 -2.5 19.5t-3.5 18.5q4 17 20 44q4 12 -2.5 28t-6.5 24q0 21 15.5 36t36.5 11q22 -5 40 -22t31 -46.5t19 -45.5t14 -45q25 -89 36 -257zM1233 95q7 9 11 19.5t6 20.5t2.5 19.5t-1 18l-3 16.5
t-4 14.5t-4 11l-2.5 7.5l-2 3q-36 61 -30 107q0 13 2 26t6 24.5t8.5 21t9.5 18.5t8.5 14t7.5 10l3 5q7 7 5 12q-2 10 -6 10l-37 23l-4 3l-3 2q-4 0 -9 -5q-24 -18 -49 -18q-20 0 -66 21t-83 21q-32 0 -80 -21t-68 -21q-23 0 -50 18q-5 5 -8 5q-1 0 -3 -2l-4 -2l-37 -24
q-5 0 -7 -10q0 -7 5 -12q45 -54 45 -120q7 -46 -30 -106l-2 -3q-1 -2 -2.5 -6.5t-4 -11t-4 -14t-3 -16.5t-1 -18.5t2 -19.5t6 -20.5t11.5 -20.5q4 -7 13 -17.5t38 -24t66 -13.5q74 0 97 -43l2 -2q12 -20 15 -26q0 -2 3 -2q2 0 4 2q3 6 15 26l1 2q24 43 97 43q37 0 66 13.5
t38 24t13 17.5zM1280 716l-2 -1q0 -5 15 -3q11 0 23 3q-30 -25 -73 -27.5t-67 13.5q-24 13 -39 45.5t-3 67.5h-1q-1 1 -3 -1.5t-4.5 -10t-3.5 -18.5q-1 1 -4.5 3l-6 3.5t-6 2.5t-6.5 1.5t-6.5 -0.5t-6.5 -4h10q16 0 24 -20q19 -48 33 -61q-4 -11 -13 -22t-19 -12l-1 -1
q0 -3 7 -3q5 0 11.5 4t7.5 8q3 -16 -12.5 -34.5t-32.5 -26.5q10 -3 19 6q-2 -24 -27 -24q4 -12 -3 -21t-16 -9q-5 0 -20 4.5t-28 4.5q-41 0 -59 -15h-1l1 -1q20 10 49 10q20 0 41 -7.5t21 -20.5q0 -5 -4 -11q-41 15 -75 15q-33 0 -73 -14q-5 11 -1.5 19.5t11.5 10.5
q0 1 -9.5 3t-22.5 16.5t-20 43.5q3 -1 12 -2.5t16 -1.5t7 2q-48 6 -70 34q17 -9 37 -9q15 0 15 4l-1 1q-44 -3 -60 24q3 -1 9 -1q7 0 13.5 2.5t9 5t2.5 3.5h-1q-13 -6 -27.5 -1t-13.5 20q6 15 6 31q0 15 -4 15v-2q-4 -40 -30.5 -57.5t-56.5 -17.5q-46 0 -78 27t-32 79
q0 48 30 77t70 29q28 0 70 -14q5 -18 14 -30q10 -14 13 -11q3 2 0 4q-15 17 -17 38q-1 63 40 90.5t93 19.5q-11 -27 -11 -44q0 -21 3 -22q1 1 2 4q5 33 34 47t50 -7q-3 13 -21.5 17t-30.5 -1q-21 -6 -29 -27q13 59 88 59q53 0 76 -29.5t23 -62.5q0 -47 -48 -75q-3 -4 0 -5
q8 0 18 10q37 27 43 56q29 -12 43 -26q28 18 67 18t62 -23t23 -52q0 -20 -10 -39v-2q3 -1 8.5 8t6.5 17q3 -9 4.5 -27t-13.5 -39.5t-42 -28.5q-11 -2 -16 -1zM1515 -107l60 -48q-5 0 -10.5 -1t-10.5 -2.5l-8.5 -2.5t-5.5 -2l-3 -1q-214 -94 -536 -99q-323 5 -537 99
q-20 9 -38 9l60 48q5 4 15 4l9 -1l17 -6q17 -7 38 -13.5l53.5 -16t72.5 -17.5t87 -15.5t105 -11.5t118 -4t118 4t104.5 11.5t86.5 15.5t72.5 17.5l53.5 16t38 13.5l17 6q4 1 9 1q10 0 15 -4zM1617 -237q-39 -11 -65 -13q1 0 0 -2t2.5 -5t11.5 -3l18 -3q3 -2 3 -4v-1
q0 -1 -0.5 -2t-2 -2t-4.5 -2t-8 -1q2 -8 -12 -16q-1 -1 -2 -1.5t-3.5 -3.5t0.5 -6q2 -1 4.5 -3t6 -7t1.5 -10q0 -1 -1.5 -3.5t-8.5 -5t-18 -1.5l-4 -1q-2 -2 2 -6q12 -12 -8 -23q-16 -8 -26 8q0 1 -1 1.5t-3.5 1.5t-7.5 -2l-15 -5t-29 0.5t-32 19.5q-2 6 -9 -3
q-3 -4 -9.5 -9t-31.5 -15t-57 -11q-6 -13 -23 -13q-10 0 -17 6t-9 15q-35 0 -73 25q-13 8 -25 14q-1 -15 -11.5 -25.5t-25.5 -10.5q-16 0 -27 10.5t-11 25.5q0 14 9 24.5t22 12.5h1q1 0 3 0.5t4.5 0.5h5.5t6.5 -0.5t8 -1.5t9.5 -2.5t10.5 -4.5l10.5 -6q28 -19 34 -19
q-6 31 -11 66q10 2 16 2q6 -69 24 -72l19 -5q2 5 4 7q8 10 20 8q1 0 2 -1q15 -3 15 -18h8q8 -1 15 -1.5t16 2t15 6.5q-32 11 -36 22q-9 18 22 35q23 14 29 -1q3 -6 -8 -15q-1 -1 -2.5 -3t1 -5t11.5 -2q15 1 19 7q-3 39 -12 66q4 2 24 6l9 -27q1 -24 9 -30q3 3 7 8t11.5 23.5
t-0.5 37.5q4 1 8.5 2.5l10 3.5t8.5 3q2 -45 -30 -102q1 -1 3 -3.5t7 -7t11 -7t13.5 -2.5t14.5 5q1 1 3.5 2.5t7.5 6.5t7.5 10t2 11.5t-6.5 12.5q-16 13 -23 -4q14 0 14 -15t-15 -15q-13 0 -15 15q0 21 13 33q1 1 4 3.5t12 5t18 0.5q-20 26 -22 48q0 3 -1 9q8 1 17 6
q1 -23 9 -40.5t28 -10.5l-31 53l35 15q1 1 3 1q-4 -32 8 -45q15 -13 40 6q-34 30 -44 40q16 7 28 7h9q7 -8 39 -25q5 -2 9 2q3 4 6 10t7.5 24.5t-7.5 32.5q-1 3 -4 8t-13 11.5t-22 3.5q-8 1 -12 -10q3 0 7 -0.5t10 -5.5t5 -13q0 -2 -0.5 -5t-6.5 -8t-16 -5q-1 0 -3 0.5
t-7.5 3.5t-8.5 7.5t-6 12.5t0 19q5 23 24 23q-1 2 -2.5 4t-3 8t2.5 7q8 7 25 -5q0 -1 1.5 -2t7.5 -3t16 1q15 6 23 -5q4 -2 4 -17q-3 -6 7 -22q16 -30 -2 -73q52 15 67 -8l3 -3h-1q4 -6 4 -12q0 -11 -7.5 -18.5t-18.5 -7.5t-18 7.5t-7 18.5v3q-13 0 -21 -4l-22 -12
q5 -4 15 -11t44 -18t70 -11q63 0 98 22.5t23 60.5q-3 9 -11 13q-7 -22 -28 -22q-13 0 -21.5 8t-8.5 21q0 31 38 31q26 0 46.5 -19.5t6.5 -60.5q11 2 28 2q15 0 23 -7.5t6 -17.5q0 -23 -22 -23q-8 0 -13.5 5.5t-8.5 5.5q-4 0 -9 -5q-5 -6 -15 -14.5t-40 -22.5t-61 -14h-14
q-1 -18 -10 -33t-23 -15q-13 0 -13 14q0 13 13 13h2v5q1 4 1.5 8t-0.5 9q-85 11 -142 58zM1399 667q-4 1 -11 10t-8 16q-1 14 11 22.5t28 8.5q0 -8 3 -12q3 -8 6 -8l1 1q-5 9 -5 21q2 14 15 24.5t31 6.5q-2 8 -1.5 18.5t10.5 11.5q39 -5 82 -41l9 -8l1 -1q1 1 -1 3l-8 11
q-34 32 -77 40q7 9 12 20q4 8 10 4q8 -4 4 -10q-2 -7 0 -11t7 -3.5t8 6.5q1 7 10 4q7 -5 3 -11q-2 -6 0 -10t7 -3t8 7q4 6 10 3q7 -2 3 -10q-2 -6 0 -10.5t7 -3.5t8 7t11 4q6 -4 3 -11q-3 -6 -4 -13t-1.5 -12t-0.5 -6q-2 -21 -16 -32q-6 18 -31.5 35t-45.5 19h-9q0 -1 1 -1
q5 0 7 -1q30 -9 55 -33.5t25 -51.5q0 -39 -21 -57.5t-54 -18.5h-42q5 8 5 19l1 11q-12 1 -19 6.5t-7.5 12l-1 12.5t-0.5 10q-1 7 -10 13t-17 5q-7 -1 -9 -7zM1032 334h155v-6q0 -1 -0.5 -5.5t-0.5 -8.5h-40l26 19l-179 -57v187h249q0 -1 -2 -3q-4 -4 -13 -17h-228l4 -13h216
q-4 -5 -10 -19h-200l4 -13h190l-8 -19h-176l4 -13h168l-3 -20h-159zM1202 250l15 -30v-132q-8 -9 -20 -17v179h-12v-186q-12 -6 -20 -8v194h-13v-198l-19 -3v201h-13v-201h-4q-8 0 -15 -1v76l-108 152l66 -24l24 17h111zM993 276l-111 -154l12 8v-82q-6 1 -12 1h-8v201h-13
v-200l-19 3v197h-13v-192q-7 2 -19 8v184h-13v-176q-6 4 -19 17v144l7 15l7 19h110l25 -17zM1785 22q27 164 22.5 290.5t-31.5 224.5q-26 86 -53 119l-4.5 4.5l-5.5 5.5q-17 21 -29 23q-15 3 -25 -8.5t-8 -26.5q1 -7 6 -18t5 -15t-11.5 -19.5t-13.5 -23.5q-3 -9 -0.5 -28.5
t9.5 -22.5q5 -2 12.5 0.5t8.5 6.5q1 3 -8 20t1 38q1 1 4.5 5.5t6.5 9.5t3 9q0 7 -6 15t-6 12q-2 12 6 21t18 11q5 -2 3 -9.5t2 -10.5q3 -4 10 -0.5t8 2.5q2 -4 1 -17.5t5 -18.5q3 -1 6.5 3t6.5 0q4 -4 4.5 -8.5t-1 -11t-1.5 -9.5q0 -8 3.5 -14.5t7 -9t8.5 -5.5t6 -4
q2 -2 -10 -40t4 -41q4 -1 8 2t6.5 5.5t5.5 -0.5q11 -24 2 -49.5l-18.5 -50t-1.5 -29.5q8 -6 14.5 1t10.5 17.5t6 11.5q5 1 9 -30.5t0.5 -136.5t-20.5 -259q1 -1 2 3t2.5 11t3 15t3.5 17t3 13zM1034 -313q19 -8 20 -22q2 -10 -16 -24q-12 -14 -15 -25q-2 -15 -22 -15
q-9 0 -15 3.5t-7 7.5l-1 4q-1 5 -5 11t-7 10l-3 4q-8 6 -11.5 12t-3.5 9v3q0 13 18 22q-3 1 -5 4t-3 5v3q0 9 3.5 17t6.5 11l4 3q5 0 14.5 -0.5t14.5 -0.5q6 0 14.5 0.5t13.5 0.5q2 -1 4.5 -3.5t6 -10.5t3.5 -17q-2 -9 -9 -12zM992 463l-6 -20h-223q-4 7 -10 13q-3 3 -3 7
h242zM839 314h-38v20h152l40 -58l-180 57zM999 607q12 25 7 61t-20 41q-42 11 -75.5 35t-49.5 49h-1q1 -4 3 -8q13 -22 45 -45.5t57 -39t25 -21.5q-4 0 -23 10.5t-36 18.5t-17 2q-1 -8 11.5 -15t28 -12.5t27.5 -13.5t11 -17q-3 -5 -10.5 1t-15 13t-10.5 2q-5 -8 2.5 -15
t20.5 -12.5t15 -6.5q0 -5 -1.5 -7t-5 -0.5t-6 3t-6.5 4.5q0 -1 1 -4.5t1.5 -4.5t1.5 -4t1.5 -4t2 -3.5t3 -3t3.5 -1.5t4.5 -1.5t5.5 -0.5zM792 741q8 2 15 19t3 43.5t-24 46.5q-29 29 -70 15q-28 -10 -39 -38q14 12 21 16q28 14 49 9.5t27 -23.5q-30 6 -52.5 -6.5
t-30.5 -35.5q42 36 75 29q28 -7 32.5 -32t-6.5 -43zM982 430l-6 -19h-194l-11 19h211zM1271 793q10 7 11 24.5t-7 33.5q-5 15 -19 25q19 1 35 -26q2 -2 2 -5q12 -23 -2 -57v-1h2q17 17 15 45q0 9 -3 17q-7 15 -12 21q9 -2 18 -20q10 -19 6 -36v-1q1 0 2 1q9 19 0 39
q-16 37 -54 37q-23 0 -38.5 -8.5t-18.5 -17.5l-4 -8q17 18 37.5 8.5t27.5 -38.5q4 -11 2 -23q-1 -4 -1 -10h1zM1003 197l20 -14v-167q-6 -6 -12 -15v-2q-2 -2 -8 -12v210zM971 189l19 15v-208q0 1 -1 1.5t-1 1.5l-1 2q-7 13 -16 19v169zM972 398l-6 -19h-172q-3 12 -7 19
h185zM963 366l-6 -20h-157l-3 20h166zM920 486h1l1 1q14 5 25 8h92q4 -1 25 -8q1 -1 2 -1t8 -3.5l11 -5.5l2 -2h-189l1 1zM1036 172l20 -15v-120q-14 -6 -20 -10v145zM939 165l19 14v-149q-8 5 -19 9v126zM562 550q32 -10 64 -30q-8 25 -32 45l-1 1h-2q-19 11 -89 15
q5 -9 13 -14t25.5 -10t21.5 -7zM906 47v93l20 15v-112q-6 2 -20 4zM489 665q4 0 14.5 2t15.5 1q5 0 17.5 -6t21.5 -4q2 2 3 6t-2 8t-12 4h-14.5t-15.5 1q-6 1 -16.5 4.5t-14.5 4t-15 -1.5q-8 -2 -20.5 -17.5t-7.5 -27.5q2 -4 7.5 -1.5t5.5 7.5q-1 5 1 9.5t5 7.5l3 3
q4 3 7.5 3t9 -1.5t7.5 -1.5zM1068 42v106l20 -15v-87q-14 -2 -20 -4zM1054 756q-1 -5 -9 -13t-14 -15.5t-5 -22t14 -32.5q7 2 19.5 21.5t6.5 24.5q-2 2 -6.5 -0.5t-10.5 -7t-7 -5.5q1 1 4 7l6 11.5t5.5 12t2 12t-5.5 7.5zM591 -174q3 9 -1 16t-15 12q-4 1 -11 1
q-6 -1 -11 -5q-4 -4 -7 -10v-10q0 -6 5 -11q3 -3 11 -7q12 -3 19 1t10 13zM1091 -244q5 6 5 16q0 9 -7 15q-6 6 -18 6q-9 -3 -11 -4q-5 -1 -8 -8q-4 -6 -2 -11q0 -7 2 -10q3 -6 9 -8q6 -3 13 -3q8 0 17 7zM960 -245q6 6 6 15q0 10 -6 15q-4 7 -17 7q-7 0 -11 -2q-7 -3 -9 -8
q-2 -4 -4 -10q0 -3 2 -11q4 -6 8 -9q6 -3 13 -3q12 0 18 6zM714 718q25 -2 41.5 9t12.5 33q-6 22 -30 22q-29 0 -31 -31q13 19 28 18q11 -1 15 -12q6 -27 -36 -39zM714 178q17 0 26.5 18.5t10.5 37.5l1 18v3q0 37 -11 43q-1 -1 2 -11t3 -22t-7 -19q-17 -18 -2 -31
q-1 -2 -11 -4q-1 -1 -2 -3t-2 -5t-2 -5t-4 -7.5t-4 -8.5zM1023 591q10 20 3 78q-3 28 -21.5 63t-29.5 49q24 -47 37 -95q8 -26 8 -77q0 -1 -1 -6t0 -8t4 -4zM1101 282l27 19h59q3 -17 4 -19h-90zM857 301l27 -19h-88q1 2 4 19h57zM1265 274q-11 0 -21 -6.5t-11 -17.5
q2 0 7 5t12 7q5 0 9 -1q-4 -13 4.5 -27t18.5 -14q6 0 8.5 5t-1.5 8q-2 2 -4.5 7t-4.5 10l-1 4q-4 19 -9 19q-2 1 -7 1zM1101 129v121h-13v-84zM633 -195q-1 7 -4 10q9 0 11 8q3 8 -8 13q-4 2 -27 8l-1 -3l1 -1q2 0 4 -2q0 -2 -1 -4l-6 -24l-2 -4q-3 0 -5 1l-1 -4l22 -6l1 4
q-1 1 -3 1l-2 1v4l3 10l4 -2q2 0 2 -2q0 -1 1 -3t1 -3q1 -8 3 -12l13 -4l1 4q-1 0 -3 2zM819 -241v4q-3 0 -3 1q-3 3 -5 8l-5 10q8 0 10 9q0 3 -1 5l-4 4l-4 3q-5 0 -29 4l-1 -4q5 0 6 -1v-5l-3 -24l-2 -4h-4h-1v-4l22 -3v4q-2 0 -3 1h-1q-1 1 -1 5l2 10l4 -2h1l1 -1
q0 -1 3 -6q3 -11 5 -12zM1407 -198l13 4l-1 3h-3q-1 0 -8 5q-7 7 -9 7q8 5 5 12q0 3 -2 5q-5 5 -10 3l-12 -3l-16 -5l1 -3h5q1 0 1 -1l1 -2l7 -24q1 -6 -5 -6l1 -4l22 6l-1 4q-6 -3 -7 3l-3 9q3 1 5 1q1 0 1 -0.5t1 -0.5t2 -1l3 -3zM1471 710q-2 -1 -6 -2t-6.5 -2t-2.5 -3
q1 -3 3 -3.5t4.5 0.5l5 2t6.5 3.5l7 4.5q3 4 8 2t7 -2t6 -4.5t5.5 -6.5t4.5 -7.5t4 -6.5q6 -7 10.5 -6t7 6.5t0.5 8.5q-2 5 -17 15q-16 14 -18 15q-8 2 -11.5 1t-9.5 -7.5t-8 -7.5zM637 -18q10 0 10 6q-1 1 -16 4h-3q-3 1 -8 2t-10.5 1.5t-11.5 0.5t-10.5 -0.5t-8 -3
t-3.5 -6.5q20 0 28 -6h2q2 -2 3 -2q7 -15 16 -15q5 0 8.5 2t2.5 6q-1 1 -5 2.5t-6 3.5t-2 6q2 0 6.5 -0.5t7.5 -0.5zM737 349q2 12 -10 22t-32.5 12t-46.5 -12q28 -9 45 -1q12 2 21 -1t12 -8t6 -9t5 -3zM1282 138q15 0 15 33q0 1 -0.5 4.5t-0.5 5.5v18q0 11 -4 11
q-7 0 -7 -31q0 -29 -7 -29q-2 0 -9 5q-7 -1 -3 -10q4 -7 16 -7zM543 -149v6q0 1 -3 6q-3 3 -5 3q-7 4 -9 4l-16 5l-1 -3h1q3 0 3 -3v-3l-9 -24q0 -3 -2 -3h-4h-1l-1 -3l21 -8l2 4h-1l-4 2q0 2 1 5l3 9l3 -1q2 -1 5.5 -2t4.5 -1q2 0 4 0.5t3 0.5q4 5 5 6zM1425 -61l7 14
q-18 0 -29 9q-10 8 -23 8q-24 0 -24 -19q0 -3 2 -9q2 2 5.5 6.5t7 7.5t8.5 3q9 0 16 -5q21 -14 30 -15zM330 -155q-14 18 -31 18q-5 0 -8 -2q12 -7 12 -19q0 -22 18 -22q4 0 5 4q-11 11 -7 16q11 -7 17 -9q6 0 6 4q-1 2 -12 10zM894 250v-95l12 38v57h-12zM1021 -213v4h-16
v-4q6 0 6 -7v-15l-22 26h-14v-4q6 0 6 -6v-22q0 -7 -6 -7v-3h15v3q-3 0 -4 1q-2 2 -2 6v20l27 -31h4v32q0 6 6 7zM1329 -218l38 9l-3 13l-3 -1q0 -3 -4 -9q-3 -5 -10 -3q-3 0 -3 4l-3 11h9q0 -2 1 -3h3l-3 14l-4 -1q2 -4 0 -4q0 -2 -3 -2l-3 -1l-4 14l8 2h4q1 0 1 -0.5
t1 -0.5q1 -1 2 -3l1 -1l4 1l-3 10l-35 -8v-3h6l2 -4l5 -24q2 -4 0 -4q0 -2 -4 -3v-3zM1427 -192l36 11l-3 12l-4 -1q0 -4 -1 -6q0 -4 -7 -6l-9 -3l11 41l-1 3l-33 -11l3 -11l3 1q0 6 1 7q1 0 2 1t2.5 2t3.5 1l6 2l-11 -41zM1446 115q11 3 17.5 8t7.5 9.5t0 5.5h-3
q-11 -9 -29 -11.5t-33 3.5q-7 3 -14 8t-12 9l-4 4q-2 0 6.5 -9.5t26 -18.5t37.5 -8zM1190 -241l22 2v4q-6 0 -9 6l-17 31l-4 -1l-9 -34q-2 -7 -5 -7v-3l14 1v3q-6 0 -5 6l1 2l13 1l1 -3q3 -4 -2 -5v-3zM748 -231l1 4q-2 0 -3 1q-2 2 -2 6l-8 35h-4l-18 -30q-6 -6 -7 -5
l-1 -4l14 -2v4l-3 1q-1 1 0 2v3l2 2l13 -3v-7h-4v-3zM909 -209l1 2l-35 3l-2 -11h3q2 4 5 5q1 1 8 1h7l-26 -34v-3l37 -2l2 12h-3q0 -1 -2 -3q-1 -1 -1 -2l-4 -3h-6l-10 1zM1490 -171l19 7l-1 4q-1 -1 -3 -1q-3 1 -5 5l-24 25l-3 -1l-1 -35q0 -5 -4 -9l1 -3l13 6l-1 3
q-2 -1 -3 -1l-2 1v6l12 4l3 -4q1 -1 0 -2q0 -1 -3 -1zM1311 -189v4q0 1 1 2l2 1v3l-15 -3v-3q7 2 8 -5l2 -13q2 -7 1 -9q0 -1 -2 -5l-6 -3q-5 -2 -6 1q-4 1 -5 4q-1 1 -1 3q-1 2 -1 3l-3 16v5h2q1 1 2 1v4l-21 -5v-3h4q2 0 2 -3l3 -17l3 -7q0 -1 3 -4q1 -1 7 -3h8q6 2 9 4
l5 5q1 1 1 6v7zM864 -245l1 3q-2 0 -3 1l-3 6l-10 34h-3l-16 -31q-3 -6 -8 -6v-4h14v3h-3q-1 1 -1 3q0 1 1 3l1 2l13 -2l1 -3q1 -1 1 -3q-1 0 -1 -1h-4v-4zM1275 634q1 1 -1 4.5t-8.5 7t-17.5 3.5q-42 -3 -67 -42q1 0 5 4l10.5 10t12.5 9q36 18 62 3q3 0 4 1zM1262 -200l4 1
l-3 11l-34 -6v-3h1q4 1 6 -4l3 -25q2 -2 0 -4q-1 -1 -4 -2l1 -3l22 4l-1 3q-6 -2 -6 4l-2 12h6q2 -2 2 -5l3 1l-2 14l-3 -1q0 -3 -1 -4q0 -1 -3 -2h-3l-2 15h6q3 2 5 0q1 0 3 -1q0 -1 2 -5zM765 112q-22 44 0 98v-98zM702 -223l3 14h-3q0 -1 -5 -6q-4 -2 -9 -1q-1 0 -2 1
q-2 0 -2 1q-1 0 -1 2v3l5 24q0 3 2 3q0 2 4 0h1l1 3l-22 6l-1 -4q1 0 2 -1q2 0 2 -1q1 -1 1 -4l-6 -24q0 -4 -2 -4q-1 -1 -4 -1l-1 -3zM1126 -247l38 3l-1 14h-3l-3 -8q-2 -2 -8 -4q-7 0 -7 6l-2 24v3q2 2 4 2h1v4l-23 -3v-3h6q0 -3 1 -4l2 -25q0 -5 -5 -6v-3zM1616 509
q0 1 2 2q3 3 2 4q-3 0 -5.5 -1.5l-5 -3t-4.5 -2.5q-15 -3 -17 -3q-9 -2 -23 1.5t-20 1.5q14 -21 42 -13q17 4 29 14zM1368 514q0 3 -2 2q-18 -18 -36 -19q-10 -1 -40 8q0 -2 7 -7t19 -9t23 -1q16 5 29 26zM943 -212q7 0 8 -4q3 -4 3 -14q-2 -11 -4 -14q-3 -3 -8 -3t-8 5
q-2 6 -1 14q0 10 3 13q2 3 7 3zM1072 -212q6 0 8 -3q3 -5 3 -14q0 -11 -2 -13q-2 -5 -7 -5t-9 4q-3 9 -3 14q0 11 2 13q3 4 8 4zM574 -150q6 -3 7 -7q1 -3 -2 -13q-4 -11 -7 -12q-3 -4 -8 -2q-6 2 -6 7q-2 5 1 13q3 9 6 12q4 4 9 2zM1048 606q9 10 14.5 21t6 17t-0.5 6
q-2 -2 -8.5 -6.5t-10.5 -9t-5 -10.5q-3 -15 4 -18zM1044 643q10 3 21 24q9 19 -4 18q-1 -4 -8 -13.5t-9.5 -15t0.5 -13.5zM1230 198q18 -44 0 -86v86zM1065 993q0 -1 4 -2.5t9.5 -5t8.5 -7.5q18 -22 7 -48q0 -2 1 -2q1 -1 4 1t5.5 8.5t2.5 15.5q-1 7 -4 12.5t-7 9.5
t-8.5 7.5t-8.5 5.5t-7 3t-5 1zM813 475h-45l22 15l11.5 -7.5zM1204 490l1 -1q2 -2 8.5 -6.5l10.5 -7.5h-40q15 10 19 14zM1473 697q-4 -6 0.5 -13.5t12 -8.5t15.5 8q-10 -3 -15.5 1.5t-8 9.5t-4.5 3zM462 643q12 -16 25 -4q8 8 3 16q-2 3 -4.5 -2t-8.5 -9.5t-15 -0.5z
M1412 707q-4 5 -10 1.5t-8.5 -9.5t1.5 -10q1 5 8 10t9 8zM621 -164l7 -4q3 -3 1 -6q-2 -7 -6 -7q-1 0 -7 2l4 15h1zM796 -200q3 0 7 -2q1 -1 1 -7q0 -2 -2 -4q-1 -2 -3 -2h-7l2 16q1 -1 2 -1zM1381 -166q10 4 13 -4v-6q0 -1 -2 -3l-6 -2zM525 -134q2 0 6 -2l1 -2v-2
q1 -1 -1 -5q0 -4 -3 -4q-1 -3 -7 0h-2zM947 -195l-5 -10h3l14 9zM1476 -161v14l9 -10zM836 -228l6 12l4 -13zM721 -211l7 11l3 -12zM1179 -227l3 12l7 -11z" />
    <glyph glyph-name="acute.cp" horiz-adv-x="600" 
d="M445 726l-278 -14l-13 90l293 40z" />
    <glyph glyph-name="Q.alt" horiz-adv-x="677" 
d="M637 343q0 -70 -28.5 -142t-79.5 -125q56 8 131 8v-150q-149 -4 -299 57q-4 0 -12 -0.5t-12 -0.5q-297 0 -297 353q0 342 297 342q300 0 300 -342zM469 344q0 97 -29 151t-103 54q-73 0 -101.5 -54t-28.5 -151q0 -106 29 -163.5t101 -57.5t102 58t30 163z" />
    <glyph glyph-name="g.alt" horiz-adv-x="552" 
d="M351 136v222q-28 25 -73 25q-85 0 -85 -137q0 -79 22 -110t61 -31q44 0 75 31zM382 443l22 47h103v-475q0 -98 -67 -159.5t-184 -61.5q-118 0 -201 53l35 121q72 -51 155 -51q52 0 79.5 25t27.5 71l3 36q-15 -22 -47.5 -40.5t-72.5 -18.5q-88 0 -144 64t-56 191
q0 120 61.5 187.5t151.5 67.5q40 0 76 -16t58 -41z" />
    <glyph glyph-name="c_h" horiz-adv-x="950" 
d="M600 363v-26q0 -78 -16.5 -139t-44 -99.5t-66 -63.5t-78 -35t-84.5 -10q-120 0 -193 66.5t-73 189.5q0 118 63.5 186t174.5 68q61 0 114 -19l-6 -115q-42 16 -88 16q-96 0 -96 -136q0 -68 31.5 -102t79.5 -34q124 0 124 209v371h158v-167q0 -43 -15 -88q51 65 136 65
q106 0 145 -49t39 -151v-300h-160v289q0 91 -76 91q-33 0 -69 -17z" />
    <glyph glyph-name="star.alt" horiz-adv-x="828" 
d="M550 262l47 -208l-183 109l-183 -109l46 208l-159 140l211 20l85 195l84 -195l212 -20zM467 241l-14 60l47 40l-62 5l-24 57l-24 -57l-62 -5l46 -40l-13 -60l53 32z" />
    </font>
</defs>
</svg>
